%TF.GenerationSoftware,KiCad,Pcbnew,5.1.6*%
%TF.CreationDate,2021-05-06T17:12:19+02:00*%
%TF.ProjectId,nhci,6e686369-2e6b-4696-9361-645f70636258,rev?*%
%TF.SameCoordinates,Original*%
%TF.FileFunction,Legend,Top*%
%TF.FilePolarity,Positive*%
%FSLAX46Y46*%
G04 Gerber Fmt 4.6, Leading zero omitted, Abs format (unit mm)*
G04 Created by KiCad (PCBNEW 5.1.6) date 2021-05-06 17:12:19*
%MOMM*%
%LPD*%
G01*
G04 APERTURE LIST*
%ADD10C,0.120000*%
%ADD11C,0.200000*%
%ADD12C,0.100000*%
%ADD13C,0.250000*%
%ADD14C,0.150000*%
%ADD15C,0.254000*%
G04 APERTURE END LIST*
D10*
%TO.C,D1*%
X76325000Y-127056000D02*
X74865000Y-127056000D01*
X76325000Y-123896000D02*
X74165000Y-123896000D01*
X76325000Y-123896000D02*
X76325000Y-124826000D01*
X76325000Y-127056000D02*
X76325000Y-126126000D01*
%TO.C,D2*%
X54166500Y-177773000D02*
X56451500Y-177773000D01*
X54166500Y-176303000D02*
X54166500Y-177773000D01*
X56451500Y-176303000D02*
X54166500Y-176303000D01*
D11*
%TO.C,J1*%
X50517000Y-127000000D02*
G75*
G03*
X50517000Y-127000000I-50000J0D01*
G01*
D12*
X49277000Y-132930000D02*
X46227000Y-132930000D01*
X46227000Y-126150000D02*
X49277000Y-126150000D01*
D10*
%TO.C,JP1*%
X87568000Y-103108000D02*
X86168000Y-103108000D01*
X85468000Y-102408000D02*
X85468000Y-101808000D01*
X86168000Y-101108000D02*
X87568000Y-101108000D01*
X88268000Y-101808000D02*
X88268000Y-102408000D01*
X88268000Y-102408000D02*
G75*
G02*
X87568000Y-103108000I-700000J0D01*
G01*
X87568000Y-101108000D02*
G75*
G02*
X88268000Y-101808000I0J-700000D01*
G01*
X85468000Y-101808000D02*
G75*
G02*
X86168000Y-101108000I700000J0D01*
G01*
X86168000Y-103108000D02*
G75*
G02*
X85468000Y-102408000I0J700000D01*
G01*
%TO.C,U4*%
X76120000Y-140922000D02*
X72670000Y-140922000D01*
X76120000Y-140922000D02*
X78070000Y-140922000D01*
X76120000Y-146042000D02*
X74170000Y-146042000D01*
X76120000Y-146042000D02*
X78070000Y-146042000D01*
%TO.C,C29*%
X76116922Y-149808000D02*
X76634078Y-149808000D01*
X76116922Y-148388000D02*
X76634078Y-148388000D01*
%TO.C,C27*%
X69171078Y-136704000D02*
X68653922Y-136704000D01*
X69171078Y-138124000D02*
X68653922Y-138124000D01*
D11*
%TO.C,IC7*%
X79812000Y-131158000D02*
X79812000Y-129708000D01*
D10*
%TO.C,C24*%
X84244922Y-135076000D02*
X84762078Y-135076000D01*
X84244922Y-133656000D02*
X84762078Y-133656000D01*
%TO.C,C23*%
X79321922Y-135330000D02*
X79839078Y-135330000D01*
X79321922Y-133910000D02*
X79839078Y-133910000D01*
%TO.C,C22*%
X83893922Y-138124000D02*
X84411078Y-138124000D01*
X83893922Y-136704000D02*
X84411078Y-136704000D01*
%TO.C,C21*%
X80337922Y-137362000D02*
X80855078Y-137362000D01*
X80337922Y-135942000D02*
X80855078Y-135942000D01*
D11*
%TO.C,Y1*%
X53888000Y-133612000D02*
X53888000Y-136812000D01*
X58888000Y-133612000D02*
X58888000Y-136812000D01*
D12*
X54988000Y-137312000D02*
X54988000Y-137312000D01*
X54988000Y-137212000D02*
X54988000Y-137212000D01*
X54988000Y-137212000D02*
G75*
G02*
X54988000Y-137312000I0J-50000D01*
G01*
X54988000Y-137312000D02*
G75*
G02*
X54988000Y-137212000I0J50000D01*
G01*
D13*
%TO.C,IC6*%
X69427000Y-139785000D02*
G75*
G03*
X69427000Y-139785000I-125000J0D01*
G01*
D11*
X64652000Y-141360000D02*
X68952000Y-141360000D01*
X64652000Y-145660000D02*
X64652000Y-141360000D01*
X68952000Y-145660000D02*
X64652000Y-145660000D01*
X68952000Y-141360000D02*
X68952000Y-145660000D01*
D14*
%TO.C,SW1*%
X78386000Y-177846000D02*
X72386000Y-177846000D01*
%TO.C,U3*%
X55512000Y-128708000D02*
G75*
G03*
X55512000Y-128708000I-200000J0D01*
G01*
X52912000Y-125508000D02*
X55912000Y-125508000D01*
X52912000Y-129508000D02*
X52912000Y-125508000D01*
X55912000Y-129508000D02*
X52912000Y-129508000D01*
X55912000Y-125508000D02*
X55912000Y-129508000D01*
D10*
%TO.C,U2*%
X58178000Y-131560000D02*
X72378000Y-131560000D01*
X58178000Y-117360000D02*
X58178000Y-131560000D01*
X72378000Y-117360000D02*
X58178000Y-117360000D01*
X72378000Y-131560000D02*
X72378000Y-117360000D01*
X72578000Y-117160000D02*
X71878000Y-117160000D01*
X72578000Y-117860000D02*
X72578000Y-117160000D01*
D12*
%TO.C,IC5*%
X85046000Y-110716000D02*
X84896000Y-110716000D01*
X85046000Y-110166000D02*
X85046000Y-110716000D01*
X85046000Y-107216000D02*
X84896000Y-107216000D01*
X85046000Y-107766000D02*
X85046000Y-107216000D01*
X79546000Y-107216000D02*
X79696000Y-107216000D01*
X79546000Y-107766000D02*
X79546000Y-107216000D01*
X79546000Y-110716000D02*
X79696000Y-110716000D01*
X79546000Y-110166000D02*
X79546000Y-110716000D01*
D11*
X78896000Y-109616000D02*
X78896000Y-109616000D01*
X78896000Y-109816000D02*
X78896000Y-109816000D01*
X78896000Y-109816000D02*
G75*
G02*
X78896000Y-109616000I0J100000D01*
G01*
X78896000Y-109616000D02*
G75*
G02*
X78896000Y-109816000I0J-100000D01*
G01*
D12*
%TO.C,IC4*%
X76918000Y-110716000D02*
X76768000Y-110716000D01*
X76918000Y-110166000D02*
X76918000Y-110716000D01*
X76918000Y-107216000D02*
X76768000Y-107216000D01*
X76918000Y-107766000D02*
X76918000Y-107216000D01*
X71418000Y-107216000D02*
X71568000Y-107216000D01*
X71418000Y-107766000D02*
X71418000Y-107216000D01*
X71418000Y-110716000D02*
X71568000Y-110716000D01*
X71418000Y-110166000D02*
X71418000Y-110716000D01*
D11*
X70768000Y-109616000D02*
X70768000Y-109616000D01*
X70768000Y-109816000D02*
X70768000Y-109816000D01*
X70768000Y-109816000D02*
G75*
G02*
X70768000Y-109616000I0J100000D01*
G01*
X70768000Y-109616000D02*
G75*
G02*
X70768000Y-109816000I0J-100000D01*
G01*
D12*
%TO.C,IC3*%
X68790000Y-110716000D02*
X68640000Y-110716000D01*
X68790000Y-110166000D02*
X68790000Y-110716000D01*
X68790000Y-107216000D02*
X68640000Y-107216000D01*
X68790000Y-107766000D02*
X68790000Y-107216000D01*
X63290000Y-107216000D02*
X63440000Y-107216000D01*
X63290000Y-107766000D02*
X63290000Y-107216000D01*
X63290000Y-110716000D02*
X63440000Y-110716000D01*
X63290000Y-110166000D02*
X63290000Y-110716000D01*
D11*
X62640000Y-109616000D02*
X62640000Y-109616000D01*
X62640000Y-109816000D02*
X62640000Y-109816000D01*
X62640000Y-109816000D02*
G75*
G02*
X62640000Y-109616000I0J100000D01*
G01*
X62640000Y-109616000D02*
G75*
G02*
X62640000Y-109816000I0J-100000D01*
G01*
D12*
%TO.C,IC2*%
X60662000Y-110716000D02*
X60512000Y-110716000D01*
X60662000Y-110166000D02*
X60662000Y-110716000D01*
X60662000Y-107216000D02*
X60512000Y-107216000D01*
X60662000Y-107766000D02*
X60662000Y-107216000D01*
X55162000Y-107216000D02*
X55312000Y-107216000D01*
X55162000Y-107766000D02*
X55162000Y-107216000D01*
X55162000Y-110716000D02*
X55312000Y-110716000D01*
X55162000Y-110166000D02*
X55162000Y-110716000D01*
D11*
X54512000Y-109616000D02*
X54512000Y-109616000D01*
X54512000Y-109816000D02*
X54512000Y-109816000D01*
X54512000Y-109816000D02*
G75*
G02*
X54512000Y-109616000I0J100000D01*
G01*
X54512000Y-109616000D02*
G75*
G02*
X54512000Y-109816000I0J-100000D01*
G01*
D12*
%TO.C,IC1*%
X52534000Y-110716000D02*
X52384000Y-110716000D01*
X52534000Y-110166000D02*
X52534000Y-110716000D01*
X52534000Y-107216000D02*
X52384000Y-107216000D01*
X52534000Y-107766000D02*
X52534000Y-107216000D01*
X47034000Y-107216000D02*
X47184000Y-107216000D01*
X47034000Y-107766000D02*
X47034000Y-107216000D01*
X47034000Y-110716000D02*
X47184000Y-110716000D01*
X47034000Y-110166000D02*
X47034000Y-110716000D01*
D11*
X46384000Y-109616000D02*
X46384000Y-109616000D01*
X46384000Y-109816000D02*
X46384000Y-109816000D01*
X46384000Y-109816000D02*
G75*
G02*
X46384000Y-109616000I0J100000D01*
G01*
X46384000Y-109616000D02*
G75*
G02*
X46384000Y-109816000I0J-100000D01*
G01*
%TO.C,D1*%
D14*
X74826904Y-123428380D02*
X74826904Y-122428380D01*
X75065000Y-122428380D01*
X75207857Y-122476000D01*
X75303095Y-122571238D01*
X75350714Y-122666476D01*
X75398333Y-122856952D01*
X75398333Y-122999809D01*
X75350714Y-123190285D01*
X75303095Y-123285523D01*
X75207857Y-123380761D01*
X75065000Y-123428380D01*
X74826904Y-123428380D01*
X76350714Y-123428380D02*
X75779285Y-123428380D01*
X76065000Y-123428380D02*
X76065000Y-122428380D01*
X75969761Y-122571238D01*
X75874523Y-122666476D01*
X75779285Y-122714095D01*
%TO.C,R24*%
X45839142Y-113382380D02*
X45505809Y-112906190D01*
X45267714Y-113382380D02*
X45267714Y-112382380D01*
X45648666Y-112382380D01*
X45743904Y-112430000D01*
X45791523Y-112477619D01*
X45839142Y-112572857D01*
X45839142Y-112715714D01*
X45791523Y-112810952D01*
X45743904Y-112858571D01*
X45648666Y-112906190D01*
X45267714Y-112906190D01*
X46220095Y-112477619D02*
X46267714Y-112430000D01*
X46362952Y-112382380D01*
X46601047Y-112382380D01*
X46696285Y-112430000D01*
X46743904Y-112477619D01*
X46791523Y-112572857D01*
X46791523Y-112668095D01*
X46743904Y-112810952D01*
X46172476Y-113382380D01*
X46791523Y-113382380D01*
X47648666Y-112715714D02*
X47648666Y-113382380D01*
X47410571Y-112334761D02*
X47172476Y-113049047D01*
X47791523Y-113049047D01*
%TO.C,U1*%
X65024095Y-95234380D02*
X65024095Y-96043904D01*
X65071714Y-96139142D01*
X65119333Y-96186761D01*
X65214571Y-96234380D01*
X65405047Y-96234380D01*
X65500285Y-96186761D01*
X65547904Y-96139142D01*
X65595523Y-96043904D01*
X65595523Y-95234380D01*
X66595523Y-96234380D02*
X66024095Y-96234380D01*
X66309809Y-96234380D02*
X66309809Y-95234380D01*
X66214571Y-95377238D01*
X66119333Y-95472476D01*
X66024095Y-95520095D01*
%TO.C,D2*%
X54913404Y-176060380D02*
X54913404Y-175060380D01*
X55151500Y-175060380D01*
X55294357Y-175108000D01*
X55389595Y-175203238D01*
X55437214Y-175298476D01*
X55484833Y-175488952D01*
X55484833Y-175631809D01*
X55437214Y-175822285D01*
X55389595Y-175917523D01*
X55294357Y-176012761D01*
X55151500Y-176060380D01*
X54913404Y-176060380D01*
X55865785Y-175155619D02*
X55913404Y-175108000D01*
X56008642Y-175060380D01*
X56246738Y-175060380D01*
X56341976Y-175108000D01*
X56389595Y-175155619D01*
X56437214Y-175250857D01*
X56437214Y-175346095D01*
X56389595Y-175488952D01*
X55818166Y-176060380D01*
X56437214Y-176060380D01*
%TO.C,R23*%
X59788380Y-176156857D02*
X59312190Y-176490190D01*
X59788380Y-176728285D02*
X58788380Y-176728285D01*
X58788380Y-176347333D01*
X58836000Y-176252095D01*
X58883619Y-176204476D01*
X58978857Y-176156857D01*
X59121714Y-176156857D01*
X59216952Y-176204476D01*
X59264571Y-176252095D01*
X59312190Y-176347333D01*
X59312190Y-176728285D01*
X58883619Y-175775904D02*
X58836000Y-175728285D01*
X58788380Y-175633047D01*
X58788380Y-175394952D01*
X58836000Y-175299714D01*
X58883619Y-175252095D01*
X58978857Y-175204476D01*
X59074095Y-175204476D01*
X59216952Y-175252095D01*
X59788380Y-175823523D01*
X59788380Y-175204476D01*
X58788380Y-174871142D02*
X58788380Y-174252095D01*
X59169333Y-174585428D01*
X59169333Y-174442571D01*
X59216952Y-174347333D01*
X59264571Y-174299714D01*
X59359809Y-174252095D01*
X59597904Y-174252095D01*
X59693142Y-174299714D01*
X59740761Y-174347333D01*
X59788380Y-174442571D01*
X59788380Y-174728285D01*
X59740761Y-174823523D01*
X59693142Y-174871142D01*
%TO.C,R22*%
X55468142Y-131108380D02*
X55134809Y-130632190D01*
X54896714Y-131108380D02*
X54896714Y-130108380D01*
X55277666Y-130108380D01*
X55372904Y-130156000D01*
X55420523Y-130203619D01*
X55468142Y-130298857D01*
X55468142Y-130441714D01*
X55420523Y-130536952D01*
X55372904Y-130584571D01*
X55277666Y-130632190D01*
X54896714Y-130632190D01*
X55849095Y-130203619D02*
X55896714Y-130156000D01*
X55991952Y-130108380D01*
X56230047Y-130108380D01*
X56325285Y-130156000D01*
X56372904Y-130203619D01*
X56420523Y-130298857D01*
X56420523Y-130394095D01*
X56372904Y-130536952D01*
X55801476Y-131108380D01*
X56420523Y-131108380D01*
X56801476Y-130203619D02*
X56849095Y-130156000D01*
X56944333Y-130108380D01*
X57182428Y-130108380D01*
X57277666Y-130156000D01*
X57325285Y-130203619D01*
X57372904Y-130298857D01*
X57372904Y-130394095D01*
X57325285Y-130536952D01*
X56753857Y-131108380D01*
X57372904Y-131108380D01*
%TO.C,R21*%
X55468142Y-130092380D02*
X55134809Y-129616190D01*
X54896714Y-130092380D02*
X54896714Y-129092380D01*
X55277666Y-129092380D01*
X55372904Y-129140000D01*
X55420523Y-129187619D01*
X55468142Y-129282857D01*
X55468142Y-129425714D01*
X55420523Y-129520952D01*
X55372904Y-129568571D01*
X55277666Y-129616190D01*
X54896714Y-129616190D01*
X55849095Y-129187619D02*
X55896714Y-129140000D01*
X55991952Y-129092380D01*
X56230047Y-129092380D01*
X56325285Y-129140000D01*
X56372904Y-129187619D01*
X56420523Y-129282857D01*
X56420523Y-129378095D01*
X56372904Y-129520952D01*
X55801476Y-130092380D01*
X56420523Y-130092380D01*
X57372904Y-130092380D02*
X56801476Y-130092380D01*
X57087190Y-130092380D02*
X57087190Y-129092380D01*
X56991952Y-129235238D01*
X56896714Y-129330476D01*
X56801476Y-129378095D01*
%TO.C,J1*%
D15*
X47056523Y-129963333D02*
X47963666Y-129963333D01*
X48145095Y-130023809D01*
X48266047Y-130144761D01*
X48326523Y-130326190D01*
X48326523Y-130447142D01*
X48326523Y-128693333D02*
X48326523Y-129419047D01*
X48326523Y-129056190D02*
X47056523Y-129056190D01*
X47237952Y-129177142D01*
X47358904Y-129298095D01*
X47419380Y-129419047D01*
%TO.C,JP1*%
D14*
X86034666Y-103360380D02*
X86034666Y-104074666D01*
X85987047Y-104217523D01*
X85891809Y-104312761D01*
X85748952Y-104360380D01*
X85653714Y-104360380D01*
X86510857Y-104360380D02*
X86510857Y-103360380D01*
X86891809Y-103360380D01*
X86987047Y-103408000D01*
X87034666Y-103455619D01*
X87082285Y-103550857D01*
X87082285Y-103693714D01*
X87034666Y-103788952D01*
X86987047Y-103836571D01*
X86891809Y-103884190D01*
X86510857Y-103884190D01*
X88034666Y-104360380D02*
X87463238Y-104360380D01*
X87748952Y-104360380D02*
X87748952Y-103360380D01*
X87653714Y-103503238D01*
X87558476Y-103598476D01*
X87463238Y-103646095D01*
%TO.C,U4*%
X75358095Y-139534380D02*
X75358095Y-140343904D01*
X75405714Y-140439142D01*
X75453333Y-140486761D01*
X75548571Y-140534380D01*
X75739047Y-140534380D01*
X75834285Y-140486761D01*
X75881904Y-140439142D01*
X75929523Y-140343904D01*
X75929523Y-139534380D01*
X76834285Y-139867714D02*
X76834285Y-140534380D01*
X76596190Y-139486761D02*
X76358095Y-140201047D01*
X76977142Y-140201047D01*
%TO.C,R20*%
X65576380Y-149486857D02*
X65100190Y-149820190D01*
X65576380Y-150058285D02*
X64576380Y-150058285D01*
X64576380Y-149677333D01*
X64624000Y-149582095D01*
X64671619Y-149534476D01*
X64766857Y-149486857D01*
X64909714Y-149486857D01*
X65004952Y-149534476D01*
X65052571Y-149582095D01*
X65100190Y-149677333D01*
X65100190Y-150058285D01*
X64671619Y-149105904D02*
X64624000Y-149058285D01*
X64576380Y-148963047D01*
X64576380Y-148724952D01*
X64624000Y-148629714D01*
X64671619Y-148582095D01*
X64766857Y-148534476D01*
X64862095Y-148534476D01*
X65004952Y-148582095D01*
X65576380Y-149153523D01*
X65576380Y-148534476D01*
X64576380Y-147915428D02*
X64576380Y-147820190D01*
X64624000Y-147724952D01*
X64671619Y-147677333D01*
X64766857Y-147629714D01*
X64957333Y-147582095D01*
X65195428Y-147582095D01*
X65385904Y-147629714D01*
X65481142Y-147677333D01*
X65528761Y-147724952D01*
X65576380Y-147820190D01*
X65576380Y-147915428D01*
X65528761Y-148010666D01*
X65481142Y-148058285D01*
X65385904Y-148105904D01*
X65195428Y-148153523D01*
X64957333Y-148153523D01*
X64766857Y-148105904D01*
X64671619Y-148058285D01*
X64624000Y-148010666D01*
X64576380Y-147915428D01*
%TO.C,R19*%
X66592380Y-149486857D02*
X66116190Y-149820190D01*
X66592380Y-150058285D02*
X65592380Y-150058285D01*
X65592380Y-149677333D01*
X65640000Y-149582095D01*
X65687619Y-149534476D01*
X65782857Y-149486857D01*
X65925714Y-149486857D01*
X66020952Y-149534476D01*
X66068571Y-149582095D01*
X66116190Y-149677333D01*
X66116190Y-150058285D01*
X66592380Y-148534476D02*
X66592380Y-149105904D01*
X66592380Y-148820190D02*
X65592380Y-148820190D01*
X65735238Y-148915428D01*
X65830476Y-149010666D01*
X65878095Y-149105904D01*
X66592380Y-148058285D02*
X66592380Y-147867809D01*
X66544761Y-147772571D01*
X66497142Y-147724952D01*
X66354285Y-147629714D01*
X66163809Y-147582095D01*
X65782857Y-147582095D01*
X65687619Y-147629714D01*
X65640000Y-147677333D01*
X65592380Y-147772571D01*
X65592380Y-147963047D01*
X65640000Y-148058285D01*
X65687619Y-148105904D01*
X65782857Y-148153523D01*
X66020952Y-148153523D01*
X66116190Y-148105904D01*
X66163809Y-148058285D01*
X66211428Y-147963047D01*
X66211428Y-147772571D01*
X66163809Y-147677333D01*
X66116190Y-147629714D01*
X66020952Y-147582095D01*
%TO.C,C29*%
X75732642Y-147805142D02*
X75685023Y-147852761D01*
X75542166Y-147900380D01*
X75446928Y-147900380D01*
X75304071Y-147852761D01*
X75208833Y-147757523D01*
X75161214Y-147662285D01*
X75113595Y-147471809D01*
X75113595Y-147328952D01*
X75161214Y-147138476D01*
X75208833Y-147043238D01*
X75304071Y-146948000D01*
X75446928Y-146900380D01*
X75542166Y-146900380D01*
X75685023Y-146948000D01*
X75732642Y-146995619D01*
X76113595Y-146995619D02*
X76161214Y-146948000D01*
X76256452Y-146900380D01*
X76494547Y-146900380D01*
X76589785Y-146948000D01*
X76637404Y-146995619D01*
X76685023Y-147090857D01*
X76685023Y-147186095D01*
X76637404Y-147328952D01*
X76065976Y-147900380D01*
X76685023Y-147900380D01*
X77161214Y-147900380D02*
X77351690Y-147900380D01*
X77446928Y-147852761D01*
X77494547Y-147805142D01*
X77589785Y-147662285D01*
X77637404Y-147471809D01*
X77637404Y-147090857D01*
X77589785Y-146995619D01*
X77542166Y-146948000D01*
X77446928Y-146900380D01*
X77256452Y-146900380D01*
X77161214Y-146948000D01*
X77113595Y-146995619D01*
X77065976Y-147090857D01*
X77065976Y-147328952D01*
X77113595Y-147424190D01*
X77161214Y-147471809D01*
X77256452Y-147519428D01*
X77446928Y-147519428D01*
X77542166Y-147471809D01*
X77589785Y-147424190D01*
X77637404Y-147328952D01*
%TO.C,C28*%
X69853142Y-149486857D02*
X69900761Y-149534476D01*
X69948380Y-149677333D01*
X69948380Y-149772571D01*
X69900761Y-149915428D01*
X69805523Y-150010666D01*
X69710285Y-150058285D01*
X69519809Y-150105904D01*
X69376952Y-150105904D01*
X69186476Y-150058285D01*
X69091238Y-150010666D01*
X68996000Y-149915428D01*
X68948380Y-149772571D01*
X68948380Y-149677333D01*
X68996000Y-149534476D01*
X69043619Y-149486857D01*
X69043619Y-149105904D02*
X68996000Y-149058285D01*
X68948380Y-148963047D01*
X68948380Y-148724952D01*
X68996000Y-148629714D01*
X69043619Y-148582095D01*
X69138857Y-148534476D01*
X69234095Y-148534476D01*
X69376952Y-148582095D01*
X69948380Y-149153523D01*
X69948380Y-148534476D01*
X69376952Y-147963047D02*
X69329333Y-148058285D01*
X69281714Y-148105904D01*
X69186476Y-148153523D01*
X69138857Y-148153523D01*
X69043619Y-148105904D01*
X68996000Y-148058285D01*
X68948380Y-147963047D01*
X68948380Y-147772571D01*
X68996000Y-147677333D01*
X69043619Y-147629714D01*
X69138857Y-147582095D01*
X69186476Y-147582095D01*
X69281714Y-147629714D01*
X69329333Y-147677333D01*
X69376952Y-147772571D01*
X69376952Y-147963047D01*
X69424571Y-148058285D01*
X69472190Y-148105904D01*
X69567428Y-148153523D01*
X69757904Y-148153523D01*
X69853142Y-148105904D01*
X69900761Y-148058285D01*
X69948380Y-147963047D01*
X69948380Y-147772571D01*
X69900761Y-147677333D01*
X69853142Y-147629714D01*
X69757904Y-147582095D01*
X69567428Y-147582095D01*
X69472190Y-147629714D01*
X69424571Y-147677333D01*
X69376952Y-147772571D01*
%TO.C,C27*%
X68269642Y-139421142D02*
X68222023Y-139468761D01*
X68079166Y-139516380D01*
X67983928Y-139516380D01*
X67841071Y-139468761D01*
X67745833Y-139373523D01*
X67698214Y-139278285D01*
X67650595Y-139087809D01*
X67650595Y-138944952D01*
X67698214Y-138754476D01*
X67745833Y-138659238D01*
X67841071Y-138564000D01*
X67983928Y-138516380D01*
X68079166Y-138516380D01*
X68222023Y-138564000D01*
X68269642Y-138611619D01*
X68650595Y-138611619D02*
X68698214Y-138564000D01*
X68793452Y-138516380D01*
X69031547Y-138516380D01*
X69126785Y-138564000D01*
X69174404Y-138611619D01*
X69222023Y-138706857D01*
X69222023Y-138802095D01*
X69174404Y-138944952D01*
X68602976Y-139516380D01*
X69222023Y-139516380D01*
X69555357Y-138516380D02*
X70222023Y-138516380D01*
X69793452Y-139516380D01*
%TO.C,R18*%
X86966380Y-123093857D02*
X86490190Y-123427190D01*
X86966380Y-123665285D02*
X85966380Y-123665285D01*
X85966380Y-123284333D01*
X86014000Y-123189095D01*
X86061619Y-123141476D01*
X86156857Y-123093857D01*
X86299714Y-123093857D01*
X86394952Y-123141476D01*
X86442571Y-123189095D01*
X86490190Y-123284333D01*
X86490190Y-123665285D01*
X86966380Y-122141476D02*
X86966380Y-122712904D01*
X86966380Y-122427190D02*
X85966380Y-122427190D01*
X86109238Y-122522428D01*
X86204476Y-122617666D01*
X86252095Y-122712904D01*
X86394952Y-121570047D02*
X86347333Y-121665285D01*
X86299714Y-121712904D01*
X86204476Y-121760523D01*
X86156857Y-121760523D01*
X86061619Y-121712904D01*
X86014000Y-121665285D01*
X85966380Y-121570047D01*
X85966380Y-121379571D01*
X86014000Y-121284333D01*
X86061619Y-121236714D01*
X86156857Y-121189095D01*
X86204476Y-121189095D01*
X86299714Y-121236714D01*
X86347333Y-121284333D01*
X86394952Y-121379571D01*
X86394952Y-121570047D01*
X86442571Y-121665285D01*
X86490190Y-121712904D01*
X86585428Y-121760523D01*
X86775904Y-121760523D01*
X86871142Y-121712904D01*
X86918761Y-121665285D01*
X86966380Y-121570047D01*
X86966380Y-121379571D01*
X86918761Y-121284333D01*
X86871142Y-121236714D01*
X86775904Y-121189095D01*
X86585428Y-121189095D01*
X86490190Y-121236714D01*
X86442571Y-121284333D01*
X86394952Y-121379571D01*
%TO.C,R17*%
X82902380Y-123047857D02*
X82426190Y-123381190D01*
X82902380Y-123619285D02*
X81902380Y-123619285D01*
X81902380Y-123238333D01*
X81950000Y-123143095D01*
X81997619Y-123095476D01*
X82092857Y-123047857D01*
X82235714Y-123047857D01*
X82330952Y-123095476D01*
X82378571Y-123143095D01*
X82426190Y-123238333D01*
X82426190Y-123619285D01*
X82902380Y-122095476D02*
X82902380Y-122666904D01*
X82902380Y-122381190D02*
X81902380Y-122381190D01*
X82045238Y-122476428D01*
X82140476Y-122571666D01*
X82188095Y-122666904D01*
X81902380Y-121762142D02*
X81902380Y-121095476D01*
X82902380Y-121524047D01*
%TO.C,R16*%
X80616380Y-132237857D02*
X80140190Y-132571190D01*
X80616380Y-132809285D02*
X79616380Y-132809285D01*
X79616380Y-132428333D01*
X79664000Y-132333095D01*
X79711619Y-132285476D01*
X79806857Y-132237857D01*
X79949714Y-132237857D01*
X80044952Y-132285476D01*
X80092571Y-132333095D01*
X80140190Y-132428333D01*
X80140190Y-132809285D01*
X80616380Y-131285476D02*
X80616380Y-131856904D01*
X80616380Y-131571190D02*
X79616380Y-131571190D01*
X79759238Y-131666428D01*
X79854476Y-131761666D01*
X79902095Y-131856904D01*
X79616380Y-130428333D02*
X79616380Y-130618809D01*
X79664000Y-130714047D01*
X79711619Y-130761666D01*
X79854476Y-130856904D01*
X80044952Y-130904523D01*
X80425904Y-130904523D01*
X80521142Y-130856904D01*
X80568761Y-130809285D01*
X80616380Y-130714047D01*
X80616380Y-130523571D01*
X80568761Y-130428333D01*
X80521142Y-130380714D01*
X80425904Y-130333095D01*
X80187809Y-130333095D01*
X80092571Y-130380714D01*
X80044952Y-130428333D01*
X79997333Y-130523571D01*
X79997333Y-130714047D01*
X80044952Y-130809285D01*
X80092571Y-130856904D01*
X80187809Y-130904523D01*
%TO.C,R15*%
X81632380Y-133253857D02*
X81156190Y-133587190D01*
X81632380Y-133825285D02*
X80632380Y-133825285D01*
X80632380Y-133444333D01*
X80680000Y-133349095D01*
X80727619Y-133301476D01*
X80822857Y-133253857D01*
X80965714Y-133253857D01*
X81060952Y-133301476D01*
X81108571Y-133349095D01*
X81156190Y-133444333D01*
X81156190Y-133825285D01*
X81632380Y-132301476D02*
X81632380Y-132872904D01*
X81632380Y-132587190D02*
X80632380Y-132587190D01*
X80775238Y-132682428D01*
X80870476Y-132777666D01*
X80918095Y-132872904D01*
X80632380Y-131396714D02*
X80632380Y-131872904D01*
X81108571Y-131920523D01*
X81060952Y-131872904D01*
X81013333Y-131777666D01*
X81013333Y-131539571D01*
X81060952Y-131444333D01*
X81108571Y-131396714D01*
X81203809Y-131349095D01*
X81441904Y-131349095D01*
X81537142Y-131396714D01*
X81584761Y-131444333D01*
X81632380Y-131539571D01*
X81632380Y-131777666D01*
X81584761Y-131872904D01*
X81537142Y-131920523D01*
%TO.C,R14*%
X84172380Y-132976857D02*
X83696190Y-133310190D01*
X84172380Y-133548285D02*
X83172380Y-133548285D01*
X83172380Y-133167333D01*
X83220000Y-133072095D01*
X83267619Y-133024476D01*
X83362857Y-132976857D01*
X83505714Y-132976857D01*
X83600952Y-133024476D01*
X83648571Y-133072095D01*
X83696190Y-133167333D01*
X83696190Y-133548285D01*
X84172380Y-132024476D02*
X84172380Y-132595904D01*
X84172380Y-132310190D02*
X83172380Y-132310190D01*
X83315238Y-132405428D01*
X83410476Y-132500666D01*
X83458095Y-132595904D01*
X83505714Y-131167333D02*
X84172380Y-131167333D01*
X83124761Y-131405428D02*
X83839047Y-131643523D01*
X83839047Y-131024476D01*
%TO.C,R13*%
X83431142Y-132124380D02*
X83097809Y-131648190D01*
X82859714Y-132124380D02*
X82859714Y-131124380D01*
X83240666Y-131124380D01*
X83335904Y-131172000D01*
X83383523Y-131219619D01*
X83431142Y-131314857D01*
X83431142Y-131457714D01*
X83383523Y-131552952D01*
X83335904Y-131600571D01*
X83240666Y-131648190D01*
X82859714Y-131648190D01*
X84383523Y-132124380D02*
X83812095Y-132124380D01*
X84097809Y-132124380D02*
X84097809Y-131124380D01*
X84002571Y-131267238D01*
X83907333Y-131362476D01*
X83812095Y-131410095D01*
X84716857Y-131124380D02*
X85335904Y-131124380D01*
X85002571Y-131505333D01*
X85145428Y-131505333D01*
X85240666Y-131552952D01*
X85288285Y-131600571D01*
X85335904Y-131695809D01*
X85335904Y-131933904D01*
X85288285Y-132029142D01*
X85240666Y-132076761D01*
X85145428Y-132124380D01*
X84859714Y-132124380D01*
X84764476Y-132076761D01*
X84716857Y-132029142D01*
%TO.C,R12*%
X84447142Y-137512380D02*
X84113809Y-137036190D01*
X83875714Y-137512380D02*
X83875714Y-136512380D01*
X84256666Y-136512380D01*
X84351904Y-136560000D01*
X84399523Y-136607619D01*
X84447142Y-136702857D01*
X84447142Y-136845714D01*
X84399523Y-136940952D01*
X84351904Y-136988571D01*
X84256666Y-137036190D01*
X83875714Y-137036190D01*
X85399523Y-137512380D02*
X84828095Y-137512380D01*
X85113809Y-137512380D02*
X85113809Y-136512380D01*
X85018571Y-136655238D01*
X84923333Y-136750476D01*
X84828095Y-136798095D01*
X85780476Y-136607619D02*
X85828095Y-136560000D01*
X85923333Y-136512380D01*
X86161428Y-136512380D01*
X86256666Y-136560000D01*
X86304285Y-136607619D01*
X86351904Y-136702857D01*
X86351904Y-136798095D01*
X86304285Y-136940952D01*
X85732857Y-137512380D01*
X86351904Y-137512380D01*
%TO.C,R11*%
X83410380Y-135262857D02*
X82934190Y-135596190D01*
X83410380Y-135834285D02*
X82410380Y-135834285D01*
X82410380Y-135453333D01*
X82458000Y-135358095D01*
X82505619Y-135310476D01*
X82600857Y-135262857D01*
X82743714Y-135262857D01*
X82838952Y-135310476D01*
X82886571Y-135358095D01*
X82934190Y-135453333D01*
X82934190Y-135834285D01*
X83410380Y-134310476D02*
X83410380Y-134881904D01*
X83410380Y-134596190D02*
X82410380Y-134596190D01*
X82553238Y-134691428D01*
X82648476Y-134786666D01*
X82696095Y-134881904D01*
X83410380Y-133358095D02*
X83410380Y-133929523D01*
X83410380Y-133643809D02*
X82410380Y-133643809D01*
X82553238Y-133739047D01*
X82648476Y-133834285D01*
X82696095Y-133929523D01*
%TO.C,IC7*%
D15*
X83886523Y-128747761D02*
X82616523Y-128747761D01*
X83765571Y-127417285D02*
X83826047Y-127477761D01*
X83886523Y-127659190D01*
X83886523Y-127780142D01*
X83826047Y-127961571D01*
X83705095Y-128082523D01*
X83584142Y-128143000D01*
X83342238Y-128203476D01*
X83160809Y-128203476D01*
X82918904Y-128143000D01*
X82797952Y-128082523D01*
X82677000Y-127961571D01*
X82616523Y-127780142D01*
X82616523Y-127659190D01*
X82677000Y-127477761D01*
X82737476Y-127417285D01*
X82616523Y-126993952D02*
X82616523Y-126147285D01*
X83886523Y-126691571D01*
%TO.C,C26*%
D14*
X87125142Y-132976857D02*
X87172761Y-133024476D01*
X87220380Y-133167333D01*
X87220380Y-133262571D01*
X87172761Y-133405428D01*
X87077523Y-133500666D01*
X86982285Y-133548285D01*
X86791809Y-133595904D01*
X86648952Y-133595904D01*
X86458476Y-133548285D01*
X86363238Y-133500666D01*
X86268000Y-133405428D01*
X86220380Y-133262571D01*
X86220380Y-133167333D01*
X86268000Y-133024476D01*
X86315619Y-132976857D01*
X86315619Y-132595904D02*
X86268000Y-132548285D01*
X86220380Y-132453047D01*
X86220380Y-132214952D01*
X86268000Y-132119714D01*
X86315619Y-132072095D01*
X86410857Y-132024476D01*
X86506095Y-132024476D01*
X86648952Y-132072095D01*
X87220380Y-132643523D01*
X87220380Y-132024476D01*
X86220380Y-131167333D02*
X86220380Y-131357809D01*
X86268000Y-131453047D01*
X86315619Y-131500666D01*
X86458476Y-131595904D01*
X86648952Y-131643523D01*
X87029904Y-131643523D01*
X87125142Y-131595904D01*
X87172761Y-131548285D01*
X87220380Y-131453047D01*
X87220380Y-131262571D01*
X87172761Y-131167333D01*
X87125142Y-131119714D01*
X87029904Y-131072095D01*
X86791809Y-131072095D01*
X86696571Y-131119714D01*
X86648952Y-131167333D01*
X86601333Y-131262571D01*
X86601333Y-131453047D01*
X86648952Y-131548285D01*
X86696571Y-131595904D01*
X86791809Y-131643523D01*
%TO.C,C25*%
X82553142Y-133253857D02*
X82600761Y-133301476D01*
X82648380Y-133444333D01*
X82648380Y-133539571D01*
X82600761Y-133682428D01*
X82505523Y-133777666D01*
X82410285Y-133825285D01*
X82219809Y-133872904D01*
X82076952Y-133872904D01*
X81886476Y-133825285D01*
X81791238Y-133777666D01*
X81696000Y-133682428D01*
X81648380Y-133539571D01*
X81648380Y-133444333D01*
X81696000Y-133301476D01*
X81743619Y-133253857D01*
X81743619Y-132872904D02*
X81696000Y-132825285D01*
X81648380Y-132730047D01*
X81648380Y-132491952D01*
X81696000Y-132396714D01*
X81743619Y-132349095D01*
X81838857Y-132301476D01*
X81934095Y-132301476D01*
X82076952Y-132349095D01*
X82648380Y-132920523D01*
X82648380Y-132301476D01*
X81648380Y-131396714D02*
X81648380Y-131872904D01*
X82124571Y-131920523D01*
X82076952Y-131872904D01*
X82029333Y-131777666D01*
X82029333Y-131539571D01*
X82076952Y-131444333D01*
X82124571Y-131396714D01*
X82219809Y-131349095D01*
X82457904Y-131349095D01*
X82553142Y-131396714D01*
X82600761Y-131444333D01*
X82648380Y-131539571D01*
X82648380Y-131777666D01*
X82600761Y-131872904D01*
X82553142Y-131920523D01*
%TO.C,C24*%
X83860642Y-133073142D02*
X83813023Y-133120761D01*
X83670166Y-133168380D01*
X83574928Y-133168380D01*
X83432071Y-133120761D01*
X83336833Y-133025523D01*
X83289214Y-132930285D01*
X83241595Y-132739809D01*
X83241595Y-132596952D01*
X83289214Y-132406476D01*
X83336833Y-132311238D01*
X83432071Y-132216000D01*
X83574928Y-132168380D01*
X83670166Y-132168380D01*
X83813023Y-132216000D01*
X83860642Y-132263619D01*
X84241595Y-132263619D02*
X84289214Y-132216000D01*
X84384452Y-132168380D01*
X84622547Y-132168380D01*
X84717785Y-132216000D01*
X84765404Y-132263619D01*
X84813023Y-132358857D01*
X84813023Y-132454095D01*
X84765404Y-132596952D01*
X84193976Y-133168380D01*
X84813023Y-133168380D01*
X85670166Y-132501714D02*
X85670166Y-133168380D01*
X85432071Y-132120761D02*
X85193976Y-132835047D01*
X85813023Y-132835047D01*
%TO.C,C23*%
X78937642Y-133327142D02*
X78890023Y-133374761D01*
X78747166Y-133422380D01*
X78651928Y-133422380D01*
X78509071Y-133374761D01*
X78413833Y-133279523D01*
X78366214Y-133184285D01*
X78318595Y-132993809D01*
X78318595Y-132850952D01*
X78366214Y-132660476D01*
X78413833Y-132565238D01*
X78509071Y-132470000D01*
X78651928Y-132422380D01*
X78747166Y-132422380D01*
X78890023Y-132470000D01*
X78937642Y-132517619D01*
X79318595Y-132517619D02*
X79366214Y-132470000D01*
X79461452Y-132422380D01*
X79699547Y-132422380D01*
X79794785Y-132470000D01*
X79842404Y-132517619D01*
X79890023Y-132612857D01*
X79890023Y-132708095D01*
X79842404Y-132850952D01*
X79270976Y-133422380D01*
X79890023Y-133422380D01*
X80223357Y-132422380D02*
X80842404Y-132422380D01*
X80509071Y-132803333D01*
X80651928Y-132803333D01*
X80747166Y-132850952D01*
X80794785Y-132898571D01*
X80842404Y-132993809D01*
X80842404Y-133231904D01*
X80794785Y-133327142D01*
X80747166Y-133374761D01*
X80651928Y-133422380D01*
X80366214Y-133422380D01*
X80270976Y-133374761D01*
X80223357Y-133327142D01*
%TO.C,C22*%
X83509642Y-136121142D02*
X83462023Y-136168761D01*
X83319166Y-136216380D01*
X83223928Y-136216380D01*
X83081071Y-136168761D01*
X82985833Y-136073523D01*
X82938214Y-135978285D01*
X82890595Y-135787809D01*
X82890595Y-135644952D01*
X82938214Y-135454476D01*
X82985833Y-135359238D01*
X83081071Y-135264000D01*
X83223928Y-135216380D01*
X83319166Y-135216380D01*
X83462023Y-135264000D01*
X83509642Y-135311619D01*
X83890595Y-135311619D02*
X83938214Y-135264000D01*
X84033452Y-135216380D01*
X84271547Y-135216380D01*
X84366785Y-135264000D01*
X84414404Y-135311619D01*
X84462023Y-135406857D01*
X84462023Y-135502095D01*
X84414404Y-135644952D01*
X83842976Y-136216380D01*
X84462023Y-136216380D01*
X84842976Y-135311619D02*
X84890595Y-135264000D01*
X84985833Y-135216380D01*
X85223928Y-135216380D01*
X85319166Y-135264000D01*
X85366785Y-135311619D01*
X85414404Y-135406857D01*
X85414404Y-135502095D01*
X85366785Y-135644952D01*
X84795357Y-136216380D01*
X85414404Y-136216380D01*
%TO.C,C21*%
X79953642Y-135359142D02*
X79906023Y-135406761D01*
X79763166Y-135454380D01*
X79667928Y-135454380D01*
X79525071Y-135406761D01*
X79429833Y-135311523D01*
X79382214Y-135216285D01*
X79334595Y-135025809D01*
X79334595Y-134882952D01*
X79382214Y-134692476D01*
X79429833Y-134597238D01*
X79525071Y-134502000D01*
X79667928Y-134454380D01*
X79763166Y-134454380D01*
X79906023Y-134502000D01*
X79953642Y-134549619D01*
X80334595Y-134549619D02*
X80382214Y-134502000D01*
X80477452Y-134454380D01*
X80715547Y-134454380D01*
X80810785Y-134502000D01*
X80858404Y-134549619D01*
X80906023Y-134644857D01*
X80906023Y-134740095D01*
X80858404Y-134882952D01*
X80286976Y-135454380D01*
X80906023Y-135454380D01*
X81858404Y-135454380D02*
X81286976Y-135454380D01*
X81572690Y-135454380D02*
X81572690Y-134454380D01*
X81477452Y-134597238D01*
X81382214Y-134692476D01*
X81286976Y-134740095D01*
%TO.C,R10*%
X78836142Y-113382380D02*
X78502809Y-112906190D01*
X78264714Y-113382380D02*
X78264714Y-112382380D01*
X78645666Y-112382380D01*
X78740904Y-112430000D01*
X78788523Y-112477619D01*
X78836142Y-112572857D01*
X78836142Y-112715714D01*
X78788523Y-112810952D01*
X78740904Y-112858571D01*
X78645666Y-112906190D01*
X78264714Y-112906190D01*
X79788523Y-113382380D02*
X79217095Y-113382380D01*
X79502809Y-113382380D02*
X79502809Y-112382380D01*
X79407571Y-112525238D01*
X79312333Y-112620476D01*
X79217095Y-112668095D01*
X80407571Y-112382380D02*
X80502809Y-112382380D01*
X80598047Y-112430000D01*
X80645666Y-112477619D01*
X80693285Y-112572857D01*
X80740904Y-112763333D01*
X80740904Y-113001428D01*
X80693285Y-113191904D01*
X80645666Y-113287142D01*
X80598047Y-113334761D01*
X80502809Y-113382380D01*
X80407571Y-113382380D01*
X80312333Y-113334761D01*
X80264714Y-113287142D01*
X80217095Y-113191904D01*
X80169476Y-113001428D01*
X80169476Y-112763333D01*
X80217095Y-112572857D01*
X80264714Y-112477619D01*
X80312333Y-112430000D01*
X80407571Y-112382380D01*
%TO.C,Y1*%
D15*
X55783238Y-135181761D02*
X55783238Y-135786523D01*
X55359904Y-134516523D02*
X55783238Y-135181761D01*
X56206571Y-134516523D01*
X57295142Y-135786523D02*
X56569428Y-135786523D01*
X56932285Y-135786523D02*
X56932285Y-134516523D01*
X56811333Y-134697952D01*
X56690380Y-134818904D01*
X56569428Y-134879380D01*
%TO.C,IC6*%
X67376523Y-144749761D02*
X66106523Y-144749761D01*
X67255571Y-143419285D02*
X67316047Y-143479761D01*
X67376523Y-143661190D01*
X67376523Y-143782142D01*
X67316047Y-143963571D01*
X67195095Y-144084523D01*
X67074142Y-144145000D01*
X66832238Y-144205476D01*
X66650809Y-144205476D01*
X66408904Y-144145000D01*
X66287952Y-144084523D01*
X66167000Y-143963571D01*
X66106523Y-143782142D01*
X66106523Y-143661190D01*
X66167000Y-143479761D01*
X66227476Y-143419285D01*
X66106523Y-142330714D02*
X66106523Y-142572619D01*
X66167000Y-142693571D01*
X66227476Y-142754047D01*
X66408904Y-142875000D01*
X66650809Y-142935476D01*
X67134619Y-142935476D01*
X67255571Y-142875000D01*
X67316047Y-142814523D01*
X67376523Y-142693571D01*
X67376523Y-142451666D01*
X67316047Y-142330714D01*
X67255571Y-142270238D01*
X67134619Y-142209761D01*
X66832238Y-142209761D01*
X66711285Y-142270238D01*
X66650809Y-142330714D01*
X66590333Y-142451666D01*
X66590333Y-142693571D01*
X66650809Y-142814523D01*
X66711285Y-142875000D01*
X66832238Y-142935476D01*
%TO.C,SW1*%
D14*
X74052666Y-181000761D02*
X74195523Y-181048380D01*
X74433619Y-181048380D01*
X74528857Y-181000761D01*
X74576476Y-180953142D01*
X74624095Y-180857904D01*
X74624095Y-180762666D01*
X74576476Y-180667428D01*
X74528857Y-180619809D01*
X74433619Y-180572190D01*
X74243142Y-180524571D01*
X74147904Y-180476952D01*
X74100285Y-180429333D01*
X74052666Y-180334095D01*
X74052666Y-180238857D01*
X74100285Y-180143619D01*
X74147904Y-180096000D01*
X74243142Y-180048380D01*
X74481238Y-180048380D01*
X74624095Y-180096000D01*
X74957428Y-180048380D02*
X75195523Y-181048380D01*
X75386000Y-180334095D01*
X75576476Y-181048380D01*
X75814571Y-180048380D01*
X76719333Y-181048380D02*
X76147904Y-181048380D01*
X76433619Y-181048380D02*
X76433619Y-180048380D01*
X76338380Y-180191238D01*
X76243142Y-180286476D01*
X76147904Y-180334095D01*
%TO.C,U3*%
X57864380Y-128269904D02*
X58673904Y-128269904D01*
X58769142Y-128222285D01*
X58816761Y-128174666D01*
X58864380Y-128079428D01*
X58864380Y-127888952D01*
X58816761Y-127793714D01*
X58769142Y-127746095D01*
X58673904Y-127698476D01*
X57864380Y-127698476D01*
X57864380Y-127317523D02*
X57864380Y-126698476D01*
X58245333Y-127031809D01*
X58245333Y-126888952D01*
X58292952Y-126793714D01*
X58340571Y-126746095D01*
X58435809Y-126698476D01*
X58673904Y-126698476D01*
X58769142Y-126746095D01*
X58816761Y-126793714D01*
X58864380Y-126888952D01*
X58864380Y-127174666D01*
X58816761Y-127269904D01*
X58769142Y-127317523D01*
%TO.C,U2*%
X72930380Y-125221904D02*
X73739904Y-125221904D01*
X73835142Y-125174285D01*
X73882761Y-125126666D01*
X73930380Y-125031428D01*
X73930380Y-124840952D01*
X73882761Y-124745714D01*
X73835142Y-124698095D01*
X73739904Y-124650476D01*
X72930380Y-124650476D01*
X73025619Y-124221904D02*
X72978000Y-124174285D01*
X72930380Y-124079047D01*
X72930380Y-123840952D01*
X72978000Y-123745714D01*
X73025619Y-123698095D01*
X73120857Y-123650476D01*
X73216095Y-123650476D01*
X73358952Y-123698095D01*
X73930380Y-124269523D01*
X73930380Y-123650476D01*
%TO.C,C10*%
X45161142Y-110624857D02*
X45208761Y-110672476D01*
X45256380Y-110815333D01*
X45256380Y-110910571D01*
X45208761Y-111053428D01*
X45113523Y-111148666D01*
X45018285Y-111196285D01*
X44827809Y-111243904D01*
X44684952Y-111243904D01*
X44494476Y-111196285D01*
X44399238Y-111148666D01*
X44304000Y-111053428D01*
X44256380Y-110910571D01*
X44256380Y-110815333D01*
X44304000Y-110672476D01*
X44351619Y-110624857D01*
X45256380Y-109672476D02*
X45256380Y-110243904D01*
X45256380Y-109958190D02*
X44256380Y-109958190D01*
X44399238Y-110053428D01*
X44494476Y-110148666D01*
X44542095Y-110243904D01*
X44256380Y-109053428D02*
X44256380Y-108958190D01*
X44304000Y-108862952D01*
X44351619Y-108815333D01*
X44446857Y-108767714D01*
X44637333Y-108720095D01*
X44875428Y-108720095D01*
X45065904Y-108767714D01*
X45161142Y-108815333D01*
X45208761Y-108862952D01*
X45256380Y-108958190D01*
X45256380Y-109053428D01*
X45208761Y-109148666D01*
X45161142Y-109196285D01*
X45065904Y-109243904D01*
X44875428Y-109291523D01*
X44637333Y-109291523D01*
X44446857Y-109243904D01*
X44351619Y-109196285D01*
X44304000Y-109148666D01*
X44256380Y-109053428D01*
%TO.C,C9*%
X47501142Y-108116666D02*
X47548761Y-108164285D01*
X47596380Y-108307142D01*
X47596380Y-108402380D01*
X47548761Y-108545238D01*
X47453523Y-108640476D01*
X47358285Y-108688095D01*
X47167809Y-108735714D01*
X47024952Y-108735714D01*
X46834476Y-108688095D01*
X46739238Y-108640476D01*
X46644000Y-108545238D01*
X46596380Y-108402380D01*
X46596380Y-108307142D01*
X46644000Y-108164285D01*
X46691619Y-108116666D01*
X47596380Y-107640476D02*
X47596380Y-107450000D01*
X47548761Y-107354761D01*
X47501142Y-107307142D01*
X47358285Y-107211904D01*
X47167809Y-107164285D01*
X46786857Y-107164285D01*
X46691619Y-107211904D01*
X46644000Y-107259523D01*
X46596380Y-107354761D01*
X46596380Y-107545238D01*
X46644000Y-107640476D01*
X46691619Y-107688095D01*
X46786857Y-107735714D01*
X47024952Y-107735714D01*
X47120190Y-107688095D01*
X47167809Y-107640476D01*
X47215428Y-107545238D01*
X47215428Y-107354761D01*
X47167809Y-107259523D01*
X47120190Y-107211904D01*
X47024952Y-107164285D01*
%TO.C,C8*%
X53289142Y-110148666D02*
X53336761Y-110196285D01*
X53384380Y-110339142D01*
X53384380Y-110434380D01*
X53336761Y-110577238D01*
X53241523Y-110672476D01*
X53146285Y-110720095D01*
X52955809Y-110767714D01*
X52812952Y-110767714D01*
X52622476Y-110720095D01*
X52527238Y-110672476D01*
X52432000Y-110577238D01*
X52384380Y-110434380D01*
X52384380Y-110339142D01*
X52432000Y-110196285D01*
X52479619Y-110148666D01*
X52812952Y-109577238D02*
X52765333Y-109672476D01*
X52717714Y-109720095D01*
X52622476Y-109767714D01*
X52574857Y-109767714D01*
X52479619Y-109720095D01*
X52432000Y-109672476D01*
X52384380Y-109577238D01*
X52384380Y-109386761D01*
X52432000Y-109291523D01*
X52479619Y-109243904D01*
X52574857Y-109196285D01*
X52622476Y-109196285D01*
X52717714Y-109243904D01*
X52765333Y-109291523D01*
X52812952Y-109386761D01*
X52812952Y-109577238D01*
X52860571Y-109672476D01*
X52908190Y-109720095D01*
X53003428Y-109767714D01*
X53193904Y-109767714D01*
X53289142Y-109720095D01*
X53336761Y-109672476D01*
X53384380Y-109577238D01*
X53384380Y-109386761D01*
X53336761Y-109291523D01*
X53289142Y-109243904D01*
X53193904Y-109196285D01*
X53003428Y-109196285D01*
X52908190Y-109243904D01*
X52860571Y-109291523D01*
X52812952Y-109386761D01*
%TO.C,C7*%
X55629142Y-108093666D02*
X55676761Y-108141285D01*
X55724380Y-108284142D01*
X55724380Y-108379380D01*
X55676761Y-108522238D01*
X55581523Y-108617476D01*
X55486285Y-108665095D01*
X55295809Y-108712714D01*
X55152952Y-108712714D01*
X54962476Y-108665095D01*
X54867238Y-108617476D01*
X54772000Y-108522238D01*
X54724380Y-108379380D01*
X54724380Y-108284142D01*
X54772000Y-108141285D01*
X54819619Y-108093666D01*
X54724380Y-107760333D02*
X54724380Y-107093666D01*
X55724380Y-107522238D01*
%TO.C,C6*%
X61417142Y-110148666D02*
X61464761Y-110196285D01*
X61512380Y-110339142D01*
X61512380Y-110434380D01*
X61464761Y-110577238D01*
X61369523Y-110672476D01*
X61274285Y-110720095D01*
X61083809Y-110767714D01*
X60940952Y-110767714D01*
X60750476Y-110720095D01*
X60655238Y-110672476D01*
X60560000Y-110577238D01*
X60512380Y-110434380D01*
X60512380Y-110339142D01*
X60560000Y-110196285D01*
X60607619Y-110148666D01*
X60512380Y-109291523D02*
X60512380Y-109482000D01*
X60560000Y-109577238D01*
X60607619Y-109624857D01*
X60750476Y-109720095D01*
X60940952Y-109767714D01*
X61321904Y-109767714D01*
X61417142Y-109720095D01*
X61464761Y-109672476D01*
X61512380Y-109577238D01*
X61512380Y-109386761D01*
X61464761Y-109291523D01*
X61417142Y-109243904D01*
X61321904Y-109196285D01*
X61083809Y-109196285D01*
X60988571Y-109243904D01*
X60940952Y-109291523D01*
X60893333Y-109386761D01*
X60893333Y-109577238D01*
X60940952Y-109672476D01*
X60988571Y-109720095D01*
X61083809Y-109767714D01*
%TO.C,C5*%
X63757142Y-108116666D02*
X63804761Y-108164285D01*
X63852380Y-108307142D01*
X63852380Y-108402380D01*
X63804761Y-108545238D01*
X63709523Y-108640476D01*
X63614285Y-108688095D01*
X63423809Y-108735714D01*
X63280952Y-108735714D01*
X63090476Y-108688095D01*
X62995238Y-108640476D01*
X62900000Y-108545238D01*
X62852380Y-108402380D01*
X62852380Y-108307142D01*
X62900000Y-108164285D01*
X62947619Y-108116666D01*
X62852380Y-107211904D02*
X62852380Y-107688095D01*
X63328571Y-107735714D01*
X63280952Y-107688095D01*
X63233333Y-107592857D01*
X63233333Y-107354761D01*
X63280952Y-107259523D01*
X63328571Y-107211904D01*
X63423809Y-107164285D01*
X63661904Y-107164285D01*
X63757142Y-107211904D01*
X63804761Y-107259523D01*
X63852380Y-107354761D01*
X63852380Y-107592857D01*
X63804761Y-107688095D01*
X63757142Y-107735714D01*
%TO.C,C4*%
X69545142Y-110148666D02*
X69592761Y-110196285D01*
X69640380Y-110339142D01*
X69640380Y-110434380D01*
X69592761Y-110577238D01*
X69497523Y-110672476D01*
X69402285Y-110720095D01*
X69211809Y-110767714D01*
X69068952Y-110767714D01*
X68878476Y-110720095D01*
X68783238Y-110672476D01*
X68688000Y-110577238D01*
X68640380Y-110434380D01*
X68640380Y-110339142D01*
X68688000Y-110196285D01*
X68735619Y-110148666D01*
X68973714Y-109291523D02*
X69640380Y-109291523D01*
X68592761Y-109529619D02*
X69307047Y-109767714D01*
X69307047Y-109148666D01*
%TO.C,C3*%
X71885142Y-108116666D02*
X71932761Y-108164285D01*
X71980380Y-108307142D01*
X71980380Y-108402380D01*
X71932761Y-108545238D01*
X71837523Y-108640476D01*
X71742285Y-108688095D01*
X71551809Y-108735714D01*
X71408952Y-108735714D01*
X71218476Y-108688095D01*
X71123238Y-108640476D01*
X71028000Y-108545238D01*
X70980380Y-108402380D01*
X70980380Y-108307142D01*
X71028000Y-108164285D01*
X71075619Y-108116666D01*
X70980380Y-107783333D02*
X70980380Y-107164285D01*
X71361333Y-107497619D01*
X71361333Y-107354761D01*
X71408952Y-107259523D01*
X71456571Y-107211904D01*
X71551809Y-107164285D01*
X71789904Y-107164285D01*
X71885142Y-107211904D01*
X71932761Y-107259523D01*
X71980380Y-107354761D01*
X71980380Y-107640476D01*
X71932761Y-107735714D01*
X71885142Y-107783333D01*
%TO.C,C2*%
X77673142Y-109917666D02*
X77720761Y-109965285D01*
X77768380Y-110108142D01*
X77768380Y-110203380D01*
X77720761Y-110346238D01*
X77625523Y-110441476D01*
X77530285Y-110489095D01*
X77339809Y-110536714D01*
X77196952Y-110536714D01*
X77006476Y-110489095D01*
X76911238Y-110441476D01*
X76816000Y-110346238D01*
X76768380Y-110203380D01*
X76768380Y-110108142D01*
X76816000Y-109965285D01*
X76863619Y-109917666D01*
X76863619Y-109536714D02*
X76816000Y-109489095D01*
X76768380Y-109393857D01*
X76768380Y-109155761D01*
X76816000Y-109060523D01*
X76863619Y-109012904D01*
X76958857Y-108965285D01*
X77054095Y-108965285D01*
X77196952Y-109012904D01*
X77768380Y-109584333D01*
X77768380Y-108965285D01*
%TO.C,C1*%
X80013142Y-107862666D02*
X80060761Y-107910285D01*
X80108380Y-108053142D01*
X80108380Y-108148380D01*
X80060761Y-108291238D01*
X79965523Y-108386476D01*
X79870285Y-108434095D01*
X79679809Y-108481714D01*
X79536952Y-108481714D01*
X79346476Y-108434095D01*
X79251238Y-108386476D01*
X79156000Y-108291238D01*
X79108380Y-108148380D01*
X79108380Y-108053142D01*
X79156000Y-107910285D01*
X79203619Y-107862666D01*
X80108380Y-106910285D02*
X80108380Y-107481714D01*
X80108380Y-107196000D02*
X79108380Y-107196000D01*
X79251238Y-107291238D01*
X79346476Y-107386476D01*
X79394095Y-107481714D01*
%TO.C,IC5*%
D15*
X82595523Y-110205761D02*
X81325523Y-110205761D01*
X82474571Y-108875285D02*
X82535047Y-108935761D01*
X82595523Y-109117190D01*
X82595523Y-109238142D01*
X82535047Y-109419571D01*
X82414095Y-109540523D01*
X82293142Y-109601000D01*
X82051238Y-109661476D01*
X81869809Y-109661476D01*
X81627904Y-109601000D01*
X81506952Y-109540523D01*
X81386000Y-109419571D01*
X81325523Y-109238142D01*
X81325523Y-109117190D01*
X81386000Y-108935761D01*
X81446476Y-108875285D01*
X81325523Y-107726238D02*
X81325523Y-108331000D01*
X81930285Y-108391476D01*
X81869809Y-108331000D01*
X81809333Y-108210047D01*
X81809333Y-107907666D01*
X81869809Y-107786714D01*
X81930285Y-107726238D01*
X82051238Y-107665761D01*
X82353619Y-107665761D01*
X82474571Y-107726238D01*
X82535047Y-107786714D01*
X82595523Y-107907666D01*
X82595523Y-108210047D01*
X82535047Y-108331000D01*
X82474571Y-108391476D01*
%TO.C,IC4*%
X74467523Y-110205761D02*
X73197523Y-110205761D01*
X74346571Y-108875285D02*
X74407047Y-108935761D01*
X74467523Y-109117190D01*
X74467523Y-109238142D01*
X74407047Y-109419571D01*
X74286095Y-109540523D01*
X74165142Y-109601000D01*
X73923238Y-109661476D01*
X73741809Y-109661476D01*
X73499904Y-109601000D01*
X73378952Y-109540523D01*
X73258000Y-109419571D01*
X73197523Y-109238142D01*
X73197523Y-109117190D01*
X73258000Y-108935761D01*
X73318476Y-108875285D01*
X73620857Y-107786714D02*
X74467523Y-107786714D01*
X73137047Y-108089095D02*
X74044190Y-108391476D01*
X74044190Y-107605285D01*
%TO.C,IC3*%
X66339523Y-110205761D02*
X65069523Y-110205761D01*
X66218571Y-108875285D02*
X66279047Y-108935761D01*
X66339523Y-109117190D01*
X66339523Y-109238142D01*
X66279047Y-109419571D01*
X66158095Y-109540523D01*
X66037142Y-109601000D01*
X65795238Y-109661476D01*
X65613809Y-109661476D01*
X65371904Y-109601000D01*
X65250952Y-109540523D01*
X65130000Y-109419571D01*
X65069523Y-109238142D01*
X65069523Y-109117190D01*
X65130000Y-108935761D01*
X65190476Y-108875285D01*
X65069523Y-108451952D02*
X65069523Y-107665761D01*
X65553333Y-108089095D01*
X65553333Y-107907666D01*
X65613809Y-107786714D01*
X65674285Y-107726238D01*
X65795238Y-107665761D01*
X66097619Y-107665761D01*
X66218571Y-107726238D01*
X66279047Y-107786714D01*
X66339523Y-107907666D01*
X66339523Y-108270523D01*
X66279047Y-108391476D01*
X66218571Y-108451952D01*
%TO.C,IC2*%
X58211523Y-110205761D02*
X56941523Y-110205761D01*
X58090571Y-108875285D02*
X58151047Y-108935761D01*
X58211523Y-109117190D01*
X58211523Y-109238142D01*
X58151047Y-109419571D01*
X58030095Y-109540523D01*
X57909142Y-109601000D01*
X57667238Y-109661476D01*
X57485809Y-109661476D01*
X57243904Y-109601000D01*
X57122952Y-109540523D01*
X57002000Y-109419571D01*
X56941523Y-109238142D01*
X56941523Y-109117190D01*
X57002000Y-108935761D01*
X57062476Y-108875285D01*
X57062476Y-108391476D02*
X57002000Y-108331000D01*
X56941523Y-108210047D01*
X56941523Y-107907666D01*
X57002000Y-107786714D01*
X57062476Y-107726238D01*
X57183428Y-107665761D01*
X57304380Y-107665761D01*
X57485809Y-107726238D01*
X58211523Y-108451952D01*
X58211523Y-107665761D01*
%TO.C,IC1*%
X50083523Y-110205761D02*
X48813523Y-110205761D01*
X49962571Y-108875285D02*
X50023047Y-108935761D01*
X50083523Y-109117190D01*
X50083523Y-109238142D01*
X50023047Y-109419571D01*
X49902095Y-109540523D01*
X49781142Y-109601000D01*
X49539238Y-109661476D01*
X49357809Y-109661476D01*
X49115904Y-109601000D01*
X48994952Y-109540523D01*
X48874000Y-109419571D01*
X48813523Y-109238142D01*
X48813523Y-109117190D01*
X48874000Y-108935761D01*
X48934476Y-108875285D01*
X50083523Y-107665761D02*
X50083523Y-108391476D01*
X50083523Y-108028619D02*
X48813523Y-108028619D01*
X48994952Y-108149571D01*
X49115904Y-108270523D01*
X49176380Y-108391476D01*
%TD*%
M02*
