%TF.GenerationSoftware,KiCad,Pcbnew,5.1.6*%
%TF.CreationDate,2021-05-06T17:12:19+02:00*%
%TF.ProjectId,nhci,6e686369-2e6b-4696-9361-645f70636258,rev?*%
%TF.SameCoordinates,Original*%
%TF.FileFunction,Paste,Top*%
%TF.FilePolarity,Positive*%
%FSLAX46Y46*%
G04 Gerber Fmt 4.6, Leading zero omitted, Abs format (unit mm)*
G04 Created by KiCad (PCBNEW 5.1.6) date 2021-05-06 17:12:19*
%MOMM*%
%LPD*%
G01*
G04 APERTURE LIST*
%ADD10R,0.900000X0.800000*%
%ADD11R,1.400000X1.700000*%
%ADD12R,0.300000X1.700000*%
%ADD13R,1.470000X0.740000*%
%ADD14R,3.860000X2.740000*%
%ADD15R,0.450000X1.450000*%
%ADD16R,1.400000X1.200000*%
%ADD17R,1.475000X0.300000*%
%ADD18R,0.300000X1.475000*%
%ADD19R,0.900000X1.000000*%
%ADD20C,0.320000*%
%ADD21R,0.325000X0.750000*%
%ADD22R,0.600000X0.200000*%
%ADD23R,4.050000X2.050000*%
%ADD24R,0.600000X0.240000*%
%ADD25R,0.240000X0.600000*%
G04 APERTURE END LIST*
D10*
%TO.C,D1*%
X76565000Y-125476000D03*
X74565000Y-126426000D03*
X74565000Y-124526000D03*
%TD*%
%TO.C,R24*%
G36*
G01*
X46292000Y-111587500D02*
X46292000Y-111932500D01*
G75*
G02*
X46144500Y-112080000I-147500J0D01*
G01*
X45849500Y-112080000D01*
G75*
G02*
X45702000Y-111932500I0J147500D01*
G01*
X45702000Y-111587500D01*
G75*
G02*
X45849500Y-111440000I147500J0D01*
G01*
X46144500Y-111440000D01*
G75*
G02*
X46292000Y-111587500I0J-147500D01*
G01*
G37*
G36*
G01*
X47262000Y-111587500D02*
X47262000Y-111932500D01*
G75*
G02*
X47114500Y-112080000I-147500J0D01*
G01*
X46819500Y-112080000D01*
G75*
G02*
X46672000Y-111932500I0J147500D01*
G01*
X46672000Y-111587500D01*
G75*
G02*
X46819500Y-111440000I147500J0D01*
G01*
X47114500Y-111440000D01*
G75*
G02*
X47262000Y-111587500I0J-147500D01*
G01*
G37*
%TD*%
D11*
%TO.C,U1*%
X61466000Y-169082000D03*
X70106000Y-169082000D03*
D12*
X63036000Y-169632000D03*
X63536000Y-169632000D03*
X64036000Y-169632000D03*
X64536000Y-169632000D03*
X65036000Y-169632000D03*
X65536000Y-169632000D03*
X68536000Y-169632000D03*
X68036000Y-169632000D03*
X67536000Y-169632000D03*
X67036000Y-169632000D03*
X66536000Y-169632000D03*
X66036000Y-169632000D03*
%TD*%
%TO.C,D2*%
G36*
G01*
X56001500Y-177294250D02*
X56001500Y-176781750D01*
G75*
G02*
X56220250Y-176563000I218750J0D01*
G01*
X56657750Y-176563000D01*
G75*
G02*
X56876500Y-176781750I0J-218750D01*
G01*
X56876500Y-177294250D01*
G75*
G02*
X56657750Y-177513000I-218750J0D01*
G01*
X56220250Y-177513000D01*
G75*
G02*
X56001500Y-177294250I0J218750D01*
G01*
G37*
G36*
G01*
X54426500Y-177294250D02*
X54426500Y-176781750D01*
G75*
G02*
X54645250Y-176563000I218750J0D01*
G01*
X55082750Y-176563000D01*
G75*
G02*
X55301500Y-176781750I0J-218750D01*
G01*
X55301500Y-177294250D01*
G75*
G02*
X55082750Y-177513000I-218750J0D01*
G01*
X54645250Y-177513000D01*
G75*
G02*
X54426500Y-177294250I0J218750D01*
G01*
G37*
%TD*%
%TO.C,R23*%
G36*
G01*
X57993500Y-175704000D02*
X58338500Y-175704000D01*
G75*
G02*
X58486000Y-175851500I0J-147500D01*
G01*
X58486000Y-176146500D01*
G75*
G02*
X58338500Y-176294000I-147500J0D01*
G01*
X57993500Y-176294000D01*
G75*
G02*
X57846000Y-176146500I0J147500D01*
G01*
X57846000Y-175851500D01*
G75*
G02*
X57993500Y-175704000I147500J0D01*
G01*
G37*
G36*
G01*
X57993500Y-174734000D02*
X58338500Y-174734000D01*
G75*
G02*
X58486000Y-174881500I0J-147500D01*
G01*
X58486000Y-175176500D01*
G75*
G02*
X58338500Y-175324000I-147500J0D01*
G01*
X57993500Y-175324000D01*
G75*
G02*
X57846000Y-175176500I0J147500D01*
G01*
X57846000Y-174881500D01*
G75*
G02*
X57993500Y-174734000I147500J0D01*
G01*
G37*
%TD*%
%TO.C,R22*%
G36*
G01*
X56301000Y-131998500D02*
X56301000Y-131653500D01*
G75*
G02*
X56448500Y-131506000I147500J0D01*
G01*
X56743500Y-131506000D01*
G75*
G02*
X56891000Y-131653500I0J-147500D01*
G01*
X56891000Y-131998500D01*
G75*
G02*
X56743500Y-132146000I-147500J0D01*
G01*
X56448500Y-132146000D01*
G75*
G02*
X56301000Y-131998500I0J147500D01*
G01*
G37*
G36*
G01*
X55331000Y-131998500D02*
X55331000Y-131653500D01*
G75*
G02*
X55478500Y-131506000I147500J0D01*
G01*
X55773500Y-131506000D01*
G75*
G02*
X55921000Y-131653500I0J-147500D01*
G01*
X55921000Y-131998500D01*
G75*
G02*
X55773500Y-132146000I-147500J0D01*
G01*
X55478500Y-132146000D01*
G75*
G02*
X55331000Y-131998500I0J147500D01*
G01*
G37*
%TD*%
%TO.C,R21*%
G36*
G01*
X56301000Y-130982500D02*
X56301000Y-130637500D01*
G75*
G02*
X56448500Y-130490000I147500J0D01*
G01*
X56743500Y-130490000D01*
G75*
G02*
X56891000Y-130637500I0J-147500D01*
G01*
X56891000Y-130982500D01*
G75*
G02*
X56743500Y-131130000I-147500J0D01*
G01*
X56448500Y-131130000D01*
G75*
G02*
X56301000Y-130982500I0J147500D01*
G01*
G37*
G36*
G01*
X55331000Y-130982500D02*
X55331000Y-130637500D01*
G75*
G02*
X55478500Y-130490000I147500J0D01*
G01*
X55773500Y-130490000D01*
G75*
G02*
X55921000Y-130637500I0J-147500D01*
G01*
X55921000Y-130982500D01*
G75*
G02*
X55773500Y-131130000I-147500J0D01*
G01*
X55478500Y-131130000D01*
G75*
G02*
X55331000Y-130982500I0J147500D01*
G01*
G37*
%TD*%
D13*
%TO.C,J1*%
X46137000Y-132080000D03*
X49367000Y-132080000D03*
X46137000Y-130810000D03*
X49367000Y-130810000D03*
X46137000Y-129540000D03*
X49367000Y-129540000D03*
X46137000Y-128270000D03*
X49367000Y-128270000D03*
X46137000Y-127000000D03*
X49367000Y-127000000D03*
%TD*%
%TO.C,U4*%
G36*
G01*
X77620000Y-141727000D02*
X77620000Y-141427000D01*
G75*
G02*
X77770000Y-141277000I150000J0D01*
G01*
X79420000Y-141277000D01*
G75*
G02*
X79570000Y-141427000I0J-150000D01*
G01*
X79570000Y-141727000D01*
G75*
G02*
X79420000Y-141877000I-150000J0D01*
G01*
X77770000Y-141877000D01*
G75*
G02*
X77620000Y-141727000I0J150000D01*
G01*
G37*
G36*
G01*
X77620000Y-142997000D02*
X77620000Y-142697000D01*
G75*
G02*
X77770000Y-142547000I150000J0D01*
G01*
X79420000Y-142547000D01*
G75*
G02*
X79570000Y-142697000I0J-150000D01*
G01*
X79570000Y-142997000D01*
G75*
G02*
X79420000Y-143147000I-150000J0D01*
G01*
X77770000Y-143147000D01*
G75*
G02*
X77620000Y-142997000I0J150000D01*
G01*
G37*
G36*
G01*
X77620000Y-144267000D02*
X77620000Y-143967000D01*
G75*
G02*
X77770000Y-143817000I150000J0D01*
G01*
X79420000Y-143817000D01*
G75*
G02*
X79570000Y-143967000I0J-150000D01*
G01*
X79570000Y-144267000D01*
G75*
G02*
X79420000Y-144417000I-150000J0D01*
G01*
X77770000Y-144417000D01*
G75*
G02*
X77620000Y-144267000I0J150000D01*
G01*
G37*
G36*
G01*
X77620000Y-145537000D02*
X77620000Y-145237000D01*
G75*
G02*
X77770000Y-145087000I150000J0D01*
G01*
X79420000Y-145087000D01*
G75*
G02*
X79570000Y-145237000I0J-150000D01*
G01*
X79570000Y-145537000D01*
G75*
G02*
X79420000Y-145687000I-150000J0D01*
G01*
X77770000Y-145687000D01*
G75*
G02*
X77620000Y-145537000I0J150000D01*
G01*
G37*
G36*
G01*
X72670000Y-145537000D02*
X72670000Y-145237000D01*
G75*
G02*
X72820000Y-145087000I150000J0D01*
G01*
X74470000Y-145087000D01*
G75*
G02*
X74620000Y-145237000I0J-150000D01*
G01*
X74620000Y-145537000D01*
G75*
G02*
X74470000Y-145687000I-150000J0D01*
G01*
X72820000Y-145687000D01*
G75*
G02*
X72670000Y-145537000I0J150000D01*
G01*
G37*
G36*
G01*
X72670000Y-144267000D02*
X72670000Y-143967000D01*
G75*
G02*
X72820000Y-143817000I150000J0D01*
G01*
X74470000Y-143817000D01*
G75*
G02*
X74620000Y-143967000I0J-150000D01*
G01*
X74620000Y-144267000D01*
G75*
G02*
X74470000Y-144417000I-150000J0D01*
G01*
X72820000Y-144417000D01*
G75*
G02*
X72670000Y-144267000I0J150000D01*
G01*
G37*
G36*
G01*
X72670000Y-142997000D02*
X72670000Y-142697000D01*
G75*
G02*
X72820000Y-142547000I150000J0D01*
G01*
X74470000Y-142547000D01*
G75*
G02*
X74620000Y-142697000I0J-150000D01*
G01*
X74620000Y-142997000D01*
G75*
G02*
X74470000Y-143147000I-150000J0D01*
G01*
X72820000Y-143147000D01*
G75*
G02*
X72670000Y-142997000I0J150000D01*
G01*
G37*
G36*
G01*
X72670000Y-141727000D02*
X72670000Y-141427000D01*
G75*
G02*
X72820000Y-141277000I150000J0D01*
G01*
X74470000Y-141277000D01*
G75*
G02*
X74620000Y-141427000I0J-150000D01*
G01*
X74620000Y-141727000D01*
G75*
G02*
X74470000Y-141877000I-150000J0D01*
G01*
X72820000Y-141877000D01*
G75*
G02*
X72670000Y-141727000I0J150000D01*
G01*
G37*
%TD*%
%TO.C,R20*%
G36*
G01*
X66466500Y-148654000D02*
X66121500Y-148654000D01*
G75*
G02*
X65974000Y-148506500I0J147500D01*
G01*
X65974000Y-148211500D01*
G75*
G02*
X66121500Y-148064000I147500J0D01*
G01*
X66466500Y-148064000D01*
G75*
G02*
X66614000Y-148211500I0J-147500D01*
G01*
X66614000Y-148506500D01*
G75*
G02*
X66466500Y-148654000I-147500J0D01*
G01*
G37*
G36*
G01*
X66466500Y-149624000D02*
X66121500Y-149624000D01*
G75*
G02*
X65974000Y-149476500I0J147500D01*
G01*
X65974000Y-149181500D01*
G75*
G02*
X66121500Y-149034000I147500J0D01*
G01*
X66466500Y-149034000D01*
G75*
G02*
X66614000Y-149181500I0J-147500D01*
G01*
X66614000Y-149476500D01*
G75*
G02*
X66466500Y-149624000I-147500J0D01*
G01*
G37*
%TD*%
%TO.C,R19*%
G36*
G01*
X67482500Y-148654000D02*
X67137500Y-148654000D01*
G75*
G02*
X66990000Y-148506500I0J147500D01*
G01*
X66990000Y-148211500D01*
G75*
G02*
X67137500Y-148064000I147500J0D01*
G01*
X67482500Y-148064000D01*
G75*
G02*
X67630000Y-148211500I0J-147500D01*
G01*
X67630000Y-148506500D01*
G75*
G02*
X67482500Y-148654000I-147500J0D01*
G01*
G37*
G36*
G01*
X67482500Y-149624000D02*
X67137500Y-149624000D01*
G75*
G02*
X66990000Y-149476500I0J147500D01*
G01*
X66990000Y-149181500D01*
G75*
G02*
X67137500Y-149034000I147500J0D01*
G01*
X67482500Y-149034000D01*
G75*
G02*
X67630000Y-149181500I0J-147500D01*
G01*
X67630000Y-149476500D01*
G75*
G02*
X67482500Y-149624000I-147500J0D01*
G01*
G37*
%TD*%
%TO.C,C29*%
G36*
G01*
X76825500Y-149554250D02*
X76825500Y-148641750D01*
G75*
G02*
X77069250Y-148398000I243750J0D01*
G01*
X77556750Y-148398000D01*
G75*
G02*
X77800500Y-148641750I0J-243750D01*
G01*
X77800500Y-149554250D01*
G75*
G02*
X77556750Y-149798000I-243750J0D01*
G01*
X77069250Y-149798000D01*
G75*
G02*
X76825500Y-149554250I0J243750D01*
G01*
G37*
G36*
G01*
X74950500Y-149554250D02*
X74950500Y-148641750D01*
G75*
G02*
X75194250Y-148398000I243750J0D01*
G01*
X75681750Y-148398000D01*
G75*
G02*
X75925500Y-148641750I0J-243750D01*
G01*
X75925500Y-149554250D01*
G75*
G02*
X75681750Y-149798000I-243750J0D01*
G01*
X75194250Y-149798000D01*
G75*
G02*
X74950500Y-149554250I0J243750D01*
G01*
G37*
%TD*%
%TO.C,C28*%
G36*
G01*
X68153500Y-149034000D02*
X68498500Y-149034000D01*
G75*
G02*
X68646000Y-149181500I0J-147500D01*
G01*
X68646000Y-149476500D01*
G75*
G02*
X68498500Y-149624000I-147500J0D01*
G01*
X68153500Y-149624000D01*
G75*
G02*
X68006000Y-149476500I0J147500D01*
G01*
X68006000Y-149181500D01*
G75*
G02*
X68153500Y-149034000I147500J0D01*
G01*
G37*
G36*
G01*
X68153500Y-148064000D02*
X68498500Y-148064000D01*
G75*
G02*
X68646000Y-148211500I0J-147500D01*
G01*
X68646000Y-148506500D01*
G75*
G02*
X68498500Y-148654000I-147500J0D01*
G01*
X68153500Y-148654000D01*
G75*
G02*
X68006000Y-148506500I0J147500D01*
G01*
X68006000Y-148211500D01*
G75*
G02*
X68153500Y-148064000I147500J0D01*
G01*
G37*
%TD*%
%TO.C,C27*%
G36*
G01*
X68462500Y-136957750D02*
X68462500Y-137870250D01*
G75*
G02*
X68218750Y-138114000I-243750J0D01*
G01*
X67731250Y-138114000D01*
G75*
G02*
X67487500Y-137870250I0J243750D01*
G01*
X67487500Y-136957750D01*
G75*
G02*
X67731250Y-136714000I243750J0D01*
G01*
X68218750Y-136714000D01*
G75*
G02*
X68462500Y-136957750I0J-243750D01*
G01*
G37*
G36*
G01*
X70337500Y-136957750D02*
X70337500Y-137870250D01*
G75*
G02*
X70093750Y-138114000I-243750J0D01*
G01*
X69606250Y-138114000D01*
G75*
G02*
X69362500Y-137870250I0J243750D01*
G01*
X69362500Y-136957750D01*
G75*
G02*
X69606250Y-136714000I243750J0D01*
G01*
X70093750Y-136714000D01*
G75*
G02*
X70337500Y-136957750I0J-243750D01*
G01*
G37*
%TD*%
%TO.C,R18*%
G36*
G01*
X85171500Y-122641000D02*
X85516500Y-122641000D01*
G75*
G02*
X85664000Y-122788500I0J-147500D01*
G01*
X85664000Y-123083500D01*
G75*
G02*
X85516500Y-123231000I-147500J0D01*
G01*
X85171500Y-123231000D01*
G75*
G02*
X85024000Y-123083500I0J147500D01*
G01*
X85024000Y-122788500D01*
G75*
G02*
X85171500Y-122641000I147500J0D01*
G01*
G37*
G36*
G01*
X85171500Y-121671000D02*
X85516500Y-121671000D01*
G75*
G02*
X85664000Y-121818500I0J-147500D01*
G01*
X85664000Y-122113500D01*
G75*
G02*
X85516500Y-122261000I-147500J0D01*
G01*
X85171500Y-122261000D01*
G75*
G02*
X85024000Y-122113500I0J147500D01*
G01*
X85024000Y-121818500D01*
G75*
G02*
X85171500Y-121671000I147500J0D01*
G01*
G37*
%TD*%
%TO.C,R17*%
G36*
G01*
X81107500Y-122595000D02*
X81452500Y-122595000D01*
G75*
G02*
X81600000Y-122742500I0J-147500D01*
G01*
X81600000Y-123037500D01*
G75*
G02*
X81452500Y-123185000I-147500J0D01*
G01*
X81107500Y-123185000D01*
G75*
G02*
X80960000Y-123037500I0J147500D01*
G01*
X80960000Y-122742500D01*
G75*
G02*
X81107500Y-122595000I147500J0D01*
G01*
G37*
G36*
G01*
X81107500Y-121625000D02*
X81452500Y-121625000D01*
G75*
G02*
X81600000Y-121772500I0J-147500D01*
G01*
X81600000Y-122067500D01*
G75*
G02*
X81452500Y-122215000I-147500J0D01*
G01*
X81107500Y-122215000D01*
G75*
G02*
X80960000Y-122067500I0J147500D01*
G01*
X80960000Y-121772500D01*
G75*
G02*
X81107500Y-121625000I147500J0D01*
G01*
G37*
%TD*%
%TO.C,R16*%
G36*
G01*
X78821500Y-131785000D02*
X79166500Y-131785000D01*
G75*
G02*
X79314000Y-131932500I0J-147500D01*
G01*
X79314000Y-132227500D01*
G75*
G02*
X79166500Y-132375000I-147500J0D01*
G01*
X78821500Y-132375000D01*
G75*
G02*
X78674000Y-132227500I0J147500D01*
G01*
X78674000Y-131932500D01*
G75*
G02*
X78821500Y-131785000I147500J0D01*
G01*
G37*
G36*
G01*
X78821500Y-130815000D02*
X79166500Y-130815000D01*
G75*
G02*
X79314000Y-130962500I0J-147500D01*
G01*
X79314000Y-131257500D01*
G75*
G02*
X79166500Y-131405000I-147500J0D01*
G01*
X78821500Y-131405000D01*
G75*
G02*
X78674000Y-131257500I0J147500D01*
G01*
X78674000Y-130962500D01*
G75*
G02*
X78821500Y-130815000I147500J0D01*
G01*
G37*
%TD*%
%TO.C,R15*%
G36*
G01*
X79837500Y-132801000D02*
X80182500Y-132801000D01*
G75*
G02*
X80330000Y-132948500I0J-147500D01*
G01*
X80330000Y-133243500D01*
G75*
G02*
X80182500Y-133391000I-147500J0D01*
G01*
X79837500Y-133391000D01*
G75*
G02*
X79690000Y-133243500I0J147500D01*
G01*
X79690000Y-132948500D01*
G75*
G02*
X79837500Y-132801000I147500J0D01*
G01*
G37*
G36*
G01*
X79837500Y-131831000D02*
X80182500Y-131831000D01*
G75*
G02*
X80330000Y-131978500I0J-147500D01*
G01*
X80330000Y-132273500D01*
G75*
G02*
X80182500Y-132421000I-147500J0D01*
G01*
X79837500Y-132421000D01*
G75*
G02*
X79690000Y-132273500I0J147500D01*
G01*
X79690000Y-131978500D01*
G75*
G02*
X79837500Y-131831000I147500J0D01*
G01*
G37*
%TD*%
%TO.C,R14*%
G36*
G01*
X82377500Y-132524000D02*
X82722500Y-132524000D01*
G75*
G02*
X82870000Y-132671500I0J-147500D01*
G01*
X82870000Y-132966500D01*
G75*
G02*
X82722500Y-133114000I-147500J0D01*
G01*
X82377500Y-133114000D01*
G75*
G02*
X82230000Y-132966500I0J147500D01*
G01*
X82230000Y-132671500D01*
G75*
G02*
X82377500Y-132524000I147500J0D01*
G01*
G37*
G36*
G01*
X82377500Y-131554000D02*
X82722500Y-131554000D01*
G75*
G02*
X82870000Y-131701500I0J-147500D01*
G01*
X82870000Y-131996500D01*
G75*
G02*
X82722500Y-132144000I-147500J0D01*
G01*
X82377500Y-132144000D01*
G75*
G02*
X82230000Y-131996500I0J147500D01*
G01*
X82230000Y-131701500D01*
G75*
G02*
X82377500Y-131554000I147500J0D01*
G01*
G37*
%TD*%
%TO.C,R13*%
G36*
G01*
X84264000Y-133014500D02*
X84264000Y-132669500D01*
G75*
G02*
X84411500Y-132522000I147500J0D01*
G01*
X84706500Y-132522000D01*
G75*
G02*
X84854000Y-132669500I0J-147500D01*
G01*
X84854000Y-133014500D01*
G75*
G02*
X84706500Y-133162000I-147500J0D01*
G01*
X84411500Y-133162000D01*
G75*
G02*
X84264000Y-133014500I0J147500D01*
G01*
G37*
G36*
G01*
X83294000Y-133014500D02*
X83294000Y-132669500D01*
G75*
G02*
X83441500Y-132522000I147500J0D01*
G01*
X83736500Y-132522000D01*
G75*
G02*
X83884000Y-132669500I0J-147500D01*
G01*
X83884000Y-133014500D01*
G75*
G02*
X83736500Y-133162000I-147500J0D01*
G01*
X83441500Y-133162000D01*
G75*
G02*
X83294000Y-133014500I0J147500D01*
G01*
G37*
%TD*%
%TO.C,R12*%
G36*
G01*
X84900000Y-135717500D02*
X84900000Y-136062500D01*
G75*
G02*
X84752500Y-136210000I-147500J0D01*
G01*
X84457500Y-136210000D01*
G75*
G02*
X84310000Y-136062500I0J147500D01*
G01*
X84310000Y-135717500D01*
G75*
G02*
X84457500Y-135570000I147500J0D01*
G01*
X84752500Y-135570000D01*
G75*
G02*
X84900000Y-135717500I0J-147500D01*
G01*
G37*
G36*
G01*
X85870000Y-135717500D02*
X85870000Y-136062500D01*
G75*
G02*
X85722500Y-136210000I-147500J0D01*
G01*
X85427500Y-136210000D01*
G75*
G02*
X85280000Y-136062500I0J147500D01*
G01*
X85280000Y-135717500D01*
G75*
G02*
X85427500Y-135570000I147500J0D01*
G01*
X85722500Y-135570000D01*
G75*
G02*
X85870000Y-135717500I0J-147500D01*
G01*
G37*
%TD*%
%TO.C,R11*%
G36*
G01*
X81615500Y-134810000D02*
X81960500Y-134810000D01*
G75*
G02*
X82108000Y-134957500I0J-147500D01*
G01*
X82108000Y-135252500D01*
G75*
G02*
X81960500Y-135400000I-147500J0D01*
G01*
X81615500Y-135400000D01*
G75*
G02*
X81468000Y-135252500I0J147500D01*
G01*
X81468000Y-134957500D01*
G75*
G02*
X81615500Y-134810000I147500J0D01*
G01*
G37*
G36*
G01*
X81615500Y-133840000D02*
X81960500Y-133840000D01*
G75*
G02*
X82108000Y-133987500I0J-147500D01*
G01*
X82108000Y-134282500D01*
G75*
G02*
X81960500Y-134430000I-147500J0D01*
G01*
X81615500Y-134430000D01*
G75*
G02*
X81468000Y-134282500I0J147500D01*
G01*
X81468000Y-133987500D01*
G75*
G02*
X81615500Y-133840000I147500J0D01*
G01*
G37*
%TD*%
D14*
%TO.C,IC7*%
X83312000Y-127508000D03*
D15*
X80387000Y-124583000D03*
X81037000Y-124583000D03*
X81687000Y-124583000D03*
X82337000Y-124583000D03*
X82987000Y-124583000D03*
X83637000Y-124583000D03*
X84287000Y-124583000D03*
X84937000Y-124583000D03*
X85587000Y-124583000D03*
X86237000Y-124583000D03*
X86237000Y-130433000D03*
X85587000Y-130433000D03*
X84937000Y-130433000D03*
X84287000Y-130433000D03*
X83637000Y-130433000D03*
X82987000Y-130433000D03*
X82337000Y-130433000D03*
X81687000Y-130433000D03*
X81037000Y-130433000D03*
X80387000Y-130433000D03*
%TD*%
%TO.C,C26*%
G36*
G01*
X85425500Y-132524000D02*
X85770500Y-132524000D01*
G75*
G02*
X85918000Y-132671500I0J-147500D01*
G01*
X85918000Y-132966500D01*
G75*
G02*
X85770500Y-133114000I-147500J0D01*
G01*
X85425500Y-133114000D01*
G75*
G02*
X85278000Y-132966500I0J147500D01*
G01*
X85278000Y-132671500D01*
G75*
G02*
X85425500Y-132524000I147500J0D01*
G01*
G37*
G36*
G01*
X85425500Y-131554000D02*
X85770500Y-131554000D01*
G75*
G02*
X85918000Y-131701500I0J-147500D01*
G01*
X85918000Y-131996500D01*
G75*
G02*
X85770500Y-132144000I-147500J0D01*
G01*
X85425500Y-132144000D01*
G75*
G02*
X85278000Y-131996500I0J147500D01*
G01*
X85278000Y-131701500D01*
G75*
G02*
X85425500Y-131554000I147500J0D01*
G01*
G37*
%TD*%
%TO.C,C25*%
G36*
G01*
X80853500Y-132801000D02*
X81198500Y-132801000D01*
G75*
G02*
X81346000Y-132948500I0J-147500D01*
G01*
X81346000Y-133243500D01*
G75*
G02*
X81198500Y-133391000I-147500J0D01*
G01*
X80853500Y-133391000D01*
G75*
G02*
X80706000Y-133243500I0J147500D01*
G01*
X80706000Y-132948500D01*
G75*
G02*
X80853500Y-132801000I147500J0D01*
G01*
G37*
G36*
G01*
X80853500Y-131831000D02*
X81198500Y-131831000D01*
G75*
G02*
X81346000Y-131978500I0J-147500D01*
G01*
X81346000Y-132273500D01*
G75*
G02*
X81198500Y-132421000I-147500J0D01*
G01*
X80853500Y-132421000D01*
G75*
G02*
X80706000Y-132273500I0J147500D01*
G01*
X80706000Y-131978500D01*
G75*
G02*
X80853500Y-131831000I147500J0D01*
G01*
G37*
%TD*%
%TO.C,C24*%
G36*
G01*
X84953500Y-134822250D02*
X84953500Y-133909750D01*
G75*
G02*
X85197250Y-133666000I243750J0D01*
G01*
X85684750Y-133666000D01*
G75*
G02*
X85928500Y-133909750I0J-243750D01*
G01*
X85928500Y-134822250D01*
G75*
G02*
X85684750Y-135066000I-243750J0D01*
G01*
X85197250Y-135066000D01*
G75*
G02*
X84953500Y-134822250I0J243750D01*
G01*
G37*
G36*
G01*
X83078500Y-134822250D02*
X83078500Y-133909750D01*
G75*
G02*
X83322250Y-133666000I243750J0D01*
G01*
X83809750Y-133666000D01*
G75*
G02*
X84053500Y-133909750I0J-243750D01*
G01*
X84053500Y-134822250D01*
G75*
G02*
X83809750Y-135066000I-243750J0D01*
G01*
X83322250Y-135066000D01*
G75*
G02*
X83078500Y-134822250I0J243750D01*
G01*
G37*
%TD*%
%TO.C,C23*%
G36*
G01*
X80030500Y-135076250D02*
X80030500Y-134163750D01*
G75*
G02*
X80274250Y-133920000I243750J0D01*
G01*
X80761750Y-133920000D01*
G75*
G02*
X81005500Y-134163750I0J-243750D01*
G01*
X81005500Y-135076250D01*
G75*
G02*
X80761750Y-135320000I-243750J0D01*
G01*
X80274250Y-135320000D01*
G75*
G02*
X80030500Y-135076250I0J243750D01*
G01*
G37*
G36*
G01*
X78155500Y-135076250D02*
X78155500Y-134163750D01*
G75*
G02*
X78399250Y-133920000I243750J0D01*
G01*
X78886750Y-133920000D01*
G75*
G02*
X79130500Y-134163750I0J-243750D01*
G01*
X79130500Y-135076250D01*
G75*
G02*
X78886750Y-135320000I-243750J0D01*
G01*
X78399250Y-135320000D01*
G75*
G02*
X78155500Y-135076250I0J243750D01*
G01*
G37*
%TD*%
%TO.C,C22*%
G36*
G01*
X84602500Y-137870250D02*
X84602500Y-136957750D01*
G75*
G02*
X84846250Y-136714000I243750J0D01*
G01*
X85333750Y-136714000D01*
G75*
G02*
X85577500Y-136957750I0J-243750D01*
G01*
X85577500Y-137870250D01*
G75*
G02*
X85333750Y-138114000I-243750J0D01*
G01*
X84846250Y-138114000D01*
G75*
G02*
X84602500Y-137870250I0J243750D01*
G01*
G37*
G36*
G01*
X82727500Y-137870250D02*
X82727500Y-136957750D01*
G75*
G02*
X82971250Y-136714000I243750J0D01*
G01*
X83458750Y-136714000D01*
G75*
G02*
X83702500Y-136957750I0J-243750D01*
G01*
X83702500Y-137870250D01*
G75*
G02*
X83458750Y-138114000I-243750J0D01*
G01*
X82971250Y-138114000D01*
G75*
G02*
X82727500Y-137870250I0J243750D01*
G01*
G37*
%TD*%
%TO.C,C21*%
G36*
G01*
X81046500Y-137108250D02*
X81046500Y-136195750D01*
G75*
G02*
X81290250Y-135952000I243750J0D01*
G01*
X81777750Y-135952000D01*
G75*
G02*
X82021500Y-136195750I0J-243750D01*
G01*
X82021500Y-137108250D01*
G75*
G02*
X81777750Y-137352000I-243750J0D01*
G01*
X81290250Y-137352000D01*
G75*
G02*
X81046500Y-137108250I0J243750D01*
G01*
G37*
G36*
G01*
X79171500Y-137108250D02*
X79171500Y-136195750D01*
G75*
G02*
X79415250Y-135952000I243750J0D01*
G01*
X79902750Y-135952000D01*
G75*
G02*
X80146500Y-136195750I0J-243750D01*
G01*
X80146500Y-137108250D01*
G75*
G02*
X79902750Y-137352000I-243750J0D01*
G01*
X79415250Y-137352000D01*
G75*
G02*
X79171500Y-137108250I0J243750D01*
G01*
G37*
%TD*%
%TO.C,R10*%
G36*
G01*
X79289000Y-111587500D02*
X79289000Y-111932500D01*
G75*
G02*
X79141500Y-112080000I-147500J0D01*
G01*
X78846500Y-112080000D01*
G75*
G02*
X78699000Y-111932500I0J147500D01*
G01*
X78699000Y-111587500D01*
G75*
G02*
X78846500Y-111440000I147500J0D01*
G01*
X79141500Y-111440000D01*
G75*
G02*
X79289000Y-111587500I0J-147500D01*
G01*
G37*
G36*
G01*
X80259000Y-111587500D02*
X80259000Y-111932500D01*
G75*
G02*
X80111500Y-112080000I-147500J0D01*
G01*
X79816500Y-112080000D01*
G75*
G02*
X79669000Y-111932500I0J147500D01*
G01*
X79669000Y-111587500D01*
G75*
G02*
X79816500Y-111440000I147500J0D01*
G01*
X80111500Y-111440000D01*
G75*
G02*
X80259000Y-111587500I0J-147500D01*
G01*
G37*
%TD*%
D16*
%TO.C,Y1*%
X55118000Y-134112000D03*
X57658000Y-134112000D03*
X57658000Y-136312000D03*
X55118000Y-136312000D03*
%TD*%
D17*
%TO.C,IC6*%
X70040000Y-141760000D03*
X70040000Y-142260000D03*
X70040000Y-142760000D03*
X70040000Y-143260000D03*
X70040000Y-143760000D03*
X70040000Y-144260000D03*
X70040000Y-144760000D03*
X70040000Y-145260000D03*
D18*
X68552000Y-146748000D03*
X68052000Y-146748000D03*
X67552000Y-146748000D03*
X67052000Y-146748000D03*
X66552000Y-146748000D03*
X66052000Y-146748000D03*
X65552000Y-146748000D03*
X65052000Y-146748000D03*
D17*
X63564000Y-145260000D03*
X63564000Y-144760000D03*
X63564000Y-144260000D03*
X63564000Y-143760000D03*
X63564000Y-143260000D03*
X63564000Y-142760000D03*
X63564000Y-142260000D03*
X63564000Y-141760000D03*
D18*
X65052000Y-140272000D03*
X65552000Y-140272000D03*
X66052000Y-140272000D03*
X66552000Y-140272000D03*
X67052000Y-140272000D03*
X67552000Y-140272000D03*
X68052000Y-140272000D03*
X68552000Y-140272000D03*
%TD*%
D16*
%TO.C,SW1*%
X75386000Y-171196000D03*
D19*
X72286000Y-177096000D03*
X78486000Y-177096000D03*
%TD*%
%TO.C,U3*%
G36*
G01*
X54487000Y-128708000D02*
X54337000Y-128708000D01*
G75*
G02*
X54262000Y-128633000I0J75000D01*
G01*
X54262000Y-126383000D01*
G75*
G02*
X54337000Y-126308000I75000J0D01*
G01*
X54487000Y-126308000D01*
G75*
G02*
X54562000Y-126383000I0J-75000D01*
G01*
X54562000Y-128633000D01*
G75*
G02*
X54487000Y-128708000I-75000J0D01*
G01*
G37*
G36*
G01*
X53499500Y-128883000D02*
X52724500Y-128883000D01*
G75*
G02*
X52637000Y-128795500I0J87500D01*
G01*
X52637000Y-128620500D01*
G75*
G02*
X52724500Y-128533000I87500J0D01*
G01*
X53499500Y-128533000D01*
G75*
G02*
X53587000Y-128620500I0J-87500D01*
G01*
X53587000Y-128795500D01*
G75*
G02*
X53499500Y-128883000I-87500J0D01*
G01*
G37*
G36*
G01*
X53499500Y-128083000D02*
X52724500Y-128083000D01*
G75*
G02*
X52637000Y-127995500I0J87500D01*
G01*
X52637000Y-127820500D01*
G75*
G02*
X52724500Y-127733000I87500J0D01*
G01*
X53499500Y-127733000D01*
G75*
G02*
X53587000Y-127820500I0J-87500D01*
G01*
X53587000Y-127995500D01*
G75*
G02*
X53499500Y-128083000I-87500J0D01*
G01*
G37*
G36*
G01*
X53499500Y-127283000D02*
X52724500Y-127283000D01*
G75*
G02*
X52637000Y-127195500I0J87500D01*
G01*
X52637000Y-127020500D01*
G75*
G02*
X52724500Y-126933000I87500J0D01*
G01*
X53499500Y-126933000D01*
G75*
G02*
X53587000Y-127020500I0J-87500D01*
G01*
X53587000Y-127195500D01*
G75*
G02*
X53499500Y-127283000I-87500J0D01*
G01*
G37*
G36*
G01*
X53499500Y-126483000D02*
X52724500Y-126483000D01*
G75*
G02*
X52637000Y-126395500I0J87500D01*
G01*
X52637000Y-126220500D01*
G75*
G02*
X52724500Y-126133000I87500J0D01*
G01*
X53499500Y-126133000D01*
G75*
G02*
X53587000Y-126220500I0J-87500D01*
G01*
X53587000Y-126395500D01*
G75*
G02*
X53499500Y-126483000I-87500J0D01*
G01*
G37*
G36*
G01*
X56099500Y-126483000D02*
X55324500Y-126483000D01*
G75*
G02*
X55237000Y-126395500I0J87500D01*
G01*
X55237000Y-126220500D01*
G75*
G02*
X55324500Y-126133000I87500J0D01*
G01*
X56099500Y-126133000D01*
G75*
G02*
X56187000Y-126220500I0J-87500D01*
G01*
X56187000Y-126395500D01*
G75*
G02*
X56099500Y-126483000I-87500J0D01*
G01*
G37*
G36*
G01*
X56099500Y-127283000D02*
X55324500Y-127283000D01*
G75*
G02*
X55237000Y-127195500I0J87500D01*
G01*
X55237000Y-127020500D01*
G75*
G02*
X55324500Y-126933000I87500J0D01*
G01*
X56099500Y-126933000D01*
G75*
G02*
X56187000Y-127020500I0J-87500D01*
G01*
X56187000Y-127195500D01*
G75*
G02*
X56099500Y-127283000I-87500J0D01*
G01*
G37*
G36*
G01*
X56099500Y-128083000D02*
X55324500Y-128083000D01*
G75*
G02*
X55237000Y-127995500I0J87500D01*
G01*
X55237000Y-127820500D01*
G75*
G02*
X55324500Y-127733000I87500J0D01*
G01*
X56099500Y-127733000D01*
G75*
G02*
X56187000Y-127820500I0J-87500D01*
G01*
X56187000Y-127995500D01*
G75*
G02*
X56099500Y-128083000I-87500J0D01*
G01*
G37*
G36*
G01*
X56099500Y-128883000D02*
X55324500Y-128883000D01*
G75*
G02*
X55237000Y-128795500I0J87500D01*
G01*
X55237000Y-128620500D01*
G75*
G02*
X55324500Y-128533000I87500J0D01*
G01*
X56099500Y-128533000D01*
G75*
G02*
X56187000Y-128620500I0J-87500D01*
G01*
X56187000Y-128795500D01*
G75*
G02*
X56099500Y-128883000I-87500J0D01*
G01*
G37*
%TD*%
D20*
%TO.C,U2*%
X59278000Y-130460000D03*
X60078000Y-130460000D03*
X60878000Y-130460000D03*
X61678000Y-130460000D03*
X62478000Y-130460000D03*
X63278000Y-130460000D03*
X64078000Y-130460000D03*
X64878000Y-130460000D03*
X65678000Y-130460000D03*
X66478000Y-130460000D03*
X67278000Y-130460000D03*
X68078000Y-130460000D03*
X68878000Y-130460000D03*
X69678000Y-130460000D03*
X70478000Y-130460000D03*
X71278000Y-130460000D03*
X59278000Y-129660000D03*
X60078000Y-129660000D03*
X60878000Y-129660000D03*
X61678000Y-129660000D03*
X62478000Y-129660000D03*
X63278000Y-129660000D03*
X64078000Y-129660000D03*
X64878000Y-129660000D03*
X65678000Y-129660000D03*
X66478000Y-129660000D03*
X67278000Y-129660000D03*
X68078000Y-129660000D03*
X68878000Y-129660000D03*
X69678000Y-129660000D03*
X70478000Y-129660000D03*
X71278000Y-129660000D03*
X59278000Y-128860000D03*
X60078000Y-128860000D03*
X60878000Y-128860000D03*
X61678000Y-128860000D03*
X62478000Y-128860000D03*
X63278000Y-128860000D03*
X64078000Y-128860000D03*
X64878000Y-128860000D03*
X65678000Y-128860000D03*
X66478000Y-128860000D03*
X67278000Y-128860000D03*
X68078000Y-128860000D03*
X68878000Y-128860000D03*
X69678000Y-128860000D03*
X70478000Y-128860000D03*
X71278000Y-128860000D03*
X59278000Y-128060000D03*
X60078000Y-128060000D03*
X60878000Y-128060000D03*
X61678000Y-128060000D03*
X62478000Y-128060000D03*
X63278000Y-128060000D03*
X64078000Y-128060000D03*
X64878000Y-128060000D03*
X65678000Y-128060000D03*
X66478000Y-128060000D03*
X67278000Y-128060000D03*
X68078000Y-128060000D03*
X68878000Y-128060000D03*
X69678000Y-128060000D03*
X70478000Y-128060000D03*
X71278000Y-128060000D03*
X59278000Y-127260000D03*
X60078000Y-127260000D03*
X60878000Y-127260000D03*
X61678000Y-127260000D03*
X62478000Y-127260000D03*
X63278000Y-127260000D03*
X64078000Y-127260000D03*
X64878000Y-127260000D03*
X65678000Y-127260000D03*
X66478000Y-127260000D03*
X67278000Y-127260000D03*
X68078000Y-127260000D03*
X68878000Y-127260000D03*
X69678000Y-127260000D03*
X70478000Y-127260000D03*
X71278000Y-127260000D03*
X59278000Y-126460000D03*
X60078000Y-126460000D03*
X60878000Y-126460000D03*
X61678000Y-126460000D03*
X62478000Y-126460000D03*
X63278000Y-126460000D03*
X64078000Y-126460000D03*
X64878000Y-126460000D03*
X65678000Y-126460000D03*
X66478000Y-126460000D03*
X67278000Y-126460000D03*
X68078000Y-126460000D03*
X68878000Y-126460000D03*
X69678000Y-126460000D03*
X70478000Y-126460000D03*
X71278000Y-126460000D03*
X59278000Y-125660000D03*
X60078000Y-125660000D03*
X60878000Y-125660000D03*
X61678000Y-125660000D03*
X62478000Y-125660000D03*
X63278000Y-125660000D03*
X64078000Y-125660000D03*
X64878000Y-125660000D03*
X65678000Y-125660000D03*
X66478000Y-125660000D03*
X67278000Y-125660000D03*
X68078000Y-125660000D03*
X68878000Y-125660000D03*
X69678000Y-125660000D03*
X70478000Y-125660000D03*
X71278000Y-125660000D03*
X59278000Y-124860000D03*
X60078000Y-124860000D03*
X60878000Y-124860000D03*
X61678000Y-124860000D03*
X62478000Y-124860000D03*
X63278000Y-124860000D03*
X64078000Y-124860000D03*
X64878000Y-124860000D03*
X65678000Y-124860000D03*
X66478000Y-124860000D03*
X67278000Y-124860000D03*
X68078000Y-124860000D03*
X68878000Y-124860000D03*
X69678000Y-124860000D03*
X70478000Y-124860000D03*
X71278000Y-124860000D03*
X59278000Y-124060000D03*
X60078000Y-124060000D03*
X60878000Y-124060000D03*
X61678000Y-124060000D03*
X62478000Y-124060000D03*
X63278000Y-124060000D03*
X64078000Y-124060000D03*
X64878000Y-124060000D03*
X65678000Y-124060000D03*
X66478000Y-124060000D03*
X67278000Y-124060000D03*
X68078000Y-124060000D03*
X68878000Y-124060000D03*
X69678000Y-124060000D03*
X70478000Y-124060000D03*
X71278000Y-124060000D03*
X59278000Y-123260000D03*
X60078000Y-123260000D03*
X60878000Y-123260000D03*
X61678000Y-123260000D03*
X62478000Y-123260000D03*
X63278000Y-123260000D03*
X64078000Y-123260000D03*
X64878000Y-123260000D03*
X65678000Y-123260000D03*
X66478000Y-123260000D03*
X67278000Y-123260000D03*
X68078000Y-123260000D03*
X68878000Y-123260000D03*
X69678000Y-123260000D03*
X70478000Y-123260000D03*
X71278000Y-123260000D03*
X59278000Y-122460000D03*
X60078000Y-122460000D03*
X60878000Y-122460000D03*
X61678000Y-122460000D03*
X62478000Y-122460000D03*
X63278000Y-122460000D03*
X64078000Y-122460000D03*
X64878000Y-122460000D03*
X65678000Y-122460000D03*
X66478000Y-122460000D03*
X67278000Y-122460000D03*
X68078000Y-122460000D03*
X68878000Y-122460000D03*
X69678000Y-122460000D03*
X70478000Y-122460000D03*
X71278000Y-122460000D03*
X59278000Y-121660000D03*
X60078000Y-121660000D03*
X60878000Y-121660000D03*
X61678000Y-121660000D03*
X62478000Y-121660000D03*
X63278000Y-121660000D03*
X64078000Y-121660000D03*
X64878000Y-121660000D03*
X65678000Y-121660000D03*
X66478000Y-121660000D03*
X67278000Y-121660000D03*
X68078000Y-121660000D03*
X68878000Y-121660000D03*
X69678000Y-121660000D03*
X70478000Y-121660000D03*
X71278000Y-121660000D03*
X59278000Y-120860000D03*
X60078000Y-120860000D03*
X60878000Y-120860000D03*
X61678000Y-120860000D03*
X62478000Y-120860000D03*
X63278000Y-120860000D03*
X64078000Y-120860000D03*
X64878000Y-120860000D03*
X65678000Y-120860000D03*
X66478000Y-120860000D03*
X67278000Y-120860000D03*
X68078000Y-120860000D03*
X68878000Y-120860000D03*
X69678000Y-120860000D03*
X70478000Y-120860000D03*
X71278000Y-120860000D03*
X59278000Y-120060000D03*
X60078000Y-120060000D03*
X60878000Y-120060000D03*
X61678000Y-120060000D03*
X62478000Y-120060000D03*
X63278000Y-120060000D03*
X64078000Y-120060000D03*
X64878000Y-120060000D03*
X65678000Y-120060000D03*
X66478000Y-120060000D03*
X67278000Y-120060000D03*
X68078000Y-120060000D03*
X68878000Y-120060000D03*
X69678000Y-120060000D03*
X70478000Y-120060000D03*
X71278000Y-120060000D03*
X59278000Y-119260000D03*
X60078000Y-119260000D03*
X60878000Y-119260000D03*
X61678000Y-119260000D03*
X62478000Y-119260000D03*
X63278000Y-119260000D03*
X64078000Y-119260000D03*
X64878000Y-119260000D03*
X65678000Y-119260000D03*
X66478000Y-119260000D03*
X67278000Y-119260000D03*
X68078000Y-119260000D03*
X68878000Y-119260000D03*
X69678000Y-119260000D03*
X70478000Y-119260000D03*
X71278000Y-119260000D03*
X59278000Y-118460000D03*
X60078000Y-118460000D03*
X60878000Y-118460000D03*
X61678000Y-118460000D03*
X62478000Y-118460000D03*
X63278000Y-118460000D03*
X64078000Y-118460000D03*
X64878000Y-118460000D03*
X65678000Y-118460000D03*
X66478000Y-118460000D03*
X67278000Y-118460000D03*
X68078000Y-118460000D03*
X68878000Y-118460000D03*
X69678000Y-118460000D03*
X70478000Y-118460000D03*
X71278000Y-118460000D03*
%TD*%
%TO.C,C10*%
G36*
G01*
X46146500Y-109792000D02*
X45801500Y-109792000D01*
G75*
G02*
X45654000Y-109644500I0J147500D01*
G01*
X45654000Y-109349500D01*
G75*
G02*
X45801500Y-109202000I147500J0D01*
G01*
X46146500Y-109202000D01*
G75*
G02*
X46294000Y-109349500I0J-147500D01*
G01*
X46294000Y-109644500D01*
G75*
G02*
X46146500Y-109792000I-147500J0D01*
G01*
G37*
G36*
G01*
X46146500Y-110762000D02*
X45801500Y-110762000D01*
G75*
G02*
X45654000Y-110614500I0J147500D01*
G01*
X45654000Y-110319500D01*
G75*
G02*
X45801500Y-110172000I147500J0D01*
G01*
X46146500Y-110172000D01*
G75*
G02*
X46294000Y-110319500I0J-147500D01*
G01*
X46294000Y-110614500D01*
G75*
G02*
X46146500Y-110762000I-147500J0D01*
G01*
G37*
%TD*%
%TO.C,C9*%
G36*
G01*
X45801500Y-108140000D02*
X46146500Y-108140000D01*
G75*
G02*
X46294000Y-108287500I0J-147500D01*
G01*
X46294000Y-108582500D01*
G75*
G02*
X46146500Y-108730000I-147500J0D01*
G01*
X45801500Y-108730000D01*
G75*
G02*
X45654000Y-108582500I0J147500D01*
G01*
X45654000Y-108287500D01*
G75*
G02*
X45801500Y-108140000I147500J0D01*
G01*
G37*
G36*
G01*
X45801500Y-107170000D02*
X46146500Y-107170000D01*
G75*
G02*
X46294000Y-107317500I0J-147500D01*
G01*
X46294000Y-107612500D01*
G75*
G02*
X46146500Y-107760000I-147500J0D01*
G01*
X45801500Y-107760000D01*
G75*
G02*
X45654000Y-107612500I0J147500D01*
G01*
X45654000Y-107317500D01*
G75*
G02*
X45801500Y-107170000I147500J0D01*
G01*
G37*
%TD*%
%TO.C,C8*%
G36*
G01*
X54274500Y-109792000D02*
X53929500Y-109792000D01*
G75*
G02*
X53782000Y-109644500I0J147500D01*
G01*
X53782000Y-109349500D01*
G75*
G02*
X53929500Y-109202000I147500J0D01*
G01*
X54274500Y-109202000D01*
G75*
G02*
X54422000Y-109349500I0J-147500D01*
G01*
X54422000Y-109644500D01*
G75*
G02*
X54274500Y-109792000I-147500J0D01*
G01*
G37*
G36*
G01*
X54274500Y-110762000D02*
X53929500Y-110762000D01*
G75*
G02*
X53782000Y-110614500I0J147500D01*
G01*
X53782000Y-110319500D01*
G75*
G02*
X53929500Y-110172000I147500J0D01*
G01*
X54274500Y-110172000D01*
G75*
G02*
X54422000Y-110319500I0J-147500D01*
G01*
X54422000Y-110614500D01*
G75*
G02*
X54274500Y-110762000I-147500J0D01*
G01*
G37*
%TD*%
%TO.C,C7*%
G36*
G01*
X53929500Y-108117000D02*
X54274500Y-108117000D01*
G75*
G02*
X54422000Y-108264500I0J-147500D01*
G01*
X54422000Y-108559500D01*
G75*
G02*
X54274500Y-108707000I-147500J0D01*
G01*
X53929500Y-108707000D01*
G75*
G02*
X53782000Y-108559500I0J147500D01*
G01*
X53782000Y-108264500D01*
G75*
G02*
X53929500Y-108117000I147500J0D01*
G01*
G37*
G36*
G01*
X53929500Y-107147000D02*
X54274500Y-107147000D01*
G75*
G02*
X54422000Y-107294500I0J-147500D01*
G01*
X54422000Y-107589500D01*
G75*
G02*
X54274500Y-107737000I-147500J0D01*
G01*
X53929500Y-107737000D01*
G75*
G02*
X53782000Y-107589500I0J147500D01*
G01*
X53782000Y-107294500D01*
G75*
G02*
X53929500Y-107147000I147500J0D01*
G01*
G37*
%TD*%
%TO.C,C6*%
G36*
G01*
X62402500Y-109792000D02*
X62057500Y-109792000D01*
G75*
G02*
X61910000Y-109644500I0J147500D01*
G01*
X61910000Y-109349500D01*
G75*
G02*
X62057500Y-109202000I147500J0D01*
G01*
X62402500Y-109202000D01*
G75*
G02*
X62550000Y-109349500I0J-147500D01*
G01*
X62550000Y-109644500D01*
G75*
G02*
X62402500Y-109792000I-147500J0D01*
G01*
G37*
G36*
G01*
X62402500Y-110762000D02*
X62057500Y-110762000D01*
G75*
G02*
X61910000Y-110614500I0J147500D01*
G01*
X61910000Y-110319500D01*
G75*
G02*
X62057500Y-110172000I147500J0D01*
G01*
X62402500Y-110172000D01*
G75*
G02*
X62550000Y-110319500I0J-147500D01*
G01*
X62550000Y-110614500D01*
G75*
G02*
X62402500Y-110762000I-147500J0D01*
G01*
G37*
%TD*%
%TO.C,C5*%
G36*
G01*
X62057500Y-108140000D02*
X62402500Y-108140000D01*
G75*
G02*
X62550000Y-108287500I0J-147500D01*
G01*
X62550000Y-108582500D01*
G75*
G02*
X62402500Y-108730000I-147500J0D01*
G01*
X62057500Y-108730000D01*
G75*
G02*
X61910000Y-108582500I0J147500D01*
G01*
X61910000Y-108287500D01*
G75*
G02*
X62057500Y-108140000I147500J0D01*
G01*
G37*
G36*
G01*
X62057500Y-107170000D02*
X62402500Y-107170000D01*
G75*
G02*
X62550000Y-107317500I0J-147500D01*
G01*
X62550000Y-107612500D01*
G75*
G02*
X62402500Y-107760000I-147500J0D01*
G01*
X62057500Y-107760000D01*
G75*
G02*
X61910000Y-107612500I0J147500D01*
G01*
X61910000Y-107317500D01*
G75*
G02*
X62057500Y-107170000I147500J0D01*
G01*
G37*
%TD*%
%TO.C,C4*%
G36*
G01*
X70530500Y-109792000D02*
X70185500Y-109792000D01*
G75*
G02*
X70038000Y-109644500I0J147500D01*
G01*
X70038000Y-109349500D01*
G75*
G02*
X70185500Y-109202000I147500J0D01*
G01*
X70530500Y-109202000D01*
G75*
G02*
X70678000Y-109349500I0J-147500D01*
G01*
X70678000Y-109644500D01*
G75*
G02*
X70530500Y-109792000I-147500J0D01*
G01*
G37*
G36*
G01*
X70530500Y-110762000D02*
X70185500Y-110762000D01*
G75*
G02*
X70038000Y-110614500I0J147500D01*
G01*
X70038000Y-110319500D01*
G75*
G02*
X70185500Y-110172000I147500J0D01*
G01*
X70530500Y-110172000D01*
G75*
G02*
X70678000Y-110319500I0J-147500D01*
G01*
X70678000Y-110614500D01*
G75*
G02*
X70530500Y-110762000I-147500J0D01*
G01*
G37*
%TD*%
%TO.C,C3*%
G36*
G01*
X70185500Y-108140000D02*
X70530500Y-108140000D01*
G75*
G02*
X70678000Y-108287500I0J-147500D01*
G01*
X70678000Y-108582500D01*
G75*
G02*
X70530500Y-108730000I-147500J0D01*
G01*
X70185500Y-108730000D01*
G75*
G02*
X70038000Y-108582500I0J147500D01*
G01*
X70038000Y-108287500D01*
G75*
G02*
X70185500Y-108140000I147500J0D01*
G01*
G37*
G36*
G01*
X70185500Y-107170000D02*
X70530500Y-107170000D01*
G75*
G02*
X70678000Y-107317500I0J-147500D01*
G01*
X70678000Y-107612500D01*
G75*
G02*
X70530500Y-107760000I-147500J0D01*
G01*
X70185500Y-107760000D01*
G75*
G02*
X70038000Y-107612500I0J147500D01*
G01*
X70038000Y-107317500D01*
G75*
G02*
X70185500Y-107170000I147500J0D01*
G01*
G37*
%TD*%
%TO.C,C2*%
G36*
G01*
X78658500Y-109561000D02*
X78313500Y-109561000D01*
G75*
G02*
X78166000Y-109413500I0J147500D01*
G01*
X78166000Y-109118500D01*
G75*
G02*
X78313500Y-108971000I147500J0D01*
G01*
X78658500Y-108971000D01*
G75*
G02*
X78806000Y-109118500I0J-147500D01*
G01*
X78806000Y-109413500D01*
G75*
G02*
X78658500Y-109561000I-147500J0D01*
G01*
G37*
G36*
G01*
X78658500Y-110531000D02*
X78313500Y-110531000D01*
G75*
G02*
X78166000Y-110383500I0J147500D01*
G01*
X78166000Y-110088500D01*
G75*
G02*
X78313500Y-109941000I147500J0D01*
G01*
X78658500Y-109941000D01*
G75*
G02*
X78806000Y-110088500I0J-147500D01*
G01*
X78806000Y-110383500D01*
G75*
G02*
X78658500Y-110531000I-147500J0D01*
G01*
G37*
%TD*%
%TO.C,C1*%
G36*
G01*
X78313500Y-107886000D02*
X78658500Y-107886000D01*
G75*
G02*
X78806000Y-108033500I0J-147500D01*
G01*
X78806000Y-108328500D01*
G75*
G02*
X78658500Y-108476000I-147500J0D01*
G01*
X78313500Y-108476000D01*
G75*
G02*
X78166000Y-108328500I0J147500D01*
G01*
X78166000Y-108033500D01*
G75*
G02*
X78313500Y-107886000I147500J0D01*
G01*
G37*
G36*
G01*
X78313500Y-106916000D02*
X78658500Y-106916000D01*
G75*
G02*
X78806000Y-107063500I0J-147500D01*
G01*
X78806000Y-107358500D01*
G75*
G02*
X78658500Y-107506000I-147500J0D01*
G01*
X78313500Y-107506000D01*
G75*
G02*
X78166000Y-107358500I0J147500D01*
G01*
X78166000Y-107063500D01*
G75*
G02*
X78313500Y-106916000I147500J0D01*
G01*
G37*
%TD*%
D21*
%TO.C,IC5*%
X84484000Y-108966000D03*
X80108000Y-108966000D03*
D22*
X84946000Y-108691000D03*
X84946000Y-109241000D03*
X79646000Y-108691000D03*
X79646000Y-109241000D03*
D23*
X82296000Y-108966000D03*
D24*
X79646000Y-108216000D03*
D25*
X80046000Y-107316000D03*
X80546000Y-107316000D03*
X81046000Y-107316000D03*
X81546000Y-107316000D03*
X82046000Y-107316000D03*
X82546000Y-107316000D03*
X83046000Y-107316000D03*
X83546000Y-107316000D03*
X84046000Y-107316000D03*
X84546000Y-107316000D03*
D24*
X84946000Y-108216000D03*
X84946000Y-109716000D03*
D25*
X84546000Y-110616000D03*
X84046000Y-110616000D03*
X83546000Y-110616000D03*
X83046000Y-110616000D03*
X82546000Y-110616000D03*
X82046000Y-110616000D03*
X81546000Y-110616000D03*
X81046000Y-110616000D03*
X80546000Y-110616000D03*
X80046000Y-110616000D03*
D24*
X79646000Y-109716000D03*
%TD*%
D21*
%TO.C,IC4*%
X76356000Y-108966000D03*
X71980000Y-108966000D03*
D22*
X76818000Y-108691000D03*
X76818000Y-109241000D03*
X71518000Y-108691000D03*
X71518000Y-109241000D03*
D23*
X74168000Y-108966000D03*
D24*
X71518000Y-108216000D03*
D25*
X71918000Y-107316000D03*
X72418000Y-107316000D03*
X72918000Y-107316000D03*
X73418000Y-107316000D03*
X73918000Y-107316000D03*
X74418000Y-107316000D03*
X74918000Y-107316000D03*
X75418000Y-107316000D03*
X75918000Y-107316000D03*
X76418000Y-107316000D03*
D24*
X76818000Y-108216000D03*
X76818000Y-109716000D03*
D25*
X76418000Y-110616000D03*
X75918000Y-110616000D03*
X75418000Y-110616000D03*
X74918000Y-110616000D03*
X74418000Y-110616000D03*
X73918000Y-110616000D03*
X73418000Y-110616000D03*
X72918000Y-110616000D03*
X72418000Y-110616000D03*
X71918000Y-110616000D03*
D24*
X71518000Y-109716000D03*
%TD*%
D21*
%TO.C,IC3*%
X68228000Y-108966000D03*
X63852000Y-108966000D03*
D22*
X68690000Y-108691000D03*
X68690000Y-109241000D03*
X63390000Y-108691000D03*
X63390000Y-109241000D03*
D23*
X66040000Y-108966000D03*
D24*
X63390000Y-108216000D03*
D25*
X63790000Y-107316000D03*
X64290000Y-107316000D03*
X64790000Y-107316000D03*
X65290000Y-107316000D03*
X65790000Y-107316000D03*
X66290000Y-107316000D03*
X66790000Y-107316000D03*
X67290000Y-107316000D03*
X67790000Y-107316000D03*
X68290000Y-107316000D03*
D24*
X68690000Y-108216000D03*
X68690000Y-109716000D03*
D25*
X68290000Y-110616000D03*
X67790000Y-110616000D03*
X67290000Y-110616000D03*
X66790000Y-110616000D03*
X66290000Y-110616000D03*
X65790000Y-110616000D03*
X65290000Y-110616000D03*
X64790000Y-110616000D03*
X64290000Y-110616000D03*
X63790000Y-110616000D03*
D24*
X63390000Y-109716000D03*
%TD*%
D21*
%TO.C,IC2*%
X60100000Y-108966000D03*
X55724000Y-108966000D03*
D22*
X60562000Y-108691000D03*
X60562000Y-109241000D03*
X55262000Y-108691000D03*
X55262000Y-109241000D03*
D23*
X57912000Y-108966000D03*
D24*
X55262000Y-108216000D03*
D25*
X55662000Y-107316000D03*
X56162000Y-107316000D03*
X56662000Y-107316000D03*
X57162000Y-107316000D03*
X57662000Y-107316000D03*
X58162000Y-107316000D03*
X58662000Y-107316000D03*
X59162000Y-107316000D03*
X59662000Y-107316000D03*
X60162000Y-107316000D03*
D24*
X60562000Y-108216000D03*
X60562000Y-109716000D03*
D25*
X60162000Y-110616000D03*
X59662000Y-110616000D03*
X59162000Y-110616000D03*
X58662000Y-110616000D03*
X58162000Y-110616000D03*
X57662000Y-110616000D03*
X57162000Y-110616000D03*
X56662000Y-110616000D03*
X56162000Y-110616000D03*
X55662000Y-110616000D03*
D24*
X55262000Y-109716000D03*
%TD*%
D21*
%TO.C,IC1*%
X51972000Y-108966000D03*
X47596000Y-108966000D03*
D22*
X52434000Y-108691000D03*
X52434000Y-109241000D03*
X47134000Y-108691000D03*
X47134000Y-109241000D03*
D23*
X49784000Y-108966000D03*
D24*
X47134000Y-108216000D03*
D25*
X47534000Y-107316000D03*
X48034000Y-107316000D03*
X48534000Y-107316000D03*
X49034000Y-107316000D03*
X49534000Y-107316000D03*
X50034000Y-107316000D03*
X50534000Y-107316000D03*
X51034000Y-107316000D03*
X51534000Y-107316000D03*
X52034000Y-107316000D03*
D24*
X52434000Y-108216000D03*
X52434000Y-109716000D03*
D25*
X52034000Y-110616000D03*
X51534000Y-110616000D03*
X51034000Y-110616000D03*
X50534000Y-110616000D03*
X50034000Y-110616000D03*
X49534000Y-110616000D03*
X49034000Y-110616000D03*
X48534000Y-110616000D03*
X48034000Y-110616000D03*
X47534000Y-110616000D03*
D24*
X47134000Y-109716000D03*
%TD*%
M02*
