%TF.GenerationSoftware,KiCad,Pcbnew,5.1.6*%
%TF.CreationDate,2021-04-23T20:37:08+02:00*%
%TF.ProjectId,prog,70726f67-2e6b-4696-9361-645f70636258,rev?*%
%TF.SameCoordinates,Original*%
%TF.FileFunction,Copper,L2,Bot*%
%TF.FilePolarity,Positive*%
%FSLAX46Y46*%
G04 Gerber Fmt 4.6, Leading zero omitted, Abs format (unit mm)*
G04 Created by KiCad (PCBNEW 5.1.6) date 2021-04-23 20:37:08*
%MOMM*%
%LPD*%
G01*
G04 APERTURE LIST*
%TA.AperFunction,ComponentPad*%
%ADD10C,1.850000*%
%TD*%
%TA.AperFunction,ComponentPad*%
%ADD11C,1.000000*%
%TD*%
%TA.AperFunction,ComponentPad*%
%ADD12O,1.700000X1.700000*%
%TD*%
%TA.AperFunction,ComponentPad*%
%ADD13R,1.700000X1.700000*%
%TD*%
%TA.AperFunction,ViaPad*%
%ADD14C,0.800000*%
%TD*%
%TA.AperFunction,Conductor*%
%ADD15C,0.250000*%
%TD*%
G04 APERTURE END LIST*
D10*
%TO.P,J2,MH2*%
%TO.N,GND*%
X65188000Y-162560000D03*
%TO.P,J2,MH1*%
X58038000Y-162560000D03*
%TD*%
D11*
%TO.P,J3,10*%
%TO.N,CDONE*%
X49784000Y-148082000D03*
%TO.P,J3,9*%
%TO.N,+5V*%
X52324000Y-148082000D03*
%TO.P,J3,8*%
%TO.N,CRESET*%
X49784000Y-146812000D03*
%TO.P,J3,7*%
%TO.N,CS*%
X52324000Y-146812000D03*
%TO.P,J3,6*%
%TO.N,GND*%
X49784000Y-145542000D03*
%TO.P,J3,5*%
%TO.N,MISO*%
X52324000Y-145542000D03*
%TO.P,J3,4*%
%TO.N,GND*%
X49784000Y-144272000D03*
%TO.P,J3,3*%
%TO.N,+3V3*%
X52324000Y-144272000D03*
%TO.P,J3,2*%
%TO.N,MOSI*%
X49784000Y-143002000D03*
%TO.P,J3,1*%
%TO.N,SCK*%
X52324000Y-143002000D03*
%TD*%
D12*
%TO.P,J1,2*%
%TO.N,+5V*%
X49784000Y-160528000D03*
D13*
%TO.P,J1,1*%
%TO.N,Net-(J1-Pad1)*%
X52324000Y-160528000D03*
%TD*%
D14*
%TO.N,+3V3*%
X58312700Y-145673900D03*
X59189000Y-144470900D03*
%TO.N,MISO*%
X65101200Y-150535800D03*
%TO.N,MOSI*%
X67236100Y-150718000D03*
%TO.N,SCK*%
X66235000Y-152098000D03*
%TO.N,CS*%
X63912000Y-150378300D03*
%TO.N,Net-(C5-Pad1)*%
X63114200Y-153051500D03*
X56221900Y-148079000D03*
%TD*%
D15*
%TO.N,GND*%
X49784000Y-145542000D02*
X49784000Y-144272000D01*
%TO.N,+3V3*%
X58312700Y-145673900D02*
X59189000Y-144797600D01*
X59189000Y-144797600D02*
X59189000Y-144470900D01*
X52324000Y-144272000D02*
X58990100Y-144272000D01*
X58990100Y-144272000D02*
X59189000Y-144470900D01*
%TO.N,MISO*%
X52324000Y-145542000D02*
X53243000Y-146461000D01*
X53243000Y-146461000D02*
X61026400Y-146461000D01*
X61026400Y-146461000D02*
X65101200Y-150535800D01*
%TO.N,MOSI*%
X49784000Y-143002000D02*
X50617900Y-142168100D01*
X50617900Y-142168100D02*
X58686200Y-142168100D01*
X58686200Y-142168100D02*
X67236100Y-150718000D01*
%TO.N,SCK*%
X52324000Y-143002000D02*
X58812600Y-143002000D01*
X58812600Y-143002000D02*
X66235000Y-150424400D01*
X66235000Y-150424400D02*
X66235000Y-152098000D01*
%TO.N,CS*%
X52324000Y-146812000D02*
X52768600Y-147256600D01*
X52768600Y-147256600D02*
X60790300Y-147256600D01*
X60790300Y-147256600D02*
X63912000Y-150378300D01*
%TO.N,Net-(C5-Pad1)*%
X56221900Y-148079000D02*
X58141700Y-148079000D01*
X58141700Y-148079000D02*
X63114200Y-153051500D01*
%TD*%
M02*
