%TF.GenerationSoftware,KiCad,Pcbnew,5.1.6*%
%TF.CreationDate,2021-04-23T20:37:08+02:00*%
%TF.ProjectId,prog,70726f67-2e6b-4696-9361-645f70636258,rev?*%
%TF.SameCoordinates,Original*%
%TF.FileFunction,Soldermask,Top*%
%TF.FilePolarity,Negative*%
%FSLAX46Y46*%
G04 Gerber Fmt 4.6, Leading zero omitted, Abs format (unit mm)*
G04 Created by KiCad (PCBNEW 5.1.6) date 2021-04-23 20:37:08*
%MOMM*%
%LPD*%
G01*
G04 APERTURE LIST*
%ADD10R,1.500000X1.300000*%
%ADD11R,1.250000X1.550000*%
%ADD12R,1.850000X2.000000*%
%ADD13C,1.950000*%
%ADD14R,0.500000X1.500000*%
%ADD15C,1.100000*%
%ADD16O,1.800000X1.800000*%
%ADD17R,1.800000X1.800000*%
%ADD18R,4.500000X4.500000*%
%ADD19R,0.950000X0.400000*%
%ADD20R,0.400000X0.950000*%
G04 APERTURE END LIST*
D10*
%TO.C,Y1*%
X50292000Y-151978000D03*
X52832000Y-151978000D03*
X52832000Y-154178000D03*
X50292000Y-154178000D03*
%TD*%
%TO.C,C4*%
G36*
G01*
X62002750Y-156786000D02*
X62965250Y-156786000D01*
G75*
G02*
X63234000Y-157054750I0J-268750D01*
G01*
X63234000Y-157592250D01*
G75*
G02*
X62965250Y-157861000I-268750J0D01*
G01*
X62002750Y-157861000D01*
G75*
G02*
X61734000Y-157592250I0J268750D01*
G01*
X61734000Y-157054750D01*
G75*
G02*
X62002750Y-156786000I268750J0D01*
G01*
G37*
G36*
G01*
X62002750Y-154911000D02*
X62965250Y-154911000D01*
G75*
G02*
X63234000Y-155179750I0J-268750D01*
G01*
X63234000Y-155717250D01*
G75*
G02*
X62965250Y-155986000I-268750J0D01*
G01*
X62002750Y-155986000D01*
G75*
G02*
X61734000Y-155717250I0J268750D01*
G01*
X61734000Y-155179750D01*
G75*
G02*
X62002750Y-154911000I268750J0D01*
G01*
G37*
%TD*%
D11*
%TO.C,J2*%
X63933000Y-160330000D03*
X59293000Y-160330000D03*
D12*
X62738000Y-162560000D03*
X60488000Y-162560000D03*
D13*
X65188000Y-162560000D03*
X58038000Y-162560000D03*
D14*
X62913000Y-159910000D03*
X62263000Y-159910000D03*
X61613000Y-159910000D03*
X60963000Y-159910000D03*
X60313000Y-159910000D03*
%TD*%
%TO.C,R2*%
G36*
G01*
X65599500Y-154151250D02*
X65599500Y-153188750D01*
G75*
G02*
X65868250Y-152920000I268750J0D01*
G01*
X66405750Y-152920000D01*
G75*
G02*
X66674500Y-153188750I0J-268750D01*
G01*
X66674500Y-154151250D01*
G75*
G02*
X66405750Y-154420000I-268750J0D01*
G01*
X65868250Y-154420000D01*
G75*
G02*
X65599500Y-154151250I0J268750D01*
G01*
G37*
G36*
G01*
X63724500Y-154151250D02*
X63724500Y-153188750D01*
G75*
G02*
X63993250Y-152920000I268750J0D01*
G01*
X64530750Y-152920000D01*
G75*
G02*
X64799500Y-153188750I0J-268750D01*
G01*
X64799500Y-154151250D01*
G75*
G02*
X64530750Y-154420000I-268750J0D01*
G01*
X63993250Y-154420000D01*
G75*
G02*
X63724500Y-154151250I0J268750D01*
G01*
G37*
%TD*%
%TO.C,R1*%
G36*
G01*
X53194000Y-156490750D02*
X53194000Y-157453250D01*
G75*
G02*
X52925250Y-157722000I-268750J0D01*
G01*
X52387750Y-157722000D01*
G75*
G02*
X52119000Y-157453250I0J268750D01*
G01*
X52119000Y-156490750D01*
G75*
G02*
X52387750Y-156222000I268750J0D01*
G01*
X52925250Y-156222000D01*
G75*
G02*
X53194000Y-156490750I0J-268750D01*
G01*
G37*
G36*
G01*
X55069000Y-156490750D02*
X55069000Y-157453250D01*
G75*
G02*
X54800250Y-157722000I-268750J0D01*
G01*
X54262750Y-157722000D01*
G75*
G02*
X53994000Y-157453250I0J268750D01*
G01*
X53994000Y-156490750D01*
G75*
G02*
X54262750Y-156222000I268750J0D01*
G01*
X54800250Y-156222000D01*
G75*
G02*
X55069000Y-156490750I0J-268750D01*
G01*
G37*
%TD*%
%TO.C,C5*%
G36*
G01*
X64837500Y-141705250D02*
X64837500Y-140742750D01*
G75*
G02*
X65106250Y-140474000I268750J0D01*
G01*
X65643750Y-140474000D01*
G75*
G02*
X65912500Y-140742750I0J-268750D01*
G01*
X65912500Y-141705250D01*
G75*
G02*
X65643750Y-141974000I-268750J0D01*
G01*
X65106250Y-141974000D01*
G75*
G02*
X64837500Y-141705250I0J268750D01*
G01*
G37*
G36*
G01*
X62962500Y-141705250D02*
X62962500Y-140742750D01*
G75*
G02*
X63231250Y-140474000I268750J0D01*
G01*
X63768750Y-140474000D01*
G75*
G02*
X64037500Y-140742750I0J-268750D01*
G01*
X64037500Y-141705250D01*
G75*
G02*
X63768750Y-141974000I-268750J0D01*
G01*
X63231250Y-141974000D01*
G75*
G02*
X62962500Y-141705250I0J268750D01*
G01*
G37*
%TD*%
%TO.C,C3*%
G36*
G01*
X64034750Y-156786000D02*
X64997250Y-156786000D01*
G75*
G02*
X65266000Y-157054750I0J-268750D01*
G01*
X65266000Y-157592250D01*
G75*
G02*
X64997250Y-157861000I-268750J0D01*
G01*
X64034750Y-157861000D01*
G75*
G02*
X63766000Y-157592250I0J268750D01*
G01*
X63766000Y-157054750D01*
G75*
G02*
X64034750Y-156786000I268750J0D01*
G01*
G37*
G36*
G01*
X64034750Y-154911000D02*
X64997250Y-154911000D01*
G75*
G02*
X65266000Y-155179750I0J-268750D01*
G01*
X65266000Y-155717250D01*
G75*
G02*
X64997250Y-155986000I-268750J0D01*
G01*
X64034750Y-155986000D01*
G75*
G02*
X63766000Y-155717250I0J268750D01*
G01*
X63766000Y-155179750D01*
G75*
G02*
X64034750Y-154911000I268750J0D01*
G01*
G37*
%TD*%
%TO.C,C2*%
G36*
G01*
X57176750Y-156688000D02*
X58139250Y-156688000D01*
G75*
G02*
X58408000Y-156956750I0J-268750D01*
G01*
X58408000Y-157494250D01*
G75*
G02*
X58139250Y-157763000I-268750J0D01*
G01*
X57176750Y-157763000D01*
G75*
G02*
X56908000Y-157494250I0J268750D01*
G01*
X56908000Y-156956750D01*
G75*
G02*
X57176750Y-156688000I268750J0D01*
G01*
G37*
G36*
G01*
X57176750Y-154813000D02*
X58139250Y-154813000D01*
G75*
G02*
X58408000Y-155081750I0J-268750D01*
G01*
X58408000Y-155619250D01*
G75*
G02*
X58139250Y-155888000I-268750J0D01*
G01*
X57176750Y-155888000D01*
G75*
G02*
X56908000Y-155619250I0J268750D01*
G01*
X56908000Y-155081750D01*
G75*
G02*
X57176750Y-154813000I268750J0D01*
G01*
G37*
%TD*%
%TO.C,C1*%
G36*
G01*
X59208750Y-156688000D02*
X60171250Y-156688000D01*
G75*
G02*
X60440000Y-156956750I0J-268750D01*
G01*
X60440000Y-157494250D01*
G75*
G02*
X60171250Y-157763000I-268750J0D01*
G01*
X59208750Y-157763000D01*
G75*
G02*
X58940000Y-157494250I0J268750D01*
G01*
X58940000Y-156956750D01*
G75*
G02*
X59208750Y-156688000I268750J0D01*
G01*
G37*
G36*
G01*
X59208750Y-154813000D02*
X60171250Y-154813000D01*
G75*
G02*
X60440000Y-155081750I0J-268750D01*
G01*
X60440000Y-155619250D01*
G75*
G02*
X60171250Y-155888000I-268750J0D01*
G01*
X59208750Y-155888000D01*
G75*
G02*
X58940000Y-155619250I0J268750D01*
G01*
X58940000Y-155081750D01*
G75*
G02*
X59208750Y-154813000I268750J0D01*
G01*
G37*
%TD*%
D15*
%TO.C,J3*%
X49784000Y-148082000D03*
X52324000Y-148082000D03*
X49784000Y-146812000D03*
X52324000Y-146812000D03*
X49784000Y-145542000D03*
X52324000Y-145542000D03*
X49784000Y-144272000D03*
X52324000Y-144272000D03*
X49784000Y-143002000D03*
X52324000Y-143002000D03*
%TD*%
D16*
%TO.C,J1*%
X49784000Y-160528000D03*
D17*
X52324000Y-160528000D03*
%TD*%
D18*
%TO.C,IC1*%
X61722000Y-147574000D03*
D19*
X57272000Y-151324000D03*
X57272000Y-150824000D03*
X57272000Y-150324000D03*
X57272000Y-149824000D03*
X57272000Y-149324000D03*
X57272000Y-148824000D03*
X57272000Y-148324000D03*
X57272000Y-147824000D03*
X57272000Y-147324000D03*
X57272000Y-146824000D03*
X57272000Y-146324000D03*
X57272000Y-145824000D03*
X57272000Y-145324000D03*
X57272000Y-144824000D03*
X57272000Y-144324000D03*
X57272000Y-143824000D03*
D20*
X57972000Y-143124000D03*
X58472000Y-143124000D03*
X58972000Y-143124000D03*
X59472000Y-143124000D03*
X59972000Y-143124000D03*
X60472000Y-143124000D03*
X60972000Y-143124000D03*
X61472000Y-143124000D03*
X61972000Y-143124000D03*
X62472000Y-143124000D03*
X62972000Y-143124000D03*
X63472000Y-143124000D03*
X63972000Y-143124000D03*
X64472000Y-143124000D03*
X64972000Y-143124000D03*
X65472000Y-143124000D03*
D19*
X66172000Y-143824000D03*
X66172000Y-144324000D03*
X66172000Y-144824000D03*
X66172000Y-145324000D03*
X66172000Y-145824000D03*
X66172000Y-146324000D03*
X66172000Y-146824000D03*
X66172000Y-147324000D03*
X66172000Y-147824000D03*
X66172000Y-148324000D03*
X66172000Y-148824000D03*
X66172000Y-149324000D03*
X66172000Y-149824000D03*
X66172000Y-150324000D03*
X66172000Y-150824000D03*
X66172000Y-151324000D03*
D20*
X65472000Y-152024000D03*
X64972000Y-152024000D03*
X64472000Y-152024000D03*
X63972000Y-152024000D03*
X63472000Y-152024000D03*
X62972000Y-152024000D03*
X62472000Y-152024000D03*
X61972000Y-152024000D03*
X61472000Y-152024000D03*
X60972000Y-152024000D03*
X60472000Y-152024000D03*
X59972000Y-152024000D03*
X59472000Y-152024000D03*
X58972000Y-152024000D03*
X58472000Y-152024000D03*
X57972000Y-152024000D03*
%TD*%
M02*
