%TF.GenerationSoftware,KiCad,Pcbnew,5.1.6*%
%TF.CreationDate,2021-04-23T20:37:08+02:00*%
%TF.ProjectId,prog,70726f67-2e6b-4696-9361-645f70636258,rev?*%
%TF.SameCoordinates,Original*%
%TF.FileFunction,Legend,Bot*%
%TF.FilePolarity,Positive*%
%FSLAX46Y46*%
G04 Gerber Fmt 4.6, Leading zero omitted, Abs format (unit mm)*
G04 Created by KiCad (PCBNEW 5.1.6) date 2021-04-23 20:37:08*
%MOMM*%
%LPD*%
G01*
G04 APERTURE LIST*
%ADD10C,0.100000*%
%ADD11C,0.200000*%
%ADD12C,0.254000*%
G04 APERTURE END LIST*
D10*
%TO.C,J3*%
X50554000Y-148717000D02*
X51554000Y-148717000D01*
X50554000Y-142367000D02*
X51554000Y-142367000D01*
X53544000Y-148717000D02*
X53054000Y-148717000D01*
X53544000Y-142367000D02*
X53544000Y-148717000D01*
X53054000Y-142367000D02*
X53544000Y-142367000D01*
X48564000Y-148717000D02*
X49054000Y-148717000D01*
X48564000Y-142367000D02*
X48564000Y-148717000D01*
X49054000Y-142367000D02*
X48564000Y-142367000D01*
D11*
X52454000Y-141742000D02*
X52454000Y-141742000D01*
X52254000Y-141742000D02*
X52254000Y-141742000D01*
X52254000Y-141742000D02*
G75*
G03*
X52454000Y-141742000I100000J0D01*
G01*
X52454000Y-141742000D02*
G75*
G03*
X52254000Y-141742000I-100000J0D01*
G01*
D12*
X50358523Y-144755666D02*
X51265666Y-144755666D01*
X51447095Y-144695190D01*
X51568047Y-144574238D01*
X51628523Y-144392809D01*
X51628523Y-144271857D01*
X50358523Y-145239476D02*
X50358523Y-146025666D01*
X50842333Y-145602333D01*
X50842333Y-145783761D01*
X50902809Y-145904714D01*
X50963285Y-145965190D01*
X51084238Y-146025666D01*
X51386619Y-146025666D01*
X51507571Y-145965190D01*
X51568047Y-145904714D01*
X51628523Y-145783761D01*
X51628523Y-145420904D01*
X51568047Y-145299952D01*
X51507571Y-145239476D01*
%TD*%
M02*
