M48
; DRILL file {KiCad 5.1.6} date Fri Apr 23 20:37:14 2021
; FORMAT={-:-/ absolute / inch / decimal}
; #@! TF.CreationDate,2021-04-23T20:37:14+02:00
; #@! TF.GenerationSoftware,Kicad,Pcbnew,5.1.6
FMAT,2
INCH
T1C0.0157
T2C0.0280
T3C0.0394
T4C0.0523
%
G90
G05
T1
X2.2135Y-5.8299
X2.2958Y-5.7352
X2.3303Y-5.6878
X2.4848Y-6.0256
X2.5162Y-5.9204
X2.563Y-5.9266
X2.6077Y-5.9881
X2.6471Y-5.9338
T2
X1.96Y-5.63
X1.96Y-5.68
X1.96Y-5.73
X1.96Y-5.78
X1.96Y-5.83
X2.06Y-5.63
X2.06Y-5.68
X2.06Y-5.73
X2.06Y-5.78
X2.06Y-5.83
T3
X1.96Y-6.32
X2.06Y-6.32
T4
X2.285Y-6.4
X2.5665Y-6.4
T0
M30
