M48
; DRILL file {KiCad 5.1.6} date Fri Apr 23 20:35:33 2021
; FORMAT={-:-/ absolute / inch / decimal}
; #@! TF.CreationDate,2021-04-23T20:35:33+02:00
; #@! TF.GenerationSoftware,Kicad,Pcbnew,5.1.6
FMAT,2
INCH
T1C0.0079
T2C0.0157
%
G90
G05
T1
X1.7Y-5.58
X1.76Y-3.96
X1.78Y-4.29
X1.83Y-3.95
X1.84Y-4.34
X1.85Y-4.23
X1.85Y-4.95
X1.86Y-4.18
X1.87Y-5.05
X1.87Y-5.15
X1.87Y-5.2
X2.0Y-5.0
X2.02Y-4.1
X2.03Y-5.1
X2.03Y-5.15
X2.04Y-4.12
X2.04Y-5.05
X2.06Y-4.14
X2.09Y-4.95
X2.1Y-4.29
X2.15Y-5.12
X2.16Y-4.34
X2.165Y-4.225
X2.18Y-4.16
X2.21Y-4.16
X2.23Y-4.98
X2.2328Y-5.0672
X2.24Y-5.02
X2.2507Y-4.9801
X2.26Y-5.15
X2.26Y-5.19
X2.2691Y-4.1598
X2.27Y-5.45
X2.2898Y-4.1602
X2.3091Y-5.0191
X2.31Y-4.76
X2.3292Y-4.1592
X2.3686Y-4.1586
X2.38Y-4.84
X2.3813Y-5.0208
X2.4114Y-4.9912
X2.42Y-4.29
X2.43Y-4.65
X2.44Y-5.03
X2.442Y-5.28
X2.4455Y-4.966
X2.4488Y-4.9
X2.4733Y-4.9967
X2.4786Y-4.9616
X2.4794Y-4.9308
X2.48Y-4.34
X2.48Y-4.71
X2.48Y-5.09
X2.4899Y-4.1601
X2.49Y-4.24
X2.51Y-4.87
X2.54Y-4.71
X2.54Y-4.805
X2.57Y-4.0
X2.57Y-4.87
X2.57Y-4.99
X2.59Y-4.08
X2.6Y-5.67
X2.6008Y-4.9906
X2.6015Y-4.8322
X2.6127Y-4.1638
X2.635Y-4.805
X2.6498Y-5.6849
X2.6595Y-5.4495
X2.6606Y-4.9308
X2.67Y-5.68
X2.69Y-4.84
X2.69Y-4.87
X2.69Y-5.02
X2.69Y-5.09
X2.6906Y-4.6791
X2.696Y-4.7692
X2.7074Y-5.4574
X2.74Y-4.29
X2.74Y-5.88
X2.76Y-5.09
X2.8Y-4.34
X2.8091Y-4.2309
X2.82Y-4.7577
X2.82Y-5.0
X2.82Y-5.04
X2.83Y-4.7241
X2.83Y-4.88
X2.83Y-5.075
X2.8511Y-4.2011
X2.855Y-4.935
X2.86Y-5.18
X2.89Y-5.01
X2.8905Y-4.1605
X2.98Y-4.03
X2.995Y-4.1568
X3.03Y-4.0
X3.06Y-4.32
X3.09Y-5.38
X3.1016Y-4.1784
X3.12Y-4.23
X3.12Y-4.34
X3.16Y-5.66
X3.1606Y-4.1981
X3.17Y-5.38
X3.2Y-4.09
X3.2Y-4.16
X3.2105Y-4.2
X3.25Y-4.08
X3.28Y-5.02
X3.28Y-5.46
X3.2882Y-4.8018
X3.3Y-4.08
X3.3Y-5.35
X3.3775Y-3.9525
X3.39Y-4.26
X3.41Y-3.95
T2
X2.16Y-6.59
X2.48Y-6.61
X2.54Y-6.53
X2.5853Y-6.54
X2.59Y-6.58
X2.6347Y-6.6
X2.67Y-6.53
X2.72Y-6.59
X3.09Y-6.6
T0
M30
