%TF.GenerationSoftware,KiCad,Pcbnew,5.1.6*%
%TF.CreationDate,2021-04-23T20:35:47+02:00*%
%TF.ProjectId,nhci,6e686369-2e6b-4696-9361-645f70636258,rev?*%
%TF.SameCoordinates,Original*%
%TF.FileFunction,Paste,Bot*%
%TF.FilePolarity,Positive*%
%FSLAX46Y46*%
G04 Gerber Fmt 4.6, Leading zero omitted, Abs format (unit mm)*
G04 Created by KiCad (PCBNEW 5.1.6) date 2021-04-23 20:35:47*
%MOMM*%
%LPD*%
G01*
G04 APERTURE LIST*
G04 APERTURE END LIST*
%TO.C,R26*%
G36*
G01*
X53634000Y-130347500D02*
X53634000Y-130002500D01*
G75*
G02*
X53781500Y-129855000I147500J0D01*
G01*
X54076500Y-129855000D01*
G75*
G02*
X54224000Y-130002500I0J-147500D01*
G01*
X54224000Y-130347500D01*
G75*
G02*
X54076500Y-130495000I-147500J0D01*
G01*
X53781500Y-130495000D01*
G75*
G02*
X53634000Y-130347500I0J147500D01*
G01*
G37*
G36*
G01*
X52664000Y-130347500D02*
X52664000Y-130002500D01*
G75*
G02*
X52811500Y-129855000I147500J0D01*
G01*
X53106500Y-129855000D01*
G75*
G02*
X53254000Y-130002500I0J-147500D01*
G01*
X53254000Y-130347500D01*
G75*
G02*
X53106500Y-130495000I-147500J0D01*
G01*
X52811500Y-130495000D01*
G75*
G02*
X52664000Y-130347500I0J147500D01*
G01*
G37*
%TD*%
%TO.C,R25*%
G36*
G01*
X51602000Y-129077500D02*
X51602000Y-128732500D01*
G75*
G02*
X51749500Y-128585000I147500J0D01*
G01*
X52044500Y-128585000D01*
G75*
G02*
X52192000Y-128732500I0J-147500D01*
G01*
X52192000Y-129077500D01*
G75*
G02*
X52044500Y-129225000I-147500J0D01*
G01*
X51749500Y-129225000D01*
G75*
G02*
X51602000Y-129077500I0J147500D01*
G01*
G37*
G36*
G01*
X50632000Y-129077500D02*
X50632000Y-128732500D01*
G75*
G02*
X50779500Y-128585000I147500J0D01*
G01*
X51074500Y-128585000D01*
G75*
G02*
X51222000Y-128732500I0J-147500D01*
G01*
X51222000Y-129077500D01*
G75*
G02*
X51074500Y-129225000I-147500J0D01*
G01*
X50779500Y-129225000D01*
G75*
G02*
X50632000Y-129077500I0J147500D01*
G01*
G37*
%TD*%
%TO.C,R9*%
G36*
G01*
X73233500Y-107101000D02*
X73578500Y-107101000D01*
G75*
G02*
X73726000Y-107248500I0J-147500D01*
G01*
X73726000Y-107543500D01*
G75*
G02*
X73578500Y-107691000I-147500J0D01*
G01*
X73233500Y-107691000D01*
G75*
G02*
X73086000Y-107543500I0J147500D01*
G01*
X73086000Y-107248500D01*
G75*
G02*
X73233500Y-107101000I147500J0D01*
G01*
G37*
G36*
G01*
X73233500Y-106131000D02*
X73578500Y-106131000D01*
G75*
G02*
X73726000Y-106278500I0J-147500D01*
G01*
X73726000Y-106573500D01*
G75*
G02*
X73578500Y-106721000I-147500J0D01*
G01*
X73233500Y-106721000D01*
G75*
G02*
X73086000Y-106573500I0J147500D01*
G01*
X73086000Y-106278500D01*
G75*
G02*
X73233500Y-106131000I147500J0D01*
G01*
G37*
%TD*%
%TO.C,R8*%
G36*
G01*
X66121500Y-107101000D02*
X66466500Y-107101000D01*
G75*
G02*
X66614000Y-107248500I0J-147500D01*
G01*
X66614000Y-107543500D01*
G75*
G02*
X66466500Y-107691000I-147500J0D01*
G01*
X66121500Y-107691000D01*
G75*
G02*
X65974000Y-107543500I0J147500D01*
G01*
X65974000Y-107248500D01*
G75*
G02*
X66121500Y-107101000I147500J0D01*
G01*
G37*
G36*
G01*
X66121500Y-106131000D02*
X66466500Y-106131000D01*
G75*
G02*
X66614000Y-106278500I0J-147500D01*
G01*
X66614000Y-106573500D01*
G75*
G02*
X66466500Y-106721000I-147500J0D01*
G01*
X66121500Y-106721000D01*
G75*
G02*
X65974000Y-106573500I0J147500D01*
G01*
X65974000Y-106278500D01*
G75*
G02*
X66121500Y-106131000I147500J0D01*
G01*
G37*
%TD*%
%TO.C,R7*%
G36*
G01*
X57993500Y-108879000D02*
X58338500Y-108879000D01*
G75*
G02*
X58486000Y-109026500I0J-147500D01*
G01*
X58486000Y-109321500D01*
G75*
G02*
X58338500Y-109469000I-147500J0D01*
G01*
X57993500Y-109469000D01*
G75*
G02*
X57846000Y-109321500I0J147500D01*
G01*
X57846000Y-109026500D01*
G75*
G02*
X57993500Y-108879000I147500J0D01*
G01*
G37*
G36*
G01*
X57993500Y-107909000D02*
X58338500Y-107909000D01*
G75*
G02*
X58486000Y-108056500I0J-147500D01*
G01*
X58486000Y-108351500D01*
G75*
G02*
X58338500Y-108499000I-147500J0D01*
G01*
X57993500Y-108499000D01*
G75*
G02*
X57846000Y-108351500I0J147500D01*
G01*
X57846000Y-108056500D01*
G75*
G02*
X57993500Y-107909000I147500J0D01*
G01*
G37*
%TD*%
%TO.C,R6*%
G36*
G01*
X60025500Y-106870000D02*
X60370500Y-106870000D01*
G75*
G02*
X60518000Y-107017500I0J-147500D01*
G01*
X60518000Y-107312500D01*
G75*
G02*
X60370500Y-107460000I-147500J0D01*
G01*
X60025500Y-107460000D01*
G75*
G02*
X59878000Y-107312500I0J147500D01*
G01*
X59878000Y-107017500D01*
G75*
G02*
X60025500Y-106870000I147500J0D01*
G01*
G37*
G36*
G01*
X60025500Y-105900000D02*
X60370500Y-105900000D01*
G75*
G02*
X60518000Y-106047500I0J-147500D01*
G01*
X60518000Y-106342500D01*
G75*
G02*
X60370500Y-106490000I-147500J0D01*
G01*
X60025500Y-106490000D01*
G75*
G02*
X59878000Y-106342500I0J147500D01*
G01*
X59878000Y-106047500D01*
G75*
G02*
X60025500Y-105900000I147500J0D01*
G01*
G37*
%TD*%
%TO.C,R5*%
G36*
G01*
X59009500Y-106893000D02*
X59354500Y-106893000D01*
G75*
G02*
X59502000Y-107040500I0J-147500D01*
G01*
X59502000Y-107335500D01*
G75*
G02*
X59354500Y-107483000I-147500J0D01*
G01*
X59009500Y-107483000D01*
G75*
G02*
X58862000Y-107335500I0J147500D01*
G01*
X58862000Y-107040500D01*
G75*
G02*
X59009500Y-106893000I147500J0D01*
G01*
G37*
G36*
G01*
X59009500Y-105923000D02*
X59354500Y-105923000D01*
G75*
G02*
X59502000Y-106070500I0J-147500D01*
G01*
X59502000Y-106365500D01*
G75*
G02*
X59354500Y-106513000I-147500J0D01*
G01*
X59009500Y-106513000D01*
G75*
G02*
X58862000Y-106365500I0J147500D01*
G01*
X58862000Y-106070500D01*
G75*
G02*
X59009500Y-105923000I147500J0D01*
G01*
G37*
%TD*%
%TO.C,R4*%
G36*
G01*
X75265500Y-107147000D02*
X75610500Y-107147000D01*
G75*
G02*
X75758000Y-107294500I0J-147500D01*
G01*
X75758000Y-107589500D01*
G75*
G02*
X75610500Y-107737000I-147500J0D01*
G01*
X75265500Y-107737000D01*
G75*
G02*
X75118000Y-107589500I0J147500D01*
G01*
X75118000Y-107294500D01*
G75*
G02*
X75265500Y-107147000I147500J0D01*
G01*
G37*
G36*
G01*
X75265500Y-106177000D02*
X75610500Y-106177000D01*
G75*
G02*
X75758000Y-106324500I0J-147500D01*
G01*
X75758000Y-106619500D01*
G75*
G02*
X75610500Y-106767000I-147500J0D01*
G01*
X75265500Y-106767000D01*
G75*
G02*
X75118000Y-106619500I0J147500D01*
G01*
X75118000Y-106324500D01*
G75*
G02*
X75265500Y-106177000I147500J0D01*
G01*
G37*
%TD*%
%TO.C,R3*%
G36*
G01*
X57485500Y-106870000D02*
X57830500Y-106870000D01*
G75*
G02*
X57978000Y-107017500I0J-147500D01*
G01*
X57978000Y-107312500D01*
G75*
G02*
X57830500Y-107460000I-147500J0D01*
G01*
X57485500Y-107460000D01*
G75*
G02*
X57338000Y-107312500I0J147500D01*
G01*
X57338000Y-107017500D01*
G75*
G02*
X57485500Y-106870000I147500J0D01*
G01*
G37*
G36*
G01*
X57485500Y-105900000D02*
X57830500Y-105900000D01*
G75*
G02*
X57978000Y-106047500I0J-147500D01*
G01*
X57978000Y-106342500D01*
G75*
G02*
X57830500Y-106490000I-147500J0D01*
G01*
X57485500Y-106490000D01*
G75*
G02*
X57338000Y-106342500I0J147500D01*
G01*
X57338000Y-106047500D01*
G75*
G02*
X57485500Y-105900000I147500J0D01*
G01*
G37*
%TD*%
%TO.C,R2*%
G36*
G01*
X56469500Y-106870000D02*
X56814500Y-106870000D01*
G75*
G02*
X56962000Y-107017500I0J-147500D01*
G01*
X56962000Y-107312500D01*
G75*
G02*
X56814500Y-107460000I-147500J0D01*
G01*
X56469500Y-107460000D01*
G75*
G02*
X56322000Y-107312500I0J147500D01*
G01*
X56322000Y-107017500D01*
G75*
G02*
X56469500Y-106870000I147500J0D01*
G01*
G37*
G36*
G01*
X56469500Y-105900000D02*
X56814500Y-105900000D01*
G75*
G02*
X56962000Y-106047500I0J-147500D01*
G01*
X56962000Y-106342500D01*
G75*
G02*
X56814500Y-106490000I-147500J0D01*
G01*
X56469500Y-106490000D01*
G75*
G02*
X56322000Y-106342500I0J147500D01*
G01*
X56322000Y-106047500D01*
G75*
G02*
X56469500Y-105900000I147500J0D01*
G01*
G37*
%TD*%
%TO.C,C20*%
G36*
G01*
X66715000Y-126156500D02*
X66715000Y-125811500D01*
G75*
G02*
X66862500Y-125664000I147500J0D01*
G01*
X67157500Y-125664000D01*
G75*
G02*
X67305000Y-125811500I0J-147500D01*
G01*
X67305000Y-126156500D01*
G75*
G02*
X67157500Y-126304000I-147500J0D01*
G01*
X66862500Y-126304000D01*
G75*
G02*
X66715000Y-126156500I0J147500D01*
G01*
G37*
G36*
G01*
X65745000Y-126156500D02*
X65745000Y-125811500D01*
G75*
G02*
X65892500Y-125664000I147500J0D01*
G01*
X66187500Y-125664000D01*
G75*
G02*
X66335000Y-125811500I0J-147500D01*
G01*
X66335000Y-126156500D01*
G75*
G02*
X66187500Y-126304000I-147500J0D01*
G01*
X65892500Y-126304000D01*
G75*
G02*
X65745000Y-126156500I0J147500D01*
G01*
G37*
%TD*%
%TO.C,C19*%
G36*
G01*
X65105500Y-122341000D02*
X65450500Y-122341000D01*
G75*
G02*
X65598000Y-122488500I0J-147500D01*
G01*
X65598000Y-122783500D01*
G75*
G02*
X65450500Y-122931000I-147500J0D01*
G01*
X65105500Y-122931000D01*
G75*
G02*
X64958000Y-122783500I0J147500D01*
G01*
X64958000Y-122488500D01*
G75*
G02*
X65105500Y-122341000I147500J0D01*
G01*
G37*
G36*
G01*
X65105500Y-121371000D02*
X65450500Y-121371000D01*
G75*
G02*
X65598000Y-121518500I0J-147500D01*
G01*
X65598000Y-121813500D01*
G75*
G02*
X65450500Y-121961000I-147500J0D01*
G01*
X65105500Y-121961000D01*
G75*
G02*
X64958000Y-121813500I0J147500D01*
G01*
X64958000Y-121518500D01*
G75*
G02*
X65105500Y-121371000I147500J0D01*
G01*
G37*
%TD*%
%TO.C,C18*%
G36*
G01*
X64429000Y-126156500D02*
X64429000Y-125811500D01*
G75*
G02*
X64576500Y-125664000I147500J0D01*
G01*
X64871500Y-125664000D01*
G75*
G02*
X65019000Y-125811500I0J-147500D01*
G01*
X65019000Y-126156500D01*
G75*
G02*
X64871500Y-126304000I-147500J0D01*
G01*
X64576500Y-126304000D01*
G75*
G02*
X64429000Y-126156500I0J147500D01*
G01*
G37*
G36*
G01*
X63459000Y-126156500D02*
X63459000Y-125811500D01*
G75*
G02*
X63606500Y-125664000I147500J0D01*
G01*
X63901500Y-125664000D01*
G75*
G02*
X64049000Y-125811500I0J-147500D01*
G01*
X64049000Y-126156500D01*
G75*
G02*
X63901500Y-126304000I-147500J0D01*
G01*
X63606500Y-126304000D01*
G75*
G02*
X63459000Y-126156500I0J147500D01*
G01*
G37*
%TD*%
%TO.C,R1*%
G36*
G01*
X71564000Y-124886500D02*
X71564000Y-124541500D01*
G75*
G02*
X71711500Y-124394000I147500J0D01*
G01*
X72006500Y-124394000D01*
G75*
G02*
X72154000Y-124541500I0J-147500D01*
G01*
X72154000Y-124886500D01*
G75*
G02*
X72006500Y-125034000I-147500J0D01*
G01*
X71711500Y-125034000D01*
G75*
G02*
X71564000Y-124886500I0J147500D01*
G01*
G37*
G36*
G01*
X70594000Y-124886500D02*
X70594000Y-124541500D01*
G75*
G02*
X70741500Y-124394000I147500J0D01*
G01*
X71036500Y-124394000D01*
G75*
G02*
X71184000Y-124541500I0J-147500D01*
G01*
X71184000Y-124886500D01*
G75*
G02*
X71036500Y-125034000I-147500J0D01*
G01*
X70741500Y-125034000D01*
G75*
G02*
X70594000Y-124886500I0J147500D01*
G01*
G37*
%TD*%
%TO.C,C17*%
G36*
G01*
X62656500Y-127341000D02*
X62311500Y-127341000D01*
G75*
G02*
X62164000Y-127193500I0J147500D01*
G01*
X62164000Y-126898500D01*
G75*
G02*
X62311500Y-126751000I147500J0D01*
G01*
X62656500Y-126751000D01*
G75*
G02*
X62804000Y-126898500I0J-147500D01*
G01*
X62804000Y-127193500D01*
G75*
G02*
X62656500Y-127341000I-147500J0D01*
G01*
G37*
G36*
G01*
X62656500Y-128311000D02*
X62311500Y-128311000D01*
G75*
G02*
X62164000Y-128163500I0J147500D01*
G01*
X62164000Y-127868500D01*
G75*
G02*
X62311500Y-127721000I147500J0D01*
G01*
X62656500Y-127721000D01*
G75*
G02*
X62804000Y-127868500I0J-147500D01*
G01*
X62804000Y-128163500D01*
G75*
G02*
X62656500Y-128311000I-147500J0D01*
G01*
G37*
%TD*%
%TO.C,C16*%
G36*
G01*
X68885750Y-124148000D02*
X69798250Y-124148000D01*
G75*
G02*
X70042000Y-124391750I0J-243750D01*
G01*
X70042000Y-124879250D01*
G75*
G02*
X69798250Y-125123000I-243750J0D01*
G01*
X68885750Y-125123000D01*
G75*
G02*
X68642000Y-124879250I0J243750D01*
G01*
X68642000Y-124391750D01*
G75*
G02*
X68885750Y-124148000I243750J0D01*
G01*
G37*
G36*
G01*
X68885750Y-122273000D02*
X69798250Y-122273000D01*
G75*
G02*
X70042000Y-122516750I0J-243750D01*
G01*
X70042000Y-123004250D01*
G75*
G02*
X69798250Y-123248000I-243750J0D01*
G01*
X68885750Y-123248000D01*
G75*
G02*
X68642000Y-123004250I0J243750D01*
G01*
X68642000Y-122516750D01*
G75*
G02*
X68885750Y-122273000I243750J0D01*
G01*
G37*
%TD*%
%TO.C,C15*%
G36*
G01*
X67391500Y-123888000D02*
X67736500Y-123888000D01*
G75*
G02*
X67884000Y-124035500I0J-147500D01*
G01*
X67884000Y-124330500D01*
G75*
G02*
X67736500Y-124478000I-147500J0D01*
G01*
X67391500Y-124478000D01*
G75*
G02*
X67244000Y-124330500I0J147500D01*
G01*
X67244000Y-124035500D01*
G75*
G02*
X67391500Y-123888000I147500J0D01*
G01*
G37*
G36*
G01*
X67391500Y-122918000D02*
X67736500Y-122918000D01*
G75*
G02*
X67884000Y-123065500I0J-147500D01*
G01*
X67884000Y-123360500D01*
G75*
G02*
X67736500Y-123508000I-147500J0D01*
G01*
X67391500Y-123508000D01*
G75*
G02*
X67244000Y-123360500I0J147500D01*
G01*
X67244000Y-123065500D01*
G75*
G02*
X67391500Y-122918000I147500J0D01*
G01*
G37*
%TD*%
%TO.C,C14*%
G36*
G01*
X72562500Y-127341000D02*
X72217500Y-127341000D01*
G75*
G02*
X72070000Y-127193500I0J147500D01*
G01*
X72070000Y-126898500D01*
G75*
G02*
X72217500Y-126751000I147500J0D01*
G01*
X72562500Y-126751000D01*
G75*
G02*
X72710000Y-126898500I0J-147500D01*
G01*
X72710000Y-127193500D01*
G75*
G02*
X72562500Y-127341000I-147500J0D01*
G01*
G37*
G36*
G01*
X72562500Y-128311000D02*
X72217500Y-128311000D01*
G75*
G02*
X72070000Y-128163500I0J147500D01*
G01*
X72070000Y-127868500D01*
G75*
G02*
X72217500Y-127721000I147500J0D01*
G01*
X72562500Y-127721000D01*
G75*
G02*
X72710000Y-127868500I0J-147500D01*
G01*
X72710000Y-128163500D01*
G75*
G02*
X72562500Y-128311000I-147500J0D01*
G01*
G37*
%TD*%
%TO.C,C13*%
G36*
G01*
X69175000Y-128351500D02*
X69175000Y-128696500D01*
G75*
G02*
X69027500Y-128844000I-147500J0D01*
G01*
X68732500Y-128844000D01*
G75*
G02*
X68585000Y-128696500I0J147500D01*
G01*
X68585000Y-128351500D01*
G75*
G02*
X68732500Y-128204000I147500J0D01*
G01*
X69027500Y-128204000D01*
G75*
G02*
X69175000Y-128351500I0J-147500D01*
G01*
G37*
G36*
G01*
X70145000Y-128351500D02*
X70145000Y-128696500D01*
G75*
G02*
X69997500Y-128844000I-147500J0D01*
G01*
X69702500Y-128844000D01*
G75*
G02*
X69555000Y-128696500I0J147500D01*
G01*
X69555000Y-128351500D01*
G75*
G02*
X69702500Y-128204000I147500J0D01*
G01*
X69997500Y-128204000D01*
G75*
G02*
X70145000Y-128351500I0J-147500D01*
G01*
G37*
%TD*%
%TO.C,C12*%
G36*
G01*
X63073500Y-123888000D02*
X63418500Y-123888000D01*
G75*
G02*
X63566000Y-124035500I0J-147500D01*
G01*
X63566000Y-124330500D01*
G75*
G02*
X63418500Y-124478000I-147500J0D01*
G01*
X63073500Y-124478000D01*
G75*
G02*
X62926000Y-124330500I0J147500D01*
G01*
X62926000Y-124035500D01*
G75*
G02*
X63073500Y-123888000I147500J0D01*
G01*
G37*
G36*
G01*
X63073500Y-122918000D02*
X63418500Y-122918000D01*
G75*
G02*
X63566000Y-123065500I0J-147500D01*
G01*
X63566000Y-123360500D01*
G75*
G02*
X63418500Y-123508000I-147500J0D01*
G01*
X63073500Y-123508000D01*
G75*
G02*
X62926000Y-123360500I0J147500D01*
G01*
X62926000Y-123065500D01*
G75*
G02*
X63073500Y-122918000I147500J0D01*
G01*
G37*
%TD*%
%TO.C,C11*%
G36*
G01*
X68153500Y-120055000D02*
X68498500Y-120055000D01*
G75*
G02*
X68646000Y-120202500I0J-147500D01*
G01*
X68646000Y-120497500D01*
G75*
G02*
X68498500Y-120645000I-147500J0D01*
G01*
X68153500Y-120645000D01*
G75*
G02*
X68006000Y-120497500I0J147500D01*
G01*
X68006000Y-120202500D01*
G75*
G02*
X68153500Y-120055000I147500J0D01*
G01*
G37*
G36*
G01*
X68153500Y-119085000D02*
X68498500Y-119085000D01*
G75*
G02*
X68646000Y-119232500I0J-147500D01*
G01*
X68646000Y-119527500D01*
G75*
G02*
X68498500Y-119675000I-147500J0D01*
G01*
X68153500Y-119675000D01*
G75*
G02*
X68006000Y-119527500I0J147500D01*
G01*
X68006000Y-119232500D01*
G75*
G02*
X68153500Y-119085000I147500J0D01*
G01*
G37*
%TD*%
M02*
