%TF.GenerationSoftware,KiCad,Pcbnew,5.1.6*%
%TF.CreationDate,2021-04-23T20:35:47+02:00*%
%TF.ProjectId,nhci,6e686369-2e6b-4696-9361-645f70636258,rev?*%
%TF.SameCoordinates,Original*%
%TF.FileFunction,Copper,L1,Top*%
%TF.FilePolarity,Positive*%
%FSLAX46Y46*%
G04 Gerber Fmt 4.6, Leading zero omitted, Abs format (unit mm)*
G04 Created by KiCad (PCBNEW 5.1.6) date 2021-04-23 20:35:47*
%MOMM*%
%LPD*%
G01*
G04 APERTURE LIST*
%TA.AperFunction,EtchedComponent*%
%ADD10C,0.100000*%
%TD*%
%TA.AperFunction,SMDPad,CuDef*%
%ADD11R,0.900000X0.800000*%
%TD*%
%TA.AperFunction,SMDPad,CuDef*%
%ADD12R,1.400000X1.700000*%
%TD*%
%TA.AperFunction,SMDPad,CuDef*%
%ADD13R,0.300000X1.700000*%
%TD*%
%TA.AperFunction,ConnectorPad*%
%ADD14R,0.400000X2.000000*%
%TD*%
%TA.AperFunction,ConnectorPad*%
%ADD15R,2.000000X3.000000*%
%TD*%
%TA.AperFunction,SMDPad,CuDef*%
%ADD16R,1.470000X0.740000*%
%TD*%
%TA.AperFunction,SMDPad,CuDef*%
%ADD17C,0.100000*%
%TD*%
%TA.AperFunction,SMDPad,CuDef*%
%ADD18R,3.860000X2.740000*%
%TD*%
%TA.AperFunction,SMDPad,CuDef*%
%ADD19R,0.450000X1.450000*%
%TD*%
%TA.AperFunction,SMDPad,CuDef*%
%ADD20R,1.400000X1.200000*%
%TD*%
%TA.AperFunction,SMDPad,CuDef*%
%ADD21R,1.475000X0.300000*%
%TD*%
%TA.AperFunction,SMDPad,CuDef*%
%ADD22R,0.300000X1.475000*%
%TD*%
%TA.AperFunction,SMDPad,CuDef*%
%ADD23R,0.900000X1.000000*%
%TD*%
%TA.AperFunction,SMDPad,CuDef*%
%ADD24C,0.320000*%
%TD*%
%TA.AperFunction,SMDPad,CuDef*%
%ADD25R,0.325000X0.750000*%
%TD*%
%TA.AperFunction,SMDPad,CuDef*%
%ADD26R,0.600000X0.200000*%
%TD*%
%TA.AperFunction,SMDPad,CuDef*%
%ADD27R,4.050000X2.050000*%
%TD*%
%TA.AperFunction,SMDPad,CuDef*%
%ADD28R,0.600000X0.240000*%
%TD*%
%TA.AperFunction,SMDPad,CuDef*%
%ADD29R,0.240000X0.600000*%
%TD*%
%TA.AperFunction,ViaPad*%
%ADD30C,0.400000*%
%TD*%
%TA.AperFunction,ViaPad*%
%ADD31C,0.800000*%
%TD*%
%TA.AperFunction,Conductor*%
%ADD32C,0.200000*%
%TD*%
%TA.AperFunction,Conductor*%
%ADD33C,0.250000*%
%TD*%
G04 APERTURE END LIST*
D10*
%TO.C,JP1*%
G36*
X87118000Y-101908000D02*
G01*
X86618000Y-101908000D01*
X86618000Y-101508000D01*
X87118000Y-101508000D01*
X87118000Y-101908000D01*
G37*
G36*
X87118000Y-102708000D02*
G01*
X86618000Y-102708000D01*
X86618000Y-102308000D01*
X87118000Y-102308000D01*
X87118000Y-102708000D01*
G37*
%TD*%
D11*
%TO.P,D1,1*%
%TO.N,Net-(D1-Pad1)*%
X74565000Y-124526000D03*
%TO.P,D1,2*%
%TO.N,Net-(D1-Pad2)*%
X74565000Y-126426000D03*
%TO.P,D1,3*%
%TO.N,+3V3*%
X76565000Y-125476000D03*
%TD*%
%TO.P,R24,2*%
%TO.N,GND*%
%TA.AperFunction,SMDPad,CuDef*%
G36*
G01*
X46292000Y-111587500D02*
X46292000Y-111932500D01*
G75*
G02*
X46144500Y-112080000I-147500J0D01*
G01*
X45849500Y-112080000D01*
G75*
G02*
X45702000Y-111932500I0J147500D01*
G01*
X45702000Y-111587500D01*
G75*
G02*
X45849500Y-111440000I147500J0D01*
G01*
X46144500Y-111440000D01*
G75*
G02*
X46292000Y-111587500I0J-147500D01*
G01*
G37*
%TD.AperFunction*%
%TO.P,R24,1*%
%TO.N,F_DDIR*%
%TA.AperFunction,SMDPad,CuDef*%
G36*
G01*
X47262000Y-111587500D02*
X47262000Y-111932500D01*
G75*
G02*
X47114500Y-112080000I-147500J0D01*
G01*
X46819500Y-112080000D01*
G75*
G02*
X46672000Y-111932500I0J147500D01*
G01*
X46672000Y-111587500D01*
G75*
G02*
X46819500Y-111440000I147500J0D01*
G01*
X47114500Y-111440000D01*
G75*
G02*
X47262000Y-111587500I0J-147500D01*
G01*
G37*
%TD.AperFunction*%
%TD*%
D12*
%TO.P,U1,SH2*%
%TO.N,GND*%
X61466000Y-169082000D03*
%TO.P,U1,SH4*%
X70106000Y-169082000D03*
D13*
%TO.P,U1,A1*%
X63036000Y-169632000D03*
%TO.P,U1,A2*%
%TO.N,Net-(U1-PadA2)*%
X63536000Y-169632000D03*
%TO.P,U1,A3*%
%TO.N,Net-(U1-PadA3)*%
X64036000Y-169632000D03*
%TO.P,U1,A4*%
%TO.N,Net-(C29-Pad1)*%
X64536000Y-169632000D03*
%TO.P,U1,A5*%
%TO.N,Net-(U1-PadA5)*%
X65036000Y-169632000D03*
%TO.P,U1,A6*%
%TO.N,Net-(R19-Pad1)*%
X65536000Y-169632000D03*
%TO.P,U1,A12*%
%TO.N,GND*%
X68536000Y-169632000D03*
%TO.P,U1,A11*%
%TO.N,Net-(U1-PadA11)*%
X68036000Y-169632000D03*
%TO.P,U1,A10*%
%TO.N,Net-(U1-PadA10)*%
X67536000Y-169632000D03*
%TO.P,U1,A9*%
%TO.N,Net-(C29-Pad1)*%
X67036000Y-169632000D03*
%TO.P,U1,A8*%
%TO.N,Net-(U1-PadA8)*%
X66536000Y-169632000D03*
%TO.P,U1,A7*%
%TO.N,Net-(R20-Pad1)*%
X66036000Y-169632000D03*
D14*
%TO.P,U1,1*%
%TO.N,GND*%
X44513500Y-98282000D03*
%TO.P,U1,2*%
%TO.N,/P_D3*%
X45783500Y-98282000D03*
%TO.P,U1,3*%
%TO.N,/P_D4*%
X47053500Y-98282000D03*
%TO.P,U1,4*%
%TO.N,/P_D5*%
X48323500Y-98282000D03*
%TO.P,U1,5*%
%TO.N,/P_D6*%
X49593500Y-98282000D03*
%TO.P,U1,6*%
%TO.N,/P_D7*%
X50863500Y-98282000D03*
%TO.P,U1,7*%
%TO.N,/P_CE1*%
X52133500Y-98282000D03*
%TO.P,U1,8*%
%TO.N,/P_A10*%
X53403500Y-98282000D03*
%TO.P,U1,9*%
%TO.N,/P_OE*%
X54673500Y-98282000D03*
%TO.P,U1,10*%
%TO.N,/P_A11*%
X55943500Y-98282000D03*
%TO.P,U1,11*%
%TO.N,/P_A9*%
X57213500Y-98282000D03*
%TO.P,U1,12*%
%TO.N,/P_A8*%
X58483500Y-98282000D03*
%TO.P,U1,13*%
%TO.N,/P_A13*%
X59753500Y-98282000D03*
%TO.P,U1,14*%
%TO.N,/P_A14*%
X61023500Y-98282000D03*
%TO.P,U1,15*%
%TO.N,/P_WE*%
X62293500Y-98282000D03*
%TO.P,U1,16*%
%TO.N,/P_READY*%
X63563500Y-98282000D03*
%TO.P,U1,17*%
%TO.N,+5V*%
X64833500Y-98282000D03*
%TO.P,U1,18*%
%TO.N,Net-(U1-Pad18)*%
X66103500Y-98282000D03*
%TO.P,U1,19*%
%TO.N,Net-(U1-Pad19)*%
X67373500Y-98282000D03*
%TO.P,U1,20*%
%TO.N,/P_A15*%
X68643500Y-98282000D03*
%TO.P,U1,21*%
%TO.N,/P_A12*%
X69913500Y-98282000D03*
%TO.P,U1,22*%
%TO.N,/P_A7*%
X71183500Y-98282000D03*
%TO.P,U1,23*%
%TO.N,/P_A6*%
X72453500Y-98282000D03*
%TO.P,U1,24*%
%TO.N,/P_A5*%
X73723500Y-98282000D03*
%TO.P,U1,25*%
%TO.N,/P_A4*%
X74993500Y-98282000D03*
%TO.P,U1,26*%
%TO.N,/P_A3*%
X76263500Y-98282000D03*
%TO.P,U1,27*%
%TO.N,/P_A2*%
X77533500Y-98282000D03*
%TO.P,U1,28*%
%TO.N,/P_A1*%
X78803500Y-98282000D03*
%TO.P,U1,29*%
%TO.N,/P_A0*%
X80073500Y-98282000D03*
%TO.P,U1,30*%
%TO.N,/P_D0*%
X81343500Y-98282000D03*
%TO.P,U1,31*%
%TO.N,/P_D1*%
X82613500Y-98282000D03*
%TO.P,U1,32*%
%TO.N,/P_D2*%
X83883500Y-98282000D03*
%TO.P,U1,33*%
%TO.N,/P_WP*%
X85153500Y-98282000D03*
%TO.P,U1,34*%
%TO.N,GND*%
X86423500Y-98282000D03*
%TO.P,U1,35*%
X45148500Y-98282000D03*
%TO.P,U1,36*%
%TO.N,Net-(JP1-Pad2)*%
X46418500Y-98282000D03*
%TO.P,U1,37*%
%TO.N,Net-(U1-Pad37)*%
X47688500Y-98282000D03*
%TO.P,U1,38*%
%TO.N,Net-(U1-Pad38)*%
X48958500Y-98282000D03*
%TO.P,U1,39*%
%TO.N,Net-(U1-Pad39)*%
X50228500Y-98282000D03*
%TO.P,U1,40*%
%TO.N,Net-(U1-Pad40)*%
X51498500Y-98282000D03*
%TO.P,U1,41*%
%TO.N,Net-(U1-Pad41)*%
X52768500Y-98282000D03*
%TO.P,U1,42*%
%TO.N,/P_CE2*%
X54038500Y-98282000D03*
%TO.P,U1,43*%
%TO.N,Net-(U1-Pad43)*%
X55308500Y-98282000D03*
%TO.P,U1,44*%
%TO.N,/P_IORD*%
X56578500Y-98282000D03*
%TO.P,U1,45*%
%TO.N,/P_IOWR*%
X57848500Y-98282000D03*
%TO.P,U1,46*%
%TO.N,Net-(U1-Pad46)*%
X59118500Y-98282000D03*
%TO.P,U1,47*%
%TO.N,Net-(U1-Pad47)*%
X60388500Y-98282000D03*
%TO.P,U1,48*%
%TO.N,Net-(U1-Pad48)*%
X61658500Y-98282000D03*
%TO.P,U1,49*%
%TO.N,Net-(U1-Pad49)*%
X62928500Y-98282000D03*
%TO.P,U1,50*%
%TO.N,Net-(U1-Pad50)*%
X64198500Y-98282000D03*
%TO.P,U1,51*%
%TO.N,+5V*%
X65468500Y-98282000D03*
%TO.P,U1,52*%
%TO.N,Net-(U1-Pad52)*%
X66738500Y-98282000D03*
%TO.P,U1,53*%
%TO.N,Net-(U1-Pad53)*%
X68008500Y-98282000D03*
%TO.P,U1,54*%
%TO.N,Net-(U1-Pad54)*%
X69278500Y-98282000D03*
%TO.P,U1,55*%
%TO.N,Net-(U1-Pad55)*%
X70548500Y-98282000D03*
%TO.P,U1,56*%
%TO.N,Net-(U1-Pad56)*%
X71818500Y-98282000D03*
%TO.P,U1,57*%
%TO.N,Net-(U1-Pad57)*%
X73088500Y-98282000D03*
%TO.P,U1,58*%
%TO.N,/P_RESET*%
X74358500Y-98282000D03*
%TO.P,U1,59*%
%TO.N,/P_WAIT*%
X75628500Y-98282000D03*
%TO.P,U1,60*%
%TO.N,/P_INPACK*%
X76898500Y-98282000D03*
%TO.P,U1,61*%
%TO.N,/P_REG*%
X78168500Y-98282000D03*
%TO.P,U1,62*%
%TO.N,Net-(U1-Pad62)*%
X79438500Y-98282000D03*
%TO.P,U1,63*%
%TO.N,Net-(U1-Pad63)*%
X80708500Y-98282000D03*
%TO.P,U1,64*%
%TO.N,Net-(U1-Pad64)*%
X81978500Y-98282000D03*
%TO.P,U1,65*%
%TO.N,Net-(U1-Pad65)*%
X83248500Y-98282000D03*
%TO.P,U1,66*%
%TO.N,Net-(U1-Pad66)*%
X84518500Y-98282000D03*
%TO.P,U1,67*%
%TO.N,Net-(JP1-Pad2)*%
X85788500Y-98282000D03*
%TO.P,U1,68*%
%TO.N,GND*%
X87058500Y-98282000D03*
D15*
%TO.P,U1,GCLIP*%
X43286000Y-141632000D03*
%TD*%
%TO.P,D2,2*%
%TO.N,Net-(D2-Pad2)*%
%TA.AperFunction,SMDPad,CuDef*%
G36*
G01*
X56001500Y-177294250D02*
X56001500Y-176781750D01*
G75*
G02*
X56220250Y-176563000I218750J0D01*
G01*
X56657750Y-176563000D01*
G75*
G02*
X56876500Y-176781750I0J-218750D01*
G01*
X56876500Y-177294250D01*
G75*
G02*
X56657750Y-177513000I-218750J0D01*
G01*
X56220250Y-177513000D01*
G75*
G02*
X56001500Y-177294250I0J218750D01*
G01*
G37*
%TD.AperFunction*%
%TO.P,D2,1*%
%TO.N,GND*%
%TA.AperFunction,SMDPad,CuDef*%
G36*
G01*
X54426500Y-177294250D02*
X54426500Y-176781750D01*
G75*
G02*
X54645250Y-176563000I218750J0D01*
G01*
X55082750Y-176563000D01*
G75*
G02*
X55301500Y-176781750I0J-218750D01*
G01*
X55301500Y-177294250D01*
G75*
G02*
X55082750Y-177513000I-218750J0D01*
G01*
X54645250Y-177513000D01*
G75*
G02*
X54426500Y-177294250I0J218750D01*
G01*
G37*
%TD.AperFunction*%
%TD*%
%TO.P,R23,2*%
%TO.N,Net-(D2-Pad2)*%
%TA.AperFunction,SMDPad,CuDef*%
G36*
G01*
X57993500Y-175704000D02*
X58338500Y-175704000D01*
G75*
G02*
X58486000Y-175851500I0J-147500D01*
G01*
X58486000Y-176146500D01*
G75*
G02*
X58338500Y-176294000I-147500J0D01*
G01*
X57993500Y-176294000D01*
G75*
G02*
X57846000Y-176146500I0J147500D01*
G01*
X57846000Y-175851500D01*
G75*
G02*
X57993500Y-175704000I147500J0D01*
G01*
G37*
%TD.AperFunction*%
%TO.P,R23,1*%
%TO.N,Net-(C29-Pad1)*%
%TA.AperFunction,SMDPad,CuDef*%
G36*
G01*
X57993500Y-174734000D02*
X58338500Y-174734000D01*
G75*
G02*
X58486000Y-174881500I0J-147500D01*
G01*
X58486000Y-175176500D01*
G75*
G02*
X58338500Y-175324000I-147500J0D01*
G01*
X57993500Y-175324000D01*
G75*
G02*
X57846000Y-175176500I0J147500D01*
G01*
X57846000Y-174881500D01*
G75*
G02*
X57993500Y-174734000I147500J0D01*
G01*
G37*
%TD.AperFunction*%
%TD*%
%TO.P,R22,2*%
%TO.N,CDONE*%
%TA.AperFunction,SMDPad,CuDef*%
G36*
G01*
X56301000Y-131998500D02*
X56301000Y-131653500D01*
G75*
G02*
X56448500Y-131506000I147500J0D01*
G01*
X56743500Y-131506000D01*
G75*
G02*
X56891000Y-131653500I0J-147500D01*
G01*
X56891000Y-131998500D01*
G75*
G02*
X56743500Y-132146000I-147500J0D01*
G01*
X56448500Y-132146000D01*
G75*
G02*
X56301000Y-131998500I0J147500D01*
G01*
G37*
%TD.AperFunction*%
%TO.P,R22,1*%
%TO.N,+3V3*%
%TA.AperFunction,SMDPad,CuDef*%
G36*
G01*
X55331000Y-131998500D02*
X55331000Y-131653500D01*
G75*
G02*
X55478500Y-131506000I147500J0D01*
G01*
X55773500Y-131506000D01*
G75*
G02*
X55921000Y-131653500I0J-147500D01*
G01*
X55921000Y-131998500D01*
G75*
G02*
X55773500Y-132146000I-147500J0D01*
G01*
X55478500Y-132146000D01*
G75*
G02*
X55331000Y-131998500I0J147500D01*
G01*
G37*
%TD.AperFunction*%
%TD*%
%TO.P,R21,2*%
%TO.N,CRESET*%
%TA.AperFunction,SMDPad,CuDef*%
G36*
G01*
X56301000Y-130982500D02*
X56301000Y-130637500D01*
G75*
G02*
X56448500Y-130490000I147500J0D01*
G01*
X56743500Y-130490000D01*
G75*
G02*
X56891000Y-130637500I0J-147500D01*
G01*
X56891000Y-130982500D01*
G75*
G02*
X56743500Y-131130000I-147500J0D01*
G01*
X56448500Y-131130000D01*
G75*
G02*
X56301000Y-130982500I0J147500D01*
G01*
G37*
%TD.AperFunction*%
%TO.P,R21,1*%
%TO.N,+3V3*%
%TA.AperFunction,SMDPad,CuDef*%
G36*
G01*
X55331000Y-130982500D02*
X55331000Y-130637500D01*
G75*
G02*
X55478500Y-130490000I147500J0D01*
G01*
X55773500Y-130490000D01*
G75*
G02*
X55921000Y-130637500I0J-147500D01*
G01*
X55921000Y-130982500D01*
G75*
G02*
X55773500Y-131130000I-147500J0D01*
G01*
X55478500Y-131130000D01*
G75*
G02*
X55331000Y-130982500I0J147500D01*
G01*
G37*
%TD.AperFunction*%
%TD*%
D16*
%TO.P,J1,10*%
%TO.N,CDONE*%
X46137000Y-132080000D03*
%TO.P,J1,9*%
%TO.N,+5V*%
X49367000Y-132080000D03*
%TO.P,J1,8*%
%TO.N,CRESET*%
X46137000Y-130810000D03*
%TO.P,J1,7*%
%TO.N,Net-(J1-Pad7)*%
X49367000Y-130810000D03*
%TO.P,J1,6*%
%TO.N,GND*%
X46137000Y-129540000D03*
%TO.P,J1,5*%
%TO.N,Net-(J1-Pad5)*%
X49367000Y-129540000D03*
%TO.P,J1,4*%
%TO.N,GND*%
X46137000Y-128270000D03*
%TO.P,J1,3*%
%TO.N,+3V3*%
X49367000Y-128270000D03*
%TO.P,J1,2*%
%TO.N,Net-(J1-Pad2)*%
X46137000Y-127000000D03*
%TO.P,J1,1*%
%TO.N,Net-(J1-Pad1)*%
X49367000Y-127000000D03*
%TD*%
%TA.AperFunction,SMDPad,CuDef*%
D17*
%TO.P,JP1,1*%
%TO.N,GND*%
G36*
X87018000Y-101358000D02*
G01*
X87518000Y-101358000D01*
X87518000Y-101358602D01*
X87542534Y-101358602D01*
X87591365Y-101363412D01*
X87639490Y-101372984D01*
X87686445Y-101387228D01*
X87731778Y-101406005D01*
X87775051Y-101429136D01*
X87815850Y-101456396D01*
X87853779Y-101487524D01*
X87888476Y-101522221D01*
X87919604Y-101560150D01*
X87946864Y-101600949D01*
X87969995Y-101644222D01*
X87988772Y-101689555D01*
X88003016Y-101736510D01*
X88012588Y-101784635D01*
X88017398Y-101833466D01*
X88017398Y-101858000D01*
X88018000Y-101858000D01*
X88018000Y-102358000D01*
X88017398Y-102358000D01*
X88017398Y-102382534D01*
X88012588Y-102431365D01*
X88003016Y-102479490D01*
X87988772Y-102526445D01*
X87969995Y-102571778D01*
X87946864Y-102615051D01*
X87919604Y-102655850D01*
X87888476Y-102693779D01*
X87853779Y-102728476D01*
X87815850Y-102759604D01*
X87775051Y-102786864D01*
X87731778Y-102809995D01*
X87686445Y-102828772D01*
X87639490Y-102843016D01*
X87591365Y-102852588D01*
X87542534Y-102857398D01*
X87518000Y-102857398D01*
X87518000Y-102858000D01*
X87018000Y-102858000D01*
X87018000Y-101358000D01*
G37*
%TD.AperFunction*%
%TA.AperFunction,SMDPad,CuDef*%
%TO.P,JP1,2*%
%TO.N,Net-(JP1-Pad2)*%
G36*
X86218000Y-102857398D02*
G01*
X86193466Y-102857398D01*
X86144635Y-102852588D01*
X86096510Y-102843016D01*
X86049555Y-102828772D01*
X86004222Y-102809995D01*
X85960949Y-102786864D01*
X85920150Y-102759604D01*
X85882221Y-102728476D01*
X85847524Y-102693779D01*
X85816396Y-102655850D01*
X85789136Y-102615051D01*
X85766005Y-102571778D01*
X85747228Y-102526445D01*
X85732984Y-102479490D01*
X85723412Y-102431365D01*
X85718602Y-102382534D01*
X85718602Y-102358000D01*
X85718000Y-102358000D01*
X85718000Y-101858000D01*
X85718602Y-101858000D01*
X85718602Y-101833466D01*
X85723412Y-101784635D01*
X85732984Y-101736510D01*
X85747228Y-101689555D01*
X85766005Y-101644222D01*
X85789136Y-101600949D01*
X85816396Y-101560150D01*
X85847524Y-101522221D01*
X85882221Y-101487524D01*
X85920150Y-101456396D01*
X85960949Y-101429136D01*
X86004222Y-101406005D01*
X86049555Y-101387228D01*
X86096510Y-101372984D01*
X86144635Y-101363412D01*
X86193466Y-101358602D01*
X86218000Y-101358602D01*
X86218000Y-101358000D01*
X86718000Y-101358000D01*
X86718000Y-102858000D01*
X86218000Y-102858000D01*
X86218000Y-102857398D01*
G37*
%TD.AperFunction*%
%TD*%
%TO.P,U4,8*%
%TO.N,Net-(C29-Pad1)*%
%TA.AperFunction,SMDPad,CuDef*%
G36*
G01*
X77620000Y-141727000D02*
X77620000Y-141427000D01*
G75*
G02*
X77770000Y-141277000I150000J0D01*
G01*
X79420000Y-141277000D01*
G75*
G02*
X79570000Y-141427000I0J-150000D01*
G01*
X79570000Y-141727000D01*
G75*
G02*
X79420000Y-141877000I-150000J0D01*
G01*
X77770000Y-141877000D01*
G75*
G02*
X77620000Y-141727000I0J150000D01*
G01*
G37*
%TD.AperFunction*%
%TO.P,U4,7*%
%TO.N,+5V*%
%TA.AperFunction,SMDPad,CuDef*%
G36*
G01*
X77620000Y-142997000D02*
X77620000Y-142697000D01*
G75*
G02*
X77770000Y-142547000I150000J0D01*
G01*
X79420000Y-142547000D01*
G75*
G02*
X79570000Y-142697000I0J-150000D01*
G01*
X79570000Y-142997000D01*
G75*
G02*
X79420000Y-143147000I-150000J0D01*
G01*
X77770000Y-143147000D01*
G75*
G02*
X77620000Y-142997000I0J150000D01*
G01*
G37*
%TD.AperFunction*%
%TO.P,U4,6*%
%TO.N,GND*%
%TA.AperFunction,SMDPad,CuDef*%
G36*
G01*
X77620000Y-144267000D02*
X77620000Y-143967000D01*
G75*
G02*
X77770000Y-143817000I150000J0D01*
G01*
X79420000Y-143817000D01*
G75*
G02*
X79570000Y-143967000I0J-150000D01*
G01*
X79570000Y-144267000D01*
G75*
G02*
X79420000Y-144417000I-150000J0D01*
G01*
X77770000Y-144417000D01*
G75*
G02*
X77620000Y-144267000I0J150000D01*
G01*
G37*
%TD.AperFunction*%
%TO.P,U4,5*%
%TO.N,Net-(U4-Pad5)*%
%TA.AperFunction,SMDPad,CuDef*%
G36*
G01*
X77620000Y-145537000D02*
X77620000Y-145237000D01*
G75*
G02*
X77770000Y-145087000I150000J0D01*
G01*
X79420000Y-145087000D01*
G75*
G02*
X79570000Y-145237000I0J-150000D01*
G01*
X79570000Y-145537000D01*
G75*
G02*
X79420000Y-145687000I-150000J0D01*
G01*
X77770000Y-145687000D01*
G75*
G02*
X77620000Y-145537000I0J150000D01*
G01*
G37*
%TD.AperFunction*%
%TO.P,U4,4*%
%TO.N,Net-(U4-Pad4)*%
%TA.AperFunction,SMDPad,CuDef*%
G36*
G01*
X72670000Y-145537000D02*
X72670000Y-145237000D01*
G75*
G02*
X72820000Y-145087000I150000J0D01*
G01*
X74470000Y-145087000D01*
G75*
G02*
X74620000Y-145237000I0J-150000D01*
G01*
X74620000Y-145537000D01*
G75*
G02*
X74470000Y-145687000I-150000J0D01*
G01*
X72820000Y-145687000D01*
G75*
G02*
X72670000Y-145537000I0J150000D01*
G01*
G37*
%TD.AperFunction*%
%TO.P,U4,3*%
%TO.N,Net-(U4-Pad3)*%
%TA.AperFunction,SMDPad,CuDef*%
G36*
G01*
X72670000Y-144267000D02*
X72670000Y-143967000D01*
G75*
G02*
X72820000Y-143817000I150000J0D01*
G01*
X74470000Y-143817000D01*
G75*
G02*
X74620000Y-143967000I0J-150000D01*
G01*
X74620000Y-144267000D01*
G75*
G02*
X74470000Y-144417000I-150000J0D01*
G01*
X72820000Y-144417000D01*
G75*
G02*
X72670000Y-144267000I0J150000D01*
G01*
G37*
%TD.AperFunction*%
%TO.P,U4,2*%
%TO.N,Net-(IC6-Pad26)*%
%TA.AperFunction,SMDPad,CuDef*%
G36*
G01*
X72670000Y-142997000D02*
X72670000Y-142697000D01*
G75*
G02*
X72820000Y-142547000I150000J0D01*
G01*
X74470000Y-142547000D01*
G75*
G02*
X74620000Y-142697000I0J-150000D01*
G01*
X74620000Y-142997000D01*
G75*
G02*
X74470000Y-143147000I-150000J0D01*
G01*
X72820000Y-143147000D01*
G75*
G02*
X72670000Y-142997000I0J150000D01*
G01*
G37*
%TD.AperFunction*%
%TO.P,U4,1*%
%TO.N,Net-(IC6-Pad4)*%
%TA.AperFunction,SMDPad,CuDef*%
G36*
G01*
X72670000Y-141727000D02*
X72670000Y-141427000D01*
G75*
G02*
X72820000Y-141277000I150000J0D01*
G01*
X74470000Y-141277000D01*
G75*
G02*
X74620000Y-141427000I0J-150000D01*
G01*
X74620000Y-141727000D01*
G75*
G02*
X74470000Y-141877000I-150000J0D01*
G01*
X72820000Y-141877000D01*
G75*
G02*
X72670000Y-141727000I0J150000D01*
G01*
G37*
%TD.AperFunction*%
%TD*%
%TO.P,R20,2*%
%TO.N,Net-(IC6-Pad20)*%
%TA.AperFunction,SMDPad,CuDef*%
G36*
G01*
X66466500Y-148654000D02*
X66121500Y-148654000D01*
G75*
G02*
X65974000Y-148506500I0J147500D01*
G01*
X65974000Y-148211500D01*
G75*
G02*
X66121500Y-148064000I147500J0D01*
G01*
X66466500Y-148064000D01*
G75*
G02*
X66614000Y-148211500I0J-147500D01*
G01*
X66614000Y-148506500D01*
G75*
G02*
X66466500Y-148654000I-147500J0D01*
G01*
G37*
%TD.AperFunction*%
%TO.P,R20,1*%
%TO.N,Net-(R20-Pad1)*%
%TA.AperFunction,SMDPad,CuDef*%
G36*
G01*
X66466500Y-149624000D02*
X66121500Y-149624000D01*
G75*
G02*
X65974000Y-149476500I0J147500D01*
G01*
X65974000Y-149181500D01*
G75*
G02*
X66121500Y-149034000I147500J0D01*
G01*
X66466500Y-149034000D01*
G75*
G02*
X66614000Y-149181500I0J-147500D01*
G01*
X66614000Y-149476500D01*
G75*
G02*
X66466500Y-149624000I-147500J0D01*
G01*
G37*
%TD.AperFunction*%
%TD*%
%TO.P,R19,2*%
%TO.N,Net-(IC6-Pad21)*%
%TA.AperFunction,SMDPad,CuDef*%
G36*
G01*
X67482500Y-148654000D02*
X67137500Y-148654000D01*
G75*
G02*
X66990000Y-148506500I0J147500D01*
G01*
X66990000Y-148211500D01*
G75*
G02*
X67137500Y-148064000I147500J0D01*
G01*
X67482500Y-148064000D01*
G75*
G02*
X67630000Y-148211500I0J-147500D01*
G01*
X67630000Y-148506500D01*
G75*
G02*
X67482500Y-148654000I-147500J0D01*
G01*
G37*
%TD.AperFunction*%
%TO.P,R19,1*%
%TO.N,Net-(R19-Pad1)*%
%TA.AperFunction,SMDPad,CuDef*%
G36*
G01*
X67482500Y-149624000D02*
X67137500Y-149624000D01*
G75*
G02*
X66990000Y-149476500I0J147500D01*
G01*
X66990000Y-149181500D01*
G75*
G02*
X67137500Y-149034000I147500J0D01*
G01*
X67482500Y-149034000D01*
G75*
G02*
X67630000Y-149181500I0J-147500D01*
G01*
X67630000Y-149476500D01*
G75*
G02*
X67482500Y-149624000I-147500J0D01*
G01*
G37*
%TD.AperFunction*%
%TD*%
%TO.P,C29,2*%
%TO.N,GND*%
%TA.AperFunction,SMDPad,CuDef*%
G36*
G01*
X76825500Y-149554250D02*
X76825500Y-148641750D01*
G75*
G02*
X77069250Y-148398000I243750J0D01*
G01*
X77556750Y-148398000D01*
G75*
G02*
X77800500Y-148641750I0J-243750D01*
G01*
X77800500Y-149554250D01*
G75*
G02*
X77556750Y-149798000I-243750J0D01*
G01*
X77069250Y-149798000D01*
G75*
G02*
X76825500Y-149554250I0J243750D01*
G01*
G37*
%TD.AperFunction*%
%TO.P,C29,1*%
%TO.N,Net-(C29-Pad1)*%
%TA.AperFunction,SMDPad,CuDef*%
G36*
G01*
X74950500Y-149554250D02*
X74950500Y-148641750D01*
G75*
G02*
X75194250Y-148398000I243750J0D01*
G01*
X75681750Y-148398000D01*
G75*
G02*
X75925500Y-148641750I0J-243750D01*
G01*
X75925500Y-149554250D01*
G75*
G02*
X75681750Y-149798000I-243750J0D01*
G01*
X75194250Y-149798000D01*
G75*
G02*
X74950500Y-149554250I0J243750D01*
G01*
G37*
%TD.AperFunction*%
%TD*%
%TO.P,C28,2*%
%TO.N,GND*%
%TA.AperFunction,SMDPad,CuDef*%
G36*
G01*
X68153500Y-149034000D02*
X68498500Y-149034000D01*
G75*
G02*
X68646000Y-149181500I0J-147500D01*
G01*
X68646000Y-149476500D01*
G75*
G02*
X68498500Y-149624000I-147500J0D01*
G01*
X68153500Y-149624000D01*
G75*
G02*
X68006000Y-149476500I0J147500D01*
G01*
X68006000Y-149181500D01*
G75*
G02*
X68153500Y-149034000I147500J0D01*
G01*
G37*
%TD.AperFunction*%
%TO.P,C28,1*%
%TO.N,+3V3*%
%TA.AperFunction,SMDPad,CuDef*%
G36*
G01*
X68153500Y-148064000D02*
X68498500Y-148064000D01*
G75*
G02*
X68646000Y-148211500I0J-147500D01*
G01*
X68646000Y-148506500D01*
G75*
G02*
X68498500Y-148654000I-147500J0D01*
G01*
X68153500Y-148654000D01*
G75*
G02*
X68006000Y-148506500I0J147500D01*
G01*
X68006000Y-148211500D01*
G75*
G02*
X68153500Y-148064000I147500J0D01*
G01*
G37*
%TD.AperFunction*%
%TD*%
%TO.P,C27,2*%
%TO.N,GND*%
%TA.AperFunction,SMDPad,CuDef*%
G36*
G01*
X68462500Y-136957750D02*
X68462500Y-137870250D01*
G75*
G02*
X68218750Y-138114000I-243750J0D01*
G01*
X67731250Y-138114000D01*
G75*
G02*
X67487500Y-137870250I0J243750D01*
G01*
X67487500Y-136957750D01*
G75*
G02*
X67731250Y-136714000I243750J0D01*
G01*
X68218750Y-136714000D01*
G75*
G02*
X68462500Y-136957750I0J-243750D01*
G01*
G37*
%TD.AperFunction*%
%TO.P,C27,1*%
%TO.N,+3V3*%
%TA.AperFunction,SMDPad,CuDef*%
G36*
G01*
X70337500Y-136957750D02*
X70337500Y-137870250D01*
G75*
G02*
X70093750Y-138114000I-243750J0D01*
G01*
X69606250Y-138114000D01*
G75*
G02*
X69362500Y-137870250I0J243750D01*
G01*
X69362500Y-136957750D01*
G75*
G02*
X69606250Y-136714000I243750J0D01*
G01*
X70093750Y-136714000D01*
G75*
G02*
X70337500Y-136957750I0J-243750D01*
G01*
G37*
%TD.AperFunction*%
%TD*%
%TO.P,R18,2*%
%TO.N,Net-(IC7-Pad12)*%
%TA.AperFunction,SMDPad,CuDef*%
G36*
G01*
X85171500Y-122641000D02*
X85516500Y-122641000D01*
G75*
G02*
X85664000Y-122788500I0J-147500D01*
G01*
X85664000Y-123083500D01*
G75*
G02*
X85516500Y-123231000I-147500J0D01*
G01*
X85171500Y-123231000D01*
G75*
G02*
X85024000Y-123083500I0J147500D01*
G01*
X85024000Y-122788500D01*
G75*
G02*
X85171500Y-122641000I147500J0D01*
G01*
G37*
%TD.AperFunction*%
%TO.P,R18,1*%
%TO.N,+5V*%
%TA.AperFunction,SMDPad,CuDef*%
G36*
G01*
X85171500Y-121671000D02*
X85516500Y-121671000D01*
G75*
G02*
X85664000Y-121818500I0J-147500D01*
G01*
X85664000Y-122113500D01*
G75*
G02*
X85516500Y-122261000I-147500J0D01*
G01*
X85171500Y-122261000D01*
G75*
G02*
X85024000Y-122113500I0J147500D01*
G01*
X85024000Y-121818500D01*
G75*
G02*
X85171500Y-121671000I147500J0D01*
G01*
G37*
%TD.AperFunction*%
%TD*%
%TO.P,R17,2*%
%TO.N,Net-(IC7-Pad19)*%
%TA.AperFunction,SMDPad,CuDef*%
G36*
G01*
X81107500Y-122595000D02*
X81452500Y-122595000D01*
G75*
G02*
X81600000Y-122742500I0J-147500D01*
G01*
X81600000Y-123037500D01*
G75*
G02*
X81452500Y-123185000I-147500J0D01*
G01*
X81107500Y-123185000D01*
G75*
G02*
X80960000Y-123037500I0J147500D01*
G01*
X80960000Y-122742500D01*
G75*
G02*
X81107500Y-122595000I147500J0D01*
G01*
G37*
%TD.AperFunction*%
%TO.P,R17,1*%
%TO.N,+5V*%
%TA.AperFunction,SMDPad,CuDef*%
G36*
G01*
X81107500Y-121625000D02*
X81452500Y-121625000D01*
G75*
G02*
X81600000Y-121772500I0J-147500D01*
G01*
X81600000Y-122067500D01*
G75*
G02*
X81452500Y-122215000I-147500J0D01*
G01*
X81107500Y-122215000D01*
G75*
G02*
X80960000Y-122067500I0J147500D01*
G01*
X80960000Y-121772500D01*
G75*
G02*
X81107500Y-121625000I147500J0D01*
G01*
G37*
%TD.AperFunction*%
%TD*%
%TO.P,R16,2*%
%TO.N,Net-(IC7-Pad1)*%
%TA.AperFunction,SMDPad,CuDef*%
G36*
G01*
X78821500Y-131785000D02*
X79166500Y-131785000D01*
G75*
G02*
X79314000Y-131932500I0J-147500D01*
G01*
X79314000Y-132227500D01*
G75*
G02*
X79166500Y-132375000I-147500J0D01*
G01*
X78821500Y-132375000D01*
G75*
G02*
X78674000Y-132227500I0J147500D01*
G01*
X78674000Y-131932500D01*
G75*
G02*
X78821500Y-131785000I147500J0D01*
G01*
G37*
%TD.AperFunction*%
%TO.P,R16,1*%
%TO.N,GND*%
%TA.AperFunction,SMDPad,CuDef*%
G36*
G01*
X78821500Y-130815000D02*
X79166500Y-130815000D01*
G75*
G02*
X79314000Y-130962500I0J-147500D01*
G01*
X79314000Y-131257500D01*
G75*
G02*
X79166500Y-131405000I-147500J0D01*
G01*
X78821500Y-131405000D01*
G75*
G02*
X78674000Y-131257500I0J147500D01*
G01*
X78674000Y-130962500D01*
G75*
G02*
X78821500Y-130815000I147500J0D01*
G01*
G37*
%TD.AperFunction*%
%TD*%
%TO.P,R15,2*%
%TO.N,Net-(C23-Pad2)*%
%TA.AperFunction,SMDPad,CuDef*%
G36*
G01*
X79837500Y-132801000D02*
X80182500Y-132801000D01*
G75*
G02*
X80330000Y-132948500I0J-147500D01*
G01*
X80330000Y-133243500D01*
G75*
G02*
X80182500Y-133391000I-147500J0D01*
G01*
X79837500Y-133391000D01*
G75*
G02*
X79690000Y-133243500I0J147500D01*
G01*
X79690000Y-132948500D01*
G75*
G02*
X79837500Y-132801000I147500J0D01*
G01*
G37*
%TD.AperFunction*%
%TO.P,R15,1*%
%TO.N,Net-(IC7-Pad1)*%
%TA.AperFunction,SMDPad,CuDef*%
G36*
G01*
X79837500Y-131831000D02*
X80182500Y-131831000D01*
G75*
G02*
X80330000Y-131978500I0J-147500D01*
G01*
X80330000Y-132273500D01*
G75*
G02*
X80182500Y-132421000I-147500J0D01*
G01*
X79837500Y-132421000D01*
G75*
G02*
X79690000Y-132273500I0J147500D01*
G01*
X79690000Y-131978500D01*
G75*
G02*
X79837500Y-131831000I147500J0D01*
G01*
G37*
%TD.AperFunction*%
%TD*%
%TO.P,R14,2*%
%TO.N,Net-(C23-Pad2)*%
%TA.AperFunction,SMDPad,CuDef*%
G36*
G01*
X82377500Y-132524000D02*
X82722500Y-132524000D01*
G75*
G02*
X82870000Y-132671500I0J-147500D01*
G01*
X82870000Y-132966500D01*
G75*
G02*
X82722500Y-133114000I-147500J0D01*
G01*
X82377500Y-133114000D01*
G75*
G02*
X82230000Y-132966500I0J147500D01*
G01*
X82230000Y-132671500D01*
G75*
G02*
X82377500Y-132524000I147500J0D01*
G01*
G37*
%TD.AperFunction*%
%TO.P,R14,1*%
%TO.N,GND*%
%TA.AperFunction,SMDPad,CuDef*%
G36*
G01*
X82377500Y-131554000D02*
X82722500Y-131554000D01*
G75*
G02*
X82870000Y-131701500I0J-147500D01*
G01*
X82870000Y-131996500D01*
G75*
G02*
X82722500Y-132144000I-147500J0D01*
G01*
X82377500Y-132144000D01*
G75*
G02*
X82230000Y-131996500I0J147500D01*
G01*
X82230000Y-131701500D01*
G75*
G02*
X82377500Y-131554000I147500J0D01*
G01*
G37*
%TD.AperFunction*%
%TD*%
%TO.P,R13,2*%
%TO.N,Net-(C24-Pad2)*%
%TA.AperFunction,SMDPad,CuDef*%
G36*
G01*
X84264000Y-133014500D02*
X84264000Y-132669500D01*
G75*
G02*
X84411500Y-132522000I147500J0D01*
G01*
X84706500Y-132522000D01*
G75*
G02*
X84854000Y-132669500I0J-147500D01*
G01*
X84854000Y-133014500D01*
G75*
G02*
X84706500Y-133162000I-147500J0D01*
G01*
X84411500Y-133162000D01*
G75*
G02*
X84264000Y-133014500I0J147500D01*
G01*
G37*
%TD.AperFunction*%
%TO.P,R13,1*%
%TO.N,GND*%
%TA.AperFunction,SMDPad,CuDef*%
G36*
G01*
X83294000Y-133014500D02*
X83294000Y-132669500D01*
G75*
G02*
X83441500Y-132522000I147500J0D01*
G01*
X83736500Y-132522000D01*
G75*
G02*
X83884000Y-132669500I0J-147500D01*
G01*
X83884000Y-133014500D01*
G75*
G02*
X83736500Y-133162000I-147500J0D01*
G01*
X83441500Y-133162000D01*
G75*
G02*
X83294000Y-133014500I0J147500D01*
G01*
G37*
%TD.AperFunction*%
%TD*%
%TO.P,R12,2*%
%TO.N,+1V2*%
%TA.AperFunction,SMDPad,CuDef*%
G36*
G01*
X84900000Y-135717500D02*
X84900000Y-136062500D01*
G75*
G02*
X84752500Y-136210000I-147500J0D01*
G01*
X84457500Y-136210000D01*
G75*
G02*
X84310000Y-136062500I0J147500D01*
G01*
X84310000Y-135717500D01*
G75*
G02*
X84457500Y-135570000I147500J0D01*
G01*
X84752500Y-135570000D01*
G75*
G02*
X84900000Y-135717500I0J-147500D01*
G01*
G37*
%TD.AperFunction*%
%TO.P,R12,1*%
%TO.N,Net-(C24-Pad2)*%
%TA.AperFunction,SMDPad,CuDef*%
G36*
G01*
X85870000Y-135717500D02*
X85870000Y-136062500D01*
G75*
G02*
X85722500Y-136210000I-147500J0D01*
G01*
X85427500Y-136210000D01*
G75*
G02*
X85280000Y-136062500I0J147500D01*
G01*
X85280000Y-135717500D01*
G75*
G02*
X85427500Y-135570000I147500J0D01*
G01*
X85722500Y-135570000D01*
G75*
G02*
X85870000Y-135717500I0J-147500D01*
G01*
G37*
%TD.AperFunction*%
%TD*%
%TO.P,R11,2*%
%TO.N,+3V3*%
%TA.AperFunction,SMDPad,CuDef*%
G36*
G01*
X81615500Y-134810000D02*
X81960500Y-134810000D01*
G75*
G02*
X82108000Y-134957500I0J-147500D01*
G01*
X82108000Y-135252500D01*
G75*
G02*
X81960500Y-135400000I-147500J0D01*
G01*
X81615500Y-135400000D01*
G75*
G02*
X81468000Y-135252500I0J147500D01*
G01*
X81468000Y-134957500D01*
G75*
G02*
X81615500Y-134810000I147500J0D01*
G01*
G37*
%TD.AperFunction*%
%TO.P,R11,1*%
%TO.N,Net-(C23-Pad2)*%
%TA.AperFunction,SMDPad,CuDef*%
G36*
G01*
X81615500Y-133840000D02*
X81960500Y-133840000D01*
G75*
G02*
X82108000Y-133987500I0J-147500D01*
G01*
X82108000Y-134282500D01*
G75*
G02*
X81960500Y-134430000I-147500J0D01*
G01*
X81615500Y-134430000D01*
G75*
G02*
X81468000Y-134282500I0J147500D01*
G01*
X81468000Y-133987500D01*
G75*
G02*
X81615500Y-133840000I147500J0D01*
G01*
G37*
%TD.AperFunction*%
%TD*%
D18*
%TO.P,IC7,21*%
%TO.N,GND*%
X83312000Y-127508000D03*
D19*
%TO.P,IC7,20*%
%TO.N,+5V*%
X80387000Y-124583000D03*
%TO.P,IC7,19*%
%TO.N,Net-(IC7-Pad19)*%
X81037000Y-124583000D03*
%TO.P,IC7,18*%
%TO.N,+5V*%
X81687000Y-124583000D03*
%TO.P,IC7,17*%
X82337000Y-124583000D03*
%TO.P,IC7,16*%
%TO.N,GND*%
X82987000Y-124583000D03*
%TO.P,IC7,15*%
X83637000Y-124583000D03*
%TO.P,IC7,14*%
%TO.N,+5V*%
X84287000Y-124583000D03*
%TO.P,IC7,13*%
X84937000Y-124583000D03*
%TO.P,IC7,12*%
%TO.N,Net-(IC7-Pad12)*%
X85587000Y-124583000D03*
%TO.P,IC7,11*%
%TO.N,+5V*%
X86237000Y-124583000D03*
%TO.P,IC7,10*%
%TO.N,Net-(C24-Pad2)*%
X86237000Y-130433000D03*
%TO.P,IC7,9*%
%TO.N,Net-(C26-Pad1)*%
X85587000Y-130433000D03*
%TO.P,IC7,8*%
%TO.N,Net-(C24-Pad2)*%
X84937000Y-130433000D03*
%TO.P,IC7,7*%
X84287000Y-130433000D03*
%TO.P,IC7,6*%
%TO.N,GND*%
X83637000Y-130433000D03*
%TO.P,IC7,5*%
X82987000Y-130433000D03*
%TO.P,IC7,4*%
%TO.N,Net-(C23-Pad2)*%
X82337000Y-130433000D03*
%TO.P,IC7,3*%
X81687000Y-130433000D03*
%TO.P,IC7,2*%
%TO.N,Net-(C25-Pad1)*%
X81037000Y-130433000D03*
%TO.P,IC7,1*%
%TO.N,Net-(IC7-Pad1)*%
X80387000Y-130433000D03*
%TD*%
%TO.P,C26,2*%
%TO.N,Net-(C24-Pad2)*%
%TA.AperFunction,SMDPad,CuDef*%
G36*
G01*
X85425500Y-132524000D02*
X85770500Y-132524000D01*
G75*
G02*
X85918000Y-132671500I0J-147500D01*
G01*
X85918000Y-132966500D01*
G75*
G02*
X85770500Y-133114000I-147500J0D01*
G01*
X85425500Y-133114000D01*
G75*
G02*
X85278000Y-132966500I0J147500D01*
G01*
X85278000Y-132671500D01*
G75*
G02*
X85425500Y-132524000I147500J0D01*
G01*
G37*
%TD.AperFunction*%
%TO.P,C26,1*%
%TO.N,Net-(C26-Pad1)*%
%TA.AperFunction,SMDPad,CuDef*%
G36*
G01*
X85425500Y-131554000D02*
X85770500Y-131554000D01*
G75*
G02*
X85918000Y-131701500I0J-147500D01*
G01*
X85918000Y-131996500D01*
G75*
G02*
X85770500Y-132144000I-147500J0D01*
G01*
X85425500Y-132144000D01*
G75*
G02*
X85278000Y-131996500I0J147500D01*
G01*
X85278000Y-131701500D01*
G75*
G02*
X85425500Y-131554000I147500J0D01*
G01*
G37*
%TD.AperFunction*%
%TD*%
%TO.P,C25,2*%
%TO.N,Net-(C23-Pad2)*%
%TA.AperFunction,SMDPad,CuDef*%
G36*
G01*
X80853500Y-132801000D02*
X81198500Y-132801000D01*
G75*
G02*
X81346000Y-132948500I0J-147500D01*
G01*
X81346000Y-133243500D01*
G75*
G02*
X81198500Y-133391000I-147500J0D01*
G01*
X80853500Y-133391000D01*
G75*
G02*
X80706000Y-133243500I0J147500D01*
G01*
X80706000Y-132948500D01*
G75*
G02*
X80853500Y-132801000I147500J0D01*
G01*
G37*
%TD.AperFunction*%
%TO.P,C25,1*%
%TO.N,Net-(C25-Pad1)*%
%TA.AperFunction,SMDPad,CuDef*%
G36*
G01*
X80853500Y-131831000D02*
X81198500Y-131831000D01*
G75*
G02*
X81346000Y-131978500I0J-147500D01*
G01*
X81346000Y-132273500D01*
G75*
G02*
X81198500Y-132421000I-147500J0D01*
G01*
X80853500Y-132421000D01*
G75*
G02*
X80706000Y-132273500I0J147500D01*
G01*
X80706000Y-131978500D01*
G75*
G02*
X80853500Y-131831000I147500J0D01*
G01*
G37*
%TD.AperFunction*%
%TD*%
%TO.P,C24,2*%
%TO.N,Net-(C24-Pad2)*%
%TA.AperFunction,SMDPad,CuDef*%
G36*
G01*
X84953500Y-134822250D02*
X84953500Y-133909750D01*
G75*
G02*
X85197250Y-133666000I243750J0D01*
G01*
X85684750Y-133666000D01*
G75*
G02*
X85928500Y-133909750I0J-243750D01*
G01*
X85928500Y-134822250D01*
G75*
G02*
X85684750Y-135066000I-243750J0D01*
G01*
X85197250Y-135066000D01*
G75*
G02*
X84953500Y-134822250I0J243750D01*
G01*
G37*
%TD.AperFunction*%
%TO.P,C24,1*%
%TO.N,GND*%
%TA.AperFunction,SMDPad,CuDef*%
G36*
G01*
X83078500Y-134822250D02*
X83078500Y-133909750D01*
G75*
G02*
X83322250Y-133666000I243750J0D01*
G01*
X83809750Y-133666000D01*
G75*
G02*
X84053500Y-133909750I0J-243750D01*
G01*
X84053500Y-134822250D01*
G75*
G02*
X83809750Y-135066000I-243750J0D01*
G01*
X83322250Y-135066000D01*
G75*
G02*
X83078500Y-134822250I0J243750D01*
G01*
G37*
%TD.AperFunction*%
%TD*%
%TO.P,C23,2*%
%TO.N,Net-(C23-Pad2)*%
%TA.AperFunction,SMDPad,CuDef*%
G36*
G01*
X80030500Y-135076250D02*
X80030500Y-134163750D01*
G75*
G02*
X80274250Y-133920000I243750J0D01*
G01*
X80761750Y-133920000D01*
G75*
G02*
X81005500Y-134163750I0J-243750D01*
G01*
X81005500Y-135076250D01*
G75*
G02*
X80761750Y-135320000I-243750J0D01*
G01*
X80274250Y-135320000D01*
G75*
G02*
X80030500Y-135076250I0J243750D01*
G01*
G37*
%TD.AperFunction*%
%TO.P,C23,1*%
%TO.N,GND*%
%TA.AperFunction,SMDPad,CuDef*%
G36*
G01*
X78155500Y-135076250D02*
X78155500Y-134163750D01*
G75*
G02*
X78399250Y-133920000I243750J0D01*
G01*
X78886750Y-133920000D01*
G75*
G02*
X79130500Y-134163750I0J-243750D01*
G01*
X79130500Y-135076250D01*
G75*
G02*
X78886750Y-135320000I-243750J0D01*
G01*
X78399250Y-135320000D01*
G75*
G02*
X78155500Y-135076250I0J243750D01*
G01*
G37*
%TD.AperFunction*%
%TD*%
%TO.P,C22,2*%
%TO.N,+1V2*%
%TA.AperFunction,SMDPad,CuDef*%
G36*
G01*
X84602500Y-137870250D02*
X84602500Y-136957750D01*
G75*
G02*
X84846250Y-136714000I243750J0D01*
G01*
X85333750Y-136714000D01*
G75*
G02*
X85577500Y-136957750I0J-243750D01*
G01*
X85577500Y-137870250D01*
G75*
G02*
X85333750Y-138114000I-243750J0D01*
G01*
X84846250Y-138114000D01*
G75*
G02*
X84602500Y-137870250I0J243750D01*
G01*
G37*
%TD.AperFunction*%
%TO.P,C22,1*%
%TO.N,GND*%
%TA.AperFunction,SMDPad,CuDef*%
G36*
G01*
X82727500Y-137870250D02*
X82727500Y-136957750D01*
G75*
G02*
X82971250Y-136714000I243750J0D01*
G01*
X83458750Y-136714000D01*
G75*
G02*
X83702500Y-136957750I0J-243750D01*
G01*
X83702500Y-137870250D01*
G75*
G02*
X83458750Y-138114000I-243750J0D01*
G01*
X82971250Y-138114000D01*
G75*
G02*
X82727500Y-137870250I0J243750D01*
G01*
G37*
%TD.AperFunction*%
%TD*%
%TO.P,C21,2*%
%TO.N,+3V3*%
%TA.AperFunction,SMDPad,CuDef*%
G36*
G01*
X81046500Y-137108250D02*
X81046500Y-136195750D01*
G75*
G02*
X81290250Y-135952000I243750J0D01*
G01*
X81777750Y-135952000D01*
G75*
G02*
X82021500Y-136195750I0J-243750D01*
G01*
X82021500Y-137108250D01*
G75*
G02*
X81777750Y-137352000I-243750J0D01*
G01*
X81290250Y-137352000D01*
G75*
G02*
X81046500Y-137108250I0J243750D01*
G01*
G37*
%TD.AperFunction*%
%TO.P,C21,1*%
%TO.N,GND*%
%TA.AperFunction,SMDPad,CuDef*%
G36*
G01*
X79171500Y-137108250D02*
X79171500Y-136195750D01*
G75*
G02*
X79415250Y-135952000I243750J0D01*
G01*
X79902750Y-135952000D01*
G75*
G02*
X80146500Y-136195750I0J-243750D01*
G01*
X80146500Y-137108250D01*
G75*
G02*
X79902750Y-137352000I-243750J0D01*
G01*
X79415250Y-137352000D01*
G75*
G02*
X79171500Y-137108250I0J243750D01*
G01*
G37*
%TD.AperFunction*%
%TD*%
%TO.P,R10,2*%
%TO.N,GND*%
%TA.AperFunction,SMDPad,CuDef*%
G36*
G01*
X79289000Y-111587500D02*
X79289000Y-111932500D01*
G75*
G02*
X79141500Y-112080000I-147500J0D01*
G01*
X78846500Y-112080000D01*
G75*
G02*
X78699000Y-111932500I0J147500D01*
G01*
X78699000Y-111587500D01*
G75*
G02*
X78846500Y-111440000I147500J0D01*
G01*
X79141500Y-111440000D01*
G75*
G02*
X79289000Y-111587500I0J-147500D01*
G01*
G37*
%TD.AperFunction*%
%TO.P,R10,1*%
%TO.N,F_READY*%
%TA.AperFunction,SMDPad,CuDef*%
G36*
G01*
X80259000Y-111587500D02*
X80259000Y-111932500D01*
G75*
G02*
X80111500Y-112080000I-147500J0D01*
G01*
X79816500Y-112080000D01*
G75*
G02*
X79669000Y-111932500I0J147500D01*
G01*
X79669000Y-111587500D01*
G75*
G02*
X79816500Y-111440000I147500J0D01*
G01*
X80111500Y-111440000D01*
G75*
G02*
X80259000Y-111587500I0J-147500D01*
G01*
G37*
%TD.AperFunction*%
%TD*%
D20*
%TO.P,Y1,4*%
%TO.N,+3V3*%
X55118000Y-134112000D03*
%TO.P,Y1,3*%
%TO.N,12MHz*%
X57658000Y-134112000D03*
%TO.P,Y1,2*%
%TO.N,GND*%
X57658000Y-136312000D03*
%TO.P,Y1,1*%
%TO.N,Net-(Y1-Pad1)*%
X55118000Y-136312000D03*
%TD*%
D21*
%TO.P,IC6,32*%
%TO.N,Net-(IC6-Pad32)*%
X70040000Y-141760000D03*
%TO.P,IC6,31*%
%TO.N,Net-(IC6-Pad31)*%
X70040000Y-142260000D03*
%TO.P,IC6,30*%
%TO.N,Net-(IC6-Pad30)*%
X70040000Y-142760000D03*
%TO.P,IC6,29*%
%TO.N,Net-(IC6-Pad29)*%
X70040000Y-143260000D03*
%TO.P,IC6,28*%
%TO.N,Net-(IC6-Pad28)*%
X70040000Y-143760000D03*
%TO.P,IC6,27*%
%TO.N,Net-(IC6-Pad27)*%
X70040000Y-144260000D03*
%TO.P,IC6,26*%
%TO.N,Net-(IC6-Pad26)*%
X70040000Y-144760000D03*
%TO.P,IC6,25*%
%TO.N,Net-(IC6-Pad25)*%
X70040000Y-145260000D03*
D22*
%TO.P,IC6,24*%
%TO.N,12MHz*%
X68552000Y-146748000D03*
%TO.P,IC6,23*%
%TO.N,+3V3*%
X68052000Y-146748000D03*
%TO.P,IC6,22*%
%TO.N,Net-(IC6-Pad22)*%
X67552000Y-146748000D03*
%TO.P,IC6,21*%
%TO.N,Net-(IC6-Pad21)*%
X67052000Y-146748000D03*
%TO.P,IC6,20*%
%TO.N,Net-(IC6-Pad20)*%
X66552000Y-146748000D03*
%TO.P,IC6,19*%
%TO.N,GND*%
X66052000Y-146748000D03*
%TO.P,IC6,18*%
%TO.N,U_INT*%
X65552000Y-146748000D03*
%TO.P,IC6,17*%
%TO.N,U_GPX*%
X65052000Y-146748000D03*
D21*
%TO.P,IC6,16*%
%TO.N,U_MOSI*%
X63564000Y-145260000D03*
%TO.P,IC6,15*%
%TO.N,U_MISO*%
X63564000Y-144760000D03*
%TO.P,IC6,14*%
%TO.N,U_SS*%
X63564000Y-144260000D03*
%TO.P,IC6,13*%
%TO.N,U_SCLK*%
X63564000Y-143760000D03*
%TO.P,IC6,12*%
%TO.N,U_RES*%
X63564000Y-143260000D03*
%TO.P,IC6,11*%
%TO.N,Net-(IC6-Pad11)*%
X63564000Y-142760000D03*
%TO.P,IC6,10*%
%TO.N,Net-(IC6-Pad10)*%
X63564000Y-142260000D03*
%TO.P,IC6,9*%
%TO.N,Net-(IC6-Pad9)*%
X63564000Y-141760000D03*
D22*
%TO.P,IC6,8*%
%TO.N,Net-(IC6-Pad8)*%
X65052000Y-140272000D03*
%TO.P,IC6,7*%
%TO.N,Net-(IC6-Pad7)*%
X65552000Y-140272000D03*
%TO.P,IC6,6*%
%TO.N,Net-(IC6-Pad6)*%
X66052000Y-140272000D03*
%TO.P,IC6,5*%
%TO.N,Net-(IC6-Pad5)*%
X66552000Y-140272000D03*
%TO.P,IC6,4*%
%TO.N,Net-(IC6-Pad4)*%
X67052000Y-140272000D03*
%TO.P,IC6,3*%
%TO.N,GND*%
X67552000Y-140272000D03*
%TO.P,IC6,2*%
%TO.N,+3V3*%
X68052000Y-140272000D03*
%TO.P,IC6,1*%
%TO.N,Net-(IC6-Pad1)*%
X68552000Y-140272000D03*
%TD*%
D20*
%TO.P,SW1,3*%
%TO.N,N/C*%
X75386000Y-171196000D03*
D23*
%TO.P,SW1,2*%
%TO.N,Net-(JP1-Pad2)*%
X72286000Y-177096000D03*
%TO.P,SW1,1*%
%TO.N,GND*%
X78486000Y-177096000D03*
%TD*%
%TO.P,U3,9*%
%TO.N,N/C*%
%TA.AperFunction,SMDPad,CuDef*%
G36*
G01*
X54487000Y-128708000D02*
X54337000Y-128708000D01*
G75*
G02*
X54262000Y-128633000I0J75000D01*
G01*
X54262000Y-126383000D01*
G75*
G02*
X54337000Y-126308000I75000J0D01*
G01*
X54487000Y-126308000D01*
G75*
G02*
X54562000Y-126383000I0J-75000D01*
G01*
X54562000Y-128633000D01*
G75*
G02*
X54487000Y-128708000I-75000J0D01*
G01*
G37*
%TD.AperFunction*%
%TO.P,U3,8*%
%TO.N,+3V3*%
%TA.AperFunction,SMDPad,CuDef*%
G36*
G01*
X53499500Y-128883000D02*
X52724500Y-128883000D01*
G75*
G02*
X52637000Y-128795500I0J87500D01*
G01*
X52637000Y-128620500D01*
G75*
G02*
X52724500Y-128533000I87500J0D01*
G01*
X53499500Y-128533000D01*
G75*
G02*
X53587000Y-128620500I0J-87500D01*
G01*
X53587000Y-128795500D01*
G75*
G02*
X53499500Y-128883000I-87500J0D01*
G01*
G37*
%TD.AperFunction*%
%TO.P,U3,7*%
%TA.AperFunction,SMDPad,CuDef*%
G36*
G01*
X53499500Y-128083000D02*
X52724500Y-128083000D01*
G75*
G02*
X52637000Y-127995500I0J87500D01*
G01*
X52637000Y-127820500D01*
G75*
G02*
X52724500Y-127733000I87500J0D01*
G01*
X53499500Y-127733000D01*
G75*
G02*
X53587000Y-127820500I0J-87500D01*
G01*
X53587000Y-127995500D01*
G75*
G02*
X53499500Y-128083000I-87500J0D01*
G01*
G37*
%TD.AperFunction*%
%TO.P,U3,6*%
%TO.N,Net-(J1-Pad1)*%
%TA.AperFunction,SMDPad,CuDef*%
G36*
G01*
X53499500Y-127283000D02*
X52724500Y-127283000D01*
G75*
G02*
X52637000Y-127195500I0J87500D01*
G01*
X52637000Y-127020500D01*
G75*
G02*
X52724500Y-126933000I87500J0D01*
G01*
X53499500Y-126933000D01*
G75*
G02*
X53587000Y-127020500I0J-87500D01*
G01*
X53587000Y-127195500D01*
G75*
G02*
X53499500Y-127283000I-87500J0D01*
G01*
G37*
%TD.AperFunction*%
%TO.P,U3,5*%
%TO.N,Net-(J1-Pad2)*%
%TA.AperFunction,SMDPad,CuDef*%
G36*
G01*
X53499500Y-126483000D02*
X52724500Y-126483000D01*
G75*
G02*
X52637000Y-126395500I0J87500D01*
G01*
X52637000Y-126220500D01*
G75*
G02*
X52724500Y-126133000I87500J0D01*
G01*
X53499500Y-126133000D01*
G75*
G02*
X53587000Y-126220500I0J-87500D01*
G01*
X53587000Y-126395500D01*
G75*
G02*
X53499500Y-126483000I-87500J0D01*
G01*
G37*
%TD.AperFunction*%
%TO.P,U3,4*%
%TO.N,GND*%
%TA.AperFunction,SMDPad,CuDef*%
G36*
G01*
X56099500Y-126483000D02*
X55324500Y-126483000D01*
G75*
G02*
X55237000Y-126395500I0J87500D01*
G01*
X55237000Y-126220500D01*
G75*
G02*
X55324500Y-126133000I87500J0D01*
G01*
X56099500Y-126133000D01*
G75*
G02*
X56187000Y-126220500I0J-87500D01*
G01*
X56187000Y-126395500D01*
G75*
G02*
X56099500Y-126483000I-87500J0D01*
G01*
G37*
%TD.AperFunction*%
%TO.P,U3,3*%
%TO.N,+3V3*%
%TA.AperFunction,SMDPad,CuDef*%
G36*
G01*
X56099500Y-127283000D02*
X55324500Y-127283000D01*
G75*
G02*
X55237000Y-127195500I0J87500D01*
G01*
X55237000Y-127020500D01*
G75*
G02*
X55324500Y-126933000I87500J0D01*
G01*
X56099500Y-126933000D01*
G75*
G02*
X56187000Y-127020500I0J-87500D01*
G01*
X56187000Y-127195500D01*
G75*
G02*
X56099500Y-127283000I-87500J0D01*
G01*
G37*
%TD.AperFunction*%
%TO.P,U3,2*%
%TO.N,Net-(J1-Pad5)*%
%TA.AperFunction,SMDPad,CuDef*%
G36*
G01*
X56099500Y-128083000D02*
X55324500Y-128083000D01*
G75*
G02*
X55237000Y-127995500I0J87500D01*
G01*
X55237000Y-127820500D01*
G75*
G02*
X55324500Y-127733000I87500J0D01*
G01*
X56099500Y-127733000D01*
G75*
G02*
X56187000Y-127820500I0J-87500D01*
G01*
X56187000Y-127995500D01*
G75*
G02*
X56099500Y-128083000I-87500J0D01*
G01*
G37*
%TD.AperFunction*%
%TO.P,U3,1*%
%TO.N,Net-(J1-Pad7)*%
%TA.AperFunction,SMDPad,CuDef*%
G36*
G01*
X56099500Y-128883000D02*
X55324500Y-128883000D01*
G75*
G02*
X55237000Y-128795500I0J87500D01*
G01*
X55237000Y-128620500D01*
G75*
G02*
X55324500Y-128533000I87500J0D01*
G01*
X56099500Y-128533000D01*
G75*
G02*
X56187000Y-128620500I0J-87500D01*
G01*
X56187000Y-128795500D01*
G75*
G02*
X56099500Y-128883000I-87500J0D01*
G01*
G37*
%TD.AperFunction*%
%TD*%
D24*
%TO.P,U2,T16*%
%TO.N,Net-(U2-PadT16)*%
X59278000Y-130460000D03*
%TO.P,U2,R16*%
%TO.N,Net-(U2-PadR16)*%
X60078000Y-130460000D03*
%TO.P,U2,P16*%
%TO.N,Net-(U2-PadP16)*%
X60878000Y-130460000D03*
%TO.P,U2,N16*%
%TO.N,Net-(U2-PadN16)*%
X61678000Y-130460000D03*
%TO.P,U2,M16*%
%TO.N,Net-(U2-PadM16)*%
X62478000Y-130460000D03*
%TO.P,U2,L16*%
%TO.N,Net-(U2-PadL16)*%
X63278000Y-130460000D03*
%TO.P,U2,K16*%
%TO.N,Net-(U2-PadK16)*%
X64078000Y-130460000D03*
%TO.P,U2,J16*%
%TO.N,Net-(U2-PadJ16)*%
X64878000Y-130460000D03*
%TO.P,U2,H16*%
%TO.N,12MHz*%
X65678000Y-130460000D03*
%TO.P,U2,G16*%
%TO.N,U_GPX*%
X66478000Y-130460000D03*
%TO.P,U2,F16*%
%TO.N,U_MISO*%
X67278000Y-130460000D03*
%TO.P,U2,E16*%
%TO.N,U_SCLK*%
X68078000Y-130460000D03*
%TO.P,U2,D16*%
%TO.N,U_RES*%
X68878000Y-130460000D03*
%TO.P,U2,C16*%
%TO.N,Net-(U2-PadC16)*%
X69678000Y-130460000D03*
%TO.P,U2,B16*%
%TO.N,Net-(U2-PadB16)*%
X70478000Y-130460000D03*
%TO.P,U2,A16*%
%TO.N,Net-(U2-PadA16)*%
X71278000Y-130460000D03*
%TO.P,U2,T15*%
%TO.N,Net-(U2-PadT15)*%
X59278000Y-129660000D03*
%TO.P,U2,R15*%
%TO.N,Net-(U2-PadR15)*%
X60078000Y-129660000D03*
%TO.P,U2,P15*%
%TO.N,Net-(U2-PadP15)*%
X60878000Y-129660000D03*
%TO.P,U2,N15*%
%TO.N,+3V3*%
X61678000Y-129660000D03*
%TO.P,U2,M15*%
%TO.N,Net-(U2-PadM15)*%
X62478000Y-129660000D03*
%TO.P,U2,L15*%
%TO.N,GND*%
X63278000Y-129660000D03*
%TO.P,U2,K15*%
%TO.N,Net-(U2-PadK15)*%
X64078000Y-129660000D03*
%TO.P,U2,J15*%
%TO.N,Net-(U2-PadJ15)*%
X64878000Y-129660000D03*
%TO.P,U2,H15*%
%TO.N,+3V3*%
X65678000Y-129660000D03*
%TO.P,U2,G15*%
%TO.N,U_INT*%
X66478000Y-129660000D03*
%TO.P,U2,F15*%
%TO.N,U_MOSI*%
X67278000Y-129660000D03*
%TO.P,U2,E15*%
%TO.N,GND*%
X68078000Y-129660000D03*
%TO.P,U2,D15*%
%TO.N,U_SS*%
X68878000Y-129660000D03*
%TO.P,U2,C15*%
%TO.N,+3V3*%
X69678000Y-129660000D03*
%TO.P,U2,B15*%
%TO.N,Net-(U2-PadB15)*%
X70478000Y-129660000D03*
%TO.P,U2,A15*%
%TO.N,Net-(U2-PadA15)*%
X71278000Y-129660000D03*
%TO.P,U2,T14*%
%TO.N,Net-(U2-PadT14)*%
X59278000Y-128860000D03*
%TO.P,U2,R14*%
%TO.N,Net-(U2-PadR14)*%
X60078000Y-128860000D03*
%TO.P,U2,P14*%
%TO.N,Net-(U2-PadP14)*%
X60878000Y-128860000D03*
%TO.P,U2,N14*%
%TO.N,Net-(U2-PadN14)*%
X61678000Y-128860000D03*
%TO.P,U2,M14*%
%TO.N,Net-(U2-PadM14)*%
X62478000Y-128860000D03*
%TO.P,U2,L14*%
%TO.N,Net-(U2-PadL14)*%
X63278000Y-128860000D03*
%TO.P,U2,K14*%
%TO.N,Net-(U2-PadK14)*%
X64078000Y-128860000D03*
%TO.P,U2,J14*%
%TO.N,Net-(U2-PadJ14)*%
X64878000Y-128860000D03*
%TO.P,U2,H14*%
%TO.N,Net-(U2-PadH14)*%
X65678000Y-128860000D03*
%TO.P,U2,G14*%
%TO.N,Net-(U2-PadG14)*%
X66478000Y-128860000D03*
%TO.P,U2,F14*%
%TO.N,Net-(U2-PadF14)*%
X67278000Y-128860000D03*
%TO.P,U2,E14*%
%TO.N,Net-(U2-PadE14)*%
X68078000Y-128860000D03*
%TO.P,U2,D14*%
%TO.N,Net-(U2-PadD14)*%
X68878000Y-128860000D03*
%TO.P,U2,C14*%
%TO.N,Net-(U2-PadC14)*%
X69678000Y-128860000D03*
%TO.P,U2,B14*%
%TO.N,Net-(U2-PadB14)*%
X70478000Y-128860000D03*
%TO.P,U2,A14*%
%TO.N,+1V2*%
X71278000Y-128860000D03*
%TO.P,U2,T13*%
%TO.N,Net-(U2-PadT13)*%
X59278000Y-128060000D03*
%TO.P,U2,R13*%
%TO.N,+3V3*%
X60078000Y-128060000D03*
%TO.P,U2,P13*%
%TO.N,Net-(U2-PadP13)*%
X60878000Y-128060000D03*
%TO.P,U2,N13*%
%TO.N,+3V3*%
X61678000Y-128060000D03*
%TO.P,U2,M13*%
%TO.N,Net-(U2-PadM13)*%
X62478000Y-128060000D03*
%TO.P,U2,L13*%
%TO.N,Net-(U2-PadL13)*%
X63278000Y-128060000D03*
%TO.P,U2,K13*%
%TO.N,Net-(U2-PadK13)*%
X64078000Y-128060000D03*
%TO.P,U2,J13*%
%TO.N,Net-(U2-PadJ13)*%
X64878000Y-128060000D03*
%TO.P,U2,H13*%
%TO.N,Net-(U2-PadH13)*%
X65678000Y-128060000D03*
%TO.P,U2,G13*%
%TO.N,Net-(U2-PadG13)*%
X66478000Y-128060000D03*
%TO.P,U2,F13*%
%TO.N,Net-(U2-PadF13)*%
X67278000Y-128060000D03*
%TO.P,U2,E13*%
%TO.N,Net-(U2-PadE13)*%
X68078000Y-128060000D03*
%TO.P,U2,D13*%
%TO.N,Net-(U2-PadD13)*%
X68878000Y-128060000D03*
%TO.P,U2,C13*%
%TO.N,Net-(U2-PadC13)*%
X69678000Y-128060000D03*
%TO.P,U2,B13*%
%TO.N,Net-(U2-PadB13)*%
X70478000Y-128060000D03*
%TO.P,U2,A13*%
%TO.N,+3V3*%
X71278000Y-128060000D03*
%TO.P,U2,T12*%
%TO.N,GND*%
X59278000Y-127260000D03*
%TO.P,U2,R12*%
%TO.N,Net-(J1-Pad7)*%
X60078000Y-127260000D03*
%TO.P,U2,P12*%
%TO.N,Net-(J1-Pad2)*%
X60878000Y-127260000D03*
%TO.P,U2,N12*%
%TO.N,Net-(U2-PadN12)*%
X61678000Y-127260000D03*
%TO.P,U2,M12*%
%TO.N,Net-(U2-PadM12)*%
X62478000Y-127260000D03*
%TO.P,U2,L12*%
%TO.N,Net-(U2-PadL12)*%
X63278000Y-127260000D03*
%TO.P,U2,K12*%
%TO.N,Net-(U2-PadK12)*%
X64078000Y-127260000D03*
%TO.P,U2,J12*%
%TO.N,Net-(U2-PadJ12)*%
X64878000Y-127260000D03*
%TO.P,U2,H12*%
%TO.N,Net-(U2-PadH12)*%
X65678000Y-127260000D03*
%TO.P,U2,G12*%
%TO.N,Net-(U2-PadG12)*%
X66478000Y-127260000D03*
%TO.P,U2,F12*%
%TO.N,Net-(U2-PadF12)*%
X67278000Y-127260000D03*
%TO.P,U2,E12*%
%TO.N,Net-(D1-Pad2)*%
X68078000Y-127260000D03*
%TO.P,U2,D12*%
%TO.N,Net-(U2-PadD12)*%
X68878000Y-127260000D03*
%TO.P,U2,C12*%
%TO.N,Net-(U2-PadC12)*%
X69678000Y-127260000D03*
%TO.P,U2,B12*%
%TO.N,Net-(U2-PadB12)*%
X70478000Y-127260000D03*
%TO.P,U2,A12*%
%TO.N,GND*%
X71278000Y-127260000D03*
%TO.P,U2,T11*%
%TO.N,Net-(U2-PadT11)*%
X59278000Y-126460000D03*
%TO.P,U2,R11*%
%TO.N,Net-(J1-Pad1)*%
X60078000Y-126460000D03*
%TO.P,U2,P11*%
%TO.N,Net-(J1-Pad5)*%
X60878000Y-126460000D03*
%TO.P,U2,N11*%
%TO.N,CRESET*%
X61678000Y-126460000D03*
%TO.P,U2,M11*%
%TO.N,Net-(U2-PadM11)*%
X62478000Y-126460000D03*
%TO.P,U2,L11*%
%TO.N,Net-(U2-PadL11)*%
X63278000Y-126460000D03*
%TO.P,U2,K11*%
%TO.N,Net-(U2-PadK11)*%
X64078000Y-126460000D03*
%TO.P,U2,J11*%
%TO.N,Net-(U2-PadJ11)*%
X64878000Y-126460000D03*
%TO.P,U2,H11*%
%TO.N,Net-(U2-PadH11)*%
X65678000Y-126460000D03*
%TO.P,U2,G11*%
%TO.N,Net-(U2-PadG11)*%
X66478000Y-126460000D03*
%TO.P,U2,F11*%
%TO.N,Net-(U2-PadF11)*%
X67278000Y-126460000D03*
%TO.P,U2,E11*%
%TO.N,Net-(U2-PadE11)*%
X68078000Y-126460000D03*
%TO.P,U2,D11*%
%TO.N,Net-(U2-PadD11)*%
X68878000Y-126460000D03*
%TO.P,U2,C11*%
%TO.N,Net-(U2-PadC11)*%
X69678000Y-126460000D03*
%TO.P,U2,B11*%
%TO.N,Net-(U2-PadB11)*%
X70478000Y-126460000D03*
%TO.P,U2,A11*%
%TO.N,Net-(U2-PadA11)*%
X71278000Y-126460000D03*
%TO.P,U2,T10*%
%TO.N,F_DDIR*%
X59278000Y-125660000D03*
%TO.P,U2,R10*%
%TO.N,F_D3*%
X60078000Y-125660000D03*
%TO.P,U2,P10*%
%TO.N,Net-(U2-PadP10)*%
X60878000Y-125660000D03*
%TO.P,U2,N10*%
%TO.N,Net-(U2-PadN10)*%
X61678000Y-125660000D03*
%TO.P,U2,M10*%
%TO.N,CDONE*%
X62478000Y-125660000D03*
%TO.P,U2,L10*%
%TO.N,Net-(U2-PadL10)*%
X63278000Y-125660000D03*
%TO.P,U2,K10*%
%TO.N,+1V2*%
X64078000Y-125660000D03*
%TO.P,U2,J10*%
%TO.N,Net-(U2-PadJ10)*%
X64878000Y-125660000D03*
%TO.P,U2,H10*%
%TO.N,+3V3*%
X65678000Y-125660000D03*
%TO.P,U2,G10*%
%TO.N,Net-(U2-PadG10)*%
X66478000Y-125660000D03*
%TO.P,U2,F10*%
%TO.N,+1V2*%
X67278000Y-125660000D03*
%TO.P,U2,E10*%
%TO.N,Net-(U2-PadE10)*%
X68078000Y-125660000D03*
%TO.P,U2,D10*%
%TO.N,Net-(U2-PadD10)*%
X68878000Y-125660000D03*
%TO.P,U2,C10*%
%TO.N,Net-(U2-PadC10)*%
X69678000Y-125660000D03*
%TO.P,U2,B10*%
%TO.N,Net-(U2-PadB10)*%
X70478000Y-125660000D03*
%TO.P,U2,A10*%
%TO.N,Net-(U2-PadA10)*%
X71278000Y-125660000D03*
%TO.P,U2,T9*%
%TO.N,F_D4*%
X59278000Y-124860000D03*
%TO.P,U2,R9*%
%TO.N,F_D5*%
X60078000Y-124860000D03*
%TO.P,U2,P9*%
%TO.N,Net-(U2-PadP9)*%
X60878000Y-124860000D03*
%TO.P,U2,N9*%
%TO.N,Net-(U2-PadN9)*%
X61678000Y-124860000D03*
%TO.P,U2,M9*%
%TO.N,Net-(U2-PadM9)*%
X62478000Y-124860000D03*
%TO.P,U2,L9*%
%TO.N,Net-(U2-PadL9)*%
X63278000Y-124860000D03*
%TO.P,U2,K9*%
%TO.N,Net-(U2-PadK9)*%
X64078000Y-124860000D03*
%TO.P,U2,J9*%
%TO.N,GND*%
X64878000Y-124860000D03*
%TO.P,U2,H9*%
X65678000Y-124860000D03*
%TO.P,U2,G9*%
X66478000Y-124860000D03*
%TO.P,U2,F9*%
%TO.N,Net-(U2-PadF9)*%
X67278000Y-124860000D03*
%TO.P,U2,E9*%
%TO.N,Net-(U2-PadE9)*%
X68078000Y-124860000D03*
%TO.P,U2,D9*%
%TO.N,Net-(U2-PadD9)*%
X68878000Y-124860000D03*
%TO.P,U2,C9*%
%TO.N,Net-(U2-PadC9)*%
X69678000Y-124860000D03*
%TO.P,U2,B9*%
%TO.N,Net-(U2-PadB9)*%
X70478000Y-124860000D03*
%TO.P,U2,A9*%
%TO.N,Net-(U2-PadA9)*%
X71278000Y-124860000D03*
%TO.P,U2,T8*%
%TO.N,F_D6*%
X59278000Y-124060000D03*
%TO.P,U2,R8*%
%TO.N,+3V3*%
X60078000Y-124060000D03*
%TO.P,U2,P8*%
%TO.N,Net-(U2-PadP8)*%
X60878000Y-124060000D03*
%TO.P,U2,N8*%
%TO.N,Net-(C15-Pad1)*%
X61678000Y-124060000D03*
%TO.P,U2,M8*%
%TO.N,Net-(U2-PadM8)*%
X62478000Y-124060000D03*
%TO.P,U2,L8*%
%TO.N,Net-(C15-Pad2)*%
X63278000Y-124060000D03*
%TO.P,U2,K8*%
%TO.N,+3V3*%
X64078000Y-124060000D03*
%TO.P,U2,J8*%
%TO.N,GND*%
X64878000Y-124060000D03*
%TO.P,U2,H8*%
X65678000Y-124060000D03*
%TO.P,U2,G8*%
X66478000Y-124060000D03*
%TO.P,U2,F8*%
%TO.N,+3V3*%
X67278000Y-124060000D03*
%TO.P,U2,E8*%
%TO.N,Net-(C15-Pad2)*%
X68078000Y-124060000D03*
%TO.P,U2,D8*%
%TO.N,Net-(U2-PadD8)*%
X68878000Y-124060000D03*
%TO.P,U2,C8*%
%TO.N,Net-(U2-PadC8)*%
X69678000Y-124060000D03*
%TO.P,U2,B8*%
%TO.N,F_WP*%
X70478000Y-124060000D03*
%TO.P,U2,A8*%
%TO.N,+3V3*%
X71278000Y-124060000D03*
%TO.P,U2,T7*%
%TO.N,F_D7*%
X59278000Y-123260000D03*
%TO.P,U2,R7*%
%TO.N,GND*%
X60078000Y-123260000D03*
%TO.P,U2,P7*%
%TO.N,Net-(U2-PadP7)*%
X60878000Y-123260000D03*
%TO.P,U2,N7*%
%TO.N,Net-(U2-PadN7)*%
X61678000Y-123260000D03*
%TO.P,U2,M7*%
%TO.N,Net-(U2-PadM7)*%
X62478000Y-123260000D03*
%TO.P,U2,L7*%
%TO.N,Net-(U2-PadL7)*%
X63278000Y-123260000D03*
%TO.P,U2,K7*%
%TO.N,GND*%
X64078000Y-123260000D03*
%TO.P,U2,J7*%
X64878000Y-123260000D03*
%TO.P,U2,H7*%
X65678000Y-123260000D03*
%TO.P,U2,G7*%
X66478000Y-123260000D03*
%TO.P,U2,F7*%
%TO.N,Net-(U2-PadF7)*%
X67278000Y-123260000D03*
%TO.P,U2,E7*%
%TO.N,Net-(C15-Pad1)*%
X68078000Y-123260000D03*
%TO.P,U2,D7*%
%TO.N,Net-(U2-PadD7)*%
X68878000Y-123260000D03*
%TO.P,U2,C7*%
%TO.N,Net-(U2-PadC7)*%
X69678000Y-123260000D03*
%TO.P,U2,B7*%
%TO.N,Net-(U2-PadB7)*%
X70478000Y-123260000D03*
%TO.P,U2,A7*%
%TO.N,F_INPACK*%
X71278000Y-123260000D03*
%TO.P,U2,T6*%
%TO.N,F_D0*%
X59278000Y-122460000D03*
%TO.P,U2,R6*%
%TO.N,F_D1*%
X60078000Y-122460000D03*
%TO.P,U2,P6*%
%TO.N,Net-(U2-PadP6)*%
X60878000Y-122460000D03*
%TO.P,U2,N6*%
%TO.N,Net-(U2-PadN6)*%
X61678000Y-122460000D03*
%TO.P,U2,M6*%
%TO.N,Net-(U2-PadM6)*%
X62478000Y-122460000D03*
%TO.P,U2,L6*%
%TO.N,Net-(U2-PadL6)*%
X63278000Y-122460000D03*
%TO.P,U2,K6*%
%TO.N,+1V2*%
X64078000Y-122460000D03*
%TO.P,U2,J6*%
%TO.N,+3V3*%
X64878000Y-122460000D03*
%TO.P,U2,H6*%
%TO.N,Net-(U2-PadH6)*%
X65678000Y-122460000D03*
%TO.P,U2,G6*%
%TO.N,+3V3*%
X66478000Y-122460000D03*
%TO.P,U2,F6*%
%TO.N,+1V2*%
X67278000Y-122460000D03*
%TO.P,U2,E6*%
%TO.N,Net-(U2-PadE6)*%
X68078000Y-122460000D03*
%TO.P,U2,D6*%
%TO.N,Net-(U2-PadD6)*%
X68878000Y-122460000D03*
%TO.P,U2,C6*%
%TO.N,Net-(U2-PadC6)*%
X69678000Y-122460000D03*
%TO.P,U2,B6*%
%TO.N,F_READY*%
X70478000Y-122460000D03*
%TO.P,U2,A6*%
%TO.N,F_WAIT*%
X71278000Y-122460000D03*
%TO.P,U2,T5*%
%TO.N,F_D2*%
X59278000Y-121660000D03*
%TO.P,U2,R5*%
%TO.N,F_CE1*%
X60078000Y-121660000D03*
%TO.P,U2,P5*%
%TO.N,Net-(U2-PadP5)*%
X60878000Y-121660000D03*
%TO.P,U2,N5*%
%TO.N,Net-(U2-PadN5)*%
X61678000Y-121660000D03*
%TO.P,U2,M5*%
%TO.N,Net-(U2-PadM5)*%
X62478000Y-121660000D03*
%TO.P,U2,L5*%
%TO.N,Net-(U2-PadL5)*%
X63278000Y-121660000D03*
%TO.P,U2,K5*%
%TO.N,Net-(U2-PadK5)*%
X64078000Y-121660000D03*
%TO.P,U2,J5*%
%TO.N,Net-(U2-PadJ5)*%
X64878000Y-121660000D03*
%TO.P,U2,H5*%
%TO.N,Net-(U2-PadH5)*%
X65678000Y-121660000D03*
%TO.P,U2,G5*%
%TO.N,Net-(U2-PadG5)*%
X66478000Y-121660000D03*
%TO.P,U2,F5*%
%TO.N,Net-(U2-PadF5)*%
X67278000Y-121660000D03*
%TO.P,U2,E5*%
%TO.N,Net-(U2-PadE5)*%
X68078000Y-121660000D03*
%TO.P,U2,D5*%
%TO.N,Net-(U2-PadD5)*%
X68878000Y-121660000D03*
%TO.P,U2,C5*%
%TO.N,Net-(U2-PadC5)*%
X69678000Y-121660000D03*
%TO.P,U2,B5*%
%TO.N,F_A1*%
X70478000Y-121660000D03*
%TO.P,U2,A5*%
%TO.N,F_A0*%
X71278000Y-121660000D03*
%TO.P,U2,T4*%
%TO.N,GND*%
X59278000Y-120860000D03*
%TO.P,U2,R4*%
%TO.N,F_A10*%
X60078000Y-120860000D03*
%TO.P,U2,P4*%
%TO.N,Net-(U2-PadP4)*%
X60878000Y-120860000D03*
%TO.P,U2,N4*%
%TO.N,Net-(U2-PadN4)*%
X61678000Y-120860000D03*
%TO.P,U2,M4*%
%TO.N,Net-(U2-PadM4)*%
X62478000Y-120860000D03*
%TO.P,U2,L4*%
%TO.N,Net-(U2-PadL4)*%
X63278000Y-120860000D03*
%TO.P,U2,K4*%
%TO.N,Net-(U2-PadK4)*%
X64078000Y-120860000D03*
%TO.P,U2,J4*%
%TO.N,Net-(U2-PadJ4)*%
X64878000Y-120860000D03*
%TO.P,U2,H4*%
%TO.N,Net-(U2-PadH4)*%
X65678000Y-120860000D03*
%TO.P,U2,G4*%
%TO.N,Net-(U2-PadG4)*%
X66478000Y-120860000D03*
%TO.P,U2,F4*%
%TO.N,Net-(U2-PadF4)*%
X67278000Y-120860000D03*
%TO.P,U2,E4*%
%TO.N,Net-(U2-PadE4)*%
X68078000Y-120860000D03*
%TO.P,U2,D4*%
%TO.N,Net-(U2-PadD4)*%
X68878000Y-120860000D03*
%TO.P,U2,C4*%
%TO.N,Net-(U2-PadC4)*%
X69678000Y-120860000D03*
%TO.P,U2,B4*%
%TO.N,F_REG*%
X70478000Y-120860000D03*
%TO.P,U2,A4*%
%TO.N,GND*%
X71278000Y-120860000D03*
%TO.P,U2,T3*%
%TO.N,F_CE2*%
X59278000Y-120060000D03*
%TO.P,U2,R3*%
%TO.N,F_OE*%
X60078000Y-120060000D03*
%TO.P,U2,P3*%
%TO.N,+3V3*%
X60878000Y-120060000D03*
%TO.P,U2,N3*%
%TO.N,Net-(U2-PadN3)*%
X61678000Y-120060000D03*
%TO.P,U2,M3*%
%TO.N,Net-(U2-PadM3)*%
X62478000Y-120060000D03*
%TO.P,U2,L3*%
%TO.N,Net-(U2-PadL3)*%
X63278000Y-120060000D03*
%TO.P,U2,K3*%
%TO.N,Net-(U2-PadK3)*%
X64078000Y-120060000D03*
%TO.P,U2,J3*%
%TO.N,Net-(U2-PadJ3)*%
X64878000Y-120060000D03*
%TO.P,U2,H3*%
%TO.N,Net-(U2-PadH3)*%
X65678000Y-120060000D03*
%TO.P,U2,G3*%
%TO.N,Net-(U2-PadG3)*%
X66478000Y-120060000D03*
%TO.P,U2,F3*%
%TO.N,Net-(U2-PadF3)*%
X67278000Y-120060000D03*
%TO.P,U2,E3*%
%TO.N,Net-(U2-PadE3)*%
X68078000Y-120060000D03*
%TO.P,U2,D3*%
%TO.N,Net-(U2-PadD3)*%
X68878000Y-120060000D03*
%TO.P,U2,C3*%
%TO.N,Net-(U2-PadC3)*%
X69678000Y-120060000D03*
%TO.P,U2,B3*%
%TO.N,F_A2*%
X70478000Y-120060000D03*
%TO.P,U2,A3*%
%TO.N,+3V3*%
X71278000Y-120060000D03*
%TO.P,U2,T2*%
%TO.N,F_A11*%
X59278000Y-119260000D03*
%TO.P,U2,R2*%
%TO.N,F_IORD*%
X60078000Y-119260000D03*
%TO.P,U2,P2*%
%TO.N,Net-(U2-PadP2)*%
X60878000Y-119260000D03*
%TO.P,U2,N2*%
%TO.N,Net-(U2-PadN2)*%
X61678000Y-119260000D03*
%TO.P,U2,M2*%
%TO.N,Net-(U2-PadM2)*%
X62478000Y-119260000D03*
%TO.P,U2,L2*%
%TO.N,+1V2*%
X63278000Y-119260000D03*
%TO.P,U2,K2*%
%TO.N,GND*%
X64078000Y-119260000D03*
%TO.P,U2,J2*%
%TO.N,F_A13*%
X64878000Y-119260000D03*
%TO.P,U2,H2*%
%TO.N,F_WE*%
X65678000Y-119260000D03*
%TO.P,U2,G2*%
%TO.N,F_A12*%
X66478000Y-119260000D03*
%TO.P,U2,F2*%
%TO.N,F_A6*%
X67278000Y-119260000D03*
%TO.P,U2,E2*%
%TO.N,Net-(U2-PadE2)*%
X68078000Y-119260000D03*
%TO.P,U2,D2*%
%TO.N,Net-(U2-PadD2)*%
X68878000Y-119260000D03*
%TO.P,U2,C2*%
%TO.N,Net-(U2-PadC2)*%
X69678000Y-119260000D03*
%TO.P,U2,B2*%
%TO.N,F_RESET*%
X70478000Y-119260000D03*
%TO.P,U2,A2*%
%TO.N,F_A3*%
X71278000Y-119260000D03*
%TO.P,U2,T1*%
%TO.N,F_A9*%
X59278000Y-118460000D03*
%TO.P,U2,R1*%
%TO.N,F_IOWR*%
X60078000Y-118460000D03*
%TO.P,U2,P1*%
%TO.N,Net-(U2-PadP1)*%
X60878000Y-118460000D03*
%TO.P,U2,N1*%
%TO.N,+3V3*%
X61678000Y-118460000D03*
%TO.P,U2,M1*%
%TO.N,Net-(U2-PadM1)*%
X62478000Y-118460000D03*
%TO.P,U2,L1*%
%TO.N,Net-(U2-PadL1)*%
X63278000Y-118460000D03*
%TO.P,U2,K1*%
%TO.N,Net-(U2-PadK1)*%
X64078000Y-118460000D03*
%TO.P,U2,J1*%
%TO.N,F_A8*%
X64878000Y-118460000D03*
%TO.P,U2,H1*%
%TO.N,F_A14*%
X65678000Y-118460000D03*
%TO.P,U2,G1*%
%TO.N,F_A15*%
X66478000Y-118460000D03*
%TO.P,U2,F1*%
%TO.N,F_A7*%
X67278000Y-118460000D03*
%TO.P,U2,E1*%
%TO.N,+3V3*%
X68078000Y-118460000D03*
%TO.P,U2,D1*%
%TO.N,Net-(U2-PadD1)*%
X68878000Y-118460000D03*
%TO.P,U2,C1*%
%TO.N,Net-(U2-PadC1)*%
X69678000Y-118460000D03*
%TO.P,U2,B1*%
%TO.N,F_A5*%
X70478000Y-118460000D03*
%TO.P,U2,A1*%
%TO.N,F_A4*%
X71278000Y-118460000D03*
%TD*%
%TO.P,C10,2*%
%TO.N,GND*%
%TA.AperFunction,SMDPad,CuDef*%
G36*
G01*
X46146500Y-109792000D02*
X45801500Y-109792000D01*
G75*
G02*
X45654000Y-109644500I0J147500D01*
G01*
X45654000Y-109349500D01*
G75*
G02*
X45801500Y-109202000I147500J0D01*
G01*
X46146500Y-109202000D01*
G75*
G02*
X46294000Y-109349500I0J-147500D01*
G01*
X46294000Y-109644500D01*
G75*
G02*
X46146500Y-109792000I-147500J0D01*
G01*
G37*
%TD.AperFunction*%
%TO.P,C10,1*%
%TO.N,+3V3*%
%TA.AperFunction,SMDPad,CuDef*%
G36*
G01*
X46146500Y-110762000D02*
X45801500Y-110762000D01*
G75*
G02*
X45654000Y-110614500I0J147500D01*
G01*
X45654000Y-110319500D01*
G75*
G02*
X45801500Y-110172000I147500J0D01*
G01*
X46146500Y-110172000D01*
G75*
G02*
X46294000Y-110319500I0J-147500D01*
G01*
X46294000Y-110614500D01*
G75*
G02*
X46146500Y-110762000I-147500J0D01*
G01*
G37*
%TD.AperFunction*%
%TD*%
%TO.P,C9,2*%
%TO.N,GND*%
%TA.AperFunction,SMDPad,CuDef*%
G36*
G01*
X45801500Y-108140000D02*
X46146500Y-108140000D01*
G75*
G02*
X46294000Y-108287500I0J-147500D01*
G01*
X46294000Y-108582500D01*
G75*
G02*
X46146500Y-108730000I-147500J0D01*
G01*
X45801500Y-108730000D01*
G75*
G02*
X45654000Y-108582500I0J147500D01*
G01*
X45654000Y-108287500D01*
G75*
G02*
X45801500Y-108140000I147500J0D01*
G01*
G37*
%TD.AperFunction*%
%TO.P,C9,1*%
%TO.N,+5V*%
%TA.AperFunction,SMDPad,CuDef*%
G36*
G01*
X45801500Y-107170000D02*
X46146500Y-107170000D01*
G75*
G02*
X46294000Y-107317500I0J-147500D01*
G01*
X46294000Y-107612500D01*
G75*
G02*
X46146500Y-107760000I-147500J0D01*
G01*
X45801500Y-107760000D01*
G75*
G02*
X45654000Y-107612500I0J147500D01*
G01*
X45654000Y-107317500D01*
G75*
G02*
X45801500Y-107170000I147500J0D01*
G01*
G37*
%TD.AperFunction*%
%TD*%
%TO.P,C8,2*%
%TO.N,GND*%
%TA.AperFunction,SMDPad,CuDef*%
G36*
G01*
X54274500Y-109792000D02*
X53929500Y-109792000D01*
G75*
G02*
X53782000Y-109644500I0J147500D01*
G01*
X53782000Y-109349500D01*
G75*
G02*
X53929500Y-109202000I147500J0D01*
G01*
X54274500Y-109202000D01*
G75*
G02*
X54422000Y-109349500I0J-147500D01*
G01*
X54422000Y-109644500D01*
G75*
G02*
X54274500Y-109792000I-147500J0D01*
G01*
G37*
%TD.AperFunction*%
%TO.P,C8,1*%
%TO.N,+3V3*%
%TA.AperFunction,SMDPad,CuDef*%
G36*
G01*
X54274500Y-110762000D02*
X53929500Y-110762000D01*
G75*
G02*
X53782000Y-110614500I0J147500D01*
G01*
X53782000Y-110319500D01*
G75*
G02*
X53929500Y-110172000I147500J0D01*
G01*
X54274500Y-110172000D01*
G75*
G02*
X54422000Y-110319500I0J-147500D01*
G01*
X54422000Y-110614500D01*
G75*
G02*
X54274500Y-110762000I-147500J0D01*
G01*
G37*
%TD.AperFunction*%
%TD*%
%TO.P,C7,2*%
%TO.N,GND*%
%TA.AperFunction,SMDPad,CuDef*%
G36*
G01*
X53929500Y-108117000D02*
X54274500Y-108117000D01*
G75*
G02*
X54422000Y-108264500I0J-147500D01*
G01*
X54422000Y-108559500D01*
G75*
G02*
X54274500Y-108707000I-147500J0D01*
G01*
X53929500Y-108707000D01*
G75*
G02*
X53782000Y-108559500I0J147500D01*
G01*
X53782000Y-108264500D01*
G75*
G02*
X53929500Y-108117000I147500J0D01*
G01*
G37*
%TD.AperFunction*%
%TO.P,C7,1*%
%TO.N,+5V*%
%TA.AperFunction,SMDPad,CuDef*%
G36*
G01*
X53929500Y-107147000D02*
X54274500Y-107147000D01*
G75*
G02*
X54422000Y-107294500I0J-147500D01*
G01*
X54422000Y-107589500D01*
G75*
G02*
X54274500Y-107737000I-147500J0D01*
G01*
X53929500Y-107737000D01*
G75*
G02*
X53782000Y-107589500I0J147500D01*
G01*
X53782000Y-107294500D01*
G75*
G02*
X53929500Y-107147000I147500J0D01*
G01*
G37*
%TD.AperFunction*%
%TD*%
%TO.P,C6,2*%
%TO.N,GND*%
%TA.AperFunction,SMDPad,CuDef*%
G36*
G01*
X62402500Y-109792000D02*
X62057500Y-109792000D01*
G75*
G02*
X61910000Y-109644500I0J147500D01*
G01*
X61910000Y-109349500D01*
G75*
G02*
X62057500Y-109202000I147500J0D01*
G01*
X62402500Y-109202000D01*
G75*
G02*
X62550000Y-109349500I0J-147500D01*
G01*
X62550000Y-109644500D01*
G75*
G02*
X62402500Y-109792000I-147500J0D01*
G01*
G37*
%TD.AperFunction*%
%TO.P,C6,1*%
%TO.N,+3V3*%
%TA.AperFunction,SMDPad,CuDef*%
G36*
G01*
X62402500Y-110762000D02*
X62057500Y-110762000D01*
G75*
G02*
X61910000Y-110614500I0J147500D01*
G01*
X61910000Y-110319500D01*
G75*
G02*
X62057500Y-110172000I147500J0D01*
G01*
X62402500Y-110172000D01*
G75*
G02*
X62550000Y-110319500I0J-147500D01*
G01*
X62550000Y-110614500D01*
G75*
G02*
X62402500Y-110762000I-147500J0D01*
G01*
G37*
%TD.AperFunction*%
%TD*%
%TO.P,C5,2*%
%TO.N,GND*%
%TA.AperFunction,SMDPad,CuDef*%
G36*
G01*
X62057500Y-108140000D02*
X62402500Y-108140000D01*
G75*
G02*
X62550000Y-108287500I0J-147500D01*
G01*
X62550000Y-108582500D01*
G75*
G02*
X62402500Y-108730000I-147500J0D01*
G01*
X62057500Y-108730000D01*
G75*
G02*
X61910000Y-108582500I0J147500D01*
G01*
X61910000Y-108287500D01*
G75*
G02*
X62057500Y-108140000I147500J0D01*
G01*
G37*
%TD.AperFunction*%
%TO.P,C5,1*%
%TO.N,+5V*%
%TA.AperFunction,SMDPad,CuDef*%
G36*
G01*
X62057500Y-107170000D02*
X62402500Y-107170000D01*
G75*
G02*
X62550000Y-107317500I0J-147500D01*
G01*
X62550000Y-107612500D01*
G75*
G02*
X62402500Y-107760000I-147500J0D01*
G01*
X62057500Y-107760000D01*
G75*
G02*
X61910000Y-107612500I0J147500D01*
G01*
X61910000Y-107317500D01*
G75*
G02*
X62057500Y-107170000I147500J0D01*
G01*
G37*
%TD.AperFunction*%
%TD*%
%TO.P,C4,2*%
%TO.N,GND*%
%TA.AperFunction,SMDPad,CuDef*%
G36*
G01*
X70530500Y-109792000D02*
X70185500Y-109792000D01*
G75*
G02*
X70038000Y-109644500I0J147500D01*
G01*
X70038000Y-109349500D01*
G75*
G02*
X70185500Y-109202000I147500J0D01*
G01*
X70530500Y-109202000D01*
G75*
G02*
X70678000Y-109349500I0J-147500D01*
G01*
X70678000Y-109644500D01*
G75*
G02*
X70530500Y-109792000I-147500J0D01*
G01*
G37*
%TD.AperFunction*%
%TO.P,C4,1*%
%TO.N,+3V3*%
%TA.AperFunction,SMDPad,CuDef*%
G36*
G01*
X70530500Y-110762000D02*
X70185500Y-110762000D01*
G75*
G02*
X70038000Y-110614500I0J147500D01*
G01*
X70038000Y-110319500D01*
G75*
G02*
X70185500Y-110172000I147500J0D01*
G01*
X70530500Y-110172000D01*
G75*
G02*
X70678000Y-110319500I0J-147500D01*
G01*
X70678000Y-110614500D01*
G75*
G02*
X70530500Y-110762000I-147500J0D01*
G01*
G37*
%TD.AperFunction*%
%TD*%
%TO.P,C3,2*%
%TO.N,GND*%
%TA.AperFunction,SMDPad,CuDef*%
G36*
G01*
X70185500Y-108140000D02*
X70530500Y-108140000D01*
G75*
G02*
X70678000Y-108287500I0J-147500D01*
G01*
X70678000Y-108582500D01*
G75*
G02*
X70530500Y-108730000I-147500J0D01*
G01*
X70185500Y-108730000D01*
G75*
G02*
X70038000Y-108582500I0J147500D01*
G01*
X70038000Y-108287500D01*
G75*
G02*
X70185500Y-108140000I147500J0D01*
G01*
G37*
%TD.AperFunction*%
%TO.P,C3,1*%
%TO.N,+5V*%
%TA.AperFunction,SMDPad,CuDef*%
G36*
G01*
X70185500Y-107170000D02*
X70530500Y-107170000D01*
G75*
G02*
X70678000Y-107317500I0J-147500D01*
G01*
X70678000Y-107612500D01*
G75*
G02*
X70530500Y-107760000I-147500J0D01*
G01*
X70185500Y-107760000D01*
G75*
G02*
X70038000Y-107612500I0J147500D01*
G01*
X70038000Y-107317500D01*
G75*
G02*
X70185500Y-107170000I147500J0D01*
G01*
G37*
%TD.AperFunction*%
%TD*%
%TO.P,C2,2*%
%TO.N,GND*%
%TA.AperFunction,SMDPad,CuDef*%
G36*
G01*
X78658500Y-109561000D02*
X78313500Y-109561000D01*
G75*
G02*
X78166000Y-109413500I0J147500D01*
G01*
X78166000Y-109118500D01*
G75*
G02*
X78313500Y-108971000I147500J0D01*
G01*
X78658500Y-108971000D01*
G75*
G02*
X78806000Y-109118500I0J-147500D01*
G01*
X78806000Y-109413500D01*
G75*
G02*
X78658500Y-109561000I-147500J0D01*
G01*
G37*
%TD.AperFunction*%
%TO.P,C2,1*%
%TO.N,+3V3*%
%TA.AperFunction,SMDPad,CuDef*%
G36*
G01*
X78658500Y-110531000D02*
X78313500Y-110531000D01*
G75*
G02*
X78166000Y-110383500I0J147500D01*
G01*
X78166000Y-110088500D01*
G75*
G02*
X78313500Y-109941000I147500J0D01*
G01*
X78658500Y-109941000D01*
G75*
G02*
X78806000Y-110088500I0J-147500D01*
G01*
X78806000Y-110383500D01*
G75*
G02*
X78658500Y-110531000I-147500J0D01*
G01*
G37*
%TD.AperFunction*%
%TD*%
%TO.P,C1,2*%
%TO.N,GND*%
%TA.AperFunction,SMDPad,CuDef*%
G36*
G01*
X78313500Y-107886000D02*
X78658500Y-107886000D01*
G75*
G02*
X78806000Y-108033500I0J-147500D01*
G01*
X78806000Y-108328500D01*
G75*
G02*
X78658500Y-108476000I-147500J0D01*
G01*
X78313500Y-108476000D01*
G75*
G02*
X78166000Y-108328500I0J147500D01*
G01*
X78166000Y-108033500D01*
G75*
G02*
X78313500Y-107886000I147500J0D01*
G01*
G37*
%TD.AperFunction*%
%TO.P,C1,1*%
%TO.N,+5V*%
%TA.AperFunction,SMDPad,CuDef*%
G36*
G01*
X78313500Y-106916000D02*
X78658500Y-106916000D01*
G75*
G02*
X78806000Y-107063500I0J-147500D01*
G01*
X78806000Y-107358500D01*
G75*
G02*
X78658500Y-107506000I-147500J0D01*
G01*
X78313500Y-107506000D01*
G75*
G02*
X78166000Y-107358500I0J147500D01*
G01*
X78166000Y-107063500D01*
G75*
G02*
X78313500Y-106916000I147500J0D01*
G01*
G37*
%TD.AperFunction*%
%TD*%
D25*
%TO.P,IC5,EP7*%
%TO.N,Net-(IC5-PadEP7)*%
X84484000Y-108966000D03*
%TO.P,IC5,EP6*%
%TO.N,Net-(IC5-PadEP6)*%
X80108000Y-108966000D03*
D26*
%TO.P,IC5,EP5*%
%TO.N,Net-(IC5-PadEP5)*%
X84946000Y-108691000D03*
%TO.P,IC5,EP4*%
%TO.N,Net-(IC5-PadEP4)*%
X84946000Y-109241000D03*
%TO.P,IC5,EP3*%
%TO.N,Net-(IC5-PadEP3)*%
X79646000Y-108691000D03*
%TO.P,IC5,EP2*%
%TO.N,Net-(IC5-PadEP2)*%
X79646000Y-109241000D03*
D27*
%TO.P,IC5,EP1*%
%TO.N,Net-(IC5-PadEP1)*%
X82296000Y-108966000D03*
D28*
%TO.P,IC5,24*%
%TO.N,+5V*%
X79646000Y-108216000D03*
D29*
%TO.P,IC5,23*%
X80046000Y-107316000D03*
%TO.P,IC5,22*%
%TO.N,GND*%
X80546000Y-107316000D03*
%TO.P,IC5,21*%
%TO.N,/P_READY*%
X81046000Y-107316000D03*
%TO.P,IC5,20*%
%TO.N,/P_WAIT*%
X81546000Y-107316000D03*
%TO.P,IC5,19*%
%TO.N,/P_INPACK*%
X82046000Y-107316000D03*
%TO.P,IC5,18*%
%TO.N,/P_WP*%
X82546000Y-107316000D03*
%TO.P,IC5,17*%
%TO.N,Net-(IC5-Pad17)*%
X83046000Y-107316000D03*
%TO.P,IC5,16*%
%TO.N,Net-(IC5-Pad16)*%
X83546000Y-107316000D03*
%TO.P,IC5,15*%
%TO.N,Net-(IC5-Pad15)*%
X84046000Y-107316000D03*
%TO.P,IC5,14*%
%TO.N,Net-(IC5-Pad14)*%
X84546000Y-107316000D03*
D28*
%TO.P,IC5,13*%
%TO.N,GND*%
X84946000Y-108216000D03*
%TO.P,IC5,12*%
X84946000Y-109716000D03*
D29*
%TO.P,IC5,11*%
X84546000Y-110616000D03*
%TO.P,IC5,10*%
%TO.N,Net-(IC5-Pad10)*%
X84046000Y-110616000D03*
%TO.P,IC5,9*%
%TO.N,Net-(IC5-Pad9)*%
X83546000Y-110616000D03*
%TO.P,IC5,8*%
%TO.N,Net-(IC5-Pad8)*%
X83046000Y-110616000D03*
%TO.P,IC5,7*%
%TO.N,Net-(IC5-Pad7)*%
X82546000Y-110616000D03*
%TO.P,IC5,6*%
%TO.N,F_WP*%
X82046000Y-110616000D03*
%TO.P,IC5,5*%
%TO.N,F_INPACK*%
X81546000Y-110616000D03*
%TO.P,IC5,4*%
%TO.N,F_WAIT*%
X81046000Y-110616000D03*
%TO.P,IC5,3*%
%TO.N,F_READY*%
X80546000Y-110616000D03*
%TO.P,IC5,2*%
%TO.N,+3V3*%
X80046000Y-110616000D03*
D28*
%TO.P,IC5,1*%
X79646000Y-109716000D03*
%TD*%
D25*
%TO.P,IC4,EP7*%
%TO.N,Net-(IC4-PadEP7)*%
X76356000Y-108966000D03*
%TO.P,IC4,EP6*%
%TO.N,Net-(IC4-PadEP6)*%
X71980000Y-108966000D03*
D26*
%TO.P,IC4,EP5*%
%TO.N,Net-(IC4-PadEP5)*%
X76818000Y-108691000D03*
%TO.P,IC4,EP4*%
%TO.N,Net-(IC4-PadEP4)*%
X76818000Y-109241000D03*
%TO.P,IC4,EP3*%
%TO.N,Net-(IC4-PadEP3)*%
X71518000Y-108691000D03*
%TO.P,IC4,EP2*%
%TO.N,Net-(IC4-PadEP2)*%
X71518000Y-109241000D03*
D27*
%TO.P,IC4,EP1*%
%TO.N,Net-(IC4-PadEP1)*%
X74168000Y-108966000D03*
D28*
%TO.P,IC4,24*%
%TO.N,+5V*%
X71518000Y-108216000D03*
D29*
%TO.P,IC4,23*%
X71918000Y-107316000D03*
%TO.P,IC4,22*%
%TO.N,GND*%
X72418000Y-107316000D03*
%TO.P,IC4,21*%
%TO.N,/P_A5*%
X72918000Y-107316000D03*
%TO.P,IC4,20*%
%TO.N,/P_RESET*%
X73418000Y-107316000D03*
%TO.P,IC4,19*%
%TO.N,/P_A4*%
X73918000Y-107316000D03*
%TO.P,IC4,18*%
%TO.N,/P_A3*%
X74418000Y-107316000D03*
%TO.P,IC4,17*%
%TO.N,/P_A2*%
X74918000Y-107316000D03*
%TO.P,IC4,16*%
%TO.N,/P_REG*%
X75418000Y-107316000D03*
%TO.P,IC4,15*%
%TO.N,/P_A1*%
X75918000Y-107316000D03*
%TO.P,IC4,14*%
%TO.N,/P_A0*%
X76418000Y-107316000D03*
D28*
%TO.P,IC4,13*%
%TO.N,GND*%
X76818000Y-108216000D03*
%TO.P,IC4,12*%
X76818000Y-109716000D03*
D29*
%TO.P,IC4,11*%
X76418000Y-110616000D03*
%TO.P,IC4,10*%
%TO.N,F_A0*%
X75918000Y-110616000D03*
%TO.P,IC4,9*%
%TO.N,F_A1*%
X75418000Y-110616000D03*
%TO.P,IC4,8*%
%TO.N,F_REG*%
X74918000Y-110616000D03*
%TO.P,IC4,7*%
%TO.N,F_A2*%
X74418000Y-110616000D03*
%TO.P,IC4,6*%
%TO.N,F_A3*%
X73918000Y-110616000D03*
%TO.P,IC4,5*%
%TO.N,F_A4*%
X73418000Y-110616000D03*
%TO.P,IC4,4*%
%TO.N,F_RESET*%
X72918000Y-110616000D03*
%TO.P,IC4,3*%
%TO.N,F_A5*%
X72418000Y-110616000D03*
%TO.P,IC4,2*%
%TO.N,GND*%
X71918000Y-110616000D03*
D28*
%TO.P,IC4,1*%
%TO.N,+3V3*%
X71518000Y-109716000D03*
%TD*%
D25*
%TO.P,IC3,EP7*%
%TO.N,Net-(IC3-PadEP7)*%
X68228000Y-108966000D03*
%TO.P,IC3,EP6*%
%TO.N,Net-(IC3-PadEP6)*%
X63852000Y-108966000D03*
D26*
%TO.P,IC3,EP5*%
%TO.N,Net-(IC3-PadEP5)*%
X68690000Y-108691000D03*
%TO.P,IC3,EP4*%
%TO.N,Net-(IC3-PadEP4)*%
X68690000Y-109241000D03*
%TO.P,IC3,EP3*%
%TO.N,Net-(IC3-PadEP3)*%
X63390000Y-108691000D03*
%TO.P,IC3,EP2*%
%TO.N,Net-(IC3-PadEP2)*%
X63390000Y-109241000D03*
D27*
%TO.P,IC3,EP1*%
%TO.N,Net-(IC3-PadEP1)*%
X66040000Y-108966000D03*
D28*
%TO.P,IC3,24*%
%TO.N,+5V*%
X63390000Y-108216000D03*
D29*
%TO.P,IC3,23*%
X63790000Y-107316000D03*
%TO.P,IC3,22*%
%TO.N,GND*%
X64290000Y-107316000D03*
%TO.P,IC3,21*%
%TO.N,/P_A8*%
X64790000Y-107316000D03*
%TO.P,IC3,20*%
%TO.N,/P_A13*%
X65290000Y-107316000D03*
%TO.P,IC3,19*%
%TO.N,/P_A14*%
X65790000Y-107316000D03*
%TO.P,IC3,18*%
%TO.N,/P_WE*%
X66290000Y-107316000D03*
%TO.P,IC3,17*%
%TO.N,/P_A15*%
X66790000Y-107316000D03*
%TO.P,IC3,16*%
%TO.N,/P_A12*%
X67290000Y-107316000D03*
%TO.P,IC3,15*%
%TO.N,/P_A7*%
X67790000Y-107316000D03*
%TO.P,IC3,14*%
%TO.N,/P_A6*%
X68290000Y-107316000D03*
D28*
%TO.P,IC3,13*%
%TO.N,GND*%
X68690000Y-108216000D03*
%TO.P,IC3,12*%
X68690000Y-109716000D03*
D29*
%TO.P,IC3,11*%
X68290000Y-110616000D03*
%TO.P,IC3,10*%
%TO.N,F_A6*%
X67790000Y-110616000D03*
%TO.P,IC3,9*%
%TO.N,F_A7*%
X67290000Y-110616000D03*
%TO.P,IC3,8*%
%TO.N,F_A12*%
X66790000Y-110616000D03*
%TO.P,IC3,7*%
%TO.N,F_A15*%
X66290000Y-110616000D03*
%TO.P,IC3,6*%
%TO.N,F_WE*%
X65790000Y-110616000D03*
%TO.P,IC3,5*%
%TO.N,F_A14*%
X65290000Y-110616000D03*
%TO.P,IC3,4*%
%TO.N,F_A13*%
X64790000Y-110616000D03*
%TO.P,IC3,3*%
%TO.N,F_A8*%
X64290000Y-110616000D03*
%TO.P,IC3,2*%
%TO.N,GND*%
X63790000Y-110616000D03*
D28*
%TO.P,IC3,1*%
%TO.N,+3V3*%
X63390000Y-109716000D03*
%TD*%
D25*
%TO.P,IC2,EP7*%
%TO.N,Net-(IC2-PadEP7)*%
X60100000Y-108966000D03*
%TO.P,IC2,EP6*%
%TO.N,Net-(IC2-PadEP6)*%
X55724000Y-108966000D03*
D26*
%TO.P,IC2,EP5*%
%TO.N,Net-(IC2-PadEP5)*%
X60562000Y-108691000D03*
%TO.P,IC2,EP4*%
%TO.N,Net-(IC2-PadEP4)*%
X60562000Y-109241000D03*
%TO.P,IC2,EP3*%
%TO.N,Net-(IC2-PadEP3)*%
X55262000Y-108691000D03*
%TO.P,IC2,EP2*%
%TO.N,Net-(IC2-PadEP2)*%
X55262000Y-109241000D03*
D27*
%TO.P,IC2,EP1*%
%TO.N,Net-(IC2-PadEP1)*%
X57912000Y-108966000D03*
D28*
%TO.P,IC2,24*%
%TO.N,+5V*%
X55262000Y-108216000D03*
D29*
%TO.P,IC2,23*%
X55662000Y-107316000D03*
%TO.P,IC2,22*%
%TO.N,GND*%
X56162000Y-107316000D03*
%TO.P,IC2,21*%
%TO.N,/P_CE1*%
X56662000Y-107316000D03*
%TO.P,IC2,20*%
%TO.N,/P_A10*%
X57162000Y-107316000D03*
%TO.P,IC2,19*%
%TO.N,/P_CE2*%
X57662000Y-107316000D03*
%TO.P,IC2,18*%
%TO.N,/P_OE*%
X58162000Y-107316000D03*
%TO.P,IC2,17*%
%TO.N,/P_A11*%
X58662000Y-107316000D03*
%TO.P,IC2,16*%
%TO.N,/P_IORD*%
X59162000Y-107316000D03*
%TO.P,IC2,15*%
%TO.N,/P_A9*%
X59662000Y-107316000D03*
%TO.P,IC2,14*%
%TO.N,/P_IOWR*%
X60162000Y-107316000D03*
D28*
%TO.P,IC2,13*%
%TO.N,GND*%
X60562000Y-108216000D03*
%TO.P,IC2,12*%
X60562000Y-109716000D03*
D29*
%TO.P,IC2,11*%
X60162000Y-110616000D03*
%TO.P,IC2,10*%
%TO.N,F_IOWR*%
X59662000Y-110616000D03*
%TO.P,IC2,9*%
%TO.N,F_A9*%
X59162000Y-110616000D03*
%TO.P,IC2,8*%
%TO.N,F_IORD*%
X58662000Y-110616000D03*
%TO.P,IC2,7*%
%TO.N,F_A11*%
X58162000Y-110616000D03*
%TO.P,IC2,6*%
%TO.N,F_OE*%
X57662000Y-110616000D03*
%TO.P,IC2,5*%
%TO.N,F_CE2*%
X57162000Y-110616000D03*
%TO.P,IC2,4*%
%TO.N,F_A10*%
X56662000Y-110616000D03*
%TO.P,IC2,3*%
%TO.N,F_CE1*%
X56162000Y-110616000D03*
%TO.P,IC2,2*%
%TO.N,GND*%
X55662000Y-110616000D03*
D28*
%TO.P,IC2,1*%
%TO.N,+3V3*%
X55262000Y-109716000D03*
%TD*%
D25*
%TO.P,IC1,EP7*%
%TO.N,Net-(IC1-PadEP7)*%
X51972000Y-108966000D03*
%TO.P,IC1,EP6*%
%TO.N,Net-(IC1-PadEP6)*%
X47596000Y-108966000D03*
D26*
%TO.P,IC1,EP5*%
%TO.N,Net-(IC1-PadEP5)*%
X52434000Y-108691000D03*
%TO.P,IC1,EP4*%
%TO.N,Net-(IC1-PadEP4)*%
X52434000Y-109241000D03*
%TO.P,IC1,EP3*%
%TO.N,Net-(IC1-PadEP3)*%
X47134000Y-108691000D03*
%TO.P,IC1,EP2*%
%TO.N,Net-(IC1-PadEP2)*%
X47134000Y-109241000D03*
D27*
%TO.P,IC1,EP1*%
%TO.N,Net-(IC1-PadEP1)*%
X49784000Y-108966000D03*
D28*
%TO.P,IC1,24*%
%TO.N,+5V*%
X47134000Y-108216000D03*
D29*
%TO.P,IC1,23*%
X47534000Y-107316000D03*
%TO.P,IC1,22*%
%TO.N,GND*%
X48034000Y-107316000D03*
%TO.P,IC1,21*%
%TO.N,/P_D3*%
X48534000Y-107316000D03*
%TO.P,IC1,20*%
%TO.N,/P_D4*%
X49034000Y-107316000D03*
%TO.P,IC1,19*%
%TO.N,/P_D5*%
X49534000Y-107316000D03*
%TO.P,IC1,18*%
%TO.N,/P_D6*%
X50034000Y-107316000D03*
%TO.P,IC1,17*%
%TO.N,/P_D7*%
X50534000Y-107316000D03*
%TO.P,IC1,16*%
%TO.N,/P_D0*%
X51034000Y-107316000D03*
%TO.P,IC1,15*%
%TO.N,/P_D1*%
X51534000Y-107316000D03*
%TO.P,IC1,14*%
%TO.N,/P_D2*%
X52034000Y-107316000D03*
D28*
%TO.P,IC1,13*%
%TO.N,GND*%
X52434000Y-108216000D03*
%TO.P,IC1,12*%
X52434000Y-109716000D03*
D29*
%TO.P,IC1,11*%
X52034000Y-110616000D03*
%TO.P,IC1,10*%
%TO.N,F_D2*%
X51534000Y-110616000D03*
%TO.P,IC1,9*%
%TO.N,F_D1*%
X51034000Y-110616000D03*
%TO.P,IC1,8*%
%TO.N,F_D0*%
X50534000Y-110616000D03*
%TO.P,IC1,7*%
%TO.N,F_D7*%
X50034000Y-110616000D03*
%TO.P,IC1,6*%
%TO.N,F_D6*%
X49534000Y-110616000D03*
%TO.P,IC1,5*%
%TO.N,F_D5*%
X49034000Y-110616000D03*
%TO.P,IC1,4*%
%TO.N,F_D4*%
X48534000Y-110616000D03*
%TO.P,IC1,3*%
%TO.N,F_D3*%
X48034000Y-110616000D03*
%TO.P,IC1,2*%
%TO.N,F_DDIR*%
X47534000Y-110616000D03*
D28*
%TO.P,IC1,1*%
%TO.N,+3V3*%
X47134000Y-109716000D03*
%TD*%
D30*
%TO.N,GND*%
X44704000Y-100584000D03*
X80278000Y-106631999D03*
X86106000Y-108204000D03*
X77724000Y-109728000D03*
X86614000Y-100330000D03*
X45212000Y-108966000D03*
X47244000Y-106172000D03*
X53340000Y-108966000D03*
X55372000Y-105664000D03*
X61468000Y-108966000D03*
X63244597Y-105665403D03*
X69596000Y-108966000D03*
X72418000Y-106708000D03*
X43180000Y-141732000D03*
X58650685Y-127484685D03*
X58674000Y-120904000D03*
X71628000Y-127000000D03*
X68326000Y-129286000D03*
X65278000Y-123698000D03*
X62992000Y-129286000D03*
X62822362Y-126915638D03*
X64516000Y-119634000D03*
X66078001Y-122737796D03*
X65278000Y-126746000D03*
X67579905Y-125242132D03*
X68478001Y-121137795D03*
X56642000Y-126492000D03*
X71628000Y-120845999D03*
X83312000Y-127508000D03*
X78486000Y-136652000D03*
X83312000Y-138684000D03*
X66040000Y-144018000D03*
X67552000Y-138418000D03*
X80264000Y-143764000D03*
X69596000Y-149352000D03*
X57658000Y-138430000D03*
X47498000Y-128270000D03*
D31*
X78486000Y-167640000D03*
X62992000Y-167894000D03*
X69088000Y-167386000D03*
X54864000Y-167386000D03*
D30*
X60452000Y-122936000D03*
%TO.N,/P_REG*%
X76073000Y-105583000D03*
%TO.N,/P_IOWR*%
X60162000Y-105628000D03*
%TO.N,/P_IORD*%
X59162000Y-105644000D03*
%TO.N,/P_CE2*%
X57635065Y-105659570D03*
%TO.N,/P_WE*%
X66363011Y-105760001D03*
%TO.N,/P_OE*%
X58162000Y-105668000D03*
%TO.N,/P_CE1*%
X56134000Y-105664000D03*
%TO.N,/P_RESET*%
X73418000Y-105676000D03*
%TO.N,+5V*%
X65278000Y-101600000D03*
X79248000Y-107442000D03*
X46989000Y-107443000D03*
X54992000Y-107316000D03*
X63246000Y-107696000D03*
X71351000Y-107465000D03*
X83520000Y-121966000D03*
%TO.N,/P_D0*%
X51308000Y-104140000D03*
X81280000Y-103886000D03*
%TO.N,/P_D1*%
X51816000Y-104648000D03*
X82550000Y-103632000D03*
%TO.N,/P_D2*%
X52324000Y-105156000D03*
X83820000Y-103632000D03*
%TO.N,+3V3*%
X79248000Y-110236000D03*
X46736000Y-110236000D03*
X54864000Y-110236000D03*
X62992000Y-110236000D03*
X71120000Y-110236000D03*
X61976000Y-127762000D03*
X61722000Y-118110000D03*
X68340280Y-118849658D03*
X71628000Y-128016000D03*
X70104000Y-129286000D03*
X63754000Y-123698000D03*
X71882000Y-123952000D03*
X57168997Y-126494222D03*
X71882000Y-119991998D03*
X80518000Y-136652000D03*
X72644000Y-131572000D03*
X67306020Y-144396933D03*
X68768250Y-138618250D03*
X51816000Y-128270000D03*
X54610000Y-130048000D03*
%TO.N,/P_READY*%
X78780002Y-106131998D03*
X65786000Y-103632000D03*
%TO.N,/P_WAIT*%
X75692000Y-102362000D03*
X81546000Y-106680000D03*
%TO.N,/P_INPACK*%
X81280000Y-105664000D03*
X76962000Y-101600000D03*
%TO.N,Net-(C15-Pad2)*%
X68326000Y-123698000D03*
X62976095Y-125242132D03*
%TO.N,Net-(C15-Pad1)*%
X62200204Y-124459999D03*
X68326000Y-122936000D03*
%TO.N,+1V2*%
X62992000Y-119634000D03*
X62955715Y-126025106D03*
X66060132Y-126761905D03*
X83820000Y-135890000D03*
X72517000Y-125349000D03*
X64516000Y-122047000D03*
X71882000Y-128905000D03*
X66929000Y-122047000D03*
%TO.N,12MHz*%
X67818000Y-144272000D03*
X62026000Y-134112000D03*
D31*
%TO.N,Net-(C29-Pad1)*%
X67818000Y-165862000D03*
X64516000Y-165862000D03*
%TO.N,Net-(R19-Pad1)*%
X66921000Y-167640000D03*
X65667000Y-166116000D03*
%TO.N,Net-(R20-Pad1)*%
X65786000Y-167132000D03*
D30*
%TO.N,Net-(JP1-Pad2)*%
X46482000Y-100330000D03*
X85788500Y-100393500D03*
%TO.N,Net-(J1-Pad7)*%
X51562000Y-130810000D03*
X56712000Y-128708000D03*
%TO.N,Net-(J1-Pad5)*%
X51562000Y-129540000D03*
X56896000Y-127508000D03*
%TO.N,Net-(J1-Pad2)*%
X60483877Y-127529137D03*
X53086000Y-125730000D03*
X46990000Y-125730000D03*
%TO.N,Net-(J1-Pad1)*%
X50800000Y-127000000D03*
%TO.N,CRESET*%
X61248848Y-126775662D03*
X57404000Y-130810000D03*
X47498000Y-130810000D03*
%TO.N,CDONE*%
X62115143Y-126135184D03*
X57404000Y-131826000D03*
X47498000Y-132080000D03*
%TO.N,Net-(D1-Pad2)*%
X68326000Y-127508000D03*
X73406000Y-127254000D03*
%TD*%
D32*
%TO.N,/P_D3*%
X45783500Y-98282000D02*
X45783500Y-103949500D01*
X48534000Y-106700000D02*
X48534000Y-107316000D01*
X45783500Y-103949500D02*
X48534000Y-106700000D01*
%TO.N,GND*%
X45148500Y-98282000D02*
X44513500Y-98282000D01*
X44513500Y-98282000D02*
X44513500Y-100393500D01*
X44513500Y-100393500D02*
X44704000Y-100584000D01*
X80546000Y-107316000D02*
X80546000Y-106962000D01*
X80546000Y-106962000D02*
X80264000Y-106680000D01*
X80264000Y-106680000D02*
X80278000Y-106666000D01*
X80278000Y-106666000D02*
X80278000Y-106631999D01*
X84946000Y-108216000D02*
X86094000Y-108216000D01*
X86094000Y-108216000D02*
X86106000Y-108204000D01*
X86106000Y-109056000D02*
X86106000Y-108204000D01*
X85446000Y-109716000D02*
X86106000Y-109056000D01*
X84946000Y-109716000D02*
X85446000Y-109716000D01*
X84946000Y-110216000D02*
X84946000Y-109716000D01*
X84546000Y-110616000D02*
X84946000Y-110216000D01*
X77318000Y-108216000D02*
X77724000Y-108622000D01*
X76818000Y-108216000D02*
X77318000Y-108216000D01*
X76544000Y-110490000D02*
X76418000Y-110616000D01*
X77724000Y-110490000D02*
X76544000Y-110490000D01*
X76818000Y-109716000D02*
X77712000Y-109716000D01*
X77724000Y-109728000D02*
X77724000Y-110490000D01*
X77712000Y-109716000D02*
X77724000Y-109728000D01*
X77911000Y-108435000D02*
X77724000Y-108622000D01*
X78232000Y-108435000D02*
X77911000Y-108435000D01*
X77770000Y-109266000D02*
X77724000Y-109220000D01*
X78232000Y-109266000D02*
X77770000Y-109266000D01*
X77724000Y-108622000D02*
X77724000Y-109220000D01*
X77724000Y-109220000D02*
X77724000Y-109728000D01*
X86423500Y-98282000D02*
X86423500Y-100139500D01*
X86423500Y-100139500D02*
X86614000Y-100330000D01*
X45974000Y-108966000D02*
X45212000Y-108966000D01*
X45974000Y-108966000D02*
X45974000Y-108435000D01*
X45974000Y-109497000D02*
X45974000Y-108966000D01*
X48034000Y-107316000D02*
X48034000Y-106962000D01*
X48034000Y-106962000D02*
X47244000Y-106172000D01*
X53034001Y-109581001D02*
X52899002Y-109716000D01*
X52934000Y-108216000D02*
X53034001Y-108316001D01*
X52434000Y-108216000D02*
X52934000Y-108216000D01*
X52434000Y-110216000D02*
X52434000Y-109716000D01*
X52034000Y-110616000D02*
X52434000Y-110216000D01*
X53109000Y-109497000D02*
X53034001Y-109422001D01*
X54102000Y-109497000D02*
X53109000Y-109497000D01*
X53034001Y-109422001D02*
X53034001Y-109581001D01*
X53040000Y-108412000D02*
X53034001Y-108406001D01*
X54102000Y-108412000D02*
X53040000Y-108412000D01*
X53034001Y-108316001D02*
X53034001Y-108406001D01*
X53034001Y-109017999D02*
X53034001Y-109422001D01*
X53034001Y-109017999D02*
X53288001Y-109017999D01*
X53034001Y-108406001D02*
X53034001Y-109017999D01*
X53288001Y-109017999D02*
X53340000Y-108966000D01*
X56162000Y-107316000D02*
X56162000Y-106454000D01*
X56162000Y-106454000D02*
X55372000Y-105664000D01*
X55662000Y-110616000D02*
X55500000Y-110616000D01*
X55053990Y-111062010D02*
X53404010Y-111062010D01*
X55500000Y-110616000D02*
X55053990Y-111062010D01*
X52820000Y-110478000D02*
X52820000Y-109716000D01*
X53404010Y-111062010D02*
X52820000Y-110478000D01*
X52899002Y-109716000D02*
X52820000Y-109716000D01*
X52820000Y-109716000D02*
X52434000Y-109716000D01*
X60562000Y-110216000D02*
X60562000Y-109716000D01*
X60162000Y-110616000D02*
X60562000Y-110216000D01*
X61027002Y-109716000D02*
X60562000Y-109716000D01*
X61162001Y-109581001D02*
X61027002Y-109716000D01*
X61062000Y-108216000D02*
X61162001Y-108316001D01*
X60562000Y-108216000D02*
X61062000Y-108216000D01*
X61237000Y-109497000D02*
X61162001Y-109422001D01*
X62230000Y-109497000D02*
X61237000Y-109497000D01*
X61162001Y-109422001D02*
X61162001Y-109581001D01*
X61237000Y-108435000D02*
X61162001Y-108509999D01*
X62230000Y-108435000D02*
X61237000Y-108435000D01*
X61162001Y-108316001D02*
X61162001Y-108509999D01*
X61162001Y-109168001D02*
X61265999Y-109168001D01*
X61162001Y-109168001D02*
X61162001Y-109422001D01*
X61162001Y-108509999D02*
X61162001Y-109168001D01*
X61265999Y-109168001D02*
X61468000Y-108966000D01*
X63790000Y-110616000D02*
X63374000Y-110616000D01*
X61408010Y-111062010D02*
X60562000Y-110216000D01*
X62927990Y-111062010D02*
X61408010Y-111062010D01*
X63374000Y-110616000D02*
X62927990Y-111062010D01*
X64290000Y-107316000D02*
X64290000Y-106708000D01*
X64290000Y-106708000D02*
X63247403Y-105665403D01*
X63247403Y-105665403D02*
X63244597Y-105665403D01*
X68690000Y-110216000D02*
X68690000Y-109716000D01*
X68290000Y-110616000D02*
X68690000Y-110216000D01*
X69190000Y-108216000D02*
X68690000Y-108216000D01*
X69290001Y-108316001D02*
X69190000Y-108216000D01*
X69155002Y-109716000D02*
X69290001Y-109581001D01*
X68690000Y-109716000D02*
X69155002Y-109716000D01*
X69319000Y-108435000D02*
X69290001Y-108406001D01*
X70358000Y-108435000D02*
X69319000Y-108435000D01*
X69290001Y-108406001D02*
X69290001Y-108316001D01*
X70358000Y-109497000D02*
X69365000Y-109497000D01*
X69365000Y-109497000D02*
X69290001Y-109422001D01*
X69290001Y-109581001D02*
X69290001Y-109422001D01*
X69290001Y-108914001D02*
X69544001Y-108914001D01*
X69290001Y-108914001D02*
X69290001Y-108406001D01*
X69290001Y-109422001D02*
X69290001Y-108914001D01*
X69544001Y-108914001D02*
X69596000Y-108966000D01*
X69536010Y-111062010D02*
X68690000Y-110216000D01*
X71471990Y-111062010D02*
X69536010Y-111062010D01*
X71918000Y-110616000D02*
X71471990Y-111062010D01*
X72418000Y-107316000D02*
X72418000Y-106708000D01*
X43286000Y-141632000D02*
X43280000Y-141632000D01*
X43280000Y-141632000D02*
X43180000Y-141732000D01*
X59278000Y-127260000D02*
X58875370Y-127260000D01*
X58875370Y-127260000D02*
X58650685Y-127484685D01*
X59278000Y-120860000D02*
X58718000Y-120860000D01*
X58718000Y-120860000D02*
X58674000Y-120904000D01*
X60078000Y-123260000D02*
X60078000Y-123324000D01*
X71278000Y-127260000D02*
X71368000Y-127260000D01*
X71368000Y-127260000D02*
X71628000Y-127000000D01*
X68078000Y-129660000D02*
X68078000Y-129534000D01*
X68078000Y-129534000D02*
X68326000Y-129286000D01*
X66478000Y-124860000D02*
X66478000Y-123260000D01*
X64878000Y-124860000D02*
X64878000Y-123260000D01*
X66478000Y-124860000D02*
X64878000Y-124860000D01*
X65170000Y-123806000D02*
X65278000Y-123698000D01*
X65170000Y-124060000D02*
X65170000Y-123806000D01*
X65170000Y-124060000D02*
X64878000Y-124060000D01*
X65678000Y-124060000D02*
X65170000Y-124060000D01*
X63278000Y-129660000D02*
X63278000Y-129572000D01*
X63278000Y-129572000D02*
X62992000Y-129286000D01*
X64078000Y-119260000D02*
X64142000Y-119260000D01*
X64142000Y-119260000D02*
X64516000Y-119634000D01*
X66224000Y-122883795D02*
X66078001Y-122737796D01*
X66224000Y-123260000D02*
X66224000Y-122883795D01*
X66224000Y-123260000D02*
X66478000Y-123260000D01*
X64078000Y-123260000D02*
X66224000Y-123260000D01*
X55712000Y-126308000D02*
X56458000Y-126308000D01*
X56458000Y-126308000D02*
X56642000Y-126492000D01*
X71278000Y-120860000D02*
X71613999Y-120860000D01*
X71613999Y-120860000D02*
X71628000Y-120845999D01*
X87058500Y-98282000D02*
X86423500Y-98282000D01*
X78994000Y-111760000D02*
X77724000Y-110490000D01*
X82987000Y-124583000D02*
X83637000Y-124583000D01*
X83637000Y-127183000D02*
X83312000Y-127508000D01*
X83637000Y-124583000D02*
X83637000Y-127183000D01*
X82987000Y-130433000D02*
X83637000Y-130433000D01*
X83637000Y-127833000D02*
X83312000Y-127508000D01*
X83637000Y-130433000D02*
X83637000Y-127833000D01*
X78994000Y-131110000D02*
X78994000Y-129032000D01*
X80518000Y-127508000D02*
X83312000Y-127508000D01*
X78994000Y-129032000D02*
X80518000Y-127508000D01*
X82987000Y-131412000D02*
X82987000Y-130433000D01*
X82550000Y-131849000D02*
X82987000Y-131412000D01*
X83543000Y-132842000D02*
X82550000Y-131849000D01*
X83589000Y-132842000D02*
X83543000Y-132842000D01*
X83566000Y-132865000D02*
X83589000Y-132842000D01*
X83566000Y-134366000D02*
X83566000Y-132865000D01*
X83215000Y-134717000D02*
X83566000Y-134366000D01*
X83215000Y-137414000D02*
X83215000Y-134717000D01*
X79659000Y-135636000D02*
X78643000Y-134620000D01*
X79659000Y-136652000D02*
X79659000Y-135636000D01*
X78157473Y-131946527D02*
X78994000Y-131110000D01*
X78157473Y-134134473D02*
X78157473Y-131946527D01*
X78643000Y-134620000D02*
X78157473Y-134134473D01*
X79659000Y-136652000D02*
X78486000Y-136652000D01*
X83215000Y-137414000D02*
X83215000Y-138587000D01*
X83215000Y-138587000D02*
X83312000Y-138684000D01*
X67552000Y-137837000D02*
X67975000Y-137414000D01*
X66052000Y-146748000D02*
X66052000Y-144006000D01*
X64674999Y-142628999D02*
X64674999Y-139352899D01*
X66052000Y-144006000D02*
X64674999Y-142628999D01*
X67552000Y-140272000D02*
X67552000Y-138442000D01*
X64674999Y-139352899D02*
X65585898Y-138442000D01*
X66052000Y-144006000D02*
X66040000Y-144018000D01*
X65585898Y-138442000D02*
X66790000Y-138442000D01*
X66790000Y-138442000D02*
X67552000Y-138442000D01*
X67552000Y-138442000D02*
X67552000Y-138418000D01*
X67552000Y-138418000D02*
X67552000Y-137837000D01*
X66790000Y-138442000D02*
X67528000Y-138442000D01*
X67528000Y-138442000D02*
X67552000Y-138418000D01*
X78595000Y-144117000D02*
X79911000Y-144117000D01*
X79911000Y-144117000D02*
X80264000Y-143764000D01*
X77313000Y-144424000D02*
X77313000Y-149098000D01*
X77620000Y-144117000D02*
X77313000Y-144424000D01*
X78595000Y-144117000D02*
X77620000Y-144117000D01*
X68326000Y-149329000D02*
X69573000Y-149329000D01*
X69573000Y-149329000D02*
X69596000Y-149352000D01*
X87518000Y-101234000D02*
X87518000Y-102108000D01*
X86614000Y-100330000D02*
X87518000Y-101234000D01*
X57658000Y-136312000D02*
X57658000Y-138430000D01*
X46137000Y-128270000D02*
X47498000Y-128270000D01*
X46137000Y-129540000D02*
X46137000Y-128270000D01*
X78486000Y-177096000D02*
X78486000Y-167640000D01*
X62486000Y-169082000D02*
X63036000Y-169632000D01*
X61466000Y-169082000D02*
X62486000Y-169082000D01*
X62486000Y-169082000D02*
X62486000Y-168400000D01*
X62486000Y-168400000D02*
X62992000Y-167894000D01*
X69086000Y-169082000D02*
X68536000Y-169632000D01*
X70106000Y-169082000D02*
X69086000Y-169082000D01*
X69086000Y-169082000D02*
X69086000Y-167388000D01*
X69086000Y-167388000D02*
X69088000Y-167386000D01*
X54864000Y-177038000D02*
X54864000Y-167386000D01*
X45426990Y-110044010D02*
X45974000Y-109497000D01*
X45426990Y-111189990D02*
X45426990Y-110044010D01*
X45997000Y-111760000D02*
X45426990Y-111189990D01*
X60078000Y-123260000D02*
X60128000Y-123260000D01*
X60128000Y-123260000D02*
X60452000Y-122936000D01*
%TO.N,/P_D4*%
X49034000Y-106634302D02*
X49034000Y-107316000D01*
X47053500Y-104653802D02*
X49034000Y-106634302D01*
X47053500Y-98282000D02*
X47053500Y-104653802D01*
%TO.N,/P_D5*%
X49534000Y-106568604D02*
X49534000Y-107316000D01*
X48323500Y-105358104D02*
X49534000Y-106568604D01*
X48323500Y-98282000D02*
X48323500Y-105358104D01*
%TO.N,/P_D6*%
X50034000Y-106502906D02*
X50034000Y-107316000D01*
X49593500Y-106062406D02*
X50034000Y-106502906D01*
X49593500Y-98282000D02*
X49593500Y-106062406D01*
%TO.N,/P_D7*%
X50863500Y-98282000D02*
X50863500Y-103568500D01*
X50534000Y-103898000D02*
X50534000Y-107316000D01*
X50863500Y-103568500D02*
X50534000Y-103898000D01*
%TO.N,/P_REG*%
X75418000Y-107316000D02*
X75418000Y-106192000D01*
X78168500Y-103441500D02*
X78168500Y-98282000D01*
X75418000Y-106192000D02*
X78168500Y-103441500D01*
%TO.N,/P_IOWR*%
X57848500Y-101732802D02*
X57848500Y-98282000D01*
X60162000Y-104046302D02*
X57848500Y-101732802D01*
X60162000Y-107316000D02*
X60162000Y-105628000D01*
X60162000Y-105628000D02*
X60162000Y-104046302D01*
%TO.N,/P_IORD*%
X56578500Y-101790500D02*
X56578500Y-98282000D01*
X59162000Y-104374000D02*
X56578500Y-101790500D01*
X59162000Y-107316000D02*
X59162000Y-105644000D01*
X59162000Y-105644000D02*
X59162000Y-104374000D01*
%TO.N,/P_CE2*%
X57662000Y-107316000D02*
X57662000Y-105414000D01*
X54038500Y-101790500D02*
X54038500Y-98282000D01*
X57662000Y-105414000D02*
X54038500Y-101790500D01*
%TO.N,/P_WE*%
X66390001Y-106715999D02*
X66390001Y-105506001D01*
X66290000Y-107316000D02*
X66290000Y-106816000D01*
X66290000Y-106816000D02*
X66390001Y-106715999D01*
X62293500Y-101409500D02*
X62293500Y-98282000D01*
X66390001Y-105506001D02*
X62293500Y-101409500D01*
%TO.N,/P_OE*%
X54673500Y-101663500D02*
X54673500Y-98282000D01*
X58162000Y-105152000D02*
X54673500Y-101663500D01*
X58162000Y-107316000D02*
X58162000Y-105668000D01*
X58162000Y-105668000D02*
X58162000Y-105152000D01*
%TO.N,/P_CE1*%
X52133500Y-101663500D02*
X52133500Y-98282000D01*
X56662000Y-107316000D02*
X56662000Y-106192000D01*
X56662000Y-106192000D02*
X56134000Y-105664000D01*
X56134000Y-105664000D02*
X52133500Y-101663500D01*
%TO.N,/P_RESET*%
X74358500Y-102679500D02*
X74358500Y-98282000D01*
X73418000Y-103620000D02*
X74358500Y-102679500D01*
X73418000Y-107316000D02*
X73418000Y-105676000D01*
X73418000Y-105676000D02*
X73418000Y-103620000D01*
%TO.N,/P_A10*%
X57162000Y-107316000D02*
X57162000Y-105930000D01*
X53403500Y-102171500D02*
X53403500Y-98282000D01*
X57162000Y-105930000D02*
X53403500Y-102171500D01*
%TO.N,/P_A11*%
X58662000Y-107316000D02*
X58662000Y-104636000D01*
X55943500Y-101917500D02*
X55943500Y-98282000D01*
X58662000Y-104636000D02*
X55943500Y-101917500D01*
%TO.N,/P_A9*%
X59662000Y-107316000D02*
X59662000Y-104112000D01*
X57213500Y-101663500D02*
X57213500Y-98282000D01*
X59662000Y-104112000D02*
X57213500Y-101663500D01*
%TO.N,/P_A8*%
X58483500Y-100197198D02*
X58483500Y-98282000D01*
X64790000Y-106503698D02*
X58483500Y-100197198D01*
X64790000Y-107316000D02*
X64790000Y-106503698D01*
%TO.N,/P_A13*%
X65290000Y-107316000D02*
X65290000Y-106438000D01*
X59753500Y-100901500D02*
X59753500Y-98282000D01*
X65290000Y-106438000D02*
X59753500Y-100901500D01*
%TO.N,/P_A14*%
X65790000Y-107316000D02*
X65790000Y-105922000D01*
X61023500Y-101155500D02*
X61023500Y-98282000D01*
X65790000Y-105922000D02*
X61023500Y-101155500D01*
%TO.N,/P_A15*%
X66790011Y-107315989D02*
X66790011Y-105421989D01*
X66790000Y-107316000D02*
X66790011Y-107315989D01*
X68643500Y-103568500D02*
X68643500Y-98282000D01*
X66790011Y-105421989D02*
X68643500Y-103568500D01*
%TO.N,/P_A12*%
X67290000Y-107316000D02*
X67290000Y-106192000D01*
X69913500Y-103568500D02*
X69913500Y-98282000D01*
X67290000Y-106192000D02*
X69913500Y-103568500D01*
%TO.N,/P_A7*%
X67790000Y-107316000D02*
X67790000Y-106708000D01*
X71183500Y-103314500D02*
X71183500Y-98282000D01*
X67790000Y-106708000D02*
X71183500Y-103314500D01*
%TO.N,/P_A0*%
X76418000Y-107316000D02*
X76834000Y-107316000D01*
X80073500Y-104076500D02*
X80073500Y-98282000D01*
X76834000Y-107316000D02*
X80073500Y-104076500D01*
%TO.N,/P_A1*%
X75918000Y-107316000D02*
X75918000Y-106962000D01*
X78803500Y-104076500D02*
X78803500Y-98282000D01*
X75918000Y-106962000D02*
X78803500Y-104076500D01*
%TO.N,/P_A2*%
X74918000Y-107316000D02*
X74918000Y-105930000D01*
X77533500Y-103314500D02*
X77533500Y-98282000D01*
X74918000Y-105930000D02*
X77533500Y-103314500D01*
%TO.N,/P_A3*%
X74418000Y-107316000D02*
X74418000Y-105160000D01*
X76263500Y-103314500D02*
X76263500Y-98282000D01*
X74418000Y-105160000D02*
X76263500Y-103314500D01*
%TO.N,/P_A4*%
X73918000Y-107316000D02*
X73918000Y-104136000D01*
X74993500Y-103060500D02*
X74993500Y-98282000D01*
X73918000Y-104136000D02*
X74993500Y-103060500D01*
%TO.N,/P_A5*%
X72918000Y-107316000D02*
X72918000Y-103358000D01*
X73723500Y-102552500D02*
X73723500Y-98282000D01*
X72918000Y-103358000D02*
X73723500Y-102552500D01*
%TO.N,/P_A6*%
X68290000Y-107316000D02*
X68290000Y-106970000D01*
X72453500Y-102806500D02*
X72453500Y-98282000D01*
X68290000Y-106970000D02*
X72453500Y-102806500D01*
%TO.N,+5V*%
X65468500Y-98282000D02*
X64833500Y-98282000D01*
X64833500Y-98282000D02*
X64833500Y-101155500D01*
X64833500Y-101155500D02*
X65278000Y-101600000D01*
X79920000Y-107442000D02*
X80046000Y-107316000D01*
X78994000Y-107442000D02*
X79920000Y-107442000D01*
X79646000Y-108216000D02*
X79514000Y-108216000D01*
X78994000Y-107696000D02*
X78994000Y-107442000D01*
X79514000Y-108216000D02*
X78994000Y-107696000D01*
X78255000Y-107442000D02*
X78232000Y-107465000D01*
X78994000Y-107442000D02*
X78255000Y-107442000D01*
X46123000Y-107316000D02*
X45974000Y-107465000D01*
X47134000Y-108216000D02*
X47134000Y-107588000D01*
X47534000Y-107316000D02*
X46862000Y-107316000D01*
X46862000Y-107316000D02*
X46123000Y-107316000D01*
X47134000Y-107588000D02*
X46989000Y-107443000D01*
X46989000Y-107443000D02*
X46862000Y-107316000D01*
X54228000Y-107316000D02*
X54102000Y-107442000D01*
X55262000Y-107586000D02*
X54992000Y-107316000D01*
X55262000Y-108216000D02*
X55262000Y-107586000D01*
X55662000Y-107316000D02*
X54992000Y-107316000D01*
X54992000Y-107316000D02*
X54228000Y-107316000D01*
X63390000Y-108216000D02*
X63390000Y-107840000D01*
X63015000Y-107465000D02*
X62230000Y-107465000D01*
X63626000Y-107316000D02*
X63246000Y-107696000D01*
X63790000Y-107316000D02*
X63626000Y-107316000D01*
X63390000Y-107840000D02*
X63246000Y-107696000D01*
X63246000Y-107696000D02*
X63015000Y-107465000D01*
X71769000Y-107465000D02*
X71918000Y-107316000D01*
X71518000Y-107840000D02*
X71143000Y-107465000D01*
X71518000Y-108216000D02*
X71518000Y-107840000D01*
X70358000Y-107465000D02*
X71143000Y-107465000D01*
X71143000Y-107465000D02*
X71351000Y-107465000D01*
X71351000Y-107465000D02*
X71769000Y-107465000D01*
X86237000Y-122859000D02*
X85344000Y-121966000D01*
X86237000Y-124583000D02*
X86237000Y-122859000D01*
X81326000Y-121966000D02*
X81280000Y-121920000D01*
X80387000Y-122813000D02*
X81280000Y-121920000D01*
X82337000Y-122053000D02*
X82250000Y-121966000D01*
X82337000Y-124583000D02*
X82337000Y-122053000D01*
X82250000Y-121966000D02*
X81326000Y-121966000D01*
X82337000Y-124583000D02*
X81687000Y-124583000D01*
X84937000Y-124583000D02*
X84287000Y-124583000D01*
X84282000Y-124414000D02*
X84282000Y-121966000D01*
X84287000Y-124583000D02*
X84287000Y-124419000D01*
X85344000Y-121966000D02*
X84282000Y-121966000D01*
X84287000Y-124419000D02*
X84282000Y-124414000D01*
X84282000Y-121966000D02*
X83520000Y-121966000D01*
X83520000Y-121966000D02*
X82250000Y-121966000D01*
X79570000Y-142847000D02*
X80264000Y-142153000D01*
X78595000Y-142847000D02*
X79570000Y-142847000D01*
X80264000Y-141737826D02*
X77210174Y-138684000D01*
X80264000Y-142153000D02*
X80264000Y-141737826D01*
X77210174Y-138684000D02*
X77210174Y-127005826D01*
X77210174Y-127005826D02*
X80387000Y-123829000D01*
X80387000Y-124583000D02*
X80387000Y-123829000D01*
X80387000Y-123829000D02*
X80387000Y-122813000D01*
X44784999Y-121447460D02*
X44784999Y-107869001D01*
X48378549Y-125041010D02*
X44784999Y-121447460D01*
X48378549Y-132026549D02*
X48378549Y-125041010D01*
X49367000Y-132080000D02*
X48432000Y-132080000D01*
X48432000Y-132080000D02*
X48378549Y-132026549D01*
X44784999Y-107869001D02*
X45212000Y-107442000D01*
X45951000Y-107442000D02*
X45974000Y-107465000D01*
X45212000Y-107442000D02*
X45951000Y-107442000D01*
%TO.N,/P_D0*%
X51034000Y-107316000D02*
X51034000Y-104414000D01*
X51034000Y-104414000D02*
X51308000Y-104140000D01*
X81280000Y-98345500D02*
X81343500Y-98282000D01*
X81280000Y-103886000D02*
X81280000Y-98345500D01*
%TO.N,/P_D1*%
X51534000Y-107316000D02*
X51534000Y-104930000D01*
X51534000Y-104930000D02*
X51816000Y-104648000D01*
X82550000Y-98425000D02*
X82550000Y-103632000D01*
X82613500Y-98361500D02*
X82550000Y-98425000D01*
X82613500Y-98282000D02*
X82613500Y-98361500D01*
%TO.N,/P_D2*%
X52034000Y-107316000D02*
X52034000Y-105446000D01*
X52034000Y-105446000D02*
X52324000Y-105156000D01*
X83883500Y-103568500D02*
X83820000Y-103632000D01*
X83883500Y-98282000D02*
X83883500Y-103568500D01*
%TO.N,+3V3*%
X79646000Y-109716000D02*
X79646000Y-109838000D01*
X80046000Y-110616000D02*
X78868000Y-110616000D01*
X78868000Y-110616000D02*
X78612000Y-110616000D01*
X78612000Y-110362000D02*
X78486000Y-110236000D01*
X78612000Y-110616000D02*
X78612000Y-110362000D01*
X79248000Y-110236000D02*
X78868000Y-110616000D01*
X79646000Y-109838000D02*
X79248000Y-110236000D01*
X47134000Y-109838000D02*
X46736000Y-110236000D01*
X47134000Y-109716000D02*
X47134000Y-109838000D01*
X46205000Y-110236000D02*
X45974000Y-110467000D01*
X46736000Y-110236000D02*
X46205000Y-110236000D01*
X54511000Y-110467000D02*
X55262000Y-109716000D01*
X54102000Y-110467000D02*
X54511000Y-110467000D01*
X62230000Y-110467000D02*
X62639000Y-110467000D01*
X62931000Y-110175000D02*
X62992000Y-110236000D01*
X62931000Y-110175000D02*
X63390000Y-109716000D01*
X62639000Y-110467000D02*
X62931000Y-110175000D01*
X70358000Y-110467000D02*
X70767000Y-110467000D01*
X71059000Y-110175000D02*
X71518000Y-109716000D01*
X70767000Y-110467000D02*
X71059000Y-110175000D01*
X71059000Y-110175000D02*
X71120000Y-110236000D01*
X61678000Y-128060000D02*
X61976000Y-127762000D01*
X61678000Y-118460000D02*
X61678000Y-118154000D01*
X61678000Y-118154000D02*
X61722000Y-118110000D01*
X68078000Y-118460000D02*
X68078000Y-118587378D01*
X68078000Y-118587378D02*
X68340280Y-118849658D01*
X71278000Y-120060000D02*
X71546000Y-120060000D01*
X71278000Y-128060000D02*
X71584000Y-128060000D01*
X71584000Y-128060000D02*
X71628000Y-128016000D01*
X69678000Y-129660000D02*
X69730000Y-129660000D01*
X69730000Y-129660000D02*
X70104000Y-129286000D01*
X60078000Y-124060000D02*
X60078000Y-124086000D01*
X65678000Y-129660000D02*
X65652000Y-129660000D01*
X64078000Y-124060000D02*
X64078000Y-124022000D01*
X64078000Y-124022000D02*
X63754000Y-123698000D01*
X64078000Y-124136000D02*
X64078000Y-124060000D01*
X71278000Y-124060000D02*
X71774000Y-124060000D01*
X71774000Y-124060000D02*
X71882000Y-123952000D01*
X72108000Y-123726000D02*
X71882000Y-123952000D01*
X74676000Y-123726000D02*
X72108000Y-123726000D01*
X57168997Y-126596965D02*
X57168997Y-126494222D01*
X55712000Y-127108000D02*
X56657962Y-127108000D01*
X56657962Y-127108000D02*
X57168997Y-126596965D01*
X53112000Y-127908000D02*
X53112000Y-128708000D01*
X53112000Y-128708000D02*
X53690000Y-129286000D01*
X61290999Y-128447001D02*
X61678000Y-128060000D01*
X60465001Y-128447001D02*
X61290999Y-128447001D01*
X60078000Y-128060000D02*
X60465001Y-128447001D01*
X71546000Y-120060000D02*
X71813998Y-120060000D01*
X71813998Y-120060000D02*
X71882000Y-119991998D01*
X53690000Y-129286000D02*
X53848000Y-129286000D01*
X81534000Y-135359000D02*
X81788000Y-135105000D01*
X81534000Y-136652000D02*
X81534000Y-135359000D01*
X81534000Y-136652000D02*
X80518000Y-136652000D01*
X69850000Y-137536500D02*
X69850000Y-137414000D01*
X68052000Y-140272000D02*
X68052000Y-139334500D01*
X68052000Y-148085000D02*
X68052000Y-146748000D01*
X68326000Y-148359000D02*
X68052000Y-148085000D01*
X69850000Y-137414000D02*
X69850000Y-134366000D01*
X69850000Y-134366000D02*
X72644000Y-131572000D01*
X68052000Y-145137962D02*
X67310000Y-144395962D01*
X68052000Y-146748000D02*
X68052000Y-145137962D01*
X67310000Y-144395962D02*
X67306991Y-144395962D01*
X67306991Y-144395962D02*
X67306020Y-144396933D01*
X68052000Y-139334500D02*
X68768250Y-138618250D01*
X68768250Y-138618250D02*
X69850000Y-137536500D01*
X55009990Y-129394010D02*
X55118000Y-129286000D01*
X55118000Y-134112000D02*
X55009990Y-134003990D01*
X52750000Y-128270000D02*
X53112000Y-127908000D01*
X55118000Y-130810000D02*
X55009990Y-130918010D01*
X55626000Y-130810000D02*
X55118000Y-130810000D01*
X55626000Y-131826000D02*
X55118000Y-131826000D01*
X55118000Y-131826000D02*
X55009990Y-131934010D01*
X55009990Y-134003990D02*
X55009990Y-131934010D01*
X55009990Y-131934010D02*
X55009990Y-130918010D01*
D33*
X74676000Y-123726000D02*
X75212000Y-123726000D01*
X76565000Y-125079000D02*
X76565000Y-125476000D01*
X75212000Y-123726000D02*
X76565000Y-125079000D01*
D32*
X70890999Y-128447001D02*
X71278000Y-128060000D01*
X70890999Y-129019763D02*
X70890999Y-128447001D01*
X70663761Y-129247001D02*
X70890999Y-129019763D01*
X70318237Y-129247001D02*
X70663761Y-129247001D01*
X70279238Y-129286000D02*
X70318237Y-129247001D01*
X70104000Y-129286000D02*
X70279238Y-129286000D01*
X72055001Y-124125001D02*
X71882000Y-123952000D01*
X72055001Y-127588999D02*
X72055001Y-124125001D01*
X71628000Y-128016000D02*
X72055001Y-127588999D01*
X61265001Y-118872999D02*
X61678000Y-118460000D01*
X61265001Y-119672999D02*
X61265001Y-118872999D01*
X60878000Y-120060000D02*
X61265001Y-119672999D01*
X63892239Y-122847001D02*
X64490999Y-122847001D01*
X63690999Y-122645761D02*
X63892239Y-122847001D01*
X63690999Y-122274239D02*
X63690999Y-122645761D01*
X63892239Y-122072999D02*
X63690999Y-122274239D01*
X62890999Y-121871759D02*
X63092239Y-122072999D01*
X62890999Y-121500237D02*
X62890999Y-121871759D01*
X64490999Y-122847001D02*
X64878000Y-122460000D01*
X63092239Y-122072999D02*
X63892239Y-122072999D01*
X62663761Y-121272999D02*
X62890999Y-121500237D01*
X62292239Y-121272999D02*
X62663761Y-121272999D01*
X62090999Y-121071759D02*
X62292239Y-121272999D01*
X62090999Y-120700237D02*
X62090999Y-121071759D01*
X61863761Y-120472999D02*
X62090999Y-120700237D01*
X61290999Y-120472999D02*
X61863761Y-120472999D01*
X60878000Y-120060000D02*
X61290999Y-120472999D01*
X63690999Y-123445761D02*
X63690999Y-123048241D01*
X63754000Y-123508762D02*
X63690999Y-123445761D01*
X63690999Y-123048241D02*
X63892239Y-122847001D01*
X63754000Y-123698000D02*
X63754000Y-123508762D01*
X65290999Y-125272999D02*
X65678000Y-125660000D01*
X64718237Y-125272999D02*
X65290999Y-125272999D01*
X64490999Y-124472999D02*
X64490999Y-125045761D01*
X64490999Y-125045761D02*
X64718237Y-125272999D01*
X64078000Y-124060000D02*
X64490999Y-124472999D01*
X66890999Y-123672999D02*
X66890999Y-122872999D01*
X66890999Y-122872999D02*
X66478000Y-122460000D01*
X67278000Y-124060000D02*
X66890999Y-123672999D01*
X65265001Y-122072999D02*
X64878000Y-122460000D01*
X66090999Y-122072999D02*
X65265001Y-122072999D01*
X66478000Y-122460000D02*
X66090999Y-122072999D01*
X55237000Y-127108000D02*
X54864000Y-127481000D01*
X55712000Y-127108000D02*
X55237000Y-127108000D01*
X54864000Y-127481000D02*
X54864000Y-129286000D01*
X53848000Y-129286000D02*
X54864000Y-129286000D01*
X54864000Y-129286000D02*
X55118000Y-129286000D01*
X66292239Y-121272999D02*
X66090999Y-121474239D01*
X67437763Y-121272999D02*
X66292239Y-121272999D01*
X66090999Y-121474239D02*
X66090999Y-122072999D01*
X67690999Y-121019763D02*
X67437763Y-121272999D01*
X67690999Y-119874239D02*
X67690999Y-121019763D01*
X67892239Y-119672999D02*
X67690999Y-119874239D01*
X68237763Y-119672999D02*
X67892239Y-119672999D01*
X68465001Y-119445761D02*
X68237763Y-119672999D01*
X68465001Y-118974379D02*
X68465001Y-119445761D01*
X68340280Y-118849658D02*
X68465001Y-118974379D01*
X61265001Y-128472999D02*
X61290999Y-128447001D01*
X61265001Y-129247001D02*
X61265001Y-128472999D01*
X61678000Y-129660000D02*
X61265001Y-129247001D01*
X62090999Y-128472999D02*
X61678000Y-128060000D01*
X63665001Y-129045761D02*
X63665001Y-128674239D01*
X63665001Y-128674239D02*
X63463761Y-128472999D01*
X63892239Y-129272999D02*
X63665001Y-129045761D01*
X65290999Y-129272999D02*
X63892239Y-129272999D01*
X65678000Y-129660000D02*
X65290999Y-129272999D01*
X64490999Y-125474239D02*
X64692239Y-125272999D01*
X64263761Y-127647001D02*
X64490999Y-127419763D01*
X64692239Y-125272999D02*
X64718237Y-125272999D01*
X63918237Y-127647001D02*
X64263761Y-127647001D01*
X63690999Y-127874239D02*
X63918237Y-127647001D01*
X63690999Y-128206001D02*
X63690999Y-127874239D01*
X63449999Y-128447001D02*
X63690999Y-128206001D01*
X64490999Y-127419763D02*
X64490999Y-125474239D01*
X63297001Y-128472999D02*
X63322999Y-128447001D01*
X63322999Y-128447001D02*
X63449999Y-128447001D01*
X63297001Y-128472999D02*
X62090999Y-128472999D01*
X63463761Y-128472999D02*
X63297001Y-128472999D01*
X63703001Y-123647001D02*
X63754000Y-123698000D01*
X60490999Y-123647001D02*
X63703001Y-123647001D01*
X60078000Y-124060000D02*
X60490999Y-123647001D01*
X49367000Y-128270000D02*
X51816000Y-128270000D01*
X51816000Y-128270000D02*
X52750000Y-128270000D01*
X54991000Y-130048000D02*
X55009990Y-130029010D01*
X54610000Y-130048000D02*
X54991000Y-130048000D01*
X55009990Y-130918010D02*
X55009990Y-130029010D01*
X55009990Y-130029010D02*
X55009990Y-129394010D01*
%TO.N,/P_READY*%
X80518001Y-106131998D02*
X78780002Y-106131998D01*
X81046000Y-107316000D02*
X81046000Y-106659997D01*
X81046000Y-106659997D02*
X80518001Y-106131998D01*
X63563500Y-101409500D02*
X63563500Y-98282000D01*
X65786000Y-103632000D02*
X63563500Y-101409500D01*
%TO.N,/P_WAIT*%
X75628500Y-102298500D02*
X75692000Y-102362000D01*
X75628500Y-98282000D02*
X75628500Y-102298500D01*
X81546000Y-107316000D02*
X81546000Y-106680000D01*
%TO.N,/P_INPACK*%
X82046000Y-107316000D02*
X82046000Y-106430000D01*
X82046000Y-106430000D02*
X81280000Y-105664000D01*
X76898500Y-101536500D02*
X76962000Y-101600000D01*
X76898500Y-98282000D02*
X76898500Y-101536500D01*
%TO.N,/P_WP*%
X82546000Y-107316000D02*
X82546000Y-105922000D01*
X85153500Y-103314500D02*
X85153500Y-98282000D01*
X82546000Y-105922000D02*
X85153500Y-103314500D01*
%TO.N,Net-(C15-Pad2)*%
X68078000Y-124060000D02*
X68078000Y-123946000D01*
X68078000Y-123946000D02*
X68326000Y-123698000D01*
X62890999Y-124447001D02*
X62890999Y-125120999D01*
X63278000Y-124060000D02*
X62890999Y-124447001D01*
X62890999Y-125120999D02*
X62992000Y-125222000D01*
X62992000Y-125222000D02*
X62976095Y-125237905D01*
X62976095Y-125237905D02*
X62976095Y-125242132D01*
%TO.N,Net-(C15-Pad1)*%
X61678000Y-124060000D02*
X61800205Y-124060000D01*
X61800205Y-124060000D02*
X62200204Y-124459999D01*
X68078000Y-123260000D02*
X68078000Y-123184000D01*
X68078000Y-123184000D02*
X68326000Y-122936000D01*
%TO.N,+1V2*%
X63278000Y-119260000D02*
X63278000Y-119348000D01*
X63278000Y-119348000D02*
X62992000Y-119634000D01*
X66065001Y-126757036D02*
X66060132Y-126761905D01*
X84605000Y-136929000D02*
X85090000Y-137414000D01*
X84605000Y-135890000D02*
X84605000Y-136929000D01*
X84605000Y-135890000D02*
X83820000Y-135890000D01*
D33*
X64078000Y-122460000D02*
X64294000Y-122460000D01*
X64294000Y-122460000D02*
X64294000Y-122269000D01*
X64294000Y-122269000D02*
X64516000Y-122047000D01*
X71278000Y-128860000D02*
X71837000Y-128860000D01*
X71837000Y-128860000D02*
X71882000Y-128905000D01*
D32*
X66890999Y-126047001D02*
X67278000Y-125660000D01*
X66090999Y-126274239D02*
X66318237Y-126047001D01*
X66090999Y-126568001D02*
X66090999Y-126274239D01*
X66060132Y-126598868D02*
X66090999Y-126568001D01*
X66318237Y-126047001D02*
X66890999Y-126047001D01*
X66060132Y-126761905D02*
X66060132Y-126598868D01*
X67278000Y-122460000D02*
X67278000Y-122396000D01*
X67278000Y-122396000D02*
X66929000Y-122047000D01*
X62977610Y-126047001D02*
X62955715Y-126025106D01*
X63690999Y-126047001D02*
X62977610Y-126047001D01*
X64078000Y-125660000D02*
X63690999Y-126047001D01*
%TO.N,F_D2*%
X59278000Y-121660000D02*
X51609010Y-121660000D01*
X51534000Y-121584990D02*
X51534000Y-110616000D01*
X51609010Y-121660000D02*
X51534000Y-121584990D01*
%TO.N,F_D1*%
X51034000Y-110616000D02*
X51034000Y-121858990D01*
X59690999Y-122072999D02*
X60078000Y-122460000D01*
X51248009Y-122072999D02*
X59690999Y-122072999D01*
X51034000Y-121858990D02*
X51248009Y-122072999D01*
%TO.N,F_D0*%
X59278000Y-122460000D02*
X50832000Y-122460000D01*
X50534000Y-122162000D02*
X50534000Y-110616000D01*
X50832000Y-122460000D02*
X50534000Y-122162000D01*
%TO.N,F_D6*%
X49534000Y-122940000D02*
X49534000Y-110616000D01*
X57148833Y-123370990D02*
X49964990Y-123370990D01*
X49964990Y-123370990D02*
X49534000Y-122940000D01*
X59278000Y-124060000D02*
X57837842Y-124060000D01*
X57837842Y-124060000D02*
X57148833Y-123370990D01*
%TO.N,F_D5*%
X59690999Y-124472999D02*
X60078000Y-124860000D01*
X57788381Y-124472999D02*
X59690999Y-124472999D01*
X57013382Y-123698000D02*
X57788381Y-124472999D01*
X49530000Y-123698000D02*
X57013382Y-123698000D01*
X49034000Y-110616000D02*
X49034000Y-123202000D01*
X49034000Y-123202000D02*
X49530000Y-123698000D01*
%TO.N,F_D4*%
X48534000Y-123718000D02*
X48534000Y-110616000D01*
X48875980Y-124059980D02*
X48534000Y-123718000D01*
X56912902Y-124059980D02*
X48875980Y-124059980D01*
X59278000Y-124860000D02*
X57712921Y-124860000D01*
X57712921Y-124860000D02*
X56912902Y-124059980D01*
%TO.N,F_D3*%
X48649450Y-124386990D02*
X48034000Y-123771540D01*
X48034000Y-123771540D02*
X48034000Y-110616000D01*
X56777451Y-124386990D02*
X48649450Y-124386990D01*
X57663459Y-125272999D02*
X56777451Y-124386990D01*
X60078000Y-125660000D02*
X59690999Y-125272999D01*
X59690999Y-125272999D02*
X57663459Y-125272999D01*
%TO.N,F_DDIR*%
X59278000Y-125660000D02*
X57588000Y-125660000D01*
X57588000Y-125660000D02*
X56642000Y-124714000D01*
X56642000Y-124714000D02*
X48514000Y-124714000D01*
X48514000Y-124714000D02*
X47534000Y-123734000D01*
X46967000Y-111760000D02*
X47498000Y-111760000D01*
X47498000Y-111760000D02*
X47534000Y-111796000D01*
X47534000Y-123734000D02*
X47534000Y-111796000D01*
X47534000Y-111796000D02*
X47534000Y-110616000D01*
%TO.N,F_D7*%
X59278000Y-123260000D02*
X57728000Y-123260000D01*
X57728000Y-123260000D02*
X57511980Y-123043980D01*
X57511980Y-123043980D02*
X54463980Y-123043980D01*
X50034000Y-110616000D02*
X50034000Y-122531980D01*
X50546000Y-123043980D02*
X50946020Y-123043980D01*
X50034000Y-122531980D02*
X50546000Y-123043980D01*
X54463980Y-123043980D02*
X50946020Y-123043980D01*
X50946020Y-123043980D02*
X50800000Y-123043980D01*
%TO.N,F_WP*%
X71555037Y-123647001D02*
X71803048Y-123398990D01*
X70478000Y-124060000D02*
X70890999Y-123647001D01*
X70890999Y-123647001D02*
X71555037Y-123647001D01*
X73451010Y-123398990D02*
X73598999Y-123251001D01*
X71803048Y-123398990D02*
X73451010Y-123398990D01*
X75707601Y-122848999D02*
X75753001Y-122894399D01*
X73644399Y-122848999D02*
X75707601Y-122848999D01*
X73598999Y-123251001D02*
X73598999Y-122894399D01*
X73598999Y-122894399D02*
X73644399Y-122848999D01*
X75753001Y-122894399D02*
X77511601Y-122894399D01*
X82046000Y-118360000D02*
X82046000Y-110616000D01*
X77511601Y-122894399D02*
X82046000Y-118360000D01*
%TO.N,F_INPACK*%
X71278000Y-123260000D02*
X71466020Y-123071980D01*
X72958957Y-123071980D02*
X73508948Y-122521989D01*
X71466020Y-123071980D02*
X72958957Y-123071980D01*
X73508948Y-122521989D02*
X77376011Y-122521989D01*
X81546000Y-118352000D02*
X81546000Y-110616000D01*
X77376011Y-122521989D02*
X81546000Y-118352000D01*
%TO.N,F_WAIT*%
X71278000Y-122460000D02*
X73108477Y-122460000D01*
X73108477Y-122460000D02*
X73394477Y-122174000D01*
X73394477Y-122174000D02*
X77261540Y-122174000D01*
X81046000Y-118389540D02*
X81046000Y-110616000D01*
X77261540Y-122174000D02*
X81046000Y-118389540D01*
%TO.N,F_READY*%
X73033018Y-122072999D02*
X73259026Y-121846990D01*
X70478000Y-122460000D02*
X70865001Y-122072999D01*
X70865001Y-122072999D02*
X73033018Y-122072999D01*
X80546000Y-118336000D02*
X80546000Y-110616000D01*
X77035010Y-121846990D02*
X80546000Y-118336000D01*
X73259026Y-121846990D02*
X77035010Y-121846990D01*
X79964000Y-111760000D02*
X80518000Y-111760000D01*
%TO.N,F_IOWR*%
X60078000Y-118460000D02*
X60078000Y-117990000D01*
X59662000Y-117574000D02*
X59662000Y-110616000D01*
X60078000Y-117990000D02*
X59662000Y-117574000D01*
%TO.N,F_A9*%
X59278000Y-118460000D02*
X59278000Y-117698000D01*
X59162000Y-117582000D02*
X59162000Y-110616000D01*
X59278000Y-117698000D02*
X59162000Y-117582000D01*
%TO.N,F_IORD*%
X59118237Y-118872999D02*
X58674000Y-118428762D01*
X60078000Y-119260000D02*
X59690999Y-118872999D01*
X59690999Y-118872999D02*
X59118237Y-118872999D01*
X58674000Y-110628000D02*
X58662000Y-110616000D01*
X58674000Y-118428762D02*
X58674000Y-110628000D01*
%TO.N,F_A11*%
X59278000Y-119260000D02*
X54817010Y-119260000D01*
X54817010Y-119260000D02*
X54610000Y-119052990D01*
X54610000Y-119052990D02*
X54610000Y-114808000D01*
X58162000Y-111256000D02*
X58162000Y-110616000D01*
X54610000Y-114808000D02*
X58162000Y-111256000D01*
%TO.N,F_OE*%
X59690999Y-119672999D02*
X54394999Y-119672999D01*
X60078000Y-120060000D02*
X59690999Y-119672999D01*
X54394999Y-119672999D02*
X54102000Y-119380000D01*
X54102000Y-119380000D02*
X54102000Y-113284000D01*
X57662000Y-111111383D02*
X57662000Y-110616000D01*
X55489383Y-113284000D02*
X57662000Y-111111383D01*
X54102000Y-113284000D02*
X55489383Y-113284000D01*
%TO.N,F_CE2*%
X59278000Y-120060000D02*
X53585010Y-120060000D01*
X53585010Y-120060000D02*
X53340000Y-119814990D01*
X53340000Y-113030000D02*
X54102000Y-112268000D01*
X53340000Y-119814990D02*
X53340000Y-113030000D01*
X57162000Y-111148922D02*
X57162000Y-110616000D01*
X56042922Y-112268000D02*
X57162000Y-111148922D01*
X54102000Y-112268000D02*
X56042922Y-112268000D01*
%TO.N,F_A10*%
X59690999Y-120472999D02*
X53162999Y-120472999D01*
X60078000Y-120860000D02*
X59690999Y-120472999D01*
X53162999Y-120472999D02*
X52832000Y-120142000D01*
X52832000Y-120142000D02*
X52832000Y-113030000D01*
X52832000Y-113030000D02*
X54028990Y-111833010D01*
X56662000Y-111186461D02*
X56662000Y-110616000D01*
X56015451Y-111833010D02*
X56662000Y-111186461D01*
X54028990Y-111833010D02*
X56015451Y-111833010D01*
%TO.N,F_CE1*%
X58878961Y-121331001D02*
X52497001Y-121331001D01*
X58936963Y-121272999D02*
X58878961Y-121331001D01*
X60078000Y-121660000D02*
X59690999Y-121272999D01*
X59690999Y-121272999D02*
X58936963Y-121272999D01*
X52497001Y-121331001D02*
X52324000Y-121158000D01*
X52324000Y-121158000D02*
X52324000Y-113030000D01*
X52324000Y-113030000D02*
X53848000Y-111506000D01*
X53848000Y-111506000D02*
X55880000Y-111506000D01*
X56162000Y-111224000D02*
X56162000Y-110616000D01*
X55880000Y-111506000D02*
X56162000Y-111224000D01*
%TO.N,F_A6*%
X67665001Y-118872999D02*
X67665001Y-118262999D01*
X67278000Y-119260000D02*
X67665001Y-118872999D01*
X67790000Y-118138000D02*
X67790000Y-110616000D01*
X67665001Y-118262999D02*
X67790000Y-118138000D01*
%TO.N,F_A7*%
X67278000Y-118460000D02*
X67278000Y-118142000D01*
X67290000Y-118130000D02*
X67290000Y-110616000D01*
X67278000Y-118142000D02*
X67290000Y-118130000D01*
%TO.N,F_A12*%
X66865001Y-118872999D02*
X66865001Y-111569001D01*
X66478000Y-119260000D02*
X66865001Y-118872999D01*
X66790000Y-111494000D02*
X66790000Y-110616000D01*
X66865001Y-111569001D02*
X66790000Y-111494000D01*
%TO.N,F_A15*%
X66478000Y-118434000D02*
X66537991Y-118374009D01*
X66478000Y-118460000D02*
X66478000Y-118434000D01*
X66537991Y-118374009D02*
X66537991Y-111704452D01*
X66290000Y-111456461D02*
X66290000Y-110616000D01*
X66537991Y-111704452D02*
X66290000Y-111456461D01*
%TO.N,F_WE*%
X65790000Y-111418922D02*
X65790000Y-110616000D01*
X66090999Y-111719921D02*
X65790000Y-111418922D01*
X66090999Y-118847001D02*
X66090999Y-111719921D01*
X65678000Y-119260000D02*
X66090999Y-118847001D01*
%TO.N,F_A14*%
X65678000Y-118460000D02*
X65678000Y-111906000D01*
X65290000Y-111518000D02*
X65290000Y-110616000D01*
X65678000Y-111906000D02*
X65290000Y-111518000D01*
%TO.N,F_A13*%
X65265001Y-111955461D02*
X64790000Y-111480460D01*
X64790000Y-111480460D02*
X64790000Y-110616000D01*
X65265001Y-118872999D02*
X65265001Y-111955461D01*
X64878000Y-119260000D02*
X65265001Y-118872999D01*
%TO.N,F_A8*%
X64878000Y-118460000D02*
X64878000Y-112030920D01*
X64290000Y-111442920D02*
X64290000Y-110616000D01*
X64878000Y-112030920D02*
X64290000Y-111442920D01*
%TO.N,F_A0*%
X71278000Y-121660000D02*
X72638000Y-121660000D01*
X72638000Y-121660000D02*
X72778020Y-121519980D01*
X72778020Y-121519980D02*
X74568020Y-121519980D01*
X75918000Y-120170000D02*
X75918000Y-110616000D01*
X74568020Y-121519980D02*
X75918000Y-120170000D01*
%TO.N,F_A1*%
X70865001Y-121272999D02*
X72529001Y-121272999D01*
X70478000Y-121660000D02*
X70865001Y-121272999D01*
X72529001Y-121272999D02*
X72644000Y-121158000D01*
X72644000Y-121158000D02*
X73660000Y-121158000D01*
X75418000Y-119400000D02*
X75418000Y-110616000D01*
X73660000Y-121158000D02*
X75418000Y-119400000D01*
%TO.N,F_REG*%
X71423039Y-120418998D02*
X73129002Y-120418998D01*
X71369038Y-120472999D02*
X71423039Y-120418998D01*
X70478000Y-120860000D02*
X70865001Y-120472999D01*
X70865001Y-120472999D02*
X71369038Y-120472999D01*
X74918000Y-118630000D02*
X74918000Y-110616000D01*
X73129002Y-120418998D02*
X74918000Y-118630000D01*
%TO.N,F_A2*%
X71677039Y-119564997D02*
X72828997Y-119564997D01*
X70478000Y-120060000D02*
X70865001Y-119672999D01*
X71569037Y-119672999D02*
X71677039Y-119564997D01*
X70865001Y-119672999D02*
X71569037Y-119672999D01*
X74418000Y-117975994D02*
X74418000Y-110616000D01*
X72828997Y-119564997D02*
X74418000Y-117975994D01*
%TO.N,F_A3*%
X73918000Y-117852000D02*
X73918000Y-110616000D01*
X72644000Y-119126000D02*
X73918000Y-117852000D01*
X71278000Y-119260000D02*
X71412000Y-119126000D01*
X71412000Y-119126000D02*
X72644000Y-119126000D01*
%TO.N,F_A4*%
X71278000Y-118460000D02*
X72040000Y-118460000D01*
X73418000Y-117082000D02*
X73418000Y-110616000D01*
X72040000Y-118460000D02*
X73418000Y-117082000D01*
%TO.N,F_RESET*%
X70890999Y-118274239D02*
X71309238Y-117856000D01*
X70478000Y-119260000D02*
X70890999Y-118847001D01*
X70890999Y-118847001D02*
X70890999Y-118274239D01*
X71309238Y-117856000D02*
X71882000Y-117856000D01*
X72918000Y-116820000D02*
X72918000Y-110616000D01*
X71882000Y-117856000D02*
X72918000Y-116820000D01*
%TO.N,F_A5*%
X72418000Y-116284778D02*
X72418000Y-110616000D01*
X70478000Y-118224778D02*
X72418000Y-116284778D01*
X70478000Y-118460000D02*
X70478000Y-118224778D01*
%TO.N,Net-(IC6-Pad26)*%
X70757000Y-144760000D02*
X72670000Y-142847000D01*
X72670000Y-142847000D02*
X73645000Y-142847000D01*
X70040000Y-144760000D02*
X70757000Y-144760000D01*
%TO.N,Net-(IC6-Pad21)*%
X67052000Y-148101000D02*
X67052000Y-146748000D01*
X67310000Y-148359000D02*
X67052000Y-148101000D01*
%TO.N,Net-(IC6-Pad20)*%
X66552000Y-148101000D02*
X66552000Y-146748000D01*
X66294000Y-148359000D02*
X66552000Y-148101000D01*
%TO.N,Net-(IC6-Pad4)*%
X67079001Y-141236501D02*
X73304501Y-141236501D01*
X67052000Y-140272000D02*
X67052000Y-141209500D01*
X73304501Y-141236501D02*
X73645000Y-141577000D01*
X67052000Y-141209500D02*
X67079001Y-141236501D01*
%TO.N,12MHz*%
X65678000Y-130460000D02*
X62026000Y-134112000D01*
X61722000Y-134112000D02*
X61976000Y-134112000D01*
X68552000Y-146748000D02*
X68552000Y-145006000D01*
X68552000Y-145006000D02*
X67818000Y-144272000D01*
X57658000Y-134112000D02*
X61722000Y-134112000D01*
X61722000Y-134112000D02*
X62026000Y-134112000D01*
%TO.N,Net-(C23-Pad2)*%
X81303000Y-132819000D02*
X81026000Y-133096000D01*
X81026000Y-133096000D02*
X80010000Y-133096000D01*
X81687000Y-130433000D02*
X81687000Y-132741000D01*
X82550000Y-132819000D02*
X81765000Y-132819000D01*
X81687000Y-132741000D02*
X81765000Y-132819000D01*
X81765000Y-132819000D02*
X81303000Y-132819000D01*
X82337000Y-130433000D02*
X81687000Y-130433000D01*
X81303000Y-134620000D02*
X81788000Y-134135000D01*
X80518000Y-134620000D02*
X81303000Y-134620000D01*
X81788000Y-133858000D02*
X81026000Y-133096000D01*
X81788000Y-134135000D02*
X81788000Y-133858000D01*
%TO.N,Net-(C24-Pad2)*%
X84287000Y-132570000D02*
X84559000Y-132842000D01*
X84287000Y-130433000D02*
X84287000Y-132570000D01*
X84937000Y-130433000D02*
X84287000Y-130433000D01*
X85575000Y-132842000D02*
X85598000Y-132819000D01*
X84559000Y-132842000D02*
X85575000Y-132842000D01*
X86237000Y-132180000D02*
X86237000Y-130433000D01*
X85598000Y-132819000D02*
X86237000Y-132180000D01*
X85441000Y-132976000D02*
X85598000Y-132819000D01*
X85441000Y-134366000D02*
X85441000Y-132976000D01*
X85575000Y-134500000D02*
X85441000Y-134366000D01*
X85575000Y-135890000D02*
X85575000Y-134500000D01*
%TO.N,Net-(C25-Pad1)*%
X81037000Y-132115000D02*
X81026000Y-132126000D01*
X81037000Y-130433000D02*
X81037000Y-132115000D01*
%TO.N,Net-(C26-Pad1)*%
X85598000Y-130444000D02*
X85587000Y-130433000D01*
X85598000Y-131849000D02*
X85598000Y-130444000D01*
%TO.N,Net-(IC7-Pad19)*%
X81037000Y-123133000D02*
X81280000Y-122890000D01*
X81037000Y-124583000D02*
X81037000Y-123133000D01*
%TO.N,Net-(IC7-Pad12)*%
X85587000Y-123179000D02*
X85344000Y-122936000D01*
X85587000Y-124583000D02*
X85587000Y-123179000D01*
%TO.N,Net-(IC7-Pad1)*%
X79964000Y-132080000D02*
X80010000Y-132126000D01*
X78994000Y-132080000D02*
X79964000Y-132080000D01*
X80010000Y-130810000D02*
X80387000Y-130433000D01*
X80010000Y-132126000D02*
X80010000Y-130810000D01*
%TO.N,Net-(C29-Pad1)*%
X75438000Y-143759000D02*
X75438000Y-149098000D01*
X77620000Y-141577000D02*
X75438000Y-143759000D01*
X78595000Y-141577000D02*
X77620000Y-141577000D01*
X67818000Y-167670962D02*
X67818000Y-165862000D01*
X67036000Y-168452962D02*
X67818000Y-167670962D01*
X67036000Y-169632000D02*
X67036000Y-168452962D01*
X64536000Y-169632000D02*
X64536000Y-165882000D01*
X64536000Y-165882000D02*
X64516000Y-165862000D01*
X75438000Y-158242000D02*
X67818000Y-165862000D01*
X75438000Y-149098000D02*
X75438000Y-158242000D01*
X58166000Y-170423398D02*
X62727398Y-165862000D01*
X62727398Y-165862000D02*
X64516000Y-165862000D01*
X58166000Y-175029000D02*
X58166000Y-170423398D01*
%TO.N,U_INT*%
X66090999Y-130047001D02*
X66090999Y-131013001D01*
X66478000Y-129660000D02*
X66090999Y-130047001D01*
X66090999Y-131013001D02*
X60198000Y-136906000D01*
X60198002Y-136906002D02*
X60198002Y-147066002D01*
X60198000Y-136906000D02*
X60198002Y-136906002D01*
X60198002Y-147066002D02*
X61722000Y-148590000D01*
X64647500Y-148590000D02*
X65552000Y-147685500D01*
X65552000Y-147685500D02*
X65552000Y-146748000D01*
X61722000Y-148590000D02*
X64647500Y-148590000D01*
%TO.N,U_GPX*%
X66478000Y-131088460D02*
X66478000Y-130460000D01*
X60525010Y-137041450D02*
X66478000Y-131088460D01*
X60525010Y-146885010D02*
X61902990Y-148262990D01*
X60525010Y-137041450D02*
X60525010Y-146885010D01*
X61902990Y-148262990D02*
X64512050Y-148262990D01*
X65052000Y-147723040D02*
X65052000Y-146748000D01*
X64512050Y-148262990D02*
X65052000Y-147723040D01*
%TO.N,U_MOSI*%
X66890999Y-130047001D02*
X66890999Y-131229001D01*
X67278000Y-129660000D02*
X66890999Y-130047001D01*
X66890999Y-131229001D02*
X60960000Y-137160000D01*
X60960000Y-137160000D02*
X60960000Y-144780000D01*
X60960000Y-144780000D02*
X61468000Y-145288000D01*
X61496000Y-145260000D02*
X63564000Y-145260000D01*
X61468000Y-145288000D02*
X61496000Y-145260000D01*
%TO.N,U_MISO*%
X67278000Y-130460000D02*
X67278000Y-131304460D01*
X61468000Y-137160000D02*
X61287010Y-137340990D01*
X67278000Y-131304460D02*
X61468000Y-137114460D01*
X61468000Y-137114460D02*
X61468000Y-137160000D01*
X61287010Y-137340990D02*
X61287010Y-144599010D01*
X61448000Y-144760000D02*
X63564000Y-144760000D01*
X61287010Y-144599010D02*
X61448000Y-144760000D01*
%TO.N,U_SS*%
X61710000Y-144260000D02*
X63564000Y-144260000D01*
X61614020Y-144164020D02*
X61710000Y-144260000D01*
X68465001Y-130072999D02*
X67892239Y-130072999D01*
X68878000Y-129660000D02*
X68465001Y-130072999D01*
X67665001Y-130300237D02*
X67665001Y-131470999D01*
X67892239Y-130072999D02*
X67665001Y-130300237D01*
X67665001Y-131470999D02*
X61614020Y-137521980D01*
X61614020Y-137521980D02*
X61614020Y-144164020D01*
%TO.N,U_SCLK*%
X68078000Y-130460000D02*
X68078000Y-131566000D01*
X68078000Y-131566000D02*
X61976000Y-137668000D01*
X61976000Y-137668000D02*
X61976000Y-143510000D01*
X62226000Y-143760000D02*
X63564000Y-143760000D01*
X61976000Y-143510000D02*
X62226000Y-143760000D01*
%TO.N,U_RES*%
X63564000Y-143260000D02*
X62561010Y-143260000D01*
X62561010Y-143260000D02*
X62303010Y-143002000D01*
X68878000Y-131228460D02*
X68878000Y-130460000D01*
X62303010Y-137803450D02*
X68878000Y-131228460D01*
X62303010Y-143002000D02*
X62303010Y-137803450D01*
%TO.N,Net-(R19-Pad1)*%
X67310000Y-149624000D02*
X67074000Y-149860000D01*
X67310000Y-149329000D02*
X67310000Y-149624000D01*
X67056000Y-149860000D02*
X66621010Y-150294990D01*
X67074000Y-149860000D02*
X67056000Y-149860000D01*
X66621010Y-150294990D02*
X66621010Y-150876000D01*
X66621010Y-150876000D02*
X66621010Y-167640000D01*
X66621010Y-167640000D02*
X66921000Y-167640000D01*
X65158999Y-166624001D02*
X65667000Y-166116000D01*
X65158999Y-167432961D02*
X65158999Y-166624001D01*
X65536000Y-169632000D02*
X65536000Y-167809962D01*
X65536000Y-167809962D02*
X65158999Y-167432961D01*
%TO.N,Net-(R20-Pad1)*%
X66036000Y-168582000D02*
X66294000Y-168324000D01*
X66036000Y-169632000D02*
X66036000Y-168582000D01*
X65786000Y-167132000D02*
X66294000Y-167132000D01*
X66294000Y-168324000D02*
X66294000Y-167132000D01*
X66294000Y-167132000D02*
X66294000Y-149329000D01*
%TO.N,Net-(JP1-Pad2)*%
X86218000Y-102108000D02*
X85788500Y-101678500D01*
X46418500Y-98282000D02*
X46418500Y-100266500D01*
X46418500Y-100266500D02*
X46482000Y-100330000D01*
X85788500Y-101678500D02*
X85788500Y-100393500D01*
X85788500Y-100393500D02*
X85788500Y-98282000D01*
X87884000Y-105918000D02*
X86218000Y-104252000D01*
X87884000Y-155448000D02*
X87884000Y-105918000D01*
X72286000Y-171046000D02*
X87884000Y-155448000D01*
X86218000Y-104252000D02*
X86218000Y-102108000D01*
X72286000Y-177096000D02*
X72286000Y-171046000D01*
%TO.N,Net-(J1-Pad7)*%
X59690999Y-127647001D02*
X60078000Y-127260000D01*
X59092239Y-127647001D02*
X59690999Y-127647001D01*
X58031240Y-128708000D02*
X59092239Y-127647001D01*
X49367000Y-130810000D02*
X51562000Y-130810000D01*
X55712000Y-128708000D02*
X56712000Y-128708000D01*
X56712000Y-128708000D02*
X58031240Y-128708000D01*
%TO.N,Net-(J1-Pad5)*%
X60490999Y-126847001D02*
X60878000Y-126460000D01*
X60490999Y-126847001D02*
X57556999Y-126847001D01*
X56496000Y-127908000D02*
X55712000Y-127908000D01*
X57556999Y-126847001D02*
X56496000Y-127908000D01*
X49367000Y-129540000D02*
X51562000Y-129540000D01*
%TO.N,Net-(J1-Pad2)*%
X60878000Y-127260000D02*
X60753014Y-127260000D01*
X60753014Y-127260000D02*
X60483877Y-127529137D01*
X53112000Y-125756000D02*
X53086000Y-125730000D01*
X53112000Y-126308000D02*
X53112000Y-125756000D01*
X46137000Y-127000000D02*
X46137000Y-126583000D01*
X46137000Y-126583000D02*
X46990000Y-125730000D01*
%TO.N,Net-(J1-Pad1)*%
X59690999Y-126072999D02*
X57238999Y-126072999D01*
X60078000Y-126460000D02*
X59690999Y-126072999D01*
X57238999Y-126072999D02*
X56388000Y-125222000D01*
X56388000Y-125222000D02*
X52324000Y-125222000D01*
X52324000Y-125222000D02*
X51562000Y-125984000D01*
X52432000Y-127108000D02*
X53112000Y-127108000D01*
X51562000Y-126238000D02*
X52432000Y-127108000D01*
X51562000Y-125984000D02*
X51562000Y-126238000D01*
X50800000Y-127000000D02*
X51562000Y-126238000D01*
X49367000Y-127000000D02*
X50800000Y-127000000D01*
%TO.N,CRESET*%
X61678000Y-126460000D02*
X61564510Y-126460000D01*
X61564510Y-126460000D02*
X61248848Y-126775662D01*
X57404000Y-130810000D02*
X56596000Y-130810000D01*
X46137000Y-130810000D02*
X47498000Y-130810000D01*
%TO.N,CDONE*%
X62478000Y-125660000D02*
X62478000Y-125772327D01*
X62478000Y-125772327D02*
X62115143Y-126135184D01*
X57404000Y-131826000D02*
X56596000Y-131826000D01*
X46137000Y-132080000D02*
X47498000Y-132080000D01*
%TO.N,Net-(D2-Pad2)*%
X57127000Y-177038000D02*
X58166000Y-175999000D01*
X56439000Y-177038000D02*
X57127000Y-177038000D01*
%TO.N,Net-(D1-Pad2)*%
X68078000Y-127260000D02*
X68326000Y-127508000D01*
D33*
X73737000Y-127254000D02*
X74565000Y-126426000D01*
X73406000Y-127254000D02*
X73737000Y-127254000D01*
%TD*%
M02*
