%TF.GenerationSoftware,KiCad,Pcbnew,5.1.6*%
%TF.CreationDate,2021-04-23T20:35:47+02:00*%
%TF.ProjectId,nhci,6e686369-2e6b-4696-9361-645f70636258,rev?*%
%TF.SameCoordinates,Original*%
%TF.FileFunction,Copper,L3,Inr*%
%TF.FilePolarity,Positive*%
%FSLAX46Y46*%
G04 Gerber Fmt 4.6, Leading zero omitted, Abs format (unit mm)*
G04 Created by KiCad (PCBNEW 5.1.6) date 2021-04-23 20:35:47*
%MOMM*%
%LPD*%
G01*
G04 APERTURE LIST*
%TA.AperFunction,ViaPad*%
%ADD10C,0.400000*%
%TD*%
%TA.AperFunction,ViaPad*%
%ADD11C,0.800000*%
%TD*%
%TA.AperFunction,Conductor*%
%ADD12C,0.200000*%
%TD*%
G04 APERTURE END LIST*
D10*
%TO.N,GND*%
X44704000Y-100584000D03*
X80278000Y-106631999D03*
X86106000Y-108204000D03*
X77724000Y-109728000D03*
X86614000Y-100330000D03*
X45212000Y-108966000D03*
X47244000Y-106172000D03*
X53340000Y-108966000D03*
X55372000Y-105664000D03*
X61468000Y-108966000D03*
X63244597Y-105665403D03*
X69596000Y-108966000D03*
X72418000Y-106708000D03*
X43180000Y-141732000D03*
X58650685Y-127484685D03*
X58674000Y-120904000D03*
X71628000Y-127000000D03*
X68326000Y-129286000D03*
X65278000Y-123698000D03*
X62992000Y-129286000D03*
X62822362Y-126915638D03*
X64516000Y-119634000D03*
X66078001Y-122737796D03*
X65278000Y-126746000D03*
X67579905Y-125242132D03*
X68478001Y-121137795D03*
X56642000Y-126492000D03*
X71628000Y-120845999D03*
X83312000Y-127508000D03*
X78486000Y-136652000D03*
X83312000Y-138684000D03*
X66040000Y-144018000D03*
X67552000Y-138418000D03*
X80264000Y-143764000D03*
X69596000Y-149352000D03*
X57658000Y-138430000D03*
X47498000Y-128270000D03*
D11*
X78486000Y-167640000D03*
X62992000Y-167894000D03*
X69088000Y-167386000D03*
X54864000Y-167386000D03*
D10*
X60452000Y-122936000D03*
%TO.N,/P_REG*%
X76073000Y-105583000D03*
%TO.N,/P_IOWR*%
X60162000Y-105628000D03*
%TO.N,/P_IORD*%
X59162000Y-105644000D03*
%TO.N,/P_CE2*%
X57635065Y-105659570D03*
%TO.N,/P_WE*%
X66363011Y-105760001D03*
%TO.N,/P_OE*%
X58162000Y-105668000D03*
%TO.N,/P_CE1*%
X56134000Y-105664000D03*
%TO.N,/P_RESET*%
X73418000Y-105676000D03*
%TO.N,+5V*%
X65278000Y-101600000D03*
X79248000Y-107442000D03*
X46989000Y-107443000D03*
X54992000Y-107316000D03*
X63246000Y-107696000D03*
X71351000Y-107465000D03*
X83520000Y-121966000D03*
%TO.N,/P_D0*%
X51308000Y-104140000D03*
X81280000Y-103886000D03*
%TO.N,/P_D1*%
X51816000Y-104648000D03*
X82550000Y-103632000D03*
%TO.N,/P_D2*%
X52324000Y-105156000D03*
X83820000Y-103632000D03*
%TO.N,+3V3*%
X79248000Y-110236000D03*
X46736000Y-110236000D03*
X54864000Y-110236000D03*
X62992000Y-110236000D03*
X71120000Y-110236000D03*
X61976000Y-127762000D03*
X61722000Y-118110000D03*
X68340280Y-118849658D03*
X71628000Y-128016000D03*
X70104000Y-129286000D03*
X63754000Y-123698000D03*
X71882000Y-123952000D03*
X57168997Y-126494222D03*
X71882000Y-119991998D03*
X80518000Y-136652000D03*
X72644000Y-131572000D03*
X67306020Y-144396933D03*
X68768250Y-138618250D03*
X51816000Y-128270000D03*
X54610000Y-130048000D03*
%TO.N,/P_READY*%
X78780002Y-106131998D03*
X65786000Y-103632000D03*
%TO.N,/P_WAIT*%
X75692000Y-102362000D03*
X81546000Y-106680000D03*
%TO.N,/P_INPACK*%
X81280000Y-105664000D03*
X76962000Y-101600000D03*
%TO.N,Net-(C15-Pad2)*%
X68326000Y-123698000D03*
X62976095Y-125242132D03*
%TO.N,Net-(C15-Pad1)*%
X62200204Y-124459999D03*
X68326000Y-122936000D03*
%TO.N,+1V2*%
X62992000Y-119634000D03*
X62955715Y-126025106D03*
X66060132Y-126761905D03*
X83820000Y-135890000D03*
X72517000Y-125349000D03*
X64516000Y-122047000D03*
X71882000Y-128905000D03*
X66929000Y-122047000D03*
%TO.N,12MHz*%
X67818000Y-144272000D03*
X62026000Y-134112000D03*
D11*
%TO.N,Net-(C29-Pad1)*%
X67818000Y-165862000D03*
X64516000Y-165862000D03*
%TO.N,Net-(R19-Pad1)*%
X66921000Y-167640000D03*
X65667000Y-166116000D03*
%TO.N,Net-(R20-Pad1)*%
X65786000Y-167132000D03*
D10*
%TO.N,Net-(JP1-Pad2)*%
X46482000Y-100330000D03*
X85788500Y-100393500D03*
%TO.N,Net-(J1-Pad7)*%
X51562000Y-130810000D03*
X56712000Y-128708000D03*
%TO.N,Net-(J1-Pad5)*%
X51562000Y-129540000D03*
X56896000Y-127508000D03*
%TO.N,Net-(J1-Pad2)*%
X60483877Y-127529137D03*
X53086000Y-125730000D03*
X46990000Y-125730000D03*
%TO.N,Net-(J1-Pad1)*%
X50800000Y-127000000D03*
%TO.N,CRESET*%
X61248848Y-126775662D03*
X57404000Y-130810000D03*
X47498000Y-130810000D03*
%TO.N,CDONE*%
X62115143Y-126135184D03*
X57404000Y-131826000D03*
X47498000Y-132080000D03*
%TO.N,Net-(D1-Pad2)*%
X68326000Y-127508000D03*
X73406000Y-127254000D03*
%TD*%
D12*
%TO.N,+5V*%
X65278000Y-101600000D02*
X65278000Y-107950000D01*
X78740000Y-107950000D02*
X79248000Y-107442000D01*
X46991000Y-107443000D02*
X46989000Y-107443000D01*
X47498000Y-107950000D02*
X46991000Y-107443000D01*
X54864000Y-107444000D02*
X54992000Y-107316000D01*
X54864000Y-107950000D02*
X54864000Y-107444000D01*
X54864000Y-107950000D02*
X47498000Y-107950000D01*
X63246000Y-107950000D02*
X54864000Y-107950000D01*
X63246000Y-107950000D02*
X63246000Y-107696000D01*
X65278000Y-107950000D02*
X63246000Y-107950000D01*
X71374000Y-107950000D02*
X78740000Y-107950000D01*
X65278000Y-107950000D02*
X71374000Y-107950000D01*
X71374000Y-107950000D02*
X71374000Y-107488000D01*
X71374000Y-107488000D02*
X71351000Y-107465000D01*
X79248000Y-107442000D02*
X80010000Y-107442000D01*
X83520000Y-110952000D02*
X83520000Y-121966000D01*
X80010000Y-107442000D02*
X83520000Y-110952000D01*
%TO.N,+3V3*%
X55118000Y-110236000D02*
X54864000Y-110236000D01*
X55118000Y-110236000D02*
X46736000Y-110236000D01*
X79248000Y-110236000D02*
X61722000Y-110236000D01*
X61722000Y-110236000D02*
X55118000Y-110236000D01*
%TO.N,/P_READY*%
X78780002Y-106131998D02*
X68285998Y-106131998D01*
X68285998Y-106131998D02*
X65786000Y-103632000D01*
%TO.N,/P_WAIT*%
X77228000Y-102362000D02*
X75692000Y-102362000D01*
X81546000Y-106680000D02*
X77228000Y-102362000D01*
%TO.N,/P_INPACK*%
X81280000Y-105664000D02*
X77216000Y-101600000D01*
X77216000Y-101600000D02*
X76962000Y-101600000D01*
%TO.N,12MHz*%
X67818000Y-144272000D02*
X67818000Y-139904000D01*
X67818000Y-139904000D02*
X62026000Y-134112000D01*
%TO.N,Net-(C29-Pad1)*%
X67418001Y-165462001D02*
X64915999Y-165462001D01*
X64915999Y-165462001D02*
X64516000Y-165862000D01*
X67818000Y-165862000D02*
X67418001Y-165462001D01*
%TD*%
%TO.N,+1V2*%
G36*
X73052000Y-126900894D02*
G01*
X73017625Y-126935269D01*
X72962906Y-127017161D01*
X72925215Y-127108155D01*
X72906000Y-127204754D01*
X72906000Y-127303246D01*
X72925215Y-127399845D01*
X72962906Y-127490839D01*
X73017625Y-127572731D01*
X73052000Y-127607106D01*
X73052000Y-131282640D01*
X73032375Y-131253269D01*
X72962731Y-131183625D01*
X72880839Y-131128906D01*
X72789845Y-131091215D01*
X72693246Y-131072000D01*
X72594754Y-131072000D01*
X72498155Y-131091215D01*
X72407161Y-131128906D01*
X72325269Y-131183625D01*
X72255625Y-131253269D01*
X72200906Y-131335161D01*
X72163215Y-131426155D01*
X72144000Y-131522754D01*
X72144000Y-131621246D01*
X72163215Y-131717845D01*
X72200906Y-131808839D01*
X72255625Y-131890731D01*
X72325269Y-131960375D01*
X72407161Y-132015094D01*
X72498155Y-132052785D01*
X72594754Y-132072000D01*
X72693246Y-132072000D01*
X72789845Y-132052785D01*
X72880839Y-132015094D01*
X72962731Y-131960375D01*
X73032375Y-131890731D01*
X73052000Y-131861360D01*
X73052000Y-132234000D01*
X57693360Y-132234000D01*
X57722731Y-132214375D01*
X57792375Y-132144731D01*
X57847094Y-132062839D01*
X57884785Y-131971845D01*
X57904000Y-131875246D01*
X57904000Y-131776754D01*
X57884785Y-131680155D01*
X57847094Y-131589161D01*
X57792375Y-131507269D01*
X57722731Y-131437625D01*
X57640839Y-131382906D01*
X57549845Y-131345215D01*
X57504000Y-131336096D01*
X57504000Y-131299904D01*
X57549845Y-131290785D01*
X57640839Y-131253094D01*
X57722731Y-131198375D01*
X57792375Y-131128731D01*
X57847094Y-131046839D01*
X57884785Y-130955845D01*
X57904000Y-130859246D01*
X57904000Y-130760754D01*
X57884785Y-130664155D01*
X57847094Y-130573161D01*
X57792375Y-130491269D01*
X57722731Y-130421625D01*
X57640839Y-130366906D01*
X57549845Y-130329215D01*
X57504000Y-130320096D01*
X57504000Y-129236754D01*
X62492000Y-129236754D01*
X62492000Y-129335246D01*
X62511215Y-129431845D01*
X62548906Y-129522839D01*
X62603625Y-129604731D01*
X62673269Y-129674375D01*
X62755161Y-129729094D01*
X62846155Y-129766785D01*
X62942754Y-129786000D01*
X63041246Y-129786000D01*
X63137845Y-129766785D01*
X63228839Y-129729094D01*
X63310731Y-129674375D01*
X63380375Y-129604731D01*
X63435094Y-129522839D01*
X63472785Y-129431845D01*
X63492000Y-129335246D01*
X63492000Y-129236754D01*
X67826000Y-129236754D01*
X67826000Y-129335246D01*
X67845215Y-129431845D01*
X67882906Y-129522839D01*
X67937625Y-129604731D01*
X68007269Y-129674375D01*
X68089161Y-129729094D01*
X68180155Y-129766785D01*
X68276754Y-129786000D01*
X68375246Y-129786000D01*
X68471845Y-129766785D01*
X68562839Y-129729094D01*
X68644731Y-129674375D01*
X68714375Y-129604731D01*
X68769094Y-129522839D01*
X68806785Y-129431845D01*
X68826000Y-129335246D01*
X68826000Y-129236754D01*
X69604000Y-129236754D01*
X69604000Y-129335246D01*
X69623215Y-129431845D01*
X69660906Y-129522839D01*
X69715625Y-129604731D01*
X69785269Y-129674375D01*
X69867161Y-129729094D01*
X69958155Y-129766785D01*
X70054754Y-129786000D01*
X70153246Y-129786000D01*
X70249845Y-129766785D01*
X70340839Y-129729094D01*
X70422731Y-129674375D01*
X70492375Y-129604731D01*
X70547094Y-129522839D01*
X70584785Y-129431845D01*
X70604000Y-129335246D01*
X70604000Y-129236754D01*
X70584785Y-129140155D01*
X70547094Y-129049161D01*
X70492375Y-128967269D01*
X70422731Y-128897625D01*
X70340839Y-128842906D01*
X70249845Y-128805215D01*
X70153246Y-128786000D01*
X70054754Y-128786000D01*
X69958155Y-128805215D01*
X69867161Y-128842906D01*
X69785269Y-128897625D01*
X69715625Y-128967269D01*
X69660906Y-129049161D01*
X69623215Y-129140155D01*
X69604000Y-129236754D01*
X68826000Y-129236754D01*
X68806785Y-129140155D01*
X68769094Y-129049161D01*
X68714375Y-128967269D01*
X68644731Y-128897625D01*
X68562839Y-128842906D01*
X68471845Y-128805215D01*
X68375246Y-128786000D01*
X68276754Y-128786000D01*
X68180155Y-128805215D01*
X68089161Y-128842906D01*
X68007269Y-128897625D01*
X67937625Y-128967269D01*
X67882906Y-129049161D01*
X67845215Y-129140155D01*
X67826000Y-129236754D01*
X63492000Y-129236754D01*
X63472785Y-129140155D01*
X63435094Y-129049161D01*
X63380375Y-128967269D01*
X63310731Y-128897625D01*
X63228839Y-128842906D01*
X63137845Y-128805215D01*
X63041246Y-128786000D01*
X62942754Y-128786000D01*
X62846155Y-128805215D01*
X62755161Y-128842906D01*
X62673269Y-128897625D01*
X62603625Y-128967269D01*
X62548906Y-129049161D01*
X62511215Y-129140155D01*
X62492000Y-129236754D01*
X57504000Y-129236754D01*
X57504000Y-127435439D01*
X58150685Y-127435439D01*
X58150685Y-127533931D01*
X58169900Y-127630530D01*
X58207591Y-127721524D01*
X58262310Y-127803416D01*
X58331954Y-127873060D01*
X58413846Y-127927779D01*
X58504840Y-127965470D01*
X58601439Y-127984685D01*
X58699931Y-127984685D01*
X58796530Y-127965470D01*
X58887524Y-127927779D01*
X58969416Y-127873060D01*
X59039060Y-127803416D01*
X59093779Y-127721524D01*
X59131470Y-127630530D01*
X59150685Y-127533931D01*
X59150685Y-127479891D01*
X59983877Y-127479891D01*
X59983877Y-127578383D01*
X60003092Y-127674982D01*
X60040783Y-127765976D01*
X60095502Y-127847868D01*
X60165146Y-127917512D01*
X60247038Y-127972231D01*
X60338032Y-128009922D01*
X60434631Y-128029137D01*
X60533123Y-128029137D01*
X60629722Y-128009922D01*
X60720716Y-127972231D01*
X60802608Y-127917512D01*
X60872252Y-127847868D01*
X60926971Y-127765976D01*
X60949016Y-127712754D01*
X61476000Y-127712754D01*
X61476000Y-127811246D01*
X61495215Y-127907845D01*
X61532906Y-127998839D01*
X61587625Y-128080731D01*
X61657269Y-128150375D01*
X61739161Y-128205094D01*
X61830155Y-128242785D01*
X61926754Y-128262000D01*
X62025246Y-128262000D01*
X62121845Y-128242785D01*
X62212839Y-128205094D01*
X62294731Y-128150375D01*
X62364375Y-128080731D01*
X62419094Y-127998839D01*
X62456785Y-127907845D01*
X62476000Y-127811246D01*
X62476000Y-127712754D01*
X62456785Y-127616155D01*
X62419094Y-127525161D01*
X62374722Y-127458754D01*
X67826000Y-127458754D01*
X67826000Y-127557246D01*
X67845215Y-127653845D01*
X67882906Y-127744839D01*
X67937625Y-127826731D01*
X68007269Y-127896375D01*
X68089161Y-127951094D01*
X68180155Y-127988785D01*
X68276754Y-128008000D01*
X68375246Y-128008000D01*
X68471845Y-127988785D01*
X68525032Y-127966754D01*
X71128000Y-127966754D01*
X71128000Y-128065246D01*
X71147215Y-128161845D01*
X71184906Y-128252839D01*
X71239625Y-128334731D01*
X71309269Y-128404375D01*
X71391161Y-128459094D01*
X71482155Y-128496785D01*
X71578754Y-128516000D01*
X71677246Y-128516000D01*
X71773845Y-128496785D01*
X71864839Y-128459094D01*
X71946731Y-128404375D01*
X72016375Y-128334731D01*
X72071094Y-128252839D01*
X72108785Y-128161845D01*
X72128000Y-128065246D01*
X72128000Y-127966754D01*
X72108785Y-127870155D01*
X72071094Y-127779161D01*
X72016375Y-127697269D01*
X71946731Y-127627625D01*
X71864839Y-127572906D01*
X71773845Y-127535215D01*
X71677246Y-127516000D01*
X71578754Y-127516000D01*
X71482155Y-127535215D01*
X71391161Y-127572906D01*
X71309269Y-127627625D01*
X71239625Y-127697269D01*
X71184906Y-127779161D01*
X71147215Y-127870155D01*
X71128000Y-127966754D01*
X68525032Y-127966754D01*
X68562839Y-127951094D01*
X68644731Y-127896375D01*
X68714375Y-127826731D01*
X68769094Y-127744839D01*
X68806785Y-127653845D01*
X68826000Y-127557246D01*
X68826000Y-127458754D01*
X68806785Y-127362155D01*
X68769094Y-127271161D01*
X68714375Y-127189269D01*
X68644731Y-127119625D01*
X68562839Y-127064906D01*
X68471845Y-127027215D01*
X68375246Y-127008000D01*
X68276754Y-127008000D01*
X68180155Y-127027215D01*
X68089161Y-127064906D01*
X68007269Y-127119625D01*
X67937625Y-127189269D01*
X67882906Y-127271161D01*
X67845215Y-127362155D01*
X67826000Y-127458754D01*
X62374722Y-127458754D01*
X62364375Y-127443269D01*
X62294731Y-127373625D01*
X62212839Y-127318906D01*
X62121845Y-127281215D01*
X62025246Y-127262000D01*
X61926754Y-127262000D01*
X61830155Y-127281215D01*
X61739161Y-127318906D01*
X61657269Y-127373625D01*
X61587625Y-127443269D01*
X61532906Y-127525161D01*
X61495215Y-127616155D01*
X61476000Y-127712754D01*
X60949016Y-127712754D01*
X60964662Y-127674982D01*
X60983877Y-127578383D01*
X60983877Y-127479891D01*
X60964662Y-127383292D01*
X60926971Y-127292298D01*
X60872252Y-127210406D01*
X60802608Y-127140762D01*
X60720716Y-127086043D01*
X60629722Y-127048352D01*
X60533123Y-127029137D01*
X60434631Y-127029137D01*
X60338032Y-127048352D01*
X60247038Y-127086043D01*
X60165146Y-127140762D01*
X60095502Y-127210406D01*
X60040783Y-127292298D01*
X60003092Y-127383292D01*
X59983877Y-127479891D01*
X59150685Y-127479891D01*
X59150685Y-127435439D01*
X59131470Y-127338840D01*
X59093779Y-127247846D01*
X59039060Y-127165954D01*
X58969416Y-127096310D01*
X58887524Y-127041591D01*
X58796530Y-127003900D01*
X58699931Y-126984685D01*
X58601439Y-126984685D01*
X58504840Y-127003900D01*
X58413846Y-127041591D01*
X58331954Y-127096310D01*
X58262310Y-127165954D01*
X58207591Y-127247846D01*
X58169900Y-127338840D01*
X58150685Y-127435439D01*
X57504000Y-127435439D01*
X57504000Y-126866325D01*
X57557372Y-126812953D01*
X57612091Y-126731061D01*
X57614015Y-126726416D01*
X60748848Y-126726416D01*
X60748848Y-126824908D01*
X60768063Y-126921507D01*
X60805754Y-127012501D01*
X60860473Y-127094393D01*
X60930117Y-127164037D01*
X61012009Y-127218756D01*
X61103003Y-127256447D01*
X61199602Y-127275662D01*
X61298094Y-127275662D01*
X61394693Y-127256447D01*
X61485687Y-127218756D01*
X61567579Y-127164037D01*
X61637223Y-127094393D01*
X61691942Y-127012501D01*
X61729633Y-126921507D01*
X61740596Y-126866392D01*
X62322362Y-126866392D01*
X62322362Y-126964884D01*
X62341577Y-127061483D01*
X62379268Y-127152477D01*
X62433987Y-127234369D01*
X62503631Y-127304013D01*
X62585523Y-127358732D01*
X62676517Y-127396423D01*
X62773116Y-127415638D01*
X62871608Y-127415638D01*
X62968207Y-127396423D01*
X63059201Y-127358732D01*
X63141093Y-127304013D01*
X63210737Y-127234369D01*
X63265456Y-127152477D01*
X63303147Y-127061483D01*
X63322362Y-126964884D01*
X63322362Y-126866392D01*
X63303147Y-126769793D01*
X63272894Y-126696754D01*
X64778000Y-126696754D01*
X64778000Y-126795246D01*
X64797215Y-126891845D01*
X64834906Y-126982839D01*
X64889625Y-127064731D01*
X64959269Y-127134375D01*
X65041161Y-127189094D01*
X65132155Y-127226785D01*
X65228754Y-127246000D01*
X65327246Y-127246000D01*
X65423845Y-127226785D01*
X65514839Y-127189094D01*
X65596731Y-127134375D01*
X65666375Y-127064731D01*
X65721094Y-126982839D01*
X65734384Y-126950754D01*
X71128000Y-126950754D01*
X71128000Y-127049246D01*
X71147215Y-127145845D01*
X71184906Y-127236839D01*
X71239625Y-127318731D01*
X71309269Y-127388375D01*
X71391161Y-127443094D01*
X71482155Y-127480785D01*
X71578754Y-127500000D01*
X71677246Y-127500000D01*
X71773845Y-127480785D01*
X71864839Y-127443094D01*
X71946731Y-127388375D01*
X72016375Y-127318731D01*
X72071094Y-127236839D01*
X72108785Y-127145845D01*
X72128000Y-127049246D01*
X72128000Y-126950754D01*
X72108785Y-126854155D01*
X72071094Y-126763161D01*
X72016375Y-126681269D01*
X71946731Y-126611625D01*
X71864839Y-126556906D01*
X71773845Y-126519215D01*
X71677246Y-126500000D01*
X71578754Y-126500000D01*
X71482155Y-126519215D01*
X71391161Y-126556906D01*
X71309269Y-126611625D01*
X71239625Y-126681269D01*
X71184906Y-126763161D01*
X71147215Y-126854155D01*
X71128000Y-126950754D01*
X65734384Y-126950754D01*
X65758785Y-126891845D01*
X65778000Y-126795246D01*
X65778000Y-126696754D01*
X65758785Y-126600155D01*
X65721094Y-126509161D01*
X65666375Y-126427269D01*
X65596731Y-126357625D01*
X65514839Y-126302906D01*
X65423845Y-126265215D01*
X65327246Y-126246000D01*
X65228754Y-126246000D01*
X65132155Y-126265215D01*
X65041161Y-126302906D01*
X64959269Y-126357625D01*
X64889625Y-126427269D01*
X64834906Y-126509161D01*
X64797215Y-126600155D01*
X64778000Y-126696754D01*
X63272894Y-126696754D01*
X63265456Y-126678799D01*
X63210737Y-126596907D01*
X63141093Y-126527263D01*
X63059201Y-126472544D01*
X62968207Y-126434853D01*
X62871608Y-126415638D01*
X62773116Y-126415638D01*
X62676517Y-126434853D01*
X62585523Y-126472544D01*
X62503631Y-126527263D01*
X62433987Y-126596907D01*
X62379268Y-126678799D01*
X62341577Y-126769793D01*
X62322362Y-126866392D01*
X61740596Y-126866392D01*
X61748848Y-126824908D01*
X61748848Y-126726416D01*
X61729633Y-126629817D01*
X61691942Y-126538823D01*
X61637223Y-126456931D01*
X61567579Y-126387287D01*
X61485687Y-126332568D01*
X61394693Y-126294877D01*
X61298094Y-126275662D01*
X61199602Y-126275662D01*
X61103003Y-126294877D01*
X61012009Y-126332568D01*
X60930117Y-126387287D01*
X60860473Y-126456931D01*
X60805754Y-126538823D01*
X60768063Y-126629817D01*
X60748848Y-126726416D01*
X57614015Y-126726416D01*
X57649782Y-126640067D01*
X57668997Y-126543468D01*
X57668997Y-126444976D01*
X57649782Y-126348377D01*
X57612091Y-126257383D01*
X57557372Y-126175491D01*
X57504000Y-126122119D01*
X57504000Y-126085938D01*
X61615143Y-126085938D01*
X61615143Y-126184430D01*
X61634358Y-126281029D01*
X61672049Y-126372023D01*
X61726768Y-126453915D01*
X61796412Y-126523559D01*
X61878304Y-126578278D01*
X61969298Y-126615969D01*
X62065897Y-126635184D01*
X62164389Y-126635184D01*
X62260988Y-126615969D01*
X62351982Y-126578278D01*
X62433874Y-126523559D01*
X62503518Y-126453915D01*
X62558237Y-126372023D01*
X62595928Y-126281029D01*
X62615143Y-126184430D01*
X62615143Y-126085938D01*
X62595928Y-125989339D01*
X62558237Y-125898345D01*
X62503518Y-125816453D01*
X62433874Y-125746809D01*
X62351982Y-125692090D01*
X62260988Y-125654399D01*
X62164389Y-125635184D01*
X62065897Y-125635184D01*
X61969298Y-125654399D01*
X61878304Y-125692090D01*
X61796412Y-125746809D01*
X61726768Y-125816453D01*
X61672049Y-125898345D01*
X61634358Y-125989339D01*
X61615143Y-126085938D01*
X57504000Y-126085938D01*
X57504000Y-125192886D01*
X62476095Y-125192886D01*
X62476095Y-125291378D01*
X62495310Y-125387977D01*
X62533001Y-125478971D01*
X62587720Y-125560863D01*
X62657364Y-125630507D01*
X62739256Y-125685226D01*
X62830250Y-125722917D01*
X62926849Y-125742132D01*
X63025341Y-125742132D01*
X63121940Y-125722917D01*
X63212934Y-125685226D01*
X63294826Y-125630507D01*
X63364470Y-125560863D01*
X63419189Y-125478971D01*
X63456880Y-125387977D01*
X63476095Y-125291378D01*
X63476095Y-125192886D01*
X67079905Y-125192886D01*
X67079905Y-125291378D01*
X67099120Y-125387977D01*
X67136811Y-125478971D01*
X67191530Y-125560863D01*
X67261174Y-125630507D01*
X67343066Y-125685226D01*
X67434060Y-125722917D01*
X67530659Y-125742132D01*
X67629151Y-125742132D01*
X67725750Y-125722917D01*
X67816744Y-125685226D01*
X67898636Y-125630507D01*
X67968280Y-125560863D01*
X68022999Y-125478971D01*
X68060690Y-125387977D01*
X68079905Y-125291378D01*
X68079905Y-125192886D01*
X68060690Y-125096287D01*
X68022999Y-125005293D01*
X67968280Y-124923401D01*
X67898636Y-124853757D01*
X67816744Y-124799038D01*
X67725750Y-124761347D01*
X67629151Y-124742132D01*
X67530659Y-124742132D01*
X67434060Y-124761347D01*
X67343066Y-124799038D01*
X67261174Y-124853757D01*
X67191530Y-124923401D01*
X67136811Y-125005293D01*
X67099120Y-125096287D01*
X67079905Y-125192886D01*
X63476095Y-125192886D01*
X63456880Y-125096287D01*
X63419189Y-125005293D01*
X63364470Y-124923401D01*
X63294826Y-124853757D01*
X63212934Y-124799038D01*
X63121940Y-124761347D01*
X63025341Y-124742132D01*
X62926849Y-124742132D01*
X62830250Y-124761347D01*
X62739256Y-124799038D01*
X62657364Y-124853757D01*
X62587720Y-124923401D01*
X62533001Y-125005293D01*
X62495310Y-125096287D01*
X62476095Y-125192886D01*
X57504000Y-125192886D01*
X57504000Y-124410753D01*
X61700204Y-124410753D01*
X61700204Y-124509245D01*
X61719419Y-124605844D01*
X61757110Y-124696838D01*
X61811829Y-124778730D01*
X61881473Y-124848374D01*
X61963365Y-124903093D01*
X62054359Y-124940784D01*
X62150958Y-124959999D01*
X62249450Y-124959999D01*
X62346049Y-124940784D01*
X62437043Y-124903093D01*
X62518935Y-124848374D01*
X62588579Y-124778730D01*
X62643298Y-124696838D01*
X62680989Y-124605844D01*
X62700204Y-124509245D01*
X62700204Y-124410753D01*
X62680989Y-124314154D01*
X62643298Y-124223160D01*
X62588579Y-124141268D01*
X62518935Y-124071624D01*
X62437043Y-124016905D01*
X62346049Y-123979214D01*
X62249450Y-123959999D01*
X62150958Y-123959999D01*
X62054359Y-123979214D01*
X61963365Y-124016905D01*
X61881473Y-124071624D01*
X61811829Y-124141268D01*
X61757110Y-124223160D01*
X61719419Y-124314154D01*
X61700204Y-124410753D01*
X57504000Y-124410753D01*
X57504000Y-123648754D01*
X63254000Y-123648754D01*
X63254000Y-123747246D01*
X63273215Y-123843845D01*
X63310906Y-123934839D01*
X63365625Y-124016731D01*
X63435269Y-124086375D01*
X63517161Y-124141094D01*
X63608155Y-124178785D01*
X63704754Y-124198000D01*
X63803246Y-124198000D01*
X63899845Y-124178785D01*
X63990839Y-124141094D01*
X64072731Y-124086375D01*
X64142375Y-124016731D01*
X64197094Y-123934839D01*
X64234785Y-123843845D01*
X64254000Y-123747246D01*
X64254000Y-123648754D01*
X64778000Y-123648754D01*
X64778000Y-123747246D01*
X64797215Y-123843845D01*
X64834906Y-123934839D01*
X64889625Y-124016731D01*
X64959269Y-124086375D01*
X65041161Y-124141094D01*
X65132155Y-124178785D01*
X65228754Y-124198000D01*
X65327246Y-124198000D01*
X65423845Y-124178785D01*
X65514839Y-124141094D01*
X65596731Y-124086375D01*
X65666375Y-124016731D01*
X65721094Y-123934839D01*
X65758785Y-123843845D01*
X65778000Y-123747246D01*
X65778000Y-123648754D01*
X65758785Y-123552155D01*
X65721094Y-123461161D01*
X65666375Y-123379269D01*
X65596731Y-123309625D01*
X65514839Y-123254906D01*
X65423845Y-123217215D01*
X65327246Y-123198000D01*
X65228754Y-123198000D01*
X65132155Y-123217215D01*
X65041161Y-123254906D01*
X64959269Y-123309625D01*
X64889625Y-123379269D01*
X64834906Y-123461161D01*
X64797215Y-123552155D01*
X64778000Y-123648754D01*
X64254000Y-123648754D01*
X64234785Y-123552155D01*
X64197094Y-123461161D01*
X64142375Y-123379269D01*
X64072731Y-123309625D01*
X63990839Y-123254906D01*
X63899845Y-123217215D01*
X63803246Y-123198000D01*
X63704754Y-123198000D01*
X63608155Y-123217215D01*
X63517161Y-123254906D01*
X63435269Y-123309625D01*
X63365625Y-123379269D01*
X63310906Y-123461161D01*
X63273215Y-123552155D01*
X63254000Y-123648754D01*
X57504000Y-123648754D01*
X57504000Y-122886754D01*
X59952000Y-122886754D01*
X59952000Y-122985246D01*
X59971215Y-123081845D01*
X60008906Y-123172839D01*
X60063625Y-123254731D01*
X60133269Y-123324375D01*
X60215161Y-123379094D01*
X60306155Y-123416785D01*
X60402754Y-123436000D01*
X60501246Y-123436000D01*
X60597845Y-123416785D01*
X60688839Y-123379094D01*
X60770731Y-123324375D01*
X60840375Y-123254731D01*
X60895094Y-123172839D01*
X60932785Y-123081845D01*
X60952000Y-122985246D01*
X60952000Y-122886754D01*
X60932785Y-122790155D01*
X60895094Y-122699161D01*
X60888004Y-122688550D01*
X65578001Y-122688550D01*
X65578001Y-122787042D01*
X65597216Y-122883641D01*
X65634907Y-122974635D01*
X65689626Y-123056527D01*
X65759270Y-123126171D01*
X65841162Y-123180890D01*
X65932156Y-123218581D01*
X66028755Y-123237796D01*
X66127247Y-123237796D01*
X66223846Y-123218581D01*
X66314840Y-123180890D01*
X66396732Y-123126171D01*
X66466376Y-123056527D01*
X66521095Y-122974635D01*
X66557496Y-122886754D01*
X67826000Y-122886754D01*
X67826000Y-122985246D01*
X67845215Y-123081845D01*
X67882906Y-123172839D01*
X67937625Y-123254731D01*
X67999894Y-123317000D01*
X67937625Y-123379269D01*
X67882906Y-123461161D01*
X67845215Y-123552155D01*
X67826000Y-123648754D01*
X67826000Y-123747246D01*
X67845215Y-123843845D01*
X67882906Y-123934839D01*
X67937625Y-124016731D01*
X68007269Y-124086375D01*
X68089161Y-124141094D01*
X68180155Y-124178785D01*
X68276754Y-124198000D01*
X68375246Y-124198000D01*
X68471845Y-124178785D01*
X68562839Y-124141094D01*
X68644731Y-124086375D01*
X68714375Y-124016731D01*
X68769094Y-123934839D01*
X68782384Y-123902754D01*
X71382000Y-123902754D01*
X71382000Y-124001246D01*
X71401215Y-124097845D01*
X71438906Y-124188839D01*
X71493625Y-124270731D01*
X71563269Y-124340375D01*
X71645161Y-124395094D01*
X71736155Y-124432785D01*
X71832754Y-124452000D01*
X71931246Y-124452000D01*
X72027845Y-124432785D01*
X72118839Y-124395094D01*
X72200731Y-124340375D01*
X72270375Y-124270731D01*
X72325094Y-124188839D01*
X72362785Y-124097845D01*
X72382000Y-124001246D01*
X72382000Y-123902754D01*
X72362785Y-123806155D01*
X72325094Y-123715161D01*
X72270375Y-123633269D01*
X72200731Y-123563625D01*
X72118839Y-123508906D01*
X72027845Y-123471215D01*
X71931246Y-123452000D01*
X71832754Y-123452000D01*
X71736155Y-123471215D01*
X71645161Y-123508906D01*
X71563269Y-123563625D01*
X71493625Y-123633269D01*
X71438906Y-123715161D01*
X71401215Y-123806155D01*
X71382000Y-123902754D01*
X68782384Y-123902754D01*
X68806785Y-123843845D01*
X68826000Y-123747246D01*
X68826000Y-123648754D01*
X68806785Y-123552155D01*
X68769094Y-123461161D01*
X68714375Y-123379269D01*
X68652106Y-123317000D01*
X68714375Y-123254731D01*
X68769094Y-123172839D01*
X68806785Y-123081845D01*
X68826000Y-122985246D01*
X68826000Y-122886754D01*
X68806785Y-122790155D01*
X68769094Y-122699161D01*
X68714375Y-122617269D01*
X68644731Y-122547625D01*
X68562839Y-122492906D01*
X68471845Y-122455215D01*
X68375246Y-122436000D01*
X68276754Y-122436000D01*
X68180155Y-122455215D01*
X68089161Y-122492906D01*
X68007269Y-122547625D01*
X67937625Y-122617269D01*
X67882906Y-122699161D01*
X67845215Y-122790155D01*
X67826000Y-122886754D01*
X66557496Y-122886754D01*
X66558786Y-122883641D01*
X66578001Y-122787042D01*
X66578001Y-122688550D01*
X66558786Y-122591951D01*
X66521095Y-122500957D01*
X66466376Y-122419065D01*
X66396732Y-122349421D01*
X66314840Y-122294702D01*
X66223846Y-122257011D01*
X66127247Y-122237796D01*
X66028755Y-122237796D01*
X65932156Y-122257011D01*
X65841162Y-122294702D01*
X65759270Y-122349421D01*
X65689626Y-122419065D01*
X65634907Y-122500957D01*
X65597216Y-122591951D01*
X65578001Y-122688550D01*
X60888004Y-122688550D01*
X60840375Y-122617269D01*
X60770731Y-122547625D01*
X60688839Y-122492906D01*
X60597845Y-122455215D01*
X60501246Y-122436000D01*
X60402754Y-122436000D01*
X60306155Y-122455215D01*
X60215161Y-122492906D01*
X60133269Y-122547625D01*
X60063625Y-122617269D01*
X60008906Y-122699161D01*
X59971215Y-122790155D01*
X59952000Y-122886754D01*
X57504000Y-122886754D01*
X57504000Y-120854754D01*
X58174000Y-120854754D01*
X58174000Y-120953246D01*
X58193215Y-121049845D01*
X58230906Y-121140839D01*
X58285625Y-121222731D01*
X58355269Y-121292375D01*
X58437161Y-121347094D01*
X58528155Y-121384785D01*
X58624754Y-121404000D01*
X58723246Y-121404000D01*
X58819845Y-121384785D01*
X58910839Y-121347094D01*
X58992731Y-121292375D01*
X59062375Y-121222731D01*
X59117094Y-121140839D01*
X59138753Y-121088549D01*
X67978001Y-121088549D01*
X67978001Y-121187041D01*
X67997216Y-121283640D01*
X68034907Y-121374634D01*
X68089626Y-121456526D01*
X68159270Y-121526170D01*
X68241162Y-121580889D01*
X68332156Y-121618580D01*
X68428755Y-121637795D01*
X68527247Y-121637795D01*
X68623846Y-121618580D01*
X68714840Y-121580889D01*
X68796732Y-121526170D01*
X68866376Y-121456526D01*
X68921095Y-121374634D01*
X68958786Y-121283640D01*
X68978001Y-121187041D01*
X68978001Y-121088549D01*
X68958786Y-120991950D01*
X68921095Y-120900956D01*
X68866376Y-120819064D01*
X68844065Y-120796753D01*
X71128000Y-120796753D01*
X71128000Y-120895245D01*
X71147215Y-120991844D01*
X71184906Y-121082838D01*
X71239625Y-121164730D01*
X71309269Y-121234374D01*
X71391161Y-121289093D01*
X71482155Y-121326784D01*
X71578754Y-121345999D01*
X71677246Y-121345999D01*
X71773845Y-121326784D01*
X71864839Y-121289093D01*
X71946731Y-121234374D01*
X72016375Y-121164730D01*
X72071094Y-121082838D01*
X72108785Y-120991844D01*
X72128000Y-120895245D01*
X72128000Y-120796753D01*
X72108785Y-120700154D01*
X72071094Y-120609160D01*
X72016375Y-120527268D01*
X71972833Y-120483726D01*
X72027845Y-120472783D01*
X72118839Y-120435092D01*
X72200731Y-120380373D01*
X72270375Y-120310729D01*
X72325094Y-120228837D01*
X72362785Y-120137843D01*
X72382000Y-120041244D01*
X72382000Y-119942752D01*
X72362785Y-119846153D01*
X72325094Y-119755159D01*
X72270375Y-119673267D01*
X72200731Y-119603623D01*
X72118839Y-119548904D01*
X72027845Y-119511213D01*
X71931246Y-119491998D01*
X71832754Y-119491998D01*
X71736155Y-119511213D01*
X71645161Y-119548904D01*
X71563269Y-119603623D01*
X71493625Y-119673267D01*
X71438906Y-119755159D01*
X71401215Y-119846153D01*
X71382000Y-119942752D01*
X71382000Y-120041244D01*
X71401215Y-120137843D01*
X71438906Y-120228837D01*
X71493625Y-120310729D01*
X71537167Y-120354271D01*
X71482155Y-120365214D01*
X71391161Y-120402905D01*
X71309269Y-120457624D01*
X71239625Y-120527268D01*
X71184906Y-120609160D01*
X71147215Y-120700154D01*
X71128000Y-120796753D01*
X68844065Y-120796753D01*
X68796732Y-120749420D01*
X68714840Y-120694701D01*
X68623846Y-120657010D01*
X68527247Y-120637795D01*
X68428755Y-120637795D01*
X68332156Y-120657010D01*
X68241162Y-120694701D01*
X68159270Y-120749420D01*
X68089626Y-120819064D01*
X68034907Y-120900956D01*
X67997216Y-120991950D01*
X67978001Y-121088549D01*
X59138753Y-121088549D01*
X59154785Y-121049845D01*
X59174000Y-120953246D01*
X59174000Y-120854754D01*
X59154785Y-120758155D01*
X59117094Y-120667161D01*
X59062375Y-120585269D01*
X58992731Y-120515625D01*
X58910839Y-120460906D01*
X58819845Y-120423215D01*
X58723246Y-120404000D01*
X58624754Y-120404000D01*
X58528155Y-120423215D01*
X58437161Y-120460906D01*
X58355269Y-120515625D01*
X58285625Y-120585269D01*
X58230906Y-120667161D01*
X58193215Y-120758155D01*
X58174000Y-120854754D01*
X57504000Y-120854754D01*
X57504000Y-119584754D01*
X64016000Y-119584754D01*
X64016000Y-119683246D01*
X64035215Y-119779845D01*
X64072906Y-119870839D01*
X64127625Y-119952731D01*
X64197269Y-120022375D01*
X64279161Y-120077094D01*
X64370155Y-120114785D01*
X64466754Y-120134000D01*
X64565246Y-120134000D01*
X64661845Y-120114785D01*
X64752839Y-120077094D01*
X64834731Y-120022375D01*
X64904375Y-119952731D01*
X64959094Y-119870839D01*
X64996785Y-119779845D01*
X65016000Y-119683246D01*
X65016000Y-119584754D01*
X64996785Y-119488155D01*
X64959094Y-119397161D01*
X64904375Y-119315269D01*
X64834731Y-119245625D01*
X64752839Y-119190906D01*
X64661845Y-119153215D01*
X64565246Y-119134000D01*
X64466754Y-119134000D01*
X64370155Y-119153215D01*
X64279161Y-119190906D01*
X64197269Y-119245625D01*
X64127625Y-119315269D01*
X64072906Y-119397161D01*
X64035215Y-119488155D01*
X64016000Y-119584754D01*
X57504000Y-119584754D01*
X57504000Y-118800412D01*
X67840280Y-118800412D01*
X67840280Y-118898904D01*
X67859495Y-118995503D01*
X67897186Y-119086497D01*
X67951905Y-119168389D01*
X68021549Y-119238033D01*
X68103441Y-119292752D01*
X68194435Y-119330443D01*
X68291034Y-119349658D01*
X68389526Y-119349658D01*
X68486125Y-119330443D01*
X68577119Y-119292752D01*
X68659011Y-119238033D01*
X68728655Y-119168389D01*
X68783374Y-119086497D01*
X68821065Y-118995503D01*
X68840280Y-118898904D01*
X68840280Y-118800412D01*
X68821065Y-118703813D01*
X68783374Y-118612819D01*
X68728655Y-118530927D01*
X68659011Y-118461283D01*
X68577119Y-118406564D01*
X68486125Y-118368873D01*
X68389526Y-118349658D01*
X68291034Y-118349658D01*
X68194435Y-118368873D01*
X68103441Y-118406564D01*
X68021549Y-118461283D01*
X67951905Y-118530927D01*
X67897186Y-118612819D01*
X67859495Y-118703813D01*
X67840280Y-118800412D01*
X57504000Y-118800412D01*
X57504000Y-118060754D01*
X61222000Y-118060754D01*
X61222000Y-118159246D01*
X61241215Y-118255845D01*
X61278906Y-118346839D01*
X61333625Y-118428731D01*
X61403269Y-118498375D01*
X61485161Y-118553094D01*
X61576155Y-118590785D01*
X61672754Y-118610000D01*
X61771246Y-118610000D01*
X61867845Y-118590785D01*
X61958839Y-118553094D01*
X62040731Y-118498375D01*
X62110375Y-118428731D01*
X62165094Y-118346839D01*
X62202785Y-118255845D01*
X62222000Y-118159246D01*
X62222000Y-118060754D01*
X62202785Y-117964155D01*
X62165094Y-117873161D01*
X62110375Y-117791269D01*
X62040731Y-117721625D01*
X61958839Y-117666906D01*
X61867845Y-117629215D01*
X61771246Y-117610000D01*
X61672754Y-117610000D01*
X61576155Y-117629215D01*
X61485161Y-117666906D01*
X61403269Y-117721625D01*
X61333625Y-117791269D01*
X61278906Y-117873161D01*
X61241215Y-117964155D01*
X61222000Y-118060754D01*
X57504000Y-118060754D01*
X57504000Y-116686000D01*
X73052000Y-116686000D01*
X73052000Y-126900894D01*
G37*
X73052000Y-126900894D02*
X73017625Y-126935269D01*
X72962906Y-127017161D01*
X72925215Y-127108155D01*
X72906000Y-127204754D01*
X72906000Y-127303246D01*
X72925215Y-127399845D01*
X72962906Y-127490839D01*
X73017625Y-127572731D01*
X73052000Y-127607106D01*
X73052000Y-131282640D01*
X73032375Y-131253269D01*
X72962731Y-131183625D01*
X72880839Y-131128906D01*
X72789845Y-131091215D01*
X72693246Y-131072000D01*
X72594754Y-131072000D01*
X72498155Y-131091215D01*
X72407161Y-131128906D01*
X72325269Y-131183625D01*
X72255625Y-131253269D01*
X72200906Y-131335161D01*
X72163215Y-131426155D01*
X72144000Y-131522754D01*
X72144000Y-131621246D01*
X72163215Y-131717845D01*
X72200906Y-131808839D01*
X72255625Y-131890731D01*
X72325269Y-131960375D01*
X72407161Y-132015094D01*
X72498155Y-132052785D01*
X72594754Y-132072000D01*
X72693246Y-132072000D01*
X72789845Y-132052785D01*
X72880839Y-132015094D01*
X72962731Y-131960375D01*
X73032375Y-131890731D01*
X73052000Y-131861360D01*
X73052000Y-132234000D01*
X57693360Y-132234000D01*
X57722731Y-132214375D01*
X57792375Y-132144731D01*
X57847094Y-132062839D01*
X57884785Y-131971845D01*
X57904000Y-131875246D01*
X57904000Y-131776754D01*
X57884785Y-131680155D01*
X57847094Y-131589161D01*
X57792375Y-131507269D01*
X57722731Y-131437625D01*
X57640839Y-131382906D01*
X57549845Y-131345215D01*
X57504000Y-131336096D01*
X57504000Y-131299904D01*
X57549845Y-131290785D01*
X57640839Y-131253094D01*
X57722731Y-131198375D01*
X57792375Y-131128731D01*
X57847094Y-131046839D01*
X57884785Y-130955845D01*
X57904000Y-130859246D01*
X57904000Y-130760754D01*
X57884785Y-130664155D01*
X57847094Y-130573161D01*
X57792375Y-130491269D01*
X57722731Y-130421625D01*
X57640839Y-130366906D01*
X57549845Y-130329215D01*
X57504000Y-130320096D01*
X57504000Y-129236754D01*
X62492000Y-129236754D01*
X62492000Y-129335246D01*
X62511215Y-129431845D01*
X62548906Y-129522839D01*
X62603625Y-129604731D01*
X62673269Y-129674375D01*
X62755161Y-129729094D01*
X62846155Y-129766785D01*
X62942754Y-129786000D01*
X63041246Y-129786000D01*
X63137845Y-129766785D01*
X63228839Y-129729094D01*
X63310731Y-129674375D01*
X63380375Y-129604731D01*
X63435094Y-129522839D01*
X63472785Y-129431845D01*
X63492000Y-129335246D01*
X63492000Y-129236754D01*
X67826000Y-129236754D01*
X67826000Y-129335246D01*
X67845215Y-129431845D01*
X67882906Y-129522839D01*
X67937625Y-129604731D01*
X68007269Y-129674375D01*
X68089161Y-129729094D01*
X68180155Y-129766785D01*
X68276754Y-129786000D01*
X68375246Y-129786000D01*
X68471845Y-129766785D01*
X68562839Y-129729094D01*
X68644731Y-129674375D01*
X68714375Y-129604731D01*
X68769094Y-129522839D01*
X68806785Y-129431845D01*
X68826000Y-129335246D01*
X68826000Y-129236754D01*
X69604000Y-129236754D01*
X69604000Y-129335246D01*
X69623215Y-129431845D01*
X69660906Y-129522839D01*
X69715625Y-129604731D01*
X69785269Y-129674375D01*
X69867161Y-129729094D01*
X69958155Y-129766785D01*
X70054754Y-129786000D01*
X70153246Y-129786000D01*
X70249845Y-129766785D01*
X70340839Y-129729094D01*
X70422731Y-129674375D01*
X70492375Y-129604731D01*
X70547094Y-129522839D01*
X70584785Y-129431845D01*
X70604000Y-129335246D01*
X70604000Y-129236754D01*
X70584785Y-129140155D01*
X70547094Y-129049161D01*
X70492375Y-128967269D01*
X70422731Y-128897625D01*
X70340839Y-128842906D01*
X70249845Y-128805215D01*
X70153246Y-128786000D01*
X70054754Y-128786000D01*
X69958155Y-128805215D01*
X69867161Y-128842906D01*
X69785269Y-128897625D01*
X69715625Y-128967269D01*
X69660906Y-129049161D01*
X69623215Y-129140155D01*
X69604000Y-129236754D01*
X68826000Y-129236754D01*
X68806785Y-129140155D01*
X68769094Y-129049161D01*
X68714375Y-128967269D01*
X68644731Y-128897625D01*
X68562839Y-128842906D01*
X68471845Y-128805215D01*
X68375246Y-128786000D01*
X68276754Y-128786000D01*
X68180155Y-128805215D01*
X68089161Y-128842906D01*
X68007269Y-128897625D01*
X67937625Y-128967269D01*
X67882906Y-129049161D01*
X67845215Y-129140155D01*
X67826000Y-129236754D01*
X63492000Y-129236754D01*
X63472785Y-129140155D01*
X63435094Y-129049161D01*
X63380375Y-128967269D01*
X63310731Y-128897625D01*
X63228839Y-128842906D01*
X63137845Y-128805215D01*
X63041246Y-128786000D01*
X62942754Y-128786000D01*
X62846155Y-128805215D01*
X62755161Y-128842906D01*
X62673269Y-128897625D01*
X62603625Y-128967269D01*
X62548906Y-129049161D01*
X62511215Y-129140155D01*
X62492000Y-129236754D01*
X57504000Y-129236754D01*
X57504000Y-127435439D01*
X58150685Y-127435439D01*
X58150685Y-127533931D01*
X58169900Y-127630530D01*
X58207591Y-127721524D01*
X58262310Y-127803416D01*
X58331954Y-127873060D01*
X58413846Y-127927779D01*
X58504840Y-127965470D01*
X58601439Y-127984685D01*
X58699931Y-127984685D01*
X58796530Y-127965470D01*
X58887524Y-127927779D01*
X58969416Y-127873060D01*
X59039060Y-127803416D01*
X59093779Y-127721524D01*
X59131470Y-127630530D01*
X59150685Y-127533931D01*
X59150685Y-127479891D01*
X59983877Y-127479891D01*
X59983877Y-127578383D01*
X60003092Y-127674982D01*
X60040783Y-127765976D01*
X60095502Y-127847868D01*
X60165146Y-127917512D01*
X60247038Y-127972231D01*
X60338032Y-128009922D01*
X60434631Y-128029137D01*
X60533123Y-128029137D01*
X60629722Y-128009922D01*
X60720716Y-127972231D01*
X60802608Y-127917512D01*
X60872252Y-127847868D01*
X60926971Y-127765976D01*
X60949016Y-127712754D01*
X61476000Y-127712754D01*
X61476000Y-127811246D01*
X61495215Y-127907845D01*
X61532906Y-127998839D01*
X61587625Y-128080731D01*
X61657269Y-128150375D01*
X61739161Y-128205094D01*
X61830155Y-128242785D01*
X61926754Y-128262000D01*
X62025246Y-128262000D01*
X62121845Y-128242785D01*
X62212839Y-128205094D01*
X62294731Y-128150375D01*
X62364375Y-128080731D01*
X62419094Y-127998839D01*
X62456785Y-127907845D01*
X62476000Y-127811246D01*
X62476000Y-127712754D01*
X62456785Y-127616155D01*
X62419094Y-127525161D01*
X62374722Y-127458754D01*
X67826000Y-127458754D01*
X67826000Y-127557246D01*
X67845215Y-127653845D01*
X67882906Y-127744839D01*
X67937625Y-127826731D01*
X68007269Y-127896375D01*
X68089161Y-127951094D01*
X68180155Y-127988785D01*
X68276754Y-128008000D01*
X68375246Y-128008000D01*
X68471845Y-127988785D01*
X68525032Y-127966754D01*
X71128000Y-127966754D01*
X71128000Y-128065246D01*
X71147215Y-128161845D01*
X71184906Y-128252839D01*
X71239625Y-128334731D01*
X71309269Y-128404375D01*
X71391161Y-128459094D01*
X71482155Y-128496785D01*
X71578754Y-128516000D01*
X71677246Y-128516000D01*
X71773845Y-128496785D01*
X71864839Y-128459094D01*
X71946731Y-128404375D01*
X72016375Y-128334731D01*
X72071094Y-128252839D01*
X72108785Y-128161845D01*
X72128000Y-128065246D01*
X72128000Y-127966754D01*
X72108785Y-127870155D01*
X72071094Y-127779161D01*
X72016375Y-127697269D01*
X71946731Y-127627625D01*
X71864839Y-127572906D01*
X71773845Y-127535215D01*
X71677246Y-127516000D01*
X71578754Y-127516000D01*
X71482155Y-127535215D01*
X71391161Y-127572906D01*
X71309269Y-127627625D01*
X71239625Y-127697269D01*
X71184906Y-127779161D01*
X71147215Y-127870155D01*
X71128000Y-127966754D01*
X68525032Y-127966754D01*
X68562839Y-127951094D01*
X68644731Y-127896375D01*
X68714375Y-127826731D01*
X68769094Y-127744839D01*
X68806785Y-127653845D01*
X68826000Y-127557246D01*
X68826000Y-127458754D01*
X68806785Y-127362155D01*
X68769094Y-127271161D01*
X68714375Y-127189269D01*
X68644731Y-127119625D01*
X68562839Y-127064906D01*
X68471845Y-127027215D01*
X68375246Y-127008000D01*
X68276754Y-127008000D01*
X68180155Y-127027215D01*
X68089161Y-127064906D01*
X68007269Y-127119625D01*
X67937625Y-127189269D01*
X67882906Y-127271161D01*
X67845215Y-127362155D01*
X67826000Y-127458754D01*
X62374722Y-127458754D01*
X62364375Y-127443269D01*
X62294731Y-127373625D01*
X62212839Y-127318906D01*
X62121845Y-127281215D01*
X62025246Y-127262000D01*
X61926754Y-127262000D01*
X61830155Y-127281215D01*
X61739161Y-127318906D01*
X61657269Y-127373625D01*
X61587625Y-127443269D01*
X61532906Y-127525161D01*
X61495215Y-127616155D01*
X61476000Y-127712754D01*
X60949016Y-127712754D01*
X60964662Y-127674982D01*
X60983877Y-127578383D01*
X60983877Y-127479891D01*
X60964662Y-127383292D01*
X60926971Y-127292298D01*
X60872252Y-127210406D01*
X60802608Y-127140762D01*
X60720716Y-127086043D01*
X60629722Y-127048352D01*
X60533123Y-127029137D01*
X60434631Y-127029137D01*
X60338032Y-127048352D01*
X60247038Y-127086043D01*
X60165146Y-127140762D01*
X60095502Y-127210406D01*
X60040783Y-127292298D01*
X60003092Y-127383292D01*
X59983877Y-127479891D01*
X59150685Y-127479891D01*
X59150685Y-127435439D01*
X59131470Y-127338840D01*
X59093779Y-127247846D01*
X59039060Y-127165954D01*
X58969416Y-127096310D01*
X58887524Y-127041591D01*
X58796530Y-127003900D01*
X58699931Y-126984685D01*
X58601439Y-126984685D01*
X58504840Y-127003900D01*
X58413846Y-127041591D01*
X58331954Y-127096310D01*
X58262310Y-127165954D01*
X58207591Y-127247846D01*
X58169900Y-127338840D01*
X58150685Y-127435439D01*
X57504000Y-127435439D01*
X57504000Y-126866325D01*
X57557372Y-126812953D01*
X57612091Y-126731061D01*
X57614015Y-126726416D01*
X60748848Y-126726416D01*
X60748848Y-126824908D01*
X60768063Y-126921507D01*
X60805754Y-127012501D01*
X60860473Y-127094393D01*
X60930117Y-127164037D01*
X61012009Y-127218756D01*
X61103003Y-127256447D01*
X61199602Y-127275662D01*
X61298094Y-127275662D01*
X61394693Y-127256447D01*
X61485687Y-127218756D01*
X61567579Y-127164037D01*
X61637223Y-127094393D01*
X61691942Y-127012501D01*
X61729633Y-126921507D01*
X61740596Y-126866392D01*
X62322362Y-126866392D01*
X62322362Y-126964884D01*
X62341577Y-127061483D01*
X62379268Y-127152477D01*
X62433987Y-127234369D01*
X62503631Y-127304013D01*
X62585523Y-127358732D01*
X62676517Y-127396423D01*
X62773116Y-127415638D01*
X62871608Y-127415638D01*
X62968207Y-127396423D01*
X63059201Y-127358732D01*
X63141093Y-127304013D01*
X63210737Y-127234369D01*
X63265456Y-127152477D01*
X63303147Y-127061483D01*
X63322362Y-126964884D01*
X63322362Y-126866392D01*
X63303147Y-126769793D01*
X63272894Y-126696754D01*
X64778000Y-126696754D01*
X64778000Y-126795246D01*
X64797215Y-126891845D01*
X64834906Y-126982839D01*
X64889625Y-127064731D01*
X64959269Y-127134375D01*
X65041161Y-127189094D01*
X65132155Y-127226785D01*
X65228754Y-127246000D01*
X65327246Y-127246000D01*
X65423845Y-127226785D01*
X65514839Y-127189094D01*
X65596731Y-127134375D01*
X65666375Y-127064731D01*
X65721094Y-126982839D01*
X65734384Y-126950754D01*
X71128000Y-126950754D01*
X71128000Y-127049246D01*
X71147215Y-127145845D01*
X71184906Y-127236839D01*
X71239625Y-127318731D01*
X71309269Y-127388375D01*
X71391161Y-127443094D01*
X71482155Y-127480785D01*
X71578754Y-127500000D01*
X71677246Y-127500000D01*
X71773845Y-127480785D01*
X71864839Y-127443094D01*
X71946731Y-127388375D01*
X72016375Y-127318731D01*
X72071094Y-127236839D01*
X72108785Y-127145845D01*
X72128000Y-127049246D01*
X72128000Y-126950754D01*
X72108785Y-126854155D01*
X72071094Y-126763161D01*
X72016375Y-126681269D01*
X71946731Y-126611625D01*
X71864839Y-126556906D01*
X71773845Y-126519215D01*
X71677246Y-126500000D01*
X71578754Y-126500000D01*
X71482155Y-126519215D01*
X71391161Y-126556906D01*
X71309269Y-126611625D01*
X71239625Y-126681269D01*
X71184906Y-126763161D01*
X71147215Y-126854155D01*
X71128000Y-126950754D01*
X65734384Y-126950754D01*
X65758785Y-126891845D01*
X65778000Y-126795246D01*
X65778000Y-126696754D01*
X65758785Y-126600155D01*
X65721094Y-126509161D01*
X65666375Y-126427269D01*
X65596731Y-126357625D01*
X65514839Y-126302906D01*
X65423845Y-126265215D01*
X65327246Y-126246000D01*
X65228754Y-126246000D01*
X65132155Y-126265215D01*
X65041161Y-126302906D01*
X64959269Y-126357625D01*
X64889625Y-126427269D01*
X64834906Y-126509161D01*
X64797215Y-126600155D01*
X64778000Y-126696754D01*
X63272894Y-126696754D01*
X63265456Y-126678799D01*
X63210737Y-126596907D01*
X63141093Y-126527263D01*
X63059201Y-126472544D01*
X62968207Y-126434853D01*
X62871608Y-126415638D01*
X62773116Y-126415638D01*
X62676517Y-126434853D01*
X62585523Y-126472544D01*
X62503631Y-126527263D01*
X62433987Y-126596907D01*
X62379268Y-126678799D01*
X62341577Y-126769793D01*
X62322362Y-126866392D01*
X61740596Y-126866392D01*
X61748848Y-126824908D01*
X61748848Y-126726416D01*
X61729633Y-126629817D01*
X61691942Y-126538823D01*
X61637223Y-126456931D01*
X61567579Y-126387287D01*
X61485687Y-126332568D01*
X61394693Y-126294877D01*
X61298094Y-126275662D01*
X61199602Y-126275662D01*
X61103003Y-126294877D01*
X61012009Y-126332568D01*
X60930117Y-126387287D01*
X60860473Y-126456931D01*
X60805754Y-126538823D01*
X60768063Y-126629817D01*
X60748848Y-126726416D01*
X57614015Y-126726416D01*
X57649782Y-126640067D01*
X57668997Y-126543468D01*
X57668997Y-126444976D01*
X57649782Y-126348377D01*
X57612091Y-126257383D01*
X57557372Y-126175491D01*
X57504000Y-126122119D01*
X57504000Y-126085938D01*
X61615143Y-126085938D01*
X61615143Y-126184430D01*
X61634358Y-126281029D01*
X61672049Y-126372023D01*
X61726768Y-126453915D01*
X61796412Y-126523559D01*
X61878304Y-126578278D01*
X61969298Y-126615969D01*
X62065897Y-126635184D01*
X62164389Y-126635184D01*
X62260988Y-126615969D01*
X62351982Y-126578278D01*
X62433874Y-126523559D01*
X62503518Y-126453915D01*
X62558237Y-126372023D01*
X62595928Y-126281029D01*
X62615143Y-126184430D01*
X62615143Y-126085938D01*
X62595928Y-125989339D01*
X62558237Y-125898345D01*
X62503518Y-125816453D01*
X62433874Y-125746809D01*
X62351982Y-125692090D01*
X62260988Y-125654399D01*
X62164389Y-125635184D01*
X62065897Y-125635184D01*
X61969298Y-125654399D01*
X61878304Y-125692090D01*
X61796412Y-125746809D01*
X61726768Y-125816453D01*
X61672049Y-125898345D01*
X61634358Y-125989339D01*
X61615143Y-126085938D01*
X57504000Y-126085938D01*
X57504000Y-125192886D01*
X62476095Y-125192886D01*
X62476095Y-125291378D01*
X62495310Y-125387977D01*
X62533001Y-125478971D01*
X62587720Y-125560863D01*
X62657364Y-125630507D01*
X62739256Y-125685226D01*
X62830250Y-125722917D01*
X62926849Y-125742132D01*
X63025341Y-125742132D01*
X63121940Y-125722917D01*
X63212934Y-125685226D01*
X63294826Y-125630507D01*
X63364470Y-125560863D01*
X63419189Y-125478971D01*
X63456880Y-125387977D01*
X63476095Y-125291378D01*
X63476095Y-125192886D01*
X67079905Y-125192886D01*
X67079905Y-125291378D01*
X67099120Y-125387977D01*
X67136811Y-125478971D01*
X67191530Y-125560863D01*
X67261174Y-125630507D01*
X67343066Y-125685226D01*
X67434060Y-125722917D01*
X67530659Y-125742132D01*
X67629151Y-125742132D01*
X67725750Y-125722917D01*
X67816744Y-125685226D01*
X67898636Y-125630507D01*
X67968280Y-125560863D01*
X68022999Y-125478971D01*
X68060690Y-125387977D01*
X68079905Y-125291378D01*
X68079905Y-125192886D01*
X68060690Y-125096287D01*
X68022999Y-125005293D01*
X67968280Y-124923401D01*
X67898636Y-124853757D01*
X67816744Y-124799038D01*
X67725750Y-124761347D01*
X67629151Y-124742132D01*
X67530659Y-124742132D01*
X67434060Y-124761347D01*
X67343066Y-124799038D01*
X67261174Y-124853757D01*
X67191530Y-124923401D01*
X67136811Y-125005293D01*
X67099120Y-125096287D01*
X67079905Y-125192886D01*
X63476095Y-125192886D01*
X63456880Y-125096287D01*
X63419189Y-125005293D01*
X63364470Y-124923401D01*
X63294826Y-124853757D01*
X63212934Y-124799038D01*
X63121940Y-124761347D01*
X63025341Y-124742132D01*
X62926849Y-124742132D01*
X62830250Y-124761347D01*
X62739256Y-124799038D01*
X62657364Y-124853757D01*
X62587720Y-124923401D01*
X62533001Y-125005293D01*
X62495310Y-125096287D01*
X62476095Y-125192886D01*
X57504000Y-125192886D01*
X57504000Y-124410753D01*
X61700204Y-124410753D01*
X61700204Y-124509245D01*
X61719419Y-124605844D01*
X61757110Y-124696838D01*
X61811829Y-124778730D01*
X61881473Y-124848374D01*
X61963365Y-124903093D01*
X62054359Y-124940784D01*
X62150958Y-124959999D01*
X62249450Y-124959999D01*
X62346049Y-124940784D01*
X62437043Y-124903093D01*
X62518935Y-124848374D01*
X62588579Y-124778730D01*
X62643298Y-124696838D01*
X62680989Y-124605844D01*
X62700204Y-124509245D01*
X62700204Y-124410753D01*
X62680989Y-124314154D01*
X62643298Y-124223160D01*
X62588579Y-124141268D01*
X62518935Y-124071624D01*
X62437043Y-124016905D01*
X62346049Y-123979214D01*
X62249450Y-123959999D01*
X62150958Y-123959999D01*
X62054359Y-123979214D01*
X61963365Y-124016905D01*
X61881473Y-124071624D01*
X61811829Y-124141268D01*
X61757110Y-124223160D01*
X61719419Y-124314154D01*
X61700204Y-124410753D01*
X57504000Y-124410753D01*
X57504000Y-123648754D01*
X63254000Y-123648754D01*
X63254000Y-123747246D01*
X63273215Y-123843845D01*
X63310906Y-123934839D01*
X63365625Y-124016731D01*
X63435269Y-124086375D01*
X63517161Y-124141094D01*
X63608155Y-124178785D01*
X63704754Y-124198000D01*
X63803246Y-124198000D01*
X63899845Y-124178785D01*
X63990839Y-124141094D01*
X64072731Y-124086375D01*
X64142375Y-124016731D01*
X64197094Y-123934839D01*
X64234785Y-123843845D01*
X64254000Y-123747246D01*
X64254000Y-123648754D01*
X64778000Y-123648754D01*
X64778000Y-123747246D01*
X64797215Y-123843845D01*
X64834906Y-123934839D01*
X64889625Y-124016731D01*
X64959269Y-124086375D01*
X65041161Y-124141094D01*
X65132155Y-124178785D01*
X65228754Y-124198000D01*
X65327246Y-124198000D01*
X65423845Y-124178785D01*
X65514839Y-124141094D01*
X65596731Y-124086375D01*
X65666375Y-124016731D01*
X65721094Y-123934839D01*
X65758785Y-123843845D01*
X65778000Y-123747246D01*
X65778000Y-123648754D01*
X65758785Y-123552155D01*
X65721094Y-123461161D01*
X65666375Y-123379269D01*
X65596731Y-123309625D01*
X65514839Y-123254906D01*
X65423845Y-123217215D01*
X65327246Y-123198000D01*
X65228754Y-123198000D01*
X65132155Y-123217215D01*
X65041161Y-123254906D01*
X64959269Y-123309625D01*
X64889625Y-123379269D01*
X64834906Y-123461161D01*
X64797215Y-123552155D01*
X64778000Y-123648754D01*
X64254000Y-123648754D01*
X64234785Y-123552155D01*
X64197094Y-123461161D01*
X64142375Y-123379269D01*
X64072731Y-123309625D01*
X63990839Y-123254906D01*
X63899845Y-123217215D01*
X63803246Y-123198000D01*
X63704754Y-123198000D01*
X63608155Y-123217215D01*
X63517161Y-123254906D01*
X63435269Y-123309625D01*
X63365625Y-123379269D01*
X63310906Y-123461161D01*
X63273215Y-123552155D01*
X63254000Y-123648754D01*
X57504000Y-123648754D01*
X57504000Y-122886754D01*
X59952000Y-122886754D01*
X59952000Y-122985246D01*
X59971215Y-123081845D01*
X60008906Y-123172839D01*
X60063625Y-123254731D01*
X60133269Y-123324375D01*
X60215161Y-123379094D01*
X60306155Y-123416785D01*
X60402754Y-123436000D01*
X60501246Y-123436000D01*
X60597845Y-123416785D01*
X60688839Y-123379094D01*
X60770731Y-123324375D01*
X60840375Y-123254731D01*
X60895094Y-123172839D01*
X60932785Y-123081845D01*
X60952000Y-122985246D01*
X60952000Y-122886754D01*
X60932785Y-122790155D01*
X60895094Y-122699161D01*
X60888004Y-122688550D01*
X65578001Y-122688550D01*
X65578001Y-122787042D01*
X65597216Y-122883641D01*
X65634907Y-122974635D01*
X65689626Y-123056527D01*
X65759270Y-123126171D01*
X65841162Y-123180890D01*
X65932156Y-123218581D01*
X66028755Y-123237796D01*
X66127247Y-123237796D01*
X66223846Y-123218581D01*
X66314840Y-123180890D01*
X66396732Y-123126171D01*
X66466376Y-123056527D01*
X66521095Y-122974635D01*
X66557496Y-122886754D01*
X67826000Y-122886754D01*
X67826000Y-122985246D01*
X67845215Y-123081845D01*
X67882906Y-123172839D01*
X67937625Y-123254731D01*
X67999894Y-123317000D01*
X67937625Y-123379269D01*
X67882906Y-123461161D01*
X67845215Y-123552155D01*
X67826000Y-123648754D01*
X67826000Y-123747246D01*
X67845215Y-123843845D01*
X67882906Y-123934839D01*
X67937625Y-124016731D01*
X68007269Y-124086375D01*
X68089161Y-124141094D01*
X68180155Y-124178785D01*
X68276754Y-124198000D01*
X68375246Y-124198000D01*
X68471845Y-124178785D01*
X68562839Y-124141094D01*
X68644731Y-124086375D01*
X68714375Y-124016731D01*
X68769094Y-123934839D01*
X68782384Y-123902754D01*
X71382000Y-123902754D01*
X71382000Y-124001246D01*
X71401215Y-124097845D01*
X71438906Y-124188839D01*
X71493625Y-124270731D01*
X71563269Y-124340375D01*
X71645161Y-124395094D01*
X71736155Y-124432785D01*
X71832754Y-124452000D01*
X71931246Y-124452000D01*
X72027845Y-124432785D01*
X72118839Y-124395094D01*
X72200731Y-124340375D01*
X72270375Y-124270731D01*
X72325094Y-124188839D01*
X72362785Y-124097845D01*
X72382000Y-124001246D01*
X72382000Y-123902754D01*
X72362785Y-123806155D01*
X72325094Y-123715161D01*
X72270375Y-123633269D01*
X72200731Y-123563625D01*
X72118839Y-123508906D01*
X72027845Y-123471215D01*
X71931246Y-123452000D01*
X71832754Y-123452000D01*
X71736155Y-123471215D01*
X71645161Y-123508906D01*
X71563269Y-123563625D01*
X71493625Y-123633269D01*
X71438906Y-123715161D01*
X71401215Y-123806155D01*
X71382000Y-123902754D01*
X68782384Y-123902754D01*
X68806785Y-123843845D01*
X68826000Y-123747246D01*
X68826000Y-123648754D01*
X68806785Y-123552155D01*
X68769094Y-123461161D01*
X68714375Y-123379269D01*
X68652106Y-123317000D01*
X68714375Y-123254731D01*
X68769094Y-123172839D01*
X68806785Y-123081845D01*
X68826000Y-122985246D01*
X68826000Y-122886754D01*
X68806785Y-122790155D01*
X68769094Y-122699161D01*
X68714375Y-122617269D01*
X68644731Y-122547625D01*
X68562839Y-122492906D01*
X68471845Y-122455215D01*
X68375246Y-122436000D01*
X68276754Y-122436000D01*
X68180155Y-122455215D01*
X68089161Y-122492906D01*
X68007269Y-122547625D01*
X67937625Y-122617269D01*
X67882906Y-122699161D01*
X67845215Y-122790155D01*
X67826000Y-122886754D01*
X66557496Y-122886754D01*
X66558786Y-122883641D01*
X66578001Y-122787042D01*
X66578001Y-122688550D01*
X66558786Y-122591951D01*
X66521095Y-122500957D01*
X66466376Y-122419065D01*
X66396732Y-122349421D01*
X66314840Y-122294702D01*
X66223846Y-122257011D01*
X66127247Y-122237796D01*
X66028755Y-122237796D01*
X65932156Y-122257011D01*
X65841162Y-122294702D01*
X65759270Y-122349421D01*
X65689626Y-122419065D01*
X65634907Y-122500957D01*
X65597216Y-122591951D01*
X65578001Y-122688550D01*
X60888004Y-122688550D01*
X60840375Y-122617269D01*
X60770731Y-122547625D01*
X60688839Y-122492906D01*
X60597845Y-122455215D01*
X60501246Y-122436000D01*
X60402754Y-122436000D01*
X60306155Y-122455215D01*
X60215161Y-122492906D01*
X60133269Y-122547625D01*
X60063625Y-122617269D01*
X60008906Y-122699161D01*
X59971215Y-122790155D01*
X59952000Y-122886754D01*
X57504000Y-122886754D01*
X57504000Y-120854754D01*
X58174000Y-120854754D01*
X58174000Y-120953246D01*
X58193215Y-121049845D01*
X58230906Y-121140839D01*
X58285625Y-121222731D01*
X58355269Y-121292375D01*
X58437161Y-121347094D01*
X58528155Y-121384785D01*
X58624754Y-121404000D01*
X58723246Y-121404000D01*
X58819845Y-121384785D01*
X58910839Y-121347094D01*
X58992731Y-121292375D01*
X59062375Y-121222731D01*
X59117094Y-121140839D01*
X59138753Y-121088549D01*
X67978001Y-121088549D01*
X67978001Y-121187041D01*
X67997216Y-121283640D01*
X68034907Y-121374634D01*
X68089626Y-121456526D01*
X68159270Y-121526170D01*
X68241162Y-121580889D01*
X68332156Y-121618580D01*
X68428755Y-121637795D01*
X68527247Y-121637795D01*
X68623846Y-121618580D01*
X68714840Y-121580889D01*
X68796732Y-121526170D01*
X68866376Y-121456526D01*
X68921095Y-121374634D01*
X68958786Y-121283640D01*
X68978001Y-121187041D01*
X68978001Y-121088549D01*
X68958786Y-120991950D01*
X68921095Y-120900956D01*
X68866376Y-120819064D01*
X68844065Y-120796753D01*
X71128000Y-120796753D01*
X71128000Y-120895245D01*
X71147215Y-120991844D01*
X71184906Y-121082838D01*
X71239625Y-121164730D01*
X71309269Y-121234374D01*
X71391161Y-121289093D01*
X71482155Y-121326784D01*
X71578754Y-121345999D01*
X71677246Y-121345999D01*
X71773845Y-121326784D01*
X71864839Y-121289093D01*
X71946731Y-121234374D01*
X72016375Y-121164730D01*
X72071094Y-121082838D01*
X72108785Y-120991844D01*
X72128000Y-120895245D01*
X72128000Y-120796753D01*
X72108785Y-120700154D01*
X72071094Y-120609160D01*
X72016375Y-120527268D01*
X71972833Y-120483726D01*
X72027845Y-120472783D01*
X72118839Y-120435092D01*
X72200731Y-120380373D01*
X72270375Y-120310729D01*
X72325094Y-120228837D01*
X72362785Y-120137843D01*
X72382000Y-120041244D01*
X72382000Y-119942752D01*
X72362785Y-119846153D01*
X72325094Y-119755159D01*
X72270375Y-119673267D01*
X72200731Y-119603623D01*
X72118839Y-119548904D01*
X72027845Y-119511213D01*
X71931246Y-119491998D01*
X71832754Y-119491998D01*
X71736155Y-119511213D01*
X71645161Y-119548904D01*
X71563269Y-119603623D01*
X71493625Y-119673267D01*
X71438906Y-119755159D01*
X71401215Y-119846153D01*
X71382000Y-119942752D01*
X71382000Y-120041244D01*
X71401215Y-120137843D01*
X71438906Y-120228837D01*
X71493625Y-120310729D01*
X71537167Y-120354271D01*
X71482155Y-120365214D01*
X71391161Y-120402905D01*
X71309269Y-120457624D01*
X71239625Y-120527268D01*
X71184906Y-120609160D01*
X71147215Y-120700154D01*
X71128000Y-120796753D01*
X68844065Y-120796753D01*
X68796732Y-120749420D01*
X68714840Y-120694701D01*
X68623846Y-120657010D01*
X68527247Y-120637795D01*
X68428755Y-120637795D01*
X68332156Y-120657010D01*
X68241162Y-120694701D01*
X68159270Y-120749420D01*
X68089626Y-120819064D01*
X68034907Y-120900956D01*
X67997216Y-120991950D01*
X67978001Y-121088549D01*
X59138753Y-121088549D01*
X59154785Y-121049845D01*
X59174000Y-120953246D01*
X59174000Y-120854754D01*
X59154785Y-120758155D01*
X59117094Y-120667161D01*
X59062375Y-120585269D01*
X58992731Y-120515625D01*
X58910839Y-120460906D01*
X58819845Y-120423215D01*
X58723246Y-120404000D01*
X58624754Y-120404000D01*
X58528155Y-120423215D01*
X58437161Y-120460906D01*
X58355269Y-120515625D01*
X58285625Y-120585269D01*
X58230906Y-120667161D01*
X58193215Y-120758155D01*
X58174000Y-120854754D01*
X57504000Y-120854754D01*
X57504000Y-119584754D01*
X64016000Y-119584754D01*
X64016000Y-119683246D01*
X64035215Y-119779845D01*
X64072906Y-119870839D01*
X64127625Y-119952731D01*
X64197269Y-120022375D01*
X64279161Y-120077094D01*
X64370155Y-120114785D01*
X64466754Y-120134000D01*
X64565246Y-120134000D01*
X64661845Y-120114785D01*
X64752839Y-120077094D01*
X64834731Y-120022375D01*
X64904375Y-119952731D01*
X64959094Y-119870839D01*
X64996785Y-119779845D01*
X65016000Y-119683246D01*
X65016000Y-119584754D01*
X64996785Y-119488155D01*
X64959094Y-119397161D01*
X64904375Y-119315269D01*
X64834731Y-119245625D01*
X64752839Y-119190906D01*
X64661845Y-119153215D01*
X64565246Y-119134000D01*
X64466754Y-119134000D01*
X64370155Y-119153215D01*
X64279161Y-119190906D01*
X64197269Y-119245625D01*
X64127625Y-119315269D01*
X64072906Y-119397161D01*
X64035215Y-119488155D01*
X64016000Y-119584754D01*
X57504000Y-119584754D01*
X57504000Y-118800412D01*
X67840280Y-118800412D01*
X67840280Y-118898904D01*
X67859495Y-118995503D01*
X67897186Y-119086497D01*
X67951905Y-119168389D01*
X68021549Y-119238033D01*
X68103441Y-119292752D01*
X68194435Y-119330443D01*
X68291034Y-119349658D01*
X68389526Y-119349658D01*
X68486125Y-119330443D01*
X68577119Y-119292752D01*
X68659011Y-119238033D01*
X68728655Y-119168389D01*
X68783374Y-119086497D01*
X68821065Y-118995503D01*
X68840280Y-118898904D01*
X68840280Y-118800412D01*
X68821065Y-118703813D01*
X68783374Y-118612819D01*
X68728655Y-118530927D01*
X68659011Y-118461283D01*
X68577119Y-118406564D01*
X68486125Y-118368873D01*
X68389526Y-118349658D01*
X68291034Y-118349658D01*
X68194435Y-118368873D01*
X68103441Y-118406564D01*
X68021549Y-118461283D01*
X67951905Y-118530927D01*
X67897186Y-118612819D01*
X67859495Y-118703813D01*
X67840280Y-118800412D01*
X57504000Y-118800412D01*
X57504000Y-118060754D01*
X61222000Y-118060754D01*
X61222000Y-118159246D01*
X61241215Y-118255845D01*
X61278906Y-118346839D01*
X61333625Y-118428731D01*
X61403269Y-118498375D01*
X61485161Y-118553094D01*
X61576155Y-118590785D01*
X61672754Y-118610000D01*
X61771246Y-118610000D01*
X61867845Y-118590785D01*
X61958839Y-118553094D01*
X62040731Y-118498375D01*
X62110375Y-118428731D01*
X62165094Y-118346839D01*
X62202785Y-118255845D01*
X62222000Y-118159246D01*
X62222000Y-118060754D01*
X62202785Y-117964155D01*
X62165094Y-117873161D01*
X62110375Y-117791269D01*
X62040731Y-117721625D01*
X61958839Y-117666906D01*
X61867845Y-117629215D01*
X61771246Y-117610000D01*
X61672754Y-117610000D01*
X61576155Y-117629215D01*
X61485161Y-117666906D01*
X61403269Y-117721625D01*
X61333625Y-117791269D01*
X61278906Y-117873161D01*
X61241215Y-117964155D01*
X61222000Y-118060754D01*
X57504000Y-118060754D01*
X57504000Y-116686000D01*
X73052000Y-116686000D01*
X73052000Y-126900894D01*
%TD*%
M02*
