%TF.GenerationSoftware,KiCad,Pcbnew,5.1.6*%
%TF.CreationDate,2021-04-23T20:35:47+02:00*%
%TF.ProjectId,nhci,6e686369-2e6b-4696-9361-645f70636258,rev?*%
%TF.SameCoordinates,Original*%
%TF.FileFunction,Copper,L4,Bot*%
%TF.FilePolarity,Positive*%
%FSLAX46Y46*%
G04 Gerber Fmt 4.6, Leading zero omitted, Abs format (unit mm)*
G04 Created by KiCad (PCBNEW 5.1.6) date 2021-04-23 20:35:47*
%MOMM*%
%LPD*%
G01*
G04 APERTURE LIST*
%TA.AperFunction,SMDPad,CuDef*%
%ADD10R,1.400000X1.700000*%
%TD*%
%TA.AperFunction,SMDPad,CuDef*%
%ADD11R,0.300000X1.700000*%
%TD*%
%TA.AperFunction,ViaPad*%
%ADD12C,0.400000*%
%TD*%
%TA.AperFunction,ViaPad*%
%ADD13C,0.800000*%
%TD*%
%TA.AperFunction,Conductor*%
%ADD14C,0.200000*%
%TD*%
%TA.AperFunction,Conductor*%
%ADD15C,0.250000*%
%TD*%
G04 APERTURE END LIST*
%TO.P,R26,2*%
%TO.N,+3V3*%
%TA.AperFunction,SMDPad,CuDef*%
G36*
G01*
X53634000Y-130347500D02*
X53634000Y-130002500D01*
G75*
G02*
X53781500Y-129855000I147500J0D01*
G01*
X54076500Y-129855000D01*
G75*
G02*
X54224000Y-130002500I0J-147500D01*
G01*
X54224000Y-130347500D01*
G75*
G02*
X54076500Y-130495000I-147500J0D01*
G01*
X53781500Y-130495000D01*
G75*
G02*
X53634000Y-130347500I0J147500D01*
G01*
G37*
%TD.AperFunction*%
%TO.P,R26,1*%
%TO.N,Net-(J1-Pad7)*%
%TA.AperFunction,SMDPad,CuDef*%
G36*
G01*
X52664000Y-130347500D02*
X52664000Y-130002500D01*
G75*
G02*
X52811500Y-129855000I147500J0D01*
G01*
X53106500Y-129855000D01*
G75*
G02*
X53254000Y-130002500I0J-147500D01*
G01*
X53254000Y-130347500D01*
G75*
G02*
X53106500Y-130495000I-147500J0D01*
G01*
X52811500Y-130495000D01*
G75*
G02*
X52664000Y-130347500I0J147500D01*
G01*
G37*
%TD.AperFunction*%
%TD*%
%TO.P,R25,2*%
%TO.N,+3V3*%
%TA.AperFunction,SMDPad,CuDef*%
G36*
G01*
X51602000Y-129077500D02*
X51602000Y-128732500D01*
G75*
G02*
X51749500Y-128585000I147500J0D01*
G01*
X52044500Y-128585000D01*
G75*
G02*
X52192000Y-128732500I0J-147500D01*
G01*
X52192000Y-129077500D01*
G75*
G02*
X52044500Y-129225000I-147500J0D01*
G01*
X51749500Y-129225000D01*
G75*
G02*
X51602000Y-129077500I0J147500D01*
G01*
G37*
%TD.AperFunction*%
%TO.P,R25,1*%
%TO.N,Net-(J1-Pad1)*%
%TA.AperFunction,SMDPad,CuDef*%
G36*
G01*
X50632000Y-129077500D02*
X50632000Y-128732500D01*
G75*
G02*
X50779500Y-128585000I147500J0D01*
G01*
X51074500Y-128585000D01*
G75*
G02*
X51222000Y-128732500I0J-147500D01*
G01*
X51222000Y-129077500D01*
G75*
G02*
X51074500Y-129225000I-147500J0D01*
G01*
X50779500Y-129225000D01*
G75*
G02*
X50632000Y-129077500I0J147500D01*
G01*
G37*
%TD.AperFunction*%
%TD*%
D10*
%TO.P,U1,SH3*%
%TO.N,GND*%
X70106000Y-169082000D03*
%TO.P,U1,SH*%
X61466000Y-169082000D03*
D11*
%TO.P,U1,B12*%
X63036000Y-169632000D03*
%TO.P,U1,B11*%
%TO.N,Net-(U1-PadB11)*%
X63536000Y-169632000D03*
%TO.P,U1,B10*%
%TO.N,Net-(U1-PadB10)*%
X64036000Y-169632000D03*
%TO.P,U1,B9*%
%TO.N,Net-(C29-Pad1)*%
X64536000Y-169632000D03*
%TO.P,U1,B8*%
%TO.N,Net-(U1-PadB8)*%
X65036000Y-169632000D03*
%TO.P,U1,B7*%
%TO.N,Net-(R20-Pad1)*%
X65536000Y-169632000D03*
%TO.P,U1,B6*%
%TO.N,Net-(R19-Pad1)*%
X66036000Y-169632000D03*
%TO.P,U1,B5*%
%TO.N,Net-(U1-PadB5)*%
X66536000Y-169632000D03*
%TO.P,U1,B4*%
%TO.N,Net-(C29-Pad1)*%
X67036000Y-169632000D03*
%TO.P,U1,B3*%
%TO.N,Net-(U1-PadB3)*%
X67536000Y-169632000D03*
%TO.P,U1,B2*%
%TO.N,Net-(U1-PadB2)*%
X68036000Y-169632000D03*
%TO.P,U1,B1*%
%TO.N,GND*%
X68536000Y-169632000D03*
%TD*%
%TO.P,R9,2*%
%TO.N,+5V*%
%TA.AperFunction,SMDPad,CuDef*%
G36*
G01*
X73233500Y-107101000D02*
X73578500Y-107101000D01*
G75*
G02*
X73726000Y-107248500I0J-147500D01*
G01*
X73726000Y-107543500D01*
G75*
G02*
X73578500Y-107691000I-147500J0D01*
G01*
X73233500Y-107691000D01*
G75*
G02*
X73086000Y-107543500I0J147500D01*
G01*
X73086000Y-107248500D01*
G75*
G02*
X73233500Y-107101000I147500J0D01*
G01*
G37*
%TD.AperFunction*%
%TO.P,R9,1*%
%TO.N,/P_RESET*%
%TA.AperFunction,SMDPad,CuDef*%
G36*
G01*
X73233500Y-106131000D02*
X73578500Y-106131000D01*
G75*
G02*
X73726000Y-106278500I0J-147500D01*
G01*
X73726000Y-106573500D01*
G75*
G02*
X73578500Y-106721000I-147500J0D01*
G01*
X73233500Y-106721000D01*
G75*
G02*
X73086000Y-106573500I0J147500D01*
G01*
X73086000Y-106278500D01*
G75*
G02*
X73233500Y-106131000I147500J0D01*
G01*
G37*
%TD.AperFunction*%
%TD*%
%TO.P,R8,2*%
%TO.N,+5V*%
%TA.AperFunction,SMDPad,CuDef*%
G36*
G01*
X66121500Y-107101000D02*
X66466500Y-107101000D01*
G75*
G02*
X66614000Y-107248500I0J-147500D01*
G01*
X66614000Y-107543500D01*
G75*
G02*
X66466500Y-107691000I-147500J0D01*
G01*
X66121500Y-107691000D01*
G75*
G02*
X65974000Y-107543500I0J147500D01*
G01*
X65974000Y-107248500D01*
G75*
G02*
X66121500Y-107101000I147500J0D01*
G01*
G37*
%TD.AperFunction*%
%TO.P,R8,1*%
%TO.N,/P_WE*%
%TA.AperFunction,SMDPad,CuDef*%
G36*
G01*
X66121500Y-106131000D02*
X66466500Y-106131000D01*
G75*
G02*
X66614000Y-106278500I0J-147500D01*
G01*
X66614000Y-106573500D01*
G75*
G02*
X66466500Y-106721000I-147500J0D01*
G01*
X66121500Y-106721000D01*
G75*
G02*
X65974000Y-106573500I0J147500D01*
G01*
X65974000Y-106278500D01*
G75*
G02*
X66121500Y-106131000I147500J0D01*
G01*
G37*
%TD.AperFunction*%
%TD*%
%TO.P,R7,2*%
%TO.N,+5V*%
%TA.AperFunction,SMDPad,CuDef*%
G36*
G01*
X57993500Y-108879000D02*
X58338500Y-108879000D01*
G75*
G02*
X58486000Y-109026500I0J-147500D01*
G01*
X58486000Y-109321500D01*
G75*
G02*
X58338500Y-109469000I-147500J0D01*
G01*
X57993500Y-109469000D01*
G75*
G02*
X57846000Y-109321500I0J147500D01*
G01*
X57846000Y-109026500D01*
G75*
G02*
X57993500Y-108879000I147500J0D01*
G01*
G37*
%TD.AperFunction*%
%TO.P,R7,1*%
%TO.N,/P_OE*%
%TA.AperFunction,SMDPad,CuDef*%
G36*
G01*
X57993500Y-107909000D02*
X58338500Y-107909000D01*
G75*
G02*
X58486000Y-108056500I0J-147500D01*
G01*
X58486000Y-108351500D01*
G75*
G02*
X58338500Y-108499000I-147500J0D01*
G01*
X57993500Y-108499000D01*
G75*
G02*
X57846000Y-108351500I0J147500D01*
G01*
X57846000Y-108056500D01*
G75*
G02*
X57993500Y-107909000I147500J0D01*
G01*
G37*
%TD.AperFunction*%
%TD*%
%TO.P,R6,2*%
%TO.N,+5V*%
%TA.AperFunction,SMDPad,CuDef*%
G36*
G01*
X60025500Y-106870000D02*
X60370500Y-106870000D01*
G75*
G02*
X60518000Y-107017500I0J-147500D01*
G01*
X60518000Y-107312500D01*
G75*
G02*
X60370500Y-107460000I-147500J0D01*
G01*
X60025500Y-107460000D01*
G75*
G02*
X59878000Y-107312500I0J147500D01*
G01*
X59878000Y-107017500D01*
G75*
G02*
X60025500Y-106870000I147500J0D01*
G01*
G37*
%TD.AperFunction*%
%TO.P,R6,1*%
%TO.N,/P_IOWR*%
%TA.AperFunction,SMDPad,CuDef*%
G36*
G01*
X60025500Y-105900000D02*
X60370500Y-105900000D01*
G75*
G02*
X60518000Y-106047500I0J-147500D01*
G01*
X60518000Y-106342500D01*
G75*
G02*
X60370500Y-106490000I-147500J0D01*
G01*
X60025500Y-106490000D01*
G75*
G02*
X59878000Y-106342500I0J147500D01*
G01*
X59878000Y-106047500D01*
G75*
G02*
X60025500Y-105900000I147500J0D01*
G01*
G37*
%TD.AperFunction*%
%TD*%
%TO.P,R5,2*%
%TO.N,+5V*%
%TA.AperFunction,SMDPad,CuDef*%
G36*
G01*
X59009500Y-106893000D02*
X59354500Y-106893000D01*
G75*
G02*
X59502000Y-107040500I0J-147500D01*
G01*
X59502000Y-107335500D01*
G75*
G02*
X59354500Y-107483000I-147500J0D01*
G01*
X59009500Y-107483000D01*
G75*
G02*
X58862000Y-107335500I0J147500D01*
G01*
X58862000Y-107040500D01*
G75*
G02*
X59009500Y-106893000I147500J0D01*
G01*
G37*
%TD.AperFunction*%
%TO.P,R5,1*%
%TO.N,/P_IORD*%
%TA.AperFunction,SMDPad,CuDef*%
G36*
G01*
X59009500Y-105923000D02*
X59354500Y-105923000D01*
G75*
G02*
X59502000Y-106070500I0J-147500D01*
G01*
X59502000Y-106365500D01*
G75*
G02*
X59354500Y-106513000I-147500J0D01*
G01*
X59009500Y-106513000D01*
G75*
G02*
X58862000Y-106365500I0J147500D01*
G01*
X58862000Y-106070500D01*
G75*
G02*
X59009500Y-105923000I147500J0D01*
G01*
G37*
%TD.AperFunction*%
%TD*%
%TO.P,R4,2*%
%TO.N,+5V*%
%TA.AperFunction,SMDPad,CuDef*%
G36*
G01*
X75265500Y-107147000D02*
X75610500Y-107147000D01*
G75*
G02*
X75758000Y-107294500I0J-147500D01*
G01*
X75758000Y-107589500D01*
G75*
G02*
X75610500Y-107737000I-147500J0D01*
G01*
X75265500Y-107737000D01*
G75*
G02*
X75118000Y-107589500I0J147500D01*
G01*
X75118000Y-107294500D01*
G75*
G02*
X75265500Y-107147000I147500J0D01*
G01*
G37*
%TD.AperFunction*%
%TO.P,R4,1*%
%TO.N,/P_REG*%
%TA.AperFunction,SMDPad,CuDef*%
G36*
G01*
X75265500Y-106177000D02*
X75610500Y-106177000D01*
G75*
G02*
X75758000Y-106324500I0J-147500D01*
G01*
X75758000Y-106619500D01*
G75*
G02*
X75610500Y-106767000I-147500J0D01*
G01*
X75265500Y-106767000D01*
G75*
G02*
X75118000Y-106619500I0J147500D01*
G01*
X75118000Y-106324500D01*
G75*
G02*
X75265500Y-106177000I147500J0D01*
G01*
G37*
%TD.AperFunction*%
%TD*%
%TO.P,R3,2*%
%TO.N,+5V*%
%TA.AperFunction,SMDPad,CuDef*%
G36*
G01*
X57485500Y-106870000D02*
X57830500Y-106870000D01*
G75*
G02*
X57978000Y-107017500I0J-147500D01*
G01*
X57978000Y-107312500D01*
G75*
G02*
X57830500Y-107460000I-147500J0D01*
G01*
X57485500Y-107460000D01*
G75*
G02*
X57338000Y-107312500I0J147500D01*
G01*
X57338000Y-107017500D01*
G75*
G02*
X57485500Y-106870000I147500J0D01*
G01*
G37*
%TD.AperFunction*%
%TO.P,R3,1*%
%TO.N,/P_CE2*%
%TA.AperFunction,SMDPad,CuDef*%
G36*
G01*
X57485500Y-105900000D02*
X57830500Y-105900000D01*
G75*
G02*
X57978000Y-106047500I0J-147500D01*
G01*
X57978000Y-106342500D01*
G75*
G02*
X57830500Y-106490000I-147500J0D01*
G01*
X57485500Y-106490000D01*
G75*
G02*
X57338000Y-106342500I0J147500D01*
G01*
X57338000Y-106047500D01*
G75*
G02*
X57485500Y-105900000I147500J0D01*
G01*
G37*
%TD.AperFunction*%
%TD*%
%TO.P,R2,2*%
%TO.N,+5V*%
%TA.AperFunction,SMDPad,CuDef*%
G36*
G01*
X56469500Y-106870000D02*
X56814500Y-106870000D01*
G75*
G02*
X56962000Y-107017500I0J-147500D01*
G01*
X56962000Y-107312500D01*
G75*
G02*
X56814500Y-107460000I-147500J0D01*
G01*
X56469500Y-107460000D01*
G75*
G02*
X56322000Y-107312500I0J147500D01*
G01*
X56322000Y-107017500D01*
G75*
G02*
X56469500Y-106870000I147500J0D01*
G01*
G37*
%TD.AperFunction*%
%TO.P,R2,1*%
%TO.N,/P_CE1*%
%TA.AperFunction,SMDPad,CuDef*%
G36*
G01*
X56469500Y-105900000D02*
X56814500Y-105900000D01*
G75*
G02*
X56962000Y-106047500I0J-147500D01*
G01*
X56962000Y-106342500D01*
G75*
G02*
X56814500Y-106490000I-147500J0D01*
G01*
X56469500Y-106490000D01*
G75*
G02*
X56322000Y-106342500I0J147500D01*
G01*
X56322000Y-106047500D01*
G75*
G02*
X56469500Y-105900000I147500J0D01*
G01*
G37*
%TD.AperFunction*%
%TD*%
%TO.P,C20,2*%
%TO.N,GND*%
%TA.AperFunction,SMDPad,CuDef*%
G36*
G01*
X66715000Y-126156500D02*
X66715000Y-125811500D01*
G75*
G02*
X66862500Y-125664000I147500J0D01*
G01*
X67157500Y-125664000D01*
G75*
G02*
X67305000Y-125811500I0J-147500D01*
G01*
X67305000Y-126156500D01*
G75*
G02*
X67157500Y-126304000I-147500J0D01*
G01*
X66862500Y-126304000D01*
G75*
G02*
X66715000Y-126156500I0J147500D01*
G01*
G37*
%TD.AperFunction*%
%TO.P,C20,1*%
%TO.N,+1V2*%
%TA.AperFunction,SMDPad,CuDef*%
G36*
G01*
X65745000Y-126156500D02*
X65745000Y-125811500D01*
G75*
G02*
X65892500Y-125664000I147500J0D01*
G01*
X66187500Y-125664000D01*
G75*
G02*
X66335000Y-125811500I0J-147500D01*
G01*
X66335000Y-126156500D01*
G75*
G02*
X66187500Y-126304000I-147500J0D01*
G01*
X65892500Y-126304000D01*
G75*
G02*
X65745000Y-126156500I0J147500D01*
G01*
G37*
%TD.AperFunction*%
%TD*%
%TO.P,C19,2*%
%TO.N,GND*%
%TA.AperFunction,SMDPad,CuDef*%
G36*
G01*
X65105500Y-122341000D02*
X65450500Y-122341000D01*
G75*
G02*
X65598000Y-122488500I0J-147500D01*
G01*
X65598000Y-122783500D01*
G75*
G02*
X65450500Y-122931000I-147500J0D01*
G01*
X65105500Y-122931000D01*
G75*
G02*
X64958000Y-122783500I0J147500D01*
G01*
X64958000Y-122488500D01*
G75*
G02*
X65105500Y-122341000I147500J0D01*
G01*
G37*
%TD.AperFunction*%
%TO.P,C19,1*%
%TO.N,+1V2*%
%TA.AperFunction,SMDPad,CuDef*%
G36*
G01*
X65105500Y-121371000D02*
X65450500Y-121371000D01*
G75*
G02*
X65598000Y-121518500I0J-147500D01*
G01*
X65598000Y-121813500D01*
G75*
G02*
X65450500Y-121961000I-147500J0D01*
G01*
X65105500Y-121961000D01*
G75*
G02*
X64958000Y-121813500I0J147500D01*
G01*
X64958000Y-121518500D01*
G75*
G02*
X65105500Y-121371000I147500J0D01*
G01*
G37*
%TD.AperFunction*%
%TD*%
%TO.P,C18,2*%
%TO.N,GND*%
%TA.AperFunction,SMDPad,CuDef*%
G36*
G01*
X64429000Y-126156500D02*
X64429000Y-125811500D01*
G75*
G02*
X64576500Y-125664000I147500J0D01*
G01*
X64871500Y-125664000D01*
G75*
G02*
X65019000Y-125811500I0J-147500D01*
G01*
X65019000Y-126156500D01*
G75*
G02*
X64871500Y-126304000I-147500J0D01*
G01*
X64576500Y-126304000D01*
G75*
G02*
X64429000Y-126156500I0J147500D01*
G01*
G37*
%TD.AperFunction*%
%TO.P,C18,1*%
%TO.N,+1V2*%
%TA.AperFunction,SMDPad,CuDef*%
G36*
G01*
X63459000Y-126156500D02*
X63459000Y-125811500D01*
G75*
G02*
X63606500Y-125664000I147500J0D01*
G01*
X63901500Y-125664000D01*
G75*
G02*
X64049000Y-125811500I0J-147500D01*
G01*
X64049000Y-126156500D01*
G75*
G02*
X63901500Y-126304000I-147500J0D01*
G01*
X63606500Y-126304000D01*
G75*
G02*
X63459000Y-126156500I0J147500D01*
G01*
G37*
%TD.AperFunction*%
%TD*%
%TO.P,R1,2*%
%TO.N,+1V2*%
%TA.AperFunction,SMDPad,CuDef*%
G36*
G01*
X71564000Y-124886500D02*
X71564000Y-124541500D01*
G75*
G02*
X71711500Y-124394000I147500J0D01*
G01*
X72006500Y-124394000D01*
G75*
G02*
X72154000Y-124541500I0J-147500D01*
G01*
X72154000Y-124886500D01*
G75*
G02*
X72006500Y-125034000I-147500J0D01*
G01*
X71711500Y-125034000D01*
G75*
G02*
X71564000Y-124886500I0J147500D01*
G01*
G37*
%TD.AperFunction*%
%TO.P,R1,1*%
%TO.N,Net-(C15-Pad2)*%
%TA.AperFunction,SMDPad,CuDef*%
G36*
G01*
X70594000Y-124886500D02*
X70594000Y-124541500D01*
G75*
G02*
X70741500Y-124394000I147500J0D01*
G01*
X71036500Y-124394000D01*
G75*
G02*
X71184000Y-124541500I0J-147500D01*
G01*
X71184000Y-124886500D01*
G75*
G02*
X71036500Y-125034000I-147500J0D01*
G01*
X70741500Y-125034000D01*
G75*
G02*
X70594000Y-124886500I0J147500D01*
G01*
G37*
%TD.AperFunction*%
%TD*%
%TO.P,C17,2*%
%TO.N,GND*%
%TA.AperFunction,SMDPad,CuDef*%
G36*
G01*
X62656500Y-127341000D02*
X62311500Y-127341000D01*
G75*
G02*
X62164000Y-127193500I0J147500D01*
G01*
X62164000Y-126898500D01*
G75*
G02*
X62311500Y-126751000I147500J0D01*
G01*
X62656500Y-126751000D01*
G75*
G02*
X62804000Y-126898500I0J-147500D01*
G01*
X62804000Y-127193500D01*
G75*
G02*
X62656500Y-127341000I-147500J0D01*
G01*
G37*
%TD.AperFunction*%
%TO.P,C17,1*%
%TO.N,+3V3*%
%TA.AperFunction,SMDPad,CuDef*%
G36*
G01*
X62656500Y-128311000D02*
X62311500Y-128311000D01*
G75*
G02*
X62164000Y-128163500I0J147500D01*
G01*
X62164000Y-127868500D01*
G75*
G02*
X62311500Y-127721000I147500J0D01*
G01*
X62656500Y-127721000D01*
G75*
G02*
X62804000Y-127868500I0J-147500D01*
G01*
X62804000Y-128163500D01*
G75*
G02*
X62656500Y-128311000I-147500J0D01*
G01*
G37*
%TD.AperFunction*%
%TD*%
%TO.P,C16,2*%
%TO.N,Net-(C15-Pad2)*%
%TA.AperFunction,SMDPad,CuDef*%
G36*
G01*
X68885750Y-124148000D02*
X69798250Y-124148000D01*
G75*
G02*
X70042000Y-124391750I0J-243750D01*
G01*
X70042000Y-124879250D01*
G75*
G02*
X69798250Y-125123000I-243750J0D01*
G01*
X68885750Y-125123000D01*
G75*
G02*
X68642000Y-124879250I0J243750D01*
G01*
X68642000Y-124391750D01*
G75*
G02*
X68885750Y-124148000I243750J0D01*
G01*
G37*
%TD.AperFunction*%
%TO.P,C16,1*%
%TO.N,Net-(C15-Pad1)*%
%TA.AperFunction,SMDPad,CuDef*%
G36*
G01*
X68885750Y-122273000D02*
X69798250Y-122273000D01*
G75*
G02*
X70042000Y-122516750I0J-243750D01*
G01*
X70042000Y-123004250D01*
G75*
G02*
X69798250Y-123248000I-243750J0D01*
G01*
X68885750Y-123248000D01*
G75*
G02*
X68642000Y-123004250I0J243750D01*
G01*
X68642000Y-122516750D01*
G75*
G02*
X68885750Y-122273000I243750J0D01*
G01*
G37*
%TD.AperFunction*%
%TD*%
%TO.P,C15,2*%
%TO.N,Net-(C15-Pad2)*%
%TA.AperFunction,SMDPad,CuDef*%
G36*
G01*
X67391500Y-123888000D02*
X67736500Y-123888000D01*
G75*
G02*
X67884000Y-124035500I0J-147500D01*
G01*
X67884000Y-124330500D01*
G75*
G02*
X67736500Y-124478000I-147500J0D01*
G01*
X67391500Y-124478000D01*
G75*
G02*
X67244000Y-124330500I0J147500D01*
G01*
X67244000Y-124035500D01*
G75*
G02*
X67391500Y-123888000I147500J0D01*
G01*
G37*
%TD.AperFunction*%
%TO.P,C15,1*%
%TO.N,Net-(C15-Pad1)*%
%TA.AperFunction,SMDPad,CuDef*%
G36*
G01*
X67391500Y-122918000D02*
X67736500Y-122918000D01*
G75*
G02*
X67884000Y-123065500I0J-147500D01*
G01*
X67884000Y-123360500D01*
G75*
G02*
X67736500Y-123508000I-147500J0D01*
G01*
X67391500Y-123508000D01*
G75*
G02*
X67244000Y-123360500I0J147500D01*
G01*
X67244000Y-123065500D01*
G75*
G02*
X67391500Y-122918000I147500J0D01*
G01*
G37*
%TD.AperFunction*%
%TD*%
%TO.P,C14,2*%
%TO.N,GND*%
%TA.AperFunction,SMDPad,CuDef*%
G36*
G01*
X72562500Y-127341000D02*
X72217500Y-127341000D01*
G75*
G02*
X72070000Y-127193500I0J147500D01*
G01*
X72070000Y-126898500D01*
G75*
G02*
X72217500Y-126751000I147500J0D01*
G01*
X72562500Y-126751000D01*
G75*
G02*
X72710000Y-126898500I0J-147500D01*
G01*
X72710000Y-127193500D01*
G75*
G02*
X72562500Y-127341000I-147500J0D01*
G01*
G37*
%TD.AperFunction*%
%TO.P,C14,1*%
%TO.N,+3V3*%
%TA.AperFunction,SMDPad,CuDef*%
G36*
G01*
X72562500Y-128311000D02*
X72217500Y-128311000D01*
G75*
G02*
X72070000Y-128163500I0J147500D01*
G01*
X72070000Y-127868500D01*
G75*
G02*
X72217500Y-127721000I147500J0D01*
G01*
X72562500Y-127721000D01*
G75*
G02*
X72710000Y-127868500I0J-147500D01*
G01*
X72710000Y-128163500D01*
G75*
G02*
X72562500Y-128311000I-147500J0D01*
G01*
G37*
%TD.AperFunction*%
%TD*%
%TO.P,C13,2*%
%TO.N,GND*%
%TA.AperFunction,SMDPad,CuDef*%
G36*
G01*
X69175000Y-128351500D02*
X69175000Y-128696500D01*
G75*
G02*
X69027500Y-128844000I-147500J0D01*
G01*
X68732500Y-128844000D01*
G75*
G02*
X68585000Y-128696500I0J147500D01*
G01*
X68585000Y-128351500D01*
G75*
G02*
X68732500Y-128204000I147500J0D01*
G01*
X69027500Y-128204000D01*
G75*
G02*
X69175000Y-128351500I0J-147500D01*
G01*
G37*
%TD.AperFunction*%
%TO.P,C13,1*%
%TO.N,+3V3*%
%TA.AperFunction,SMDPad,CuDef*%
G36*
G01*
X70145000Y-128351500D02*
X70145000Y-128696500D01*
G75*
G02*
X69997500Y-128844000I-147500J0D01*
G01*
X69702500Y-128844000D01*
G75*
G02*
X69555000Y-128696500I0J147500D01*
G01*
X69555000Y-128351500D01*
G75*
G02*
X69702500Y-128204000I147500J0D01*
G01*
X69997500Y-128204000D01*
G75*
G02*
X70145000Y-128351500I0J-147500D01*
G01*
G37*
%TD.AperFunction*%
%TD*%
%TO.P,C12,2*%
%TO.N,GND*%
%TA.AperFunction,SMDPad,CuDef*%
G36*
G01*
X63073500Y-123888000D02*
X63418500Y-123888000D01*
G75*
G02*
X63566000Y-124035500I0J-147500D01*
G01*
X63566000Y-124330500D01*
G75*
G02*
X63418500Y-124478000I-147500J0D01*
G01*
X63073500Y-124478000D01*
G75*
G02*
X62926000Y-124330500I0J147500D01*
G01*
X62926000Y-124035500D01*
G75*
G02*
X63073500Y-123888000I147500J0D01*
G01*
G37*
%TD.AperFunction*%
%TO.P,C12,1*%
%TO.N,+3V3*%
%TA.AperFunction,SMDPad,CuDef*%
G36*
G01*
X63073500Y-122918000D02*
X63418500Y-122918000D01*
G75*
G02*
X63566000Y-123065500I0J-147500D01*
G01*
X63566000Y-123360500D01*
G75*
G02*
X63418500Y-123508000I-147500J0D01*
G01*
X63073500Y-123508000D01*
G75*
G02*
X62926000Y-123360500I0J147500D01*
G01*
X62926000Y-123065500D01*
G75*
G02*
X63073500Y-122918000I147500J0D01*
G01*
G37*
%TD.AperFunction*%
%TD*%
%TO.P,C11,2*%
%TO.N,GND*%
%TA.AperFunction,SMDPad,CuDef*%
G36*
G01*
X68153500Y-120055000D02*
X68498500Y-120055000D01*
G75*
G02*
X68646000Y-120202500I0J-147500D01*
G01*
X68646000Y-120497500D01*
G75*
G02*
X68498500Y-120645000I-147500J0D01*
G01*
X68153500Y-120645000D01*
G75*
G02*
X68006000Y-120497500I0J147500D01*
G01*
X68006000Y-120202500D01*
G75*
G02*
X68153500Y-120055000I147500J0D01*
G01*
G37*
%TD.AperFunction*%
%TO.P,C11,1*%
%TO.N,+3V3*%
%TA.AperFunction,SMDPad,CuDef*%
G36*
G01*
X68153500Y-119085000D02*
X68498500Y-119085000D01*
G75*
G02*
X68646000Y-119232500I0J-147500D01*
G01*
X68646000Y-119527500D01*
G75*
G02*
X68498500Y-119675000I-147500J0D01*
G01*
X68153500Y-119675000D01*
G75*
G02*
X68006000Y-119527500I0J147500D01*
G01*
X68006000Y-119232500D01*
G75*
G02*
X68153500Y-119085000I147500J0D01*
G01*
G37*
%TD.AperFunction*%
%TD*%
D12*
%TO.N,GND*%
X44704000Y-100584000D03*
X80278000Y-106631999D03*
X86106000Y-108204000D03*
X77724000Y-109728000D03*
X86614000Y-100330000D03*
X45212000Y-108966000D03*
X47244000Y-106172000D03*
X53340000Y-108966000D03*
X55372000Y-105664000D03*
X61468000Y-108966000D03*
X63244597Y-105665403D03*
X69596000Y-108966000D03*
X72418000Y-106708000D03*
X43180000Y-141732000D03*
X58650685Y-127484685D03*
X58674000Y-120904000D03*
X71628000Y-127000000D03*
X68326000Y-129286000D03*
X65278000Y-123698000D03*
X62992000Y-129286000D03*
X62822362Y-126915638D03*
X64516000Y-119634000D03*
X66078001Y-122737796D03*
X65278000Y-126746000D03*
X67579905Y-125242132D03*
X68478001Y-121137795D03*
X56642000Y-126492000D03*
X71628000Y-120845999D03*
X83312000Y-127508000D03*
X78486000Y-136652000D03*
X83312000Y-138684000D03*
X66040000Y-144018000D03*
X67552000Y-138418000D03*
X80264000Y-143764000D03*
X69596000Y-149352000D03*
X57658000Y-138430000D03*
X47498000Y-128270000D03*
D13*
X78486000Y-167640000D03*
X62992000Y-167894000D03*
X69088000Y-167386000D03*
X54864000Y-167386000D03*
D12*
X60452000Y-122936000D03*
%TO.N,/P_REG*%
X76073000Y-105583000D03*
%TO.N,/P_IOWR*%
X60162000Y-105628000D03*
%TO.N,/P_IORD*%
X59162000Y-105644000D03*
%TO.N,/P_CE2*%
X57635065Y-105659570D03*
%TO.N,/P_WE*%
X66363011Y-105760001D03*
%TO.N,/P_OE*%
X58162000Y-105668000D03*
%TO.N,/P_CE1*%
X56134000Y-105664000D03*
%TO.N,/P_RESET*%
X73418000Y-105676000D03*
%TO.N,+5V*%
X65278000Y-101600000D03*
X79248000Y-107442000D03*
X46989000Y-107443000D03*
X54992000Y-107316000D03*
X63246000Y-107696000D03*
X71351000Y-107465000D03*
X83520000Y-121966000D03*
%TO.N,/P_D0*%
X51308000Y-104140000D03*
X81280000Y-103886000D03*
%TO.N,/P_D1*%
X51816000Y-104648000D03*
X82550000Y-103632000D03*
%TO.N,/P_D2*%
X52324000Y-105156000D03*
X83820000Y-103632000D03*
%TO.N,+3V3*%
X79248000Y-110236000D03*
X46736000Y-110236000D03*
X54864000Y-110236000D03*
X62992000Y-110236000D03*
X71120000Y-110236000D03*
X61976000Y-127762000D03*
X61722000Y-118110000D03*
X68340280Y-118849658D03*
X71628000Y-128016000D03*
X70104000Y-129286000D03*
X63754000Y-123698000D03*
X71882000Y-123952000D03*
X57168997Y-126494222D03*
X71882000Y-119991998D03*
X80518000Y-136652000D03*
X72644000Y-131572000D03*
X67306020Y-144396933D03*
X68768250Y-138618250D03*
X51816000Y-128270000D03*
X54610000Y-130048000D03*
%TO.N,/P_READY*%
X78780002Y-106131998D03*
X65786000Y-103632000D03*
%TO.N,/P_WAIT*%
X75692000Y-102362000D03*
X81546000Y-106680000D03*
%TO.N,/P_INPACK*%
X81280000Y-105664000D03*
X76962000Y-101600000D03*
%TO.N,Net-(C15-Pad2)*%
X68326000Y-123698000D03*
X62976095Y-125242132D03*
%TO.N,Net-(C15-Pad1)*%
X62200204Y-124459999D03*
X68326000Y-122936000D03*
%TO.N,+1V2*%
X62992000Y-119634000D03*
X62955715Y-126025106D03*
X66060132Y-126761905D03*
X83820000Y-135890000D03*
X72517000Y-125349000D03*
X64516000Y-122047000D03*
X71882000Y-128905000D03*
X66929000Y-122047000D03*
%TO.N,12MHz*%
X67818000Y-144272000D03*
X62026000Y-134112000D03*
D13*
%TO.N,Net-(C29-Pad1)*%
X67818000Y-165862000D03*
X64516000Y-165862000D03*
%TO.N,Net-(R19-Pad1)*%
X66921000Y-167640000D03*
X65667000Y-166116000D03*
%TO.N,Net-(R20-Pad1)*%
X65786000Y-167132000D03*
D12*
%TO.N,Net-(JP1-Pad2)*%
X46482000Y-100330000D03*
X85788500Y-100393500D03*
%TO.N,Net-(J1-Pad7)*%
X51562000Y-130810000D03*
X56712000Y-128708000D03*
%TO.N,Net-(J1-Pad5)*%
X51562000Y-129540000D03*
X56896000Y-127508000D03*
%TO.N,Net-(J1-Pad2)*%
X60483877Y-127529137D03*
X53086000Y-125730000D03*
X46990000Y-125730000D03*
%TO.N,Net-(J1-Pad1)*%
X50800000Y-127000000D03*
%TO.N,CRESET*%
X61248848Y-126775662D03*
X57404000Y-130810000D03*
X47498000Y-130810000D03*
%TO.N,CDONE*%
X62115143Y-126135184D03*
X57404000Y-131826000D03*
X47498000Y-132080000D03*
%TO.N,Net-(D1-Pad2)*%
X68326000Y-127508000D03*
X73406000Y-127254000D03*
%TD*%
D14*
%TO.N,GND*%
X72344000Y-127000000D02*
X72390000Y-127046000D01*
X71628000Y-127000000D02*
X72344000Y-127000000D01*
X64793000Y-124183000D02*
X65278000Y-123698000D01*
X63246000Y-124183000D02*
X64793000Y-124183000D01*
X62484000Y-127046000D02*
X62692000Y-127046000D01*
X62692000Y-127046000D02*
X62822362Y-126915638D01*
X65278000Y-122636000D02*
X65976205Y-122636000D01*
X65976205Y-122636000D02*
X66078001Y-122737796D01*
X64724000Y-125984000D02*
X65278000Y-125984000D01*
X65278000Y-125984000D02*
X65278000Y-126746000D01*
X67010000Y-125984000D02*
X67010000Y-125812037D01*
X67010000Y-125812037D02*
X67579905Y-125242132D01*
X68326000Y-120350000D02*
X68326000Y-120985794D01*
X68326000Y-120985794D02*
X68478001Y-121137795D01*
X68880000Y-128732000D02*
X68326000Y-129286000D01*
X68880000Y-128524000D02*
X68880000Y-128732000D01*
X62486000Y-169082000D02*
X63036000Y-169632000D01*
X61466000Y-169082000D02*
X62486000Y-169082000D01*
X62486000Y-168400000D02*
X62992000Y-167894000D01*
X62486000Y-169082000D02*
X62486000Y-168400000D01*
X69086000Y-169082000D02*
X68536000Y-169632000D01*
X70106000Y-169082000D02*
X69086000Y-169082000D01*
X69088000Y-169080000D02*
X69086000Y-169082000D01*
X69088000Y-167386000D02*
X69088000Y-169080000D01*
%TO.N,/P_REG*%
X75438000Y-106472000D02*
X75438000Y-106218000D01*
X75438000Y-106218000D02*
X76073000Y-105583000D01*
%TO.N,/P_IOWR*%
X60198000Y-106195000D02*
X60198000Y-105664000D01*
X60198000Y-105664000D02*
X60162000Y-105628000D01*
%TO.N,/P_IORD*%
X59182000Y-105664000D02*
X59162000Y-105644000D01*
X59182000Y-106218000D02*
X59182000Y-105664000D01*
%TO.N,/P_CE2*%
X57658000Y-106195000D02*
X57658000Y-105682505D01*
X57658000Y-105682505D02*
X57635065Y-105659570D01*
%TO.N,/P_WE*%
X66294000Y-106426000D02*
X66294000Y-105829012D01*
X66294000Y-105829012D02*
X66363011Y-105760001D01*
%TO.N,/P_OE*%
X58205010Y-105711010D02*
X58162000Y-105668000D01*
X58166000Y-108204000D02*
X58205010Y-108164990D01*
X58205010Y-108164990D02*
X58205010Y-105711010D01*
%TO.N,/P_CE1*%
X56642000Y-106195000D02*
X56642000Y-106172000D01*
X56642000Y-106172000D02*
X56134000Y-105664000D01*
%TO.N,/P_RESET*%
X73406000Y-105688000D02*
X73418000Y-105676000D01*
X73406000Y-106426000D02*
X73406000Y-105688000D01*
%TO.N,+5V*%
X73452000Y-107442000D02*
X73406000Y-107396000D01*
X75438000Y-107442000D02*
X73452000Y-107442000D01*
X71420000Y-107396000D02*
X71351000Y-107465000D01*
X73406000Y-107396000D02*
X71420000Y-107396000D01*
X63546000Y-107396000D02*
X63246000Y-107696000D01*
X66294000Y-107396000D02*
X63546000Y-107396000D01*
X59205000Y-107165000D02*
X59182000Y-107188000D01*
X60198000Y-107165000D02*
X59205000Y-107165000D01*
X59182000Y-108158000D02*
X58166000Y-109174000D01*
X59182000Y-107188000D02*
X59182000Y-108158000D01*
X57618990Y-107204010D02*
X57658000Y-107165000D01*
X57618990Y-108626990D02*
X57618990Y-107204010D01*
X58166000Y-109174000D02*
X57618990Y-108626990D01*
X57658000Y-107165000D02*
X56642000Y-107165000D01*
X55143000Y-107165000D02*
X54992000Y-107316000D01*
X56642000Y-107165000D02*
X55143000Y-107165000D01*
%TO.N,/P_D0*%
X51308000Y-104140000D02*
X81026000Y-104140000D01*
X81026000Y-104140000D02*
X81280000Y-103886000D01*
%TO.N,/P_D1*%
X51816000Y-104648000D02*
X81788000Y-104648000D01*
X81788000Y-104648000D02*
X82550000Y-103886000D01*
X82550000Y-103886000D02*
X82550000Y-103632000D01*
%TO.N,/P_D2*%
X52324000Y-105156000D02*
X82296000Y-105156000D01*
X82296000Y-105156000D02*
X83820000Y-103632000D01*
%TO.N,+3V3*%
X62230000Y-127762000D02*
X62484000Y-128016000D01*
X61976000Y-127762000D02*
X62230000Y-127762000D01*
X71628000Y-128016000D02*
X72390000Y-128016000D01*
X63731000Y-123698000D02*
X63246000Y-123213000D01*
X63754000Y-123698000D02*
X63731000Y-123698000D01*
X68340280Y-119365720D02*
X68326000Y-119380000D01*
X68340280Y-118849658D02*
X68340280Y-119365720D01*
X69850000Y-129032000D02*
X70104000Y-129286000D01*
X69850000Y-128524000D02*
X69850000Y-129032000D01*
X67306020Y-140080480D02*
X68768250Y-138618250D01*
X67306020Y-144396933D02*
X67306020Y-140080480D01*
D15*
X77724000Y-136652000D02*
X72644000Y-131572000D01*
X61722000Y-111506000D02*
X62992000Y-110236000D01*
X61722000Y-118110000D02*
X61722000Y-111506000D01*
X80518000Y-136652000D02*
X79629000Y-136652000D01*
X79629000Y-136652000D02*
X78867000Y-135890000D01*
X78486000Y-135890000D02*
X77724000Y-136652000D01*
X78867000Y-135890000D02*
X78486000Y-135890000D01*
D14*
X68937998Y-119991998D02*
X68326000Y-119380000D01*
X71882000Y-119991998D02*
X68937998Y-119991998D01*
X72081999Y-120191997D02*
X71882000Y-119991998D01*
X72081999Y-123752001D02*
X72081999Y-120191997D01*
X71882000Y-123952000D02*
X72081999Y-123752001D01*
X62627205Y-123831795D02*
X63246000Y-123213000D01*
X62627205Y-124664960D02*
X62627205Y-123831795D01*
X60797943Y-126494222D02*
X62627205Y-124664960D01*
X57168997Y-126494222D02*
X60797943Y-126494222D01*
X70358000Y-129286000D02*
X70104000Y-129286000D01*
X72644000Y-131572000D02*
X70358000Y-129286000D01*
X51897000Y-128351000D02*
X51816000Y-128270000D01*
X51897000Y-128905000D02*
X51897000Y-128351000D01*
X53929000Y-130175000D02*
X54483000Y-130175000D01*
X54483000Y-130175000D02*
X54610000Y-130048000D01*
%TO.N,Net-(C15-Pad2)*%
X68889500Y-124183000D02*
X69342000Y-124635500D01*
X68326000Y-124160000D02*
X68349000Y-124183000D01*
X68326000Y-123698000D02*
X68326000Y-124160000D01*
X67564000Y-124183000D02*
X68349000Y-124183000D01*
X68349000Y-124183000D02*
X68889500Y-124183000D01*
X70810500Y-124635500D02*
X70889000Y-124714000D01*
X69342000Y-124635500D02*
X70810500Y-124635500D01*
X66504868Y-125242132D02*
X67564000Y-124183000D01*
X62976095Y-125242132D02*
X66504868Y-125242132D01*
%TO.N,Net-(C15-Pad1)*%
X68889500Y-123213000D02*
X69342000Y-122760500D01*
X68326000Y-122936000D02*
X68349000Y-122959000D01*
X68349000Y-122959000D02*
X68349000Y-123213000D01*
X67564000Y-123213000D02*
X68349000Y-123213000D01*
X68349000Y-123213000D02*
X68889500Y-123213000D01*
X62200204Y-123409158D02*
X62200204Y-124459999D01*
X63573628Y-122690990D02*
X62918372Y-122690990D01*
X62918372Y-122690990D02*
X62200204Y-123409158D01*
X64095638Y-123213000D02*
X63573628Y-122690990D01*
X67564000Y-123213000D02*
X64095638Y-123213000D01*
%TO.N,+1V2*%
X63754000Y-125984000D02*
X62996821Y-125984000D01*
X62996821Y-125984000D02*
X62955715Y-126025106D01*
X66060132Y-126004132D02*
X66040000Y-125984000D01*
X66060132Y-126761905D02*
X66060132Y-126004132D01*
X83820000Y-135890000D02*
X83035000Y-135890000D01*
D15*
X72569000Y-125401000D02*
X72517000Y-125349000D01*
X72569000Y-125424000D02*
X72569000Y-125401000D01*
D14*
X72569000Y-125424000D02*
X71859000Y-124714000D01*
X83035000Y-135890000D02*
X72569000Y-125424000D01*
D15*
X65278000Y-121666000D02*
X64897000Y-121666000D01*
X64897000Y-121666000D02*
X64516000Y-122047000D01*
D14*
%TO.N,Net-(C29-Pad1)*%
X67036000Y-168452962D02*
X67818000Y-167670962D01*
X67036000Y-169632000D02*
X67036000Y-168452962D01*
X67818000Y-167670962D02*
X67818000Y-165862000D01*
X64536000Y-165882000D02*
X64516000Y-165862000D01*
X64536000Y-169632000D02*
X64536000Y-165882000D01*
%TO.N,Net-(R19-Pad1)*%
X66036000Y-168525000D02*
X66036000Y-169632000D01*
X66921000Y-167640000D02*
X66036000Y-168525000D01*
X66921000Y-167370000D02*
X66921000Y-167640000D01*
X65667000Y-166116000D02*
X66921000Y-167370000D01*
%TO.N,Net-(R20-Pad1)*%
X65536000Y-169632000D02*
X65536000Y-167382000D01*
X65536000Y-167382000D02*
X65786000Y-167132000D01*
%TO.N,Net-(JP1-Pad2)*%
X85725000Y-100330000D02*
X85788500Y-100393500D01*
X46482000Y-100330000D02*
X85725000Y-100330000D01*
%TO.N,Net-(J1-Pad7)*%
X54610000Y-130810000D02*
X56712000Y-128708000D01*
X52959000Y-130175000D02*
X52959000Y-130810000D01*
X51562000Y-130810000D02*
X52959000Y-130810000D01*
X52959000Y-130810000D02*
X54610000Y-130810000D01*
%TO.N,Net-(J1-Pad5)*%
X51562000Y-129540000D02*
X54864000Y-129540000D01*
X54864000Y-129540000D02*
X56896000Y-127508000D01*
%TO.N,Net-(J1-Pad2)*%
X46990000Y-125730000D02*
X53086000Y-125730000D01*
X57100961Y-127080999D02*
X54436999Y-127080999D01*
X57931648Y-127911686D02*
X57100961Y-127080999D01*
X60101328Y-127911686D02*
X57931648Y-127911686D01*
X54436999Y-127080999D02*
X53086000Y-125730000D01*
X60483877Y-127529137D02*
X60101328Y-127911686D01*
%TO.N,Net-(J1-Pad1)*%
X50927000Y-128905000D02*
X50927000Y-127127000D01*
X50927000Y-127127000D02*
X50800000Y-127000000D01*
%TO.N,CRESET*%
X57834976Y-130810000D02*
X57404000Y-130810000D01*
X61248848Y-126775662D02*
X61248848Y-127396128D01*
X61248848Y-127396128D02*
X57834976Y-130810000D01*
X56976999Y-131237001D02*
X57404000Y-130810000D01*
X47925001Y-131237001D02*
X56976999Y-131237001D01*
X47498000Y-130810000D02*
X47925001Y-131237001D01*
%TO.N,CDONE*%
X61548999Y-128189001D02*
X57912000Y-131826000D01*
X57912000Y-131826000D02*
X57404000Y-131826000D01*
X61548999Y-127557039D02*
X61548999Y-128189001D01*
X61915144Y-126335183D02*
X61915144Y-127190894D01*
X61915144Y-127190894D02*
X61548999Y-127557039D01*
X62115143Y-126135184D02*
X61915144Y-126335183D01*
X57150000Y-132080000D02*
X57404000Y-131826000D01*
X47498000Y-132080000D02*
X57150000Y-132080000D01*
%TO.N,Net-(D1-Pad2)*%
X69310010Y-126523990D02*
X70834010Y-126523990D01*
X68326000Y-127508000D02*
X69310010Y-126523990D01*
X70834010Y-126523990D02*
X71120000Y-126238000D01*
X71120000Y-126238000D02*
X72431638Y-126238000D01*
X72431638Y-126238000D02*
X72898000Y-126238000D01*
X72898000Y-126238000D02*
X73406000Y-126746000D01*
X73406000Y-126746000D02*
X73406000Y-127254000D01*
%TD*%
M02*
