G04 #@! TF.GenerationSoftware,KiCad,Pcbnew,5.1.6-c6e7f7d~86~ubuntu18.04.1*
G04 #@! TF.CreationDate,2021-09-21T12:25:19+02:00*
G04 #@! TF.ProjectId,nhci,6e686369-2e6b-4696-9361-645f70636258,rev?*
G04 #@! TF.SameCoordinates,Original*
G04 #@! TF.FileFunction,Copper,L2,Inr*
G04 #@! TF.FilePolarity,Positive*
%FSLAX46Y46*%
G04 Gerber Fmt 4.6, Leading zero omitted, Abs format (unit mm)*
G04 Created by KiCad (PCBNEW 5.1.6-c6e7f7d~86~ubuntu18.04.1) date 2021-09-21 12:25:19*
%MOMM*%
%LPD*%
G01*
G04 APERTURE LIST*
G04 #@! TA.AperFunction,ViaPad*
%ADD10C,0.400000*%
G04 #@! TD*
G04 #@! TA.AperFunction,ViaPad*
%ADD11C,0.800000*%
G04 #@! TD*
G04 #@! TA.AperFunction,Conductor*
%ADD12C,0.200000*%
G04 #@! TD*
G04 APERTURE END LIST*
D10*
X44704000Y-100584000D03*
X80278000Y-106631999D03*
X86106000Y-108204000D03*
X77724000Y-109728000D03*
X86614000Y-100330000D03*
X45212000Y-108966000D03*
X47244000Y-106172000D03*
X53340000Y-108966000D03*
X55372000Y-105664000D03*
X61468000Y-108966000D03*
X63244597Y-105665403D03*
X69596000Y-108966000D03*
X72418000Y-106708000D03*
X43180000Y-141732000D03*
X58650685Y-127484685D03*
X58674000Y-120904000D03*
X71628000Y-127000000D03*
X68326000Y-129286000D03*
X65278000Y-123698000D03*
X62992000Y-129286000D03*
X62822362Y-126915638D03*
X64516000Y-119634000D03*
X66078001Y-122737796D03*
X65278000Y-126746000D03*
X67579905Y-125242132D03*
X68478001Y-121137795D03*
X56642000Y-126492000D03*
X71628000Y-120845999D03*
X83312000Y-127508000D03*
X78486000Y-136652000D03*
X83312000Y-138684000D03*
X66040000Y-144018000D03*
X67552000Y-138418000D03*
X80264000Y-143764000D03*
X69596000Y-149352000D03*
X57658000Y-138430000D03*
X47498000Y-128270000D03*
D11*
X78486000Y-167640000D03*
X62992000Y-167894000D03*
X69088000Y-167386000D03*
X54864000Y-167386000D03*
D10*
X60452000Y-122936000D03*
X76073000Y-105583000D03*
X60162000Y-105628000D03*
X59162000Y-105644000D03*
X57635065Y-105659570D03*
X66363011Y-105760001D03*
X58162000Y-105668000D03*
X56134000Y-105664000D03*
X73418000Y-105676000D03*
X65278000Y-101600000D03*
X79248000Y-107442000D03*
X46989000Y-107443000D03*
X54992000Y-107316000D03*
X63246000Y-107696000D03*
X71351000Y-107465000D03*
X83520000Y-121966000D03*
X51308000Y-104140000D03*
X81280000Y-103886000D03*
X51816000Y-104648000D03*
X82550000Y-103632000D03*
X52324000Y-105156000D03*
X83820000Y-103632000D03*
X79248000Y-110236000D03*
X46736000Y-110236000D03*
X54864000Y-110236000D03*
X62992000Y-110236000D03*
X71120000Y-110236000D03*
X61976000Y-127762000D03*
X61722000Y-111506000D03*
X68340280Y-118849658D03*
X71628000Y-128016000D03*
X70104000Y-129286000D03*
X63754000Y-123698000D03*
X71882000Y-123952000D03*
X57168997Y-126494222D03*
X71882000Y-119991998D03*
X80518000Y-136652000D03*
X72644000Y-131572000D03*
X67306020Y-144396933D03*
X68768250Y-138618250D03*
X51816000Y-128270000D03*
X54610000Y-130048000D03*
X78780002Y-106131998D03*
X65786000Y-103632000D03*
X75692000Y-102362000D03*
X81546000Y-106680000D03*
X81280000Y-105664000D03*
X76962000Y-101600000D03*
X68326000Y-123698000D03*
X62976095Y-125242132D03*
X62200204Y-124459999D03*
X68326000Y-122936000D03*
X62992000Y-119634000D03*
X62955715Y-126025106D03*
X66060132Y-126761905D03*
X83820000Y-135890000D03*
X72517000Y-125349000D03*
X64516000Y-122047000D03*
X71882000Y-128905000D03*
X66929000Y-122047000D03*
X52288000Y-111470000D03*
X47244000Y-112522000D03*
X67818000Y-144272000D03*
X62026000Y-134112000D03*
D11*
X67818000Y-165862000D03*
X64516000Y-165862000D03*
D10*
X67056000Y-145288000D03*
X75438000Y-145288000D03*
D11*
X66921000Y-167640000D03*
X65667000Y-166116000D03*
X65786000Y-167132000D03*
D10*
X46482000Y-100330000D03*
X85788500Y-100393500D03*
X51562000Y-130810000D03*
X56712000Y-128708000D03*
X51562000Y-129540000D03*
X56896000Y-127508000D03*
X60483877Y-127529137D03*
X53086000Y-125730000D03*
X46990000Y-125730000D03*
X50800000Y-127000000D03*
X61248848Y-126775662D03*
X57404000Y-130810000D03*
X47498000Y-130810000D03*
X62115143Y-126135184D03*
X57404000Y-131826000D03*
X47498000Y-132080000D03*
X68326000Y-127508000D03*
X73406000Y-127254000D03*
X60452000Y-125234000D03*
X47752000Y-104394000D03*
X48768000Y-101854000D03*
X50228500Y-101282500D03*
X51562000Y-100838000D03*
X52560500Y-100776154D03*
X81978500Y-101790500D03*
X83058000Y-102362000D03*
X84582000Y-102870000D03*
X60478000Y-124460000D03*
X45212000Y-112014000D03*
X52832000Y-106426000D03*
X61214000Y-124460000D03*
X61976000Y-122962000D03*
X61214000Y-122936000D03*
X62141866Y-122012398D03*
X61225691Y-122001000D03*
X61269829Y-121370793D03*
X60458880Y-121163482D03*
X60452000Y-120396000D03*
D12*
G36*
X88961000Y-169572000D02*
G01*
X42611000Y-169572000D01*
X42611000Y-165793056D01*
X63816000Y-165793056D01*
X63816000Y-165930944D01*
X63842901Y-166066182D01*
X63895668Y-166193574D01*
X63972274Y-166308224D01*
X64069776Y-166405726D01*
X64184426Y-166482332D01*
X64311818Y-166535099D01*
X64447056Y-166562000D01*
X64584944Y-166562000D01*
X64720182Y-166535099D01*
X64847574Y-166482332D01*
X64962224Y-166405726D01*
X65009678Y-166358272D01*
X65046668Y-166447574D01*
X65123274Y-166562224D01*
X65220776Y-166659726D01*
X65249279Y-166678771D01*
X65242274Y-166685776D01*
X65165668Y-166800426D01*
X65112901Y-166927818D01*
X65086000Y-167063056D01*
X65086000Y-167200944D01*
X65112901Y-167336182D01*
X65165668Y-167463574D01*
X65242274Y-167578224D01*
X65339776Y-167675726D01*
X65454426Y-167752332D01*
X65581818Y-167805099D01*
X65717056Y-167832000D01*
X65854944Y-167832000D01*
X65990182Y-167805099D01*
X66117574Y-167752332D01*
X66221000Y-167683226D01*
X66221000Y-167708944D01*
X66247901Y-167844182D01*
X66300668Y-167971574D01*
X66377274Y-168086224D01*
X66474776Y-168183726D01*
X66589426Y-168260332D01*
X66716818Y-168313099D01*
X66852056Y-168340000D01*
X66989944Y-168340000D01*
X67125182Y-168313099D01*
X67252574Y-168260332D01*
X67367224Y-168183726D01*
X67464726Y-168086224D01*
X67541332Y-167971574D01*
X67594099Y-167844182D01*
X67621000Y-167708944D01*
X67621000Y-167571056D01*
X67594099Y-167435818D01*
X67541332Y-167308426D01*
X67464726Y-167193776D01*
X67367224Y-167096274D01*
X67252574Y-167019668D01*
X67125182Y-166966901D01*
X66989944Y-166940000D01*
X66852056Y-166940000D01*
X66716818Y-166966901D01*
X66589426Y-167019668D01*
X66486000Y-167088774D01*
X66486000Y-167063056D01*
X66459099Y-166927818D01*
X66406332Y-166800426D01*
X66329726Y-166685776D01*
X66232224Y-166588274D01*
X66203721Y-166569229D01*
X66210726Y-166562224D01*
X66287332Y-166447574D01*
X66340099Y-166320182D01*
X66367000Y-166184944D01*
X66367000Y-166047056D01*
X66340099Y-165911818D01*
X66290907Y-165793056D01*
X67118000Y-165793056D01*
X67118000Y-165930944D01*
X67144901Y-166066182D01*
X67197668Y-166193574D01*
X67274274Y-166308224D01*
X67371776Y-166405726D01*
X67486426Y-166482332D01*
X67613818Y-166535099D01*
X67749056Y-166562000D01*
X67886944Y-166562000D01*
X68022182Y-166535099D01*
X68149574Y-166482332D01*
X68264224Y-166405726D01*
X68361726Y-166308224D01*
X68438332Y-166193574D01*
X68491099Y-166066182D01*
X68518000Y-165930944D01*
X68518000Y-165793056D01*
X68491099Y-165657818D01*
X68438332Y-165530426D01*
X68361726Y-165415776D01*
X68264224Y-165318274D01*
X68149574Y-165241668D01*
X68022182Y-165188901D01*
X67886944Y-165162000D01*
X67749056Y-165162000D01*
X67613818Y-165188901D01*
X67486426Y-165241668D01*
X67371776Y-165318274D01*
X67274274Y-165415776D01*
X67197668Y-165530426D01*
X67144901Y-165657818D01*
X67118000Y-165793056D01*
X66290907Y-165793056D01*
X66287332Y-165784426D01*
X66210726Y-165669776D01*
X66113224Y-165572274D01*
X65998574Y-165495668D01*
X65871182Y-165442901D01*
X65735944Y-165416000D01*
X65598056Y-165416000D01*
X65462818Y-165442901D01*
X65335426Y-165495668D01*
X65220776Y-165572274D01*
X65173322Y-165619728D01*
X65136332Y-165530426D01*
X65059726Y-165415776D01*
X64962224Y-165318274D01*
X64847574Y-165241668D01*
X64720182Y-165188901D01*
X64584944Y-165162000D01*
X64447056Y-165162000D01*
X64311818Y-165188901D01*
X64184426Y-165241668D01*
X64069776Y-165318274D01*
X63972274Y-165415776D01*
X63895668Y-165530426D01*
X63842901Y-165657818D01*
X63816000Y-165793056D01*
X42611000Y-165793056D01*
X42611000Y-145238754D01*
X66556000Y-145238754D01*
X66556000Y-145337246D01*
X66575215Y-145433845D01*
X66612906Y-145524839D01*
X66667625Y-145606731D01*
X66737269Y-145676375D01*
X66819161Y-145731094D01*
X66910155Y-145768785D01*
X67006754Y-145788000D01*
X67105246Y-145788000D01*
X67201845Y-145768785D01*
X67292839Y-145731094D01*
X67374731Y-145676375D01*
X67444375Y-145606731D01*
X67499094Y-145524839D01*
X67536785Y-145433845D01*
X67556000Y-145337246D01*
X67556000Y-145238754D01*
X74938000Y-145238754D01*
X74938000Y-145337246D01*
X74957215Y-145433845D01*
X74994906Y-145524839D01*
X75049625Y-145606731D01*
X75119269Y-145676375D01*
X75201161Y-145731094D01*
X75292155Y-145768785D01*
X75388754Y-145788000D01*
X75487246Y-145788000D01*
X75583845Y-145768785D01*
X75674839Y-145731094D01*
X75756731Y-145676375D01*
X75826375Y-145606731D01*
X75881094Y-145524839D01*
X75918785Y-145433845D01*
X75938000Y-145337246D01*
X75938000Y-145238754D01*
X75918785Y-145142155D01*
X75881094Y-145051161D01*
X75826375Y-144969269D01*
X75756731Y-144899625D01*
X75674839Y-144844906D01*
X75583845Y-144807215D01*
X75487246Y-144788000D01*
X75388754Y-144788000D01*
X75292155Y-144807215D01*
X75201161Y-144844906D01*
X75119269Y-144899625D01*
X75049625Y-144969269D01*
X74994906Y-145051161D01*
X74957215Y-145142155D01*
X74938000Y-145238754D01*
X67556000Y-145238754D01*
X67536785Y-145142155D01*
X67499094Y-145051161D01*
X67444375Y-144969269D01*
X67374731Y-144899625D01*
X67367161Y-144894567D01*
X67451865Y-144877718D01*
X67542859Y-144840027D01*
X67624751Y-144785308D01*
X67661633Y-144748426D01*
X67672155Y-144752785D01*
X67768754Y-144772000D01*
X67867246Y-144772000D01*
X67963845Y-144752785D01*
X68054839Y-144715094D01*
X68136731Y-144660375D01*
X68206375Y-144590731D01*
X68261094Y-144508839D01*
X68298785Y-144417845D01*
X68318000Y-144321246D01*
X68318000Y-144222754D01*
X68298785Y-144126155D01*
X68261094Y-144035161D01*
X68206375Y-143953269D01*
X68136731Y-143883625D01*
X68054839Y-143828906D01*
X67963845Y-143791215D01*
X67867246Y-143772000D01*
X67768754Y-143772000D01*
X67672155Y-143791215D01*
X67581161Y-143828906D01*
X67499269Y-143883625D01*
X67462387Y-143920507D01*
X67451865Y-143916148D01*
X67355266Y-143896933D01*
X67256774Y-143896933D01*
X67160175Y-143916148D01*
X67069181Y-143953839D01*
X66987289Y-144008558D01*
X66917645Y-144078202D01*
X66862926Y-144160094D01*
X66825235Y-144251088D01*
X66806020Y-144347687D01*
X66806020Y-144446179D01*
X66825235Y-144542778D01*
X66862926Y-144633772D01*
X66917645Y-144715664D01*
X66987289Y-144785308D01*
X66994859Y-144790366D01*
X66910155Y-144807215D01*
X66819161Y-144844906D01*
X66737269Y-144899625D01*
X66667625Y-144969269D01*
X66612906Y-145051161D01*
X66575215Y-145142155D01*
X66556000Y-145238754D01*
X42611000Y-145238754D01*
X42611000Y-138569004D01*
X68268250Y-138569004D01*
X68268250Y-138667496D01*
X68287465Y-138764095D01*
X68325156Y-138855089D01*
X68379875Y-138936981D01*
X68449519Y-139006625D01*
X68531411Y-139061344D01*
X68622405Y-139099035D01*
X68719004Y-139118250D01*
X68817496Y-139118250D01*
X68914095Y-139099035D01*
X69005089Y-139061344D01*
X69086981Y-139006625D01*
X69156625Y-138936981D01*
X69211344Y-138855089D01*
X69249035Y-138764095D01*
X69268250Y-138667496D01*
X69268250Y-138569004D01*
X69249035Y-138472405D01*
X69211344Y-138381411D01*
X69156625Y-138299519D01*
X69086981Y-138229875D01*
X69005089Y-138175156D01*
X68914095Y-138137465D01*
X68817496Y-138118250D01*
X68719004Y-138118250D01*
X68622405Y-138137465D01*
X68531411Y-138175156D01*
X68449519Y-138229875D01*
X68379875Y-138299519D01*
X68325156Y-138381411D01*
X68287465Y-138472405D01*
X68268250Y-138569004D01*
X42611000Y-138569004D01*
X42611000Y-136602754D01*
X80018000Y-136602754D01*
X80018000Y-136701246D01*
X80037215Y-136797845D01*
X80074906Y-136888839D01*
X80129625Y-136970731D01*
X80199269Y-137040375D01*
X80281161Y-137095094D01*
X80372155Y-137132785D01*
X80468754Y-137152000D01*
X80567246Y-137152000D01*
X80663845Y-137132785D01*
X80754839Y-137095094D01*
X80836731Y-137040375D01*
X80906375Y-136970731D01*
X80961094Y-136888839D01*
X80998785Y-136797845D01*
X81018000Y-136701246D01*
X81018000Y-136602754D01*
X80998785Y-136506155D01*
X80961094Y-136415161D01*
X80906375Y-136333269D01*
X80836731Y-136263625D01*
X80754839Y-136208906D01*
X80663845Y-136171215D01*
X80567246Y-136152000D01*
X80468754Y-136152000D01*
X80372155Y-136171215D01*
X80281161Y-136208906D01*
X80199269Y-136263625D01*
X80129625Y-136333269D01*
X80074906Y-136415161D01*
X80037215Y-136506155D01*
X80018000Y-136602754D01*
X42611000Y-136602754D01*
X42611000Y-135840754D01*
X83320000Y-135840754D01*
X83320000Y-135939246D01*
X83339215Y-136035845D01*
X83376906Y-136126839D01*
X83431625Y-136208731D01*
X83501269Y-136278375D01*
X83583161Y-136333094D01*
X83674155Y-136370785D01*
X83770754Y-136390000D01*
X83869246Y-136390000D01*
X83965845Y-136370785D01*
X84056839Y-136333094D01*
X84138731Y-136278375D01*
X84208375Y-136208731D01*
X84263094Y-136126839D01*
X84300785Y-136035845D01*
X84320000Y-135939246D01*
X84320000Y-135840754D01*
X84300785Y-135744155D01*
X84263094Y-135653161D01*
X84208375Y-135571269D01*
X84138731Y-135501625D01*
X84056839Y-135446906D01*
X83965845Y-135409215D01*
X83869246Y-135390000D01*
X83770754Y-135390000D01*
X83674155Y-135409215D01*
X83583161Y-135446906D01*
X83501269Y-135501625D01*
X83431625Y-135571269D01*
X83376906Y-135653161D01*
X83339215Y-135744155D01*
X83320000Y-135840754D01*
X42611000Y-135840754D01*
X42611000Y-134062754D01*
X61526000Y-134062754D01*
X61526000Y-134161246D01*
X61545215Y-134257845D01*
X61582906Y-134348839D01*
X61637625Y-134430731D01*
X61707269Y-134500375D01*
X61789161Y-134555094D01*
X61880155Y-134592785D01*
X61976754Y-134612000D01*
X62075246Y-134612000D01*
X62171845Y-134592785D01*
X62262839Y-134555094D01*
X62344731Y-134500375D01*
X62414375Y-134430731D01*
X62469094Y-134348839D01*
X62506785Y-134257845D01*
X62526000Y-134161246D01*
X62526000Y-134062754D01*
X62506785Y-133966155D01*
X62469094Y-133875161D01*
X62414375Y-133793269D01*
X62344731Y-133723625D01*
X62262839Y-133668906D01*
X62171845Y-133631215D01*
X62075246Y-133612000D01*
X61976754Y-133612000D01*
X61880155Y-133631215D01*
X61789161Y-133668906D01*
X61707269Y-133723625D01*
X61637625Y-133793269D01*
X61582906Y-133875161D01*
X61545215Y-133966155D01*
X61526000Y-134062754D01*
X42611000Y-134062754D01*
X42611000Y-132030754D01*
X46998000Y-132030754D01*
X46998000Y-132129246D01*
X47017215Y-132225845D01*
X47054906Y-132316839D01*
X47109625Y-132398731D01*
X47179269Y-132468375D01*
X47261161Y-132523094D01*
X47352155Y-132560785D01*
X47448754Y-132580000D01*
X47547246Y-132580000D01*
X47643845Y-132560785D01*
X47734839Y-132523094D01*
X47816731Y-132468375D01*
X47886375Y-132398731D01*
X47941094Y-132316839D01*
X47978785Y-132225845D01*
X47998000Y-132129246D01*
X47998000Y-132030754D01*
X47978785Y-131934155D01*
X47941094Y-131843161D01*
X47896722Y-131776754D01*
X56904000Y-131776754D01*
X56904000Y-131875246D01*
X56923215Y-131971845D01*
X56960906Y-132062839D01*
X57015625Y-132144731D01*
X57085269Y-132214375D01*
X57167161Y-132269094D01*
X57258155Y-132306785D01*
X57354754Y-132326000D01*
X57453246Y-132326000D01*
X57549845Y-132306785D01*
X57640839Y-132269094D01*
X57722731Y-132214375D01*
X57792375Y-132144731D01*
X57847094Y-132062839D01*
X57884785Y-131971845D01*
X57904000Y-131875246D01*
X57904000Y-131776754D01*
X57884785Y-131680155D01*
X57847094Y-131589161D01*
X57802722Y-131522754D01*
X72144000Y-131522754D01*
X72144000Y-131621246D01*
X72163215Y-131717845D01*
X72200906Y-131808839D01*
X72255625Y-131890731D01*
X72325269Y-131960375D01*
X72407161Y-132015094D01*
X72498155Y-132052785D01*
X72594754Y-132072000D01*
X72693246Y-132072000D01*
X72789845Y-132052785D01*
X72880839Y-132015094D01*
X72962731Y-131960375D01*
X73032375Y-131890731D01*
X73087094Y-131808839D01*
X73124785Y-131717845D01*
X73144000Y-131621246D01*
X73144000Y-131522754D01*
X73124785Y-131426155D01*
X73087094Y-131335161D01*
X73032375Y-131253269D01*
X72962731Y-131183625D01*
X72880839Y-131128906D01*
X72789845Y-131091215D01*
X72693246Y-131072000D01*
X72594754Y-131072000D01*
X72498155Y-131091215D01*
X72407161Y-131128906D01*
X72325269Y-131183625D01*
X72255625Y-131253269D01*
X72200906Y-131335161D01*
X72163215Y-131426155D01*
X72144000Y-131522754D01*
X57802722Y-131522754D01*
X57792375Y-131507269D01*
X57722731Y-131437625D01*
X57640839Y-131382906D01*
X57549845Y-131345215D01*
X57453246Y-131326000D01*
X57354754Y-131326000D01*
X57258155Y-131345215D01*
X57167161Y-131382906D01*
X57085269Y-131437625D01*
X57015625Y-131507269D01*
X56960906Y-131589161D01*
X56923215Y-131680155D01*
X56904000Y-131776754D01*
X47896722Y-131776754D01*
X47886375Y-131761269D01*
X47816731Y-131691625D01*
X47734839Y-131636906D01*
X47643845Y-131599215D01*
X47547246Y-131580000D01*
X47448754Y-131580000D01*
X47352155Y-131599215D01*
X47261161Y-131636906D01*
X47179269Y-131691625D01*
X47109625Y-131761269D01*
X47054906Y-131843161D01*
X47017215Y-131934155D01*
X46998000Y-132030754D01*
X42611000Y-132030754D01*
X42611000Y-130760754D01*
X46998000Y-130760754D01*
X46998000Y-130859246D01*
X47017215Y-130955845D01*
X47054906Y-131046839D01*
X47109625Y-131128731D01*
X47179269Y-131198375D01*
X47261161Y-131253094D01*
X47352155Y-131290785D01*
X47448754Y-131310000D01*
X47547246Y-131310000D01*
X47643845Y-131290785D01*
X47734839Y-131253094D01*
X47816731Y-131198375D01*
X47886375Y-131128731D01*
X47941094Y-131046839D01*
X47978785Y-130955845D01*
X47998000Y-130859246D01*
X47998000Y-130760754D01*
X51062000Y-130760754D01*
X51062000Y-130859246D01*
X51081215Y-130955845D01*
X51118906Y-131046839D01*
X51173625Y-131128731D01*
X51243269Y-131198375D01*
X51325161Y-131253094D01*
X51416155Y-131290785D01*
X51512754Y-131310000D01*
X51611246Y-131310000D01*
X51707845Y-131290785D01*
X51798839Y-131253094D01*
X51880731Y-131198375D01*
X51950375Y-131128731D01*
X52005094Y-131046839D01*
X52042785Y-130955845D01*
X52062000Y-130859246D01*
X52062000Y-130760754D01*
X56904000Y-130760754D01*
X56904000Y-130859246D01*
X56923215Y-130955845D01*
X56960906Y-131046839D01*
X57015625Y-131128731D01*
X57085269Y-131198375D01*
X57167161Y-131253094D01*
X57258155Y-131290785D01*
X57354754Y-131310000D01*
X57453246Y-131310000D01*
X57549845Y-131290785D01*
X57640839Y-131253094D01*
X57722731Y-131198375D01*
X57792375Y-131128731D01*
X57847094Y-131046839D01*
X57884785Y-130955845D01*
X57904000Y-130859246D01*
X57904000Y-130760754D01*
X57884785Y-130664155D01*
X57847094Y-130573161D01*
X57792375Y-130491269D01*
X57722731Y-130421625D01*
X57640839Y-130366906D01*
X57549845Y-130329215D01*
X57453246Y-130310000D01*
X57354754Y-130310000D01*
X57258155Y-130329215D01*
X57167161Y-130366906D01*
X57085269Y-130421625D01*
X57015625Y-130491269D01*
X56960906Y-130573161D01*
X56923215Y-130664155D01*
X56904000Y-130760754D01*
X52062000Y-130760754D01*
X52042785Y-130664155D01*
X52005094Y-130573161D01*
X51950375Y-130491269D01*
X51880731Y-130421625D01*
X51798839Y-130366906D01*
X51707845Y-130329215D01*
X51611246Y-130310000D01*
X51512754Y-130310000D01*
X51416155Y-130329215D01*
X51325161Y-130366906D01*
X51243269Y-130421625D01*
X51173625Y-130491269D01*
X51118906Y-130573161D01*
X51081215Y-130664155D01*
X51062000Y-130760754D01*
X47998000Y-130760754D01*
X47978785Y-130664155D01*
X47941094Y-130573161D01*
X47886375Y-130491269D01*
X47816731Y-130421625D01*
X47734839Y-130366906D01*
X47643845Y-130329215D01*
X47547246Y-130310000D01*
X47448754Y-130310000D01*
X47352155Y-130329215D01*
X47261161Y-130366906D01*
X47179269Y-130421625D01*
X47109625Y-130491269D01*
X47054906Y-130573161D01*
X47017215Y-130664155D01*
X46998000Y-130760754D01*
X42611000Y-130760754D01*
X42611000Y-129490754D01*
X51062000Y-129490754D01*
X51062000Y-129589246D01*
X51081215Y-129685845D01*
X51118906Y-129776839D01*
X51173625Y-129858731D01*
X51243269Y-129928375D01*
X51325161Y-129983094D01*
X51416155Y-130020785D01*
X51512754Y-130040000D01*
X51611246Y-130040000D01*
X51707845Y-130020785D01*
X51761032Y-129998754D01*
X54110000Y-129998754D01*
X54110000Y-130097246D01*
X54129215Y-130193845D01*
X54166906Y-130284839D01*
X54221625Y-130366731D01*
X54291269Y-130436375D01*
X54373161Y-130491094D01*
X54464155Y-130528785D01*
X54560754Y-130548000D01*
X54659246Y-130548000D01*
X54755845Y-130528785D01*
X54846839Y-130491094D01*
X54928731Y-130436375D01*
X54998375Y-130366731D01*
X55053094Y-130284839D01*
X55090785Y-130193845D01*
X55110000Y-130097246D01*
X55110000Y-129998754D01*
X55090785Y-129902155D01*
X55053094Y-129811161D01*
X54998375Y-129729269D01*
X54928731Y-129659625D01*
X54846839Y-129604906D01*
X54755845Y-129567215D01*
X54659246Y-129548000D01*
X54560754Y-129548000D01*
X54464155Y-129567215D01*
X54373161Y-129604906D01*
X54291269Y-129659625D01*
X54221625Y-129729269D01*
X54166906Y-129811161D01*
X54129215Y-129902155D01*
X54110000Y-129998754D01*
X51761032Y-129998754D01*
X51798839Y-129983094D01*
X51880731Y-129928375D01*
X51950375Y-129858731D01*
X52005094Y-129776839D01*
X52042785Y-129685845D01*
X52062000Y-129589246D01*
X52062000Y-129490754D01*
X52042785Y-129394155D01*
X52005094Y-129303161D01*
X51960722Y-129236754D01*
X69604000Y-129236754D01*
X69604000Y-129335246D01*
X69623215Y-129431845D01*
X69660906Y-129522839D01*
X69715625Y-129604731D01*
X69785269Y-129674375D01*
X69867161Y-129729094D01*
X69958155Y-129766785D01*
X70054754Y-129786000D01*
X70153246Y-129786000D01*
X70249845Y-129766785D01*
X70340839Y-129729094D01*
X70422731Y-129674375D01*
X70492375Y-129604731D01*
X70547094Y-129522839D01*
X70584785Y-129431845D01*
X70604000Y-129335246D01*
X70604000Y-129236754D01*
X70584785Y-129140155D01*
X70547094Y-129049161D01*
X70492375Y-128967269D01*
X70422731Y-128897625D01*
X70340839Y-128842906D01*
X70249845Y-128805215D01*
X70153246Y-128786000D01*
X70054754Y-128786000D01*
X69958155Y-128805215D01*
X69867161Y-128842906D01*
X69785269Y-128897625D01*
X69715625Y-128967269D01*
X69660906Y-129049161D01*
X69623215Y-129140155D01*
X69604000Y-129236754D01*
X51960722Y-129236754D01*
X51950375Y-129221269D01*
X51880731Y-129151625D01*
X51798839Y-129096906D01*
X51707845Y-129059215D01*
X51611246Y-129040000D01*
X51512754Y-129040000D01*
X51416155Y-129059215D01*
X51325161Y-129096906D01*
X51243269Y-129151625D01*
X51173625Y-129221269D01*
X51118906Y-129303161D01*
X51081215Y-129394155D01*
X51062000Y-129490754D01*
X42611000Y-129490754D01*
X42611000Y-128220754D01*
X51316000Y-128220754D01*
X51316000Y-128319246D01*
X51335215Y-128415845D01*
X51372906Y-128506839D01*
X51427625Y-128588731D01*
X51497269Y-128658375D01*
X51579161Y-128713094D01*
X51670155Y-128750785D01*
X51766754Y-128770000D01*
X51865246Y-128770000D01*
X51961845Y-128750785D01*
X52052839Y-128713094D01*
X52134163Y-128658754D01*
X56212000Y-128658754D01*
X56212000Y-128757246D01*
X56231215Y-128853845D01*
X56268906Y-128944839D01*
X56323625Y-129026731D01*
X56393269Y-129096375D01*
X56475161Y-129151094D01*
X56566155Y-129188785D01*
X56662754Y-129208000D01*
X56761246Y-129208000D01*
X56857845Y-129188785D01*
X56948839Y-129151094D01*
X57030731Y-129096375D01*
X57100375Y-129026731D01*
X57155094Y-128944839D01*
X57192785Y-128853845D01*
X57212000Y-128757246D01*
X57212000Y-128658754D01*
X57192785Y-128562155D01*
X57155094Y-128471161D01*
X57100375Y-128389269D01*
X57030731Y-128319625D01*
X56948839Y-128264906D01*
X56857845Y-128227215D01*
X56761246Y-128208000D01*
X56662754Y-128208000D01*
X56566155Y-128227215D01*
X56475161Y-128264906D01*
X56393269Y-128319625D01*
X56323625Y-128389269D01*
X56268906Y-128471161D01*
X56231215Y-128562155D01*
X56212000Y-128658754D01*
X52134163Y-128658754D01*
X52134731Y-128658375D01*
X52204375Y-128588731D01*
X52259094Y-128506839D01*
X52296785Y-128415845D01*
X52316000Y-128319246D01*
X52316000Y-128220754D01*
X52296785Y-128124155D01*
X52259094Y-128033161D01*
X52204375Y-127951269D01*
X52134731Y-127881625D01*
X52052839Y-127826906D01*
X51961845Y-127789215D01*
X51865246Y-127770000D01*
X51766754Y-127770000D01*
X51670155Y-127789215D01*
X51579161Y-127826906D01*
X51497269Y-127881625D01*
X51427625Y-127951269D01*
X51372906Y-128033161D01*
X51335215Y-128124155D01*
X51316000Y-128220754D01*
X42611000Y-128220754D01*
X42611000Y-126950754D01*
X50300000Y-126950754D01*
X50300000Y-127049246D01*
X50319215Y-127145845D01*
X50356906Y-127236839D01*
X50411625Y-127318731D01*
X50481269Y-127388375D01*
X50563161Y-127443094D01*
X50654155Y-127480785D01*
X50750754Y-127500000D01*
X50849246Y-127500000D01*
X50945845Y-127480785D01*
X50999032Y-127458754D01*
X56396000Y-127458754D01*
X56396000Y-127557246D01*
X56415215Y-127653845D01*
X56452906Y-127744839D01*
X56507625Y-127826731D01*
X56577269Y-127896375D01*
X56659161Y-127951094D01*
X56750155Y-127988785D01*
X56846754Y-128008000D01*
X56945246Y-128008000D01*
X57041845Y-127988785D01*
X57132839Y-127951094D01*
X57214731Y-127896375D01*
X57284375Y-127826731D01*
X57339094Y-127744839D01*
X57376785Y-127653845D01*
X57396000Y-127557246D01*
X57396000Y-127479891D01*
X59983877Y-127479891D01*
X59983877Y-127578383D01*
X60003092Y-127674982D01*
X60040783Y-127765976D01*
X60095502Y-127847868D01*
X60165146Y-127917512D01*
X60247038Y-127972231D01*
X60338032Y-128009922D01*
X60434631Y-128029137D01*
X60533123Y-128029137D01*
X60629722Y-128009922D01*
X60720716Y-127972231D01*
X60802608Y-127917512D01*
X60872252Y-127847868D01*
X60926971Y-127765976D01*
X60949016Y-127712754D01*
X61476000Y-127712754D01*
X61476000Y-127811246D01*
X61495215Y-127907845D01*
X61532906Y-127998839D01*
X61587625Y-128080731D01*
X61657269Y-128150375D01*
X61739161Y-128205094D01*
X61830155Y-128242785D01*
X61926754Y-128262000D01*
X62025246Y-128262000D01*
X62121845Y-128242785D01*
X62212839Y-128205094D01*
X62294731Y-128150375D01*
X62364375Y-128080731D01*
X62419094Y-127998839D01*
X62456785Y-127907845D01*
X62476000Y-127811246D01*
X62476000Y-127712754D01*
X62456785Y-127616155D01*
X62419094Y-127525161D01*
X62374722Y-127458754D01*
X67826000Y-127458754D01*
X67826000Y-127557246D01*
X67845215Y-127653845D01*
X67882906Y-127744839D01*
X67937625Y-127826731D01*
X68007269Y-127896375D01*
X68089161Y-127951094D01*
X68180155Y-127988785D01*
X68276754Y-128008000D01*
X68375246Y-128008000D01*
X68471845Y-127988785D01*
X68525032Y-127966754D01*
X71128000Y-127966754D01*
X71128000Y-128065246D01*
X71147215Y-128161845D01*
X71184906Y-128252839D01*
X71239625Y-128334731D01*
X71309269Y-128404375D01*
X71391161Y-128459094D01*
X71482155Y-128496785D01*
X71567542Y-128513770D01*
X71563269Y-128516625D01*
X71493625Y-128586269D01*
X71438906Y-128668161D01*
X71401215Y-128759155D01*
X71382000Y-128855754D01*
X71382000Y-128954246D01*
X71401215Y-129050845D01*
X71438906Y-129141839D01*
X71493625Y-129223731D01*
X71563269Y-129293375D01*
X71645161Y-129348094D01*
X71736155Y-129385785D01*
X71832754Y-129405000D01*
X71931246Y-129405000D01*
X72027845Y-129385785D01*
X72118839Y-129348094D01*
X72200731Y-129293375D01*
X72270375Y-129223731D01*
X72325094Y-129141839D01*
X72362785Y-129050845D01*
X72382000Y-128954246D01*
X72382000Y-128855754D01*
X72362785Y-128759155D01*
X72325094Y-128668161D01*
X72270375Y-128586269D01*
X72200731Y-128516625D01*
X72118839Y-128461906D01*
X72027845Y-128424215D01*
X71942458Y-128407230D01*
X71946731Y-128404375D01*
X72016375Y-128334731D01*
X72071094Y-128252839D01*
X72108785Y-128161845D01*
X72128000Y-128065246D01*
X72128000Y-127966754D01*
X72108785Y-127870155D01*
X72071094Y-127779161D01*
X72016375Y-127697269D01*
X71946731Y-127627625D01*
X71864839Y-127572906D01*
X71773845Y-127535215D01*
X71677246Y-127516000D01*
X71578754Y-127516000D01*
X71482155Y-127535215D01*
X71391161Y-127572906D01*
X71309269Y-127627625D01*
X71239625Y-127697269D01*
X71184906Y-127779161D01*
X71147215Y-127870155D01*
X71128000Y-127966754D01*
X68525032Y-127966754D01*
X68562839Y-127951094D01*
X68644731Y-127896375D01*
X68714375Y-127826731D01*
X68769094Y-127744839D01*
X68806785Y-127653845D01*
X68826000Y-127557246D01*
X68826000Y-127458754D01*
X68806785Y-127362155D01*
X68769094Y-127271161D01*
X68724722Y-127204754D01*
X72906000Y-127204754D01*
X72906000Y-127303246D01*
X72925215Y-127399845D01*
X72962906Y-127490839D01*
X73017625Y-127572731D01*
X73087269Y-127642375D01*
X73169161Y-127697094D01*
X73260155Y-127734785D01*
X73356754Y-127754000D01*
X73455246Y-127754000D01*
X73551845Y-127734785D01*
X73642839Y-127697094D01*
X73724731Y-127642375D01*
X73794375Y-127572731D01*
X73849094Y-127490839D01*
X73886785Y-127399845D01*
X73906000Y-127303246D01*
X73906000Y-127204754D01*
X73886785Y-127108155D01*
X73849094Y-127017161D01*
X73794375Y-126935269D01*
X73724731Y-126865625D01*
X73642839Y-126810906D01*
X73551845Y-126773215D01*
X73455246Y-126754000D01*
X73356754Y-126754000D01*
X73260155Y-126773215D01*
X73169161Y-126810906D01*
X73087269Y-126865625D01*
X73017625Y-126935269D01*
X72962906Y-127017161D01*
X72925215Y-127108155D01*
X72906000Y-127204754D01*
X68724722Y-127204754D01*
X68714375Y-127189269D01*
X68644731Y-127119625D01*
X68562839Y-127064906D01*
X68471845Y-127027215D01*
X68375246Y-127008000D01*
X68276754Y-127008000D01*
X68180155Y-127027215D01*
X68089161Y-127064906D01*
X68007269Y-127119625D01*
X67937625Y-127189269D01*
X67882906Y-127271161D01*
X67845215Y-127362155D01*
X67826000Y-127458754D01*
X62374722Y-127458754D01*
X62364375Y-127443269D01*
X62294731Y-127373625D01*
X62212839Y-127318906D01*
X62121845Y-127281215D01*
X62025246Y-127262000D01*
X61926754Y-127262000D01*
X61830155Y-127281215D01*
X61739161Y-127318906D01*
X61657269Y-127373625D01*
X61587625Y-127443269D01*
X61532906Y-127525161D01*
X61495215Y-127616155D01*
X61476000Y-127712754D01*
X60949016Y-127712754D01*
X60964662Y-127674982D01*
X60983877Y-127578383D01*
X60983877Y-127479891D01*
X60964662Y-127383292D01*
X60926971Y-127292298D01*
X60872252Y-127210406D01*
X60802608Y-127140762D01*
X60720716Y-127086043D01*
X60629722Y-127048352D01*
X60533123Y-127029137D01*
X60434631Y-127029137D01*
X60338032Y-127048352D01*
X60247038Y-127086043D01*
X60165146Y-127140762D01*
X60095502Y-127210406D01*
X60040783Y-127292298D01*
X60003092Y-127383292D01*
X59983877Y-127479891D01*
X57396000Y-127479891D01*
X57396000Y-127458754D01*
X57376785Y-127362155D01*
X57339094Y-127271161D01*
X57284375Y-127189269D01*
X57214731Y-127119625D01*
X57132839Y-127064906D01*
X57041845Y-127027215D01*
X56945246Y-127008000D01*
X56846754Y-127008000D01*
X56750155Y-127027215D01*
X56659161Y-127064906D01*
X56577269Y-127119625D01*
X56507625Y-127189269D01*
X56452906Y-127271161D01*
X56415215Y-127362155D01*
X56396000Y-127458754D01*
X50999032Y-127458754D01*
X51036839Y-127443094D01*
X51118731Y-127388375D01*
X51188375Y-127318731D01*
X51243094Y-127236839D01*
X51280785Y-127145845D01*
X51300000Y-127049246D01*
X51300000Y-126950754D01*
X51280785Y-126854155D01*
X51243094Y-126763161D01*
X51188375Y-126681269D01*
X51118731Y-126611625D01*
X51036839Y-126556906D01*
X50945845Y-126519215D01*
X50849246Y-126500000D01*
X50750754Y-126500000D01*
X50654155Y-126519215D01*
X50563161Y-126556906D01*
X50481269Y-126611625D01*
X50411625Y-126681269D01*
X50356906Y-126763161D01*
X50319215Y-126854155D01*
X50300000Y-126950754D01*
X42611000Y-126950754D01*
X42611000Y-126444976D01*
X56668997Y-126444976D01*
X56668997Y-126543468D01*
X56688212Y-126640067D01*
X56725903Y-126731061D01*
X56780622Y-126812953D01*
X56850266Y-126882597D01*
X56932158Y-126937316D01*
X57023152Y-126975007D01*
X57119751Y-126994222D01*
X57218243Y-126994222D01*
X57314842Y-126975007D01*
X57405836Y-126937316D01*
X57487728Y-126882597D01*
X57557372Y-126812953D01*
X57612091Y-126731061D01*
X57614015Y-126726416D01*
X60748848Y-126726416D01*
X60748848Y-126824908D01*
X60768063Y-126921507D01*
X60805754Y-127012501D01*
X60860473Y-127094393D01*
X60930117Y-127164037D01*
X61012009Y-127218756D01*
X61103003Y-127256447D01*
X61199602Y-127275662D01*
X61298094Y-127275662D01*
X61394693Y-127256447D01*
X61485687Y-127218756D01*
X61567579Y-127164037D01*
X61637223Y-127094393D01*
X61691942Y-127012501D01*
X61729633Y-126921507D01*
X61748848Y-126824908D01*
X61748848Y-126726416D01*
X61746112Y-126712659D01*
X65560132Y-126712659D01*
X65560132Y-126811151D01*
X65579347Y-126907750D01*
X65617038Y-126998744D01*
X65671757Y-127080636D01*
X65741401Y-127150280D01*
X65823293Y-127204999D01*
X65914287Y-127242690D01*
X66010886Y-127261905D01*
X66109378Y-127261905D01*
X66205977Y-127242690D01*
X66296971Y-127204999D01*
X66378863Y-127150280D01*
X66448507Y-127080636D01*
X66503226Y-126998744D01*
X66540917Y-126907750D01*
X66560132Y-126811151D01*
X66560132Y-126712659D01*
X66540917Y-126616060D01*
X66503226Y-126525066D01*
X66448507Y-126443174D01*
X66378863Y-126373530D01*
X66296971Y-126318811D01*
X66205977Y-126281120D01*
X66109378Y-126261905D01*
X66010886Y-126261905D01*
X65914287Y-126281120D01*
X65823293Y-126318811D01*
X65741401Y-126373530D01*
X65671757Y-126443174D01*
X65617038Y-126525066D01*
X65579347Y-126616060D01*
X65560132Y-126712659D01*
X61746112Y-126712659D01*
X61729633Y-126629817D01*
X61691942Y-126538823D01*
X61637223Y-126456931D01*
X61567579Y-126387287D01*
X61485687Y-126332568D01*
X61394693Y-126294877D01*
X61298094Y-126275662D01*
X61199602Y-126275662D01*
X61103003Y-126294877D01*
X61012009Y-126332568D01*
X60930117Y-126387287D01*
X60860473Y-126456931D01*
X60805754Y-126538823D01*
X60768063Y-126629817D01*
X60748848Y-126726416D01*
X57614015Y-126726416D01*
X57649782Y-126640067D01*
X57668997Y-126543468D01*
X57668997Y-126444976D01*
X57649782Y-126348377D01*
X57612091Y-126257383D01*
X57557372Y-126175491D01*
X57487728Y-126105847D01*
X57457933Y-126085938D01*
X61615143Y-126085938D01*
X61615143Y-126184430D01*
X61634358Y-126281029D01*
X61672049Y-126372023D01*
X61726768Y-126453915D01*
X61796412Y-126523559D01*
X61878304Y-126578278D01*
X61969298Y-126615969D01*
X62065897Y-126635184D01*
X62164389Y-126635184D01*
X62260988Y-126615969D01*
X62351982Y-126578278D01*
X62433874Y-126523559D01*
X62503518Y-126453915D01*
X62558237Y-126372023D01*
X62569159Y-126345656D01*
X62636984Y-126413481D01*
X62718876Y-126468200D01*
X62809870Y-126505891D01*
X62906469Y-126525106D01*
X63004961Y-126525106D01*
X63101560Y-126505891D01*
X63192554Y-126468200D01*
X63274446Y-126413481D01*
X63344090Y-126343837D01*
X63398809Y-126261945D01*
X63436500Y-126170951D01*
X63455715Y-126074352D01*
X63455715Y-125975860D01*
X63436500Y-125879261D01*
X63398809Y-125788267D01*
X63344090Y-125706375D01*
X63278878Y-125641163D01*
X63294826Y-125630507D01*
X63364470Y-125560863D01*
X63419189Y-125478971D01*
X63456880Y-125387977D01*
X63474428Y-125299754D01*
X72017000Y-125299754D01*
X72017000Y-125398246D01*
X72036215Y-125494845D01*
X72073906Y-125585839D01*
X72128625Y-125667731D01*
X72198269Y-125737375D01*
X72280161Y-125792094D01*
X72371155Y-125829785D01*
X72467754Y-125849000D01*
X72566246Y-125849000D01*
X72662845Y-125829785D01*
X72753839Y-125792094D01*
X72835731Y-125737375D01*
X72905375Y-125667731D01*
X72960094Y-125585839D01*
X72997785Y-125494845D01*
X73017000Y-125398246D01*
X73017000Y-125299754D01*
X72997785Y-125203155D01*
X72960094Y-125112161D01*
X72905375Y-125030269D01*
X72835731Y-124960625D01*
X72753839Y-124905906D01*
X72662845Y-124868215D01*
X72566246Y-124849000D01*
X72467754Y-124849000D01*
X72371155Y-124868215D01*
X72280161Y-124905906D01*
X72198269Y-124960625D01*
X72128625Y-125030269D01*
X72073906Y-125112161D01*
X72036215Y-125203155D01*
X72017000Y-125299754D01*
X63474428Y-125299754D01*
X63476095Y-125291378D01*
X63476095Y-125192886D01*
X63456880Y-125096287D01*
X63419189Y-125005293D01*
X63364470Y-124923401D01*
X63294826Y-124853757D01*
X63212934Y-124799038D01*
X63121940Y-124761347D01*
X63025341Y-124742132D01*
X62926849Y-124742132D01*
X62830250Y-124761347D01*
X62739256Y-124799038D01*
X62657364Y-124853757D01*
X62587720Y-124923401D01*
X62533001Y-125005293D01*
X62495310Y-125096287D01*
X62476095Y-125192886D01*
X62476095Y-125291378D01*
X62495310Y-125387977D01*
X62533001Y-125478971D01*
X62587720Y-125560863D01*
X62652932Y-125626075D01*
X62636984Y-125636731D01*
X62567340Y-125706375D01*
X62512621Y-125788267D01*
X62501699Y-125814634D01*
X62433874Y-125746809D01*
X62351982Y-125692090D01*
X62260988Y-125654399D01*
X62164389Y-125635184D01*
X62065897Y-125635184D01*
X61969298Y-125654399D01*
X61878304Y-125692090D01*
X61796412Y-125746809D01*
X61726768Y-125816453D01*
X61672049Y-125898345D01*
X61634358Y-125989339D01*
X61615143Y-126085938D01*
X57457933Y-126085938D01*
X57405836Y-126051128D01*
X57314842Y-126013437D01*
X57218243Y-125994222D01*
X57119751Y-125994222D01*
X57023152Y-126013437D01*
X56932158Y-126051128D01*
X56850266Y-126105847D01*
X56780622Y-126175491D01*
X56725903Y-126257383D01*
X56688212Y-126348377D01*
X56668997Y-126444976D01*
X42611000Y-126444976D01*
X42611000Y-125680754D01*
X46490000Y-125680754D01*
X46490000Y-125779246D01*
X46509215Y-125875845D01*
X46546906Y-125966839D01*
X46601625Y-126048731D01*
X46671269Y-126118375D01*
X46753161Y-126173094D01*
X46844155Y-126210785D01*
X46940754Y-126230000D01*
X47039246Y-126230000D01*
X47135845Y-126210785D01*
X47226839Y-126173094D01*
X47308731Y-126118375D01*
X47378375Y-126048731D01*
X47433094Y-125966839D01*
X47470785Y-125875845D01*
X47490000Y-125779246D01*
X47490000Y-125680754D01*
X52586000Y-125680754D01*
X52586000Y-125779246D01*
X52605215Y-125875845D01*
X52642906Y-125966839D01*
X52697625Y-126048731D01*
X52767269Y-126118375D01*
X52849161Y-126173094D01*
X52940155Y-126210785D01*
X53036754Y-126230000D01*
X53135246Y-126230000D01*
X53231845Y-126210785D01*
X53322839Y-126173094D01*
X53404731Y-126118375D01*
X53474375Y-126048731D01*
X53529094Y-125966839D01*
X53566785Y-125875845D01*
X53586000Y-125779246D01*
X53586000Y-125680754D01*
X53566785Y-125584155D01*
X53529094Y-125493161D01*
X53474375Y-125411269D01*
X53404731Y-125341625D01*
X53322839Y-125286906D01*
X53231845Y-125249215D01*
X53135246Y-125230000D01*
X53036754Y-125230000D01*
X52940155Y-125249215D01*
X52849161Y-125286906D01*
X52767269Y-125341625D01*
X52697625Y-125411269D01*
X52642906Y-125493161D01*
X52605215Y-125584155D01*
X52586000Y-125680754D01*
X47490000Y-125680754D01*
X47470785Y-125584155D01*
X47433094Y-125493161D01*
X47378375Y-125411269D01*
X47308731Y-125341625D01*
X47226839Y-125286906D01*
X47135845Y-125249215D01*
X47039246Y-125230000D01*
X46940754Y-125230000D01*
X46844155Y-125249215D01*
X46753161Y-125286906D01*
X46671269Y-125341625D01*
X46601625Y-125411269D01*
X46546906Y-125493161D01*
X46509215Y-125584155D01*
X46490000Y-125680754D01*
X42611000Y-125680754D01*
X42611000Y-125184754D01*
X59952000Y-125184754D01*
X59952000Y-125283246D01*
X59971215Y-125379845D01*
X60008906Y-125470839D01*
X60063625Y-125552731D01*
X60133269Y-125622375D01*
X60215161Y-125677094D01*
X60306155Y-125714785D01*
X60402754Y-125734000D01*
X60501246Y-125734000D01*
X60597845Y-125714785D01*
X60688839Y-125677094D01*
X60770731Y-125622375D01*
X60840375Y-125552731D01*
X60895094Y-125470839D01*
X60932785Y-125379845D01*
X60952000Y-125283246D01*
X60952000Y-125184754D01*
X60932785Y-125088155D01*
X60895094Y-124997161D01*
X60840375Y-124915269D01*
X60782794Y-124857688D01*
X60796731Y-124848375D01*
X60846000Y-124799106D01*
X60895269Y-124848375D01*
X60977161Y-124903094D01*
X61068155Y-124940785D01*
X61164754Y-124960000D01*
X61263246Y-124960000D01*
X61359845Y-124940785D01*
X61450839Y-124903094D01*
X61532731Y-124848375D01*
X61602375Y-124778731D01*
X61657094Y-124696839D01*
X61694785Y-124605845D01*
X61707102Y-124543924D01*
X61719419Y-124605844D01*
X61757110Y-124696838D01*
X61811829Y-124778730D01*
X61881473Y-124848374D01*
X61963365Y-124903093D01*
X62054359Y-124940784D01*
X62150958Y-124959999D01*
X62249450Y-124959999D01*
X62346049Y-124940784D01*
X62437043Y-124903093D01*
X62518935Y-124848374D01*
X62588579Y-124778730D01*
X62643298Y-124696838D01*
X62680989Y-124605844D01*
X62700204Y-124509245D01*
X62700204Y-124410753D01*
X62680989Y-124314154D01*
X62643298Y-124223160D01*
X62588579Y-124141268D01*
X62518935Y-124071624D01*
X62437043Y-124016905D01*
X62346049Y-123979214D01*
X62249450Y-123959999D01*
X62150958Y-123959999D01*
X62054359Y-123979214D01*
X61963365Y-124016905D01*
X61881473Y-124071624D01*
X61811829Y-124141268D01*
X61757110Y-124223160D01*
X61719419Y-124314154D01*
X61707102Y-124376075D01*
X61694785Y-124314155D01*
X61657094Y-124223161D01*
X61602375Y-124141269D01*
X61532731Y-124071625D01*
X61450839Y-124016906D01*
X61359845Y-123979215D01*
X61263246Y-123960000D01*
X61164754Y-123960000D01*
X61068155Y-123979215D01*
X60977161Y-124016906D01*
X60895269Y-124071625D01*
X60846000Y-124120894D01*
X60796731Y-124071625D01*
X60714839Y-124016906D01*
X60623845Y-123979215D01*
X60527246Y-123960000D01*
X60428754Y-123960000D01*
X60332155Y-123979215D01*
X60241161Y-124016906D01*
X60159269Y-124071625D01*
X60089625Y-124141269D01*
X60034906Y-124223161D01*
X59997215Y-124314155D01*
X59978000Y-124410754D01*
X59978000Y-124509246D01*
X59997215Y-124605845D01*
X60034906Y-124696839D01*
X60089625Y-124778731D01*
X60147206Y-124836312D01*
X60133269Y-124845625D01*
X60063625Y-124915269D01*
X60008906Y-124997161D01*
X59971215Y-125088155D01*
X59952000Y-125184754D01*
X42611000Y-125184754D01*
X42611000Y-123648754D01*
X63254000Y-123648754D01*
X63254000Y-123747246D01*
X63273215Y-123843845D01*
X63310906Y-123934839D01*
X63365625Y-124016731D01*
X63435269Y-124086375D01*
X63517161Y-124141094D01*
X63608155Y-124178785D01*
X63704754Y-124198000D01*
X63803246Y-124198000D01*
X63899845Y-124178785D01*
X63990839Y-124141094D01*
X64072731Y-124086375D01*
X64142375Y-124016731D01*
X64197094Y-123934839D01*
X64234785Y-123843845D01*
X64254000Y-123747246D01*
X64254000Y-123648754D01*
X64234785Y-123552155D01*
X64197094Y-123461161D01*
X64142375Y-123379269D01*
X64072731Y-123309625D01*
X63990839Y-123254906D01*
X63899845Y-123217215D01*
X63803246Y-123198000D01*
X63704754Y-123198000D01*
X63608155Y-123217215D01*
X63517161Y-123254906D01*
X63435269Y-123309625D01*
X63365625Y-123379269D01*
X63310906Y-123461161D01*
X63273215Y-123552155D01*
X63254000Y-123648754D01*
X42611000Y-123648754D01*
X42611000Y-120346754D01*
X59952000Y-120346754D01*
X59952000Y-120445246D01*
X59971215Y-120541845D01*
X60008906Y-120632839D01*
X60063625Y-120714731D01*
X60132075Y-120783181D01*
X60070505Y-120844751D01*
X60015786Y-120926643D01*
X59978095Y-121017637D01*
X59958880Y-121114236D01*
X59958880Y-121212728D01*
X59978095Y-121309327D01*
X60015786Y-121400321D01*
X60070505Y-121482213D01*
X60140149Y-121551857D01*
X60222041Y-121606576D01*
X60313035Y-121644267D01*
X60409634Y-121663482D01*
X60508126Y-121663482D01*
X60604725Y-121644267D01*
X60695719Y-121606576D01*
X60777611Y-121551857D01*
X60796011Y-121533457D01*
X60826735Y-121607632D01*
X60860869Y-121658716D01*
X60837316Y-121682269D01*
X60782597Y-121764161D01*
X60744906Y-121855155D01*
X60725691Y-121951754D01*
X60725691Y-122050246D01*
X60744906Y-122146845D01*
X60782597Y-122237839D01*
X60837316Y-122319731D01*
X60906960Y-122389375D01*
X60988852Y-122444094D01*
X61041928Y-122466079D01*
X60977161Y-122492906D01*
X60895269Y-122547625D01*
X60825625Y-122617269D01*
X60770906Y-122699161D01*
X60733215Y-122790155D01*
X60714000Y-122886754D01*
X60714000Y-122985246D01*
X60733215Y-123081845D01*
X60770906Y-123172839D01*
X60825625Y-123254731D01*
X60895269Y-123324375D01*
X60977161Y-123379094D01*
X61068155Y-123416785D01*
X61164754Y-123436000D01*
X61263246Y-123436000D01*
X61359845Y-123416785D01*
X61450839Y-123379094D01*
X61532731Y-123324375D01*
X61583119Y-123273987D01*
X61587625Y-123280731D01*
X61657269Y-123350375D01*
X61739161Y-123405094D01*
X61830155Y-123442785D01*
X61926754Y-123462000D01*
X62025246Y-123462000D01*
X62121845Y-123442785D01*
X62212839Y-123405094D01*
X62294731Y-123350375D01*
X62364375Y-123280731D01*
X62419094Y-123198839D01*
X62456785Y-123107845D01*
X62476000Y-123011246D01*
X62476000Y-122912754D01*
X62470829Y-122886754D01*
X67826000Y-122886754D01*
X67826000Y-122985246D01*
X67845215Y-123081845D01*
X67882906Y-123172839D01*
X67937625Y-123254731D01*
X67999894Y-123317000D01*
X67937625Y-123379269D01*
X67882906Y-123461161D01*
X67845215Y-123552155D01*
X67826000Y-123648754D01*
X67826000Y-123747246D01*
X67845215Y-123843845D01*
X67882906Y-123934839D01*
X67937625Y-124016731D01*
X68007269Y-124086375D01*
X68089161Y-124141094D01*
X68180155Y-124178785D01*
X68276754Y-124198000D01*
X68375246Y-124198000D01*
X68471845Y-124178785D01*
X68562839Y-124141094D01*
X68644731Y-124086375D01*
X68714375Y-124016731D01*
X68769094Y-123934839D01*
X68782384Y-123902754D01*
X71382000Y-123902754D01*
X71382000Y-124001246D01*
X71401215Y-124097845D01*
X71438906Y-124188839D01*
X71493625Y-124270731D01*
X71563269Y-124340375D01*
X71645161Y-124395094D01*
X71736155Y-124432785D01*
X71832754Y-124452000D01*
X71931246Y-124452000D01*
X72027845Y-124432785D01*
X72118839Y-124395094D01*
X72200731Y-124340375D01*
X72270375Y-124270731D01*
X72325094Y-124188839D01*
X72362785Y-124097845D01*
X72382000Y-124001246D01*
X72382000Y-123902754D01*
X72362785Y-123806155D01*
X72325094Y-123715161D01*
X72270375Y-123633269D01*
X72200731Y-123563625D01*
X72118839Y-123508906D01*
X72027845Y-123471215D01*
X71931246Y-123452000D01*
X71832754Y-123452000D01*
X71736155Y-123471215D01*
X71645161Y-123508906D01*
X71563269Y-123563625D01*
X71493625Y-123633269D01*
X71438906Y-123715161D01*
X71401215Y-123806155D01*
X71382000Y-123902754D01*
X68782384Y-123902754D01*
X68806785Y-123843845D01*
X68826000Y-123747246D01*
X68826000Y-123648754D01*
X68806785Y-123552155D01*
X68769094Y-123461161D01*
X68714375Y-123379269D01*
X68652106Y-123317000D01*
X68714375Y-123254731D01*
X68769094Y-123172839D01*
X68806785Y-123081845D01*
X68826000Y-122985246D01*
X68826000Y-122886754D01*
X68806785Y-122790155D01*
X68769094Y-122699161D01*
X68714375Y-122617269D01*
X68644731Y-122547625D01*
X68562839Y-122492906D01*
X68471845Y-122455215D01*
X68375246Y-122436000D01*
X68276754Y-122436000D01*
X68180155Y-122455215D01*
X68089161Y-122492906D01*
X68007269Y-122547625D01*
X67937625Y-122617269D01*
X67882906Y-122699161D01*
X67845215Y-122790155D01*
X67826000Y-122886754D01*
X62470829Y-122886754D01*
X62456785Y-122816155D01*
X62419094Y-122725161D01*
X62364375Y-122643269D01*
X62294731Y-122573625D01*
X62212839Y-122518906D01*
X62195176Y-122511590D01*
X62287711Y-122493183D01*
X62378705Y-122455492D01*
X62460597Y-122400773D01*
X62530241Y-122331129D01*
X62584960Y-122249237D01*
X62622651Y-122158243D01*
X62641866Y-122061644D01*
X62641866Y-121997754D01*
X64016000Y-121997754D01*
X64016000Y-122096246D01*
X64035215Y-122192845D01*
X64072906Y-122283839D01*
X64127625Y-122365731D01*
X64197269Y-122435375D01*
X64279161Y-122490094D01*
X64370155Y-122527785D01*
X64466754Y-122547000D01*
X64565246Y-122547000D01*
X64661845Y-122527785D01*
X64752839Y-122490094D01*
X64834731Y-122435375D01*
X64904375Y-122365731D01*
X64959094Y-122283839D01*
X64996785Y-122192845D01*
X65016000Y-122096246D01*
X65016000Y-121997754D01*
X66429000Y-121997754D01*
X66429000Y-122096246D01*
X66448215Y-122192845D01*
X66485906Y-122283839D01*
X66540625Y-122365731D01*
X66610269Y-122435375D01*
X66692161Y-122490094D01*
X66783155Y-122527785D01*
X66879754Y-122547000D01*
X66978246Y-122547000D01*
X67074845Y-122527785D01*
X67165839Y-122490094D01*
X67247731Y-122435375D01*
X67317375Y-122365731D01*
X67372094Y-122283839D01*
X67409785Y-122192845D01*
X67429000Y-122096246D01*
X67429000Y-121997754D01*
X67412888Y-121916754D01*
X83020000Y-121916754D01*
X83020000Y-122015246D01*
X83039215Y-122111845D01*
X83076906Y-122202839D01*
X83131625Y-122284731D01*
X83201269Y-122354375D01*
X83283161Y-122409094D01*
X83374155Y-122446785D01*
X83470754Y-122466000D01*
X83569246Y-122466000D01*
X83665845Y-122446785D01*
X83756839Y-122409094D01*
X83838731Y-122354375D01*
X83908375Y-122284731D01*
X83963094Y-122202839D01*
X84000785Y-122111845D01*
X84020000Y-122015246D01*
X84020000Y-121916754D01*
X84000785Y-121820155D01*
X83963094Y-121729161D01*
X83908375Y-121647269D01*
X83838731Y-121577625D01*
X83756839Y-121522906D01*
X83665845Y-121485215D01*
X83569246Y-121466000D01*
X83470754Y-121466000D01*
X83374155Y-121485215D01*
X83283161Y-121522906D01*
X83201269Y-121577625D01*
X83131625Y-121647269D01*
X83076906Y-121729161D01*
X83039215Y-121820155D01*
X83020000Y-121916754D01*
X67412888Y-121916754D01*
X67409785Y-121901155D01*
X67372094Y-121810161D01*
X67317375Y-121728269D01*
X67247731Y-121658625D01*
X67165839Y-121603906D01*
X67074845Y-121566215D01*
X66978246Y-121547000D01*
X66879754Y-121547000D01*
X66783155Y-121566215D01*
X66692161Y-121603906D01*
X66610269Y-121658625D01*
X66540625Y-121728269D01*
X66485906Y-121810161D01*
X66448215Y-121901155D01*
X66429000Y-121997754D01*
X65016000Y-121997754D01*
X64996785Y-121901155D01*
X64959094Y-121810161D01*
X64904375Y-121728269D01*
X64834731Y-121658625D01*
X64752839Y-121603906D01*
X64661845Y-121566215D01*
X64565246Y-121547000D01*
X64466754Y-121547000D01*
X64370155Y-121566215D01*
X64279161Y-121603906D01*
X64197269Y-121658625D01*
X64127625Y-121728269D01*
X64072906Y-121810161D01*
X64035215Y-121901155D01*
X64016000Y-121997754D01*
X62641866Y-121997754D01*
X62641866Y-121963152D01*
X62622651Y-121866553D01*
X62584960Y-121775559D01*
X62530241Y-121693667D01*
X62460597Y-121624023D01*
X62378705Y-121569304D01*
X62287711Y-121531613D01*
X62191112Y-121512398D01*
X62092620Y-121512398D01*
X61996021Y-121531613D01*
X61905027Y-121569304D01*
X61823135Y-121624023D01*
X61753491Y-121693667D01*
X61698772Y-121775559D01*
X61686139Y-121806057D01*
X61668785Y-121764161D01*
X61634651Y-121713077D01*
X61658204Y-121689524D01*
X61712923Y-121607632D01*
X61750614Y-121516638D01*
X61769829Y-121420039D01*
X61769829Y-121321547D01*
X61750614Y-121224948D01*
X61712923Y-121133954D01*
X61658204Y-121052062D01*
X61588560Y-120982418D01*
X61506668Y-120927699D01*
X61415674Y-120890008D01*
X61319075Y-120870793D01*
X61220583Y-120870793D01*
X61123984Y-120890008D01*
X61032990Y-120927699D01*
X60951098Y-120982418D01*
X60932698Y-121000818D01*
X60901974Y-120926643D01*
X60847255Y-120844751D01*
X60778805Y-120776301D01*
X60840375Y-120714731D01*
X60895094Y-120632839D01*
X60932785Y-120541845D01*
X60952000Y-120445246D01*
X60952000Y-120346754D01*
X60932785Y-120250155D01*
X60895094Y-120159161D01*
X60840375Y-120077269D01*
X60770731Y-120007625D01*
X60688839Y-119952906D01*
X60597845Y-119915215D01*
X60501246Y-119896000D01*
X60402754Y-119896000D01*
X60306155Y-119915215D01*
X60215161Y-119952906D01*
X60133269Y-120007625D01*
X60063625Y-120077269D01*
X60008906Y-120159161D01*
X59971215Y-120250155D01*
X59952000Y-120346754D01*
X42611000Y-120346754D01*
X42611000Y-119584754D01*
X62492000Y-119584754D01*
X62492000Y-119683246D01*
X62511215Y-119779845D01*
X62548906Y-119870839D01*
X62603625Y-119952731D01*
X62673269Y-120022375D01*
X62755161Y-120077094D01*
X62846155Y-120114785D01*
X62942754Y-120134000D01*
X63041246Y-120134000D01*
X63137845Y-120114785D01*
X63228839Y-120077094D01*
X63310731Y-120022375D01*
X63380375Y-119952731D01*
X63387042Y-119942752D01*
X71382000Y-119942752D01*
X71382000Y-120041244D01*
X71401215Y-120137843D01*
X71438906Y-120228837D01*
X71493625Y-120310729D01*
X71563269Y-120380373D01*
X71645161Y-120435092D01*
X71736155Y-120472783D01*
X71832754Y-120491998D01*
X71931246Y-120491998D01*
X72027845Y-120472783D01*
X72118839Y-120435092D01*
X72200731Y-120380373D01*
X72270375Y-120310729D01*
X72325094Y-120228837D01*
X72362785Y-120137843D01*
X72382000Y-120041244D01*
X72382000Y-119942752D01*
X72362785Y-119846153D01*
X72325094Y-119755159D01*
X72270375Y-119673267D01*
X72200731Y-119603623D01*
X72118839Y-119548904D01*
X72027845Y-119511213D01*
X71931246Y-119491998D01*
X71832754Y-119491998D01*
X71736155Y-119511213D01*
X71645161Y-119548904D01*
X71563269Y-119603623D01*
X71493625Y-119673267D01*
X71438906Y-119755159D01*
X71401215Y-119846153D01*
X71382000Y-119942752D01*
X63387042Y-119942752D01*
X63435094Y-119870839D01*
X63472785Y-119779845D01*
X63492000Y-119683246D01*
X63492000Y-119584754D01*
X63472785Y-119488155D01*
X63435094Y-119397161D01*
X63380375Y-119315269D01*
X63310731Y-119245625D01*
X63228839Y-119190906D01*
X63137845Y-119153215D01*
X63041246Y-119134000D01*
X62942754Y-119134000D01*
X62846155Y-119153215D01*
X62755161Y-119190906D01*
X62673269Y-119245625D01*
X62603625Y-119315269D01*
X62548906Y-119397161D01*
X62511215Y-119488155D01*
X62492000Y-119584754D01*
X42611000Y-119584754D01*
X42611000Y-118800412D01*
X67840280Y-118800412D01*
X67840280Y-118898904D01*
X67859495Y-118995503D01*
X67897186Y-119086497D01*
X67951905Y-119168389D01*
X68021549Y-119238033D01*
X68103441Y-119292752D01*
X68194435Y-119330443D01*
X68291034Y-119349658D01*
X68389526Y-119349658D01*
X68486125Y-119330443D01*
X68577119Y-119292752D01*
X68659011Y-119238033D01*
X68728655Y-119168389D01*
X68783374Y-119086497D01*
X68821065Y-118995503D01*
X68840280Y-118898904D01*
X68840280Y-118800412D01*
X68821065Y-118703813D01*
X68783374Y-118612819D01*
X68728655Y-118530927D01*
X68659011Y-118461283D01*
X68577119Y-118406564D01*
X68486125Y-118368873D01*
X68389526Y-118349658D01*
X68291034Y-118349658D01*
X68194435Y-118368873D01*
X68103441Y-118406564D01*
X68021549Y-118461283D01*
X67951905Y-118530927D01*
X67897186Y-118612819D01*
X67859495Y-118703813D01*
X67840280Y-118800412D01*
X42611000Y-118800412D01*
X42611000Y-111964754D01*
X44712000Y-111964754D01*
X44712000Y-112063246D01*
X44731215Y-112159845D01*
X44768906Y-112250839D01*
X44823625Y-112332731D01*
X44893269Y-112402375D01*
X44975161Y-112457094D01*
X45066155Y-112494785D01*
X45162754Y-112514000D01*
X45261246Y-112514000D01*
X45357845Y-112494785D01*
X45411032Y-112472754D01*
X46744000Y-112472754D01*
X46744000Y-112571246D01*
X46763215Y-112667845D01*
X46800906Y-112758839D01*
X46855625Y-112840731D01*
X46925269Y-112910375D01*
X47007161Y-112965094D01*
X47098155Y-113002785D01*
X47194754Y-113022000D01*
X47293246Y-113022000D01*
X47389845Y-113002785D01*
X47480839Y-112965094D01*
X47562731Y-112910375D01*
X47632375Y-112840731D01*
X47687094Y-112758839D01*
X47724785Y-112667845D01*
X47744000Y-112571246D01*
X47744000Y-112472754D01*
X47724785Y-112376155D01*
X47687094Y-112285161D01*
X47632375Y-112203269D01*
X47562731Y-112133625D01*
X47480839Y-112078906D01*
X47389845Y-112041215D01*
X47293246Y-112022000D01*
X47194754Y-112022000D01*
X47098155Y-112041215D01*
X47007161Y-112078906D01*
X46925269Y-112133625D01*
X46855625Y-112203269D01*
X46800906Y-112285161D01*
X46763215Y-112376155D01*
X46744000Y-112472754D01*
X45411032Y-112472754D01*
X45448839Y-112457094D01*
X45530731Y-112402375D01*
X45600375Y-112332731D01*
X45655094Y-112250839D01*
X45692785Y-112159845D01*
X45712000Y-112063246D01*
X45712000Y-111964754D01*
X45692785Y-111868155D01*
X45655094Y-111777161D01*
X45600375Y-111695269D01*
X45530731Y-111625625D01*
X45448839Y-111570906D01*
X45357845Y-111533215D01*
X45261246Y-111514000D01*
X45162754Y-111514000D01*
X45066155Y-111533215D01*
X44975161Y-111570906D01*
X44893269Y-111625625D01*
X44823625Y-111695269D01*
X44768906Y-111777161D01*
X44731215Y-111868155D01*
X44712000Y-111964754D01*
X42611000Y-111964754D01*
X42611000Y-111420754D01*
X51788000Y-111420754D01*
X51788000Y-111519246D01*
X51807215Y-111615845D01*
X51844906Y-111706839D01*
X51899625Y-111788731D01*
X51969269Y-111858375D01*
X52051161Y-111913094D01*
X52142155Y-111950785D01*
X52238754Y-111970000D01*
X52337246Y-111970000D01*
X52433845Y-111950785D01*
X52524839Y-111913094D01*
X52606731Y-111858375D01*
X52676375Y-111788731D01*
X52731094Y-111706839D01*
X52768785Y-111615845D01*
X52788000Y-111519246D01*
X52788000Y-111456754D01*
X61222000Y-111456754D01*
X61222000Y-111555246D01*
X61241215Y-111651845D01*
X61278906Y-111742839D01*
X61333625Y-111824731D01*
X61403269Y-111894375D01*
X61485161Y-111949094D01*
X61576155Y-111986785D01*
X61672754Y-112006000D01*
X61771246Y-112006000D01*
X61867845Y-111986785D01*
X61958839Y-111949094D01*
X62040731Y-111894375D01*
X62110375Y-111824731D01*
X62165094Y-111742839D01*
X62202785Y-111651845D01*
X62222000Y-111555246D01*
X62222000Y-111456754D01*
X62202785Y-111360155D01*
X62165094Y-111269161D01*
X62110375Y-111187269D01*
X62040731Y-111117625D01*
X61958839Y-111062906D01*
X61867845Y-111025215D01*
X61771246Y-111006000D01*
X61672754Y-111006000D01*
X61576155Y-111025215D01*
X61485161Y-111062906D01*
X61403269Y-111117625D01*
X61333625Y-111187269D01*
X61278906Y-111269161D01*
X61241215Y-111360155D01*
X61222000Y-111456754D01*
X52788000Y-111456754D01*
X52788000Y-111420754D01*
X52768785Y-111324155D01*
X52731094Y-111233161D01*
X52676375Y-111151269D01*
X52606731Y-111081625D01*
X52524839Y-111026906D01*
X52433845Y-110989215D01*
X52337246Y-110970000D01*
X52238754Y-110970000D01*
X52142155Y-110989215D01*
X52051161Y-111026906D01*
X51969269Y-111081625D01*
X51899625Y-111151269D01*
X51844906Y-111233161D01*
X51807215Y-111324155D01*
X51788000Y-111420754D01*
X42611000Y-111420754D01*
X42611000Y-110186754D01*
X46236000Y-110186754D01*
X46236000Y-110285246D01*
X46255215Y-110381845D01*
X46292906Y-110472839D01*
X46347625Y-110554731D01*
X46417269Y-110624375D01*
X46499161Y-110679094D01*
X46590155Y-110716785D01*
X46686754Y-110736000D01*
X46785246Y-110736000D01*
X46881845Y-110716785D01*
X46972839Y-110679094D01*
X47054731Y-110624375D01*
X47124375Y-110554731D01*
X47179094Y-110472839D01*
X47216785Y-110381845D01*
X47236000Y-110285246D01*
X47236000Y-110186754D01*
X54364000Y-110186754D01*
X54364000Y-110285246D01*
X54383215Y-110381845D01*
X54420906Y-110472839D01*
X54475625Y-110554731D01*
X54545269Y-110624375D01*
X54627161Y-110679094D01*
X54718155Y-110716785D01*
X54814754Y-110736000D01*
X54913246Y-110736000D01*
X55009845Y-110716785D01*
X55100839Y-110679094D01*
X55182731Y-110624375D01*
X55252375Y-110554731D01*
X55307094Y-110472839D01*
X55344785Y-110381845D01*
X55364000Y-110285246D01*
X55364000Y-110186754D01*
X62492000Y-110186754D01*
X62492000Y-110285246D01*
X62511215Y-110381845D01*
X62548906Y-110472839D01*
X62603625Y-110554731D01*
X62673269Y-110624375D01*
X62755161Y-110679094D01*
X62846155Y-110716785D01*
X62942754Y-110736000D01*
X63041246Y-110736000D01*
X63137845Y-110716785D01*
X63228839Y-110679094D01*
X63310731Y-110624375D01*
X63380375Y-110554731D01*
X63435094Y-110472839D01*
X63472785Y-110381845D01*
X63492000Y-110285246D01*
X63492000Y-110186754D01*
X70620000Y-110186754D01*
X70620000Y-110285246D01*
X70639215Y-110381845D01*
X70676906Y-110472839D01*
X70731625Y-110554731D01*
X70801269Y-110624375D01*
X70883161Y-110679094D01*
X70974155Y-110716785D01*
X71070754Y-110736000D01*
X71169246Y-110736000D01*
X71265845Y-110716785D01*
X71356839Y-110679094D01*
X71438731Y-110624375D01*
X71508375Y-110554731D01*
X71563094Y-110472839D01*
X71600785Y-110381845D01*
X71620000Y-110285246D01*
X71620000Y-110186754D01*
X78748000Y-110186754D01*
X78748000Y-110285246D01*
X78767215Y-110381845D01*
X78804906Y-110472839D01*
X78859625Y-110554731D01*
X78929269Y-110624375D01*
X79011161Y-110679094D01*
X79102155Y-110716785D01*
X79198754Y-110736000D01*
X79297246Y-110736000D01*
X79393845Y-110716785D01*
X79484839Y-110679094D01*
X79566731Y-110624375D01*
X79636375Y-110554731D01*
X79691094Y-110472839D01*
X79728785Y-110381845D01*
X79748000Y-110285246D01*
X79748000Y-110186754D01*
X79728785Y-110090155D01*
X79691094Y-109999161D01*
X79636375Y-109917269D01*
X79566731Y-109847625D01*
X79484839Y-109792906D01*
X79393845Y-109755215D01*
X79297246Y-109736000D01*
X79198754Y-109736000D01*
X79102155Y-109755215D01*
X79011161Y-109792906D01*
X78929269Y-109847625D01*
X78859625Y-109917269D01*
X78804906Y-109999161D01*
X78767215Y-110090155D01*
X78748000Y-110186754D01*
X71620000Y-110186754D01*
X71600785Y-110090155D01*
X71563094Y-109999161D01*
X71508375Y-109917269D01*
X71438731Y-109847625D01*
X71356839Y-109792906D01*
X71265845Y-109755215D01*
X71169246Y-109736000D01*
X71070754Y-109736000D01*
X70974155Y-109755215D01*
X70883161Y-109792906D01*
X70801269Y-109847625D01*
X70731625Y-109917269D01*
X70676906Y-109999161D01*
X70639215Y-110090155D01*
X70620000Y-110186754D01*
X63492000Y-110186754D01*
X63472785Y-110090155D01*
X63435094Y-109999161D01*
X63380375Y-109917269D01*
X63310731Y-109847625D01*
X63228839Y-109792906D01*
X63137845Y-109755215D01*
X63041246Y-109736000D01*
X62942754Y-109736000D01*
X62846155Y-109755215D01*
X62755161Y-109792906D01*
X62673269Y-109847625D01*
X62603625Y-109917269D01*
X62548906Y-109999161D01*
X62511215Y-110090155D01*
X62492000Y-110186754D01*
X55364000Y-110186754D01*
X55344785Y-110090155D01*
X55307094Y-109999161D01*
X55252375Y-109917269D01*
X55182731Y-109847625D01*
X55100839Y-109792906D01*
X55009845Y-109755215D01*
X54913246Y-109736000D01*
X54814754Y-109736000D01*
X54718155Y-109755215D01*
X54627161Y-109792906D01*
X54545269Y-109847625D01*
X54475625Y-109917269D01*
X54420906Y-109999161D01*
X54383215Y-110090155D01*
X54364000Y-110186754D01*
X47236000Y-110186754D01*
X47216785Y-110090155D01*
X47179094Y-109999161D01*
X47124375Y-109917269D01*
X47054731Y-109847625D01*
X46972839Y-109792906D01*
X46881845Y-109755215D01*
X46785246Y-109736000D01*
X46686754Y-109736000D01*
X46590155Y-109755215D01*
X46499161Y-109792906D01*
X46417269Y-109847625D01*
X46347625Y-109917269D01*
X46292906Y-109999161D01*
X46255215Y-110090155D01*
X46236000Y-110186754D01*
X42611000Y-110186754D01*
X42611000Y-107393754D01*
X46489000Y-107393754D01*
X46489000Y-107492246D01*
X46508215Y-107588845D01*
X46545906Y-107679839D01*
X46600625Y-107761731D01*
X46670269Y-107831375D01*
X46752161Y-107886094D01*
X46843155Y-107923785D01*
X46939754Y-107943000D01*
X47038246Y-107943000D01*
X47134845Y-107923785D01*
X47225839Y-107886094D01*
X47307731Y-107831375D01*
X47377375Y-107761731D01*
X47432094Y-107679839D01*
X47469785Y-107588845D01*
X47489000Y-107492246D01*
X47489000Y-107393754D01*
X47469785Y-107297155D01*
X47457193Y-107266754D01*
X54492000Y-107266754D01*
X54492000Y-107365246D01*
X54511215Y-107461845D01*
X54548906Y-107552839D01*
X54603625Y-107634731D01*
X54673269Y-107704375D01*
X54755161Y-107759094D01*
X54846155Y-107796785D01*
X54942754Y-107816000D01*
X55041246Y-107816000D01*
X55137845Y-107796785D01*
X55228839Y-107759094D01*
X55310731Y-107704375D01*
X55368352Y-107646754D01*
X62746000Y-107646754D01*
X62746000Y-107745246D01*
X62765215Y-107841845D01*
X62802906Y-107932839D01*
X62857625Y-108014731D01*
X62927269Y-108084375D01*
X63009161Y-108139094D01*
X63100155Y-108176785D01*
X63196754Y-108196000D01*
X63295246Y-108196000D01*
X63391845Y-108176785D01*
X63482839Y-108139094D01*
X63564731Y-108084375D01*
X63634375Y-108014731D01*
X63689094Y-107932839D01*
X63726785Y-107841845D01*
X63746000Y-107745246D01*
X63746000Y-107646754D01*
X63726785Y-107550155D01*
X63689094Y-107459161D01*
X63660091Y-107415754D01*
X70851000Y-107415754D01*
X70851000Y-107514246D01*
X70870215Y-107610845D01*
X70907906Y-107701839D01*
X70962625Y-107783731D01*
X71032269Y-107853375D01*
X71114161Y-107908094D01*
X71205155Y-107945785D01*
X71301754Y-107965000D01*
X71400246Y-107965000D01*
X71496845Y-107945785D01*
X71587839Y-107908094D01*
X71669731Y-107853375D01*
X71739375Y-107783731D01*
X71794094Y-107701839D01*
X71831785Y-107610845D01*
X71851000Y-107514246D01*
X71851000Y-107415754D01*
X71846425Y-107392754D01*
X78748000Y-107392754D01*
X78748000Y-107491246D01*
X78767215Y-107587845D01*
X78804906Y-107678839D01*
X78859625Y-107760731D01*
X78929269Y-107830375D01*
X79011161Y-107885094D01*
X79102155Y-107922785D01*
X79198754Y-107942000D01*
X79297246Y-107942000D01*
X79393845Y-107922785D01*
X79484839Y-107885094D01*
X79566731Y-107830375D01*
X79636375Y-107760731D01*
X79691094Y-107678839D01*
X79728785Y-107587845D01*
X79748000Y-107491246D01*
X79748000Y-107392754D01*
X79728785Y-107296155D01*
X79691094Y-107205161D01*
X79636375Y-107123269D01*
X79566731Y-107053625D01*
X79484839Y-106998906D01*
X79393845Y-106961215D01*
X79297246Y-106942000D01*
X79198754Y-106942000D01*
X79102155Y-106961215D01*
X79011161Y-106998906D01*
X78929269Y-107053625D01*
X78859625Y-107123269D01*
X78804906Y-107205161D01*
X78767215Y-107296155D01*
X78748000Y-107392754D01*
X71846425Y-107392754D01*
X71831785Y-107319155D01*
X71794094Y-107228161D01*
X71739375Y-107146269D01*
X71669731Y-107076625D01*
X71587839Y-107021906D01*
X71496845Y-106984215D01*
X71400246Y-106965000D01*
X71301754Y-106965000D01*
X71205155Y-106984215D01*
X71114161Y-107021906D01*
X71032269Y-107076625D01*
X70962625Y-107146269D01*
X70907906Y-107228161D01*
X70870215Y-107319155D01*
X70851000Y-107415754D01*
X63660091Y-107415754D01*
X63634375Y-107377269D01*
X63564731Y-107307625D01*
X63482839Y-107252906D01*
X63391845Y-107215215D01*
X63295246Y-107196000D01*
X63196754Y-107196000D01*
X63100155Y-107215215D01*
X63009161Y-107252906D01*
X62927269Y-107307625D01*
X62857625Y-107377269D01*
X62802906Y-107459161D01*
X62765215Y-107550155D01*
X62746000Y-107646754D01*
X55368352Y-107646754D01*
X55380375Y-107634731D01*
X55435094Y-107552839D01*
X55472785Y-107461845D01*
X55492000Y-107365246D01*
X55492000Y-107266754D01*
X55472785Y-107170155D01*
X55435094Y-107079161D01*
X55380375Y-106997269D01*
X55310731Y-106927625D01*
X55228839Y-106872906D01*
X55137845Y-106835215D01*
X55041246Y-106816000D01*
X54942754Y-106816000D01*
X54846155Y-106835215D01*
X54755161Y-106872906D01*
X54673269Y-106927625D01*
X54603625Y-106997269D01*
X54548906Y-107079161D01*
X54511215Y-107170155D01*
X54492000Y-107266754D01*
X47457193Y-107266754D01*
X47432094Y-107206161D01*
X47377375Y-107124269D01*
X47307731Y-107054625D01*
X47225839Y-106999906D01*
X47134845Y-106962215D01*
X47038246Y-106943000D01*
X46939754Y-106943000D01*
X46843155Y-106962215D01*
X46752161Y-106999906D01*
X46670269Y-107054625D01*
X46600625Y-107124269D01*
X46545906Y-107206161D01*
X46508215Y-107297155D01*
X46489000Y-107393754D01*
X42611000Y-107393754D01*
X42611000Y-106122754D01*
X46744000Y-106122754D01*
X46744000Y-106221246D01*
X46763215Y-106317845D01*
X46800906Y-106408839D01*
X46855625Y-106490731D01*
X46925269Y-106560375D01*
X47007161Y-106615094D01*
X47098155Y-106652785D01*
X47194754Y-106672000D01*
X47293246Y-106672000D01*
X47389845Y-106652785D01*
X47480839Y-106615094D01*
X47562731Y-106560375D01*
X47632375Y-106490731D01*
X47687094Y-106408839D01*
X47700384Y-106376754D01*
X52332000Y-106376754D01*
X52332000Y-106475246D01*
X52351215Y-106571845D01*
X52388906Y-106662839D01*
X52443625Y-106744731D01*
X52513269Y-106814375D01*
X52595161Y-106869094D01*
X52686155Y-106906785D01*
X52782754Y-106926000D01*
X52881246Y-106926000D01*
X52977845Y-106906785D01*
X53068839Y-106869094D01*
X53150731Y-106814375D01*
X53220375Y-106744731D01*
X53275094Y-106662839D01*
X53312785Y-106571845D01*
X53332000Y-106475246D01*
X53332000Y-106376754D01*
X53312785Y-106280155D01*
X53275094Y-106189161D01*
X53220375Y-106107269D01*
X53150731Y-106037625D01*
X53068839Y-105982906D01*
X52977845Y-105945215D01*
X52881246Y-105926000D01*
X52782754Y-105926000D01*
X52686155Y-105945215D01*
X52595161Y-105982906D01*
X52513269Y-106037625D01*
X52443625Y-106107269D01*
X52388906Y-106189161D01*
X52351215Y-106280155D01*
X52332000Y-106376754D01*
X47700384Y-106376754D01*
X47724785Y-106317845D01*
X47744000Y-106221246D01*
X47744000Y-106122754D01*
X47724785Y-106026155D01*
X47687094Y-105935161D01*
X47632375Y-105853269D01*
X47562731Y-105783625D01*
X47480839Y-105728906D01*
X47389845Y-105691215D01*
X47293246Y-105672000D01*
X47194754Y-105672000D01*
X47098155Y-105691215D01*
X47007161Y-105728906D01*
X46925269Y-105783625D01*
X46855625Y-105853269D01*
X46800906Y-105935161D01*
X46763215Y-106026155D01*
X46744000Y-106122754D01*
X42611000Y-106122754D01*
X42611000Y-104344754D01*
X47252000Y-104344754D01*
X47252000Y-104443246D01*
X47271215Y-104539845D01*
X47308906Y-104630839D01*
X47363625Y-104712731D01*
X47433269Y-104782375D01*
X47515161Y-104837094D01*
X47606155Y-104874785D01*
X47702754Y-104894000D01*
X47801246Y-104894000D01*
X47897845Y-104874785D01*
X47988839Y-104837094D01*
X48070731Y-104782375D01*
X48140375Y-104712731D01*
X48195094Y-104630839D01*
X48232785Y-104539845D01*
X48252000Y-104443246D01*
X48252000Y-104344754D01*
X48232785Y-104248155D01*
X48195094Y-104157161D01*
X48150722Y-104090754D01*
X50808000Y-104090754D01*
X50808000Y-104189246D01*
X50827215Y-104285845D01*
X50864906Y-104376839D01*
X50919625Y-104458731D01*
X50989269Y-104528375D01*
X51071161Y-104583094D01*
X51162155Y-104620785D01*
X51258754Y-104640000D01*
X51316000Y-104640000D01*
X51316000Y-104697246D01*
X51335215Y-104793845D01*
X51372906Y-104884839D01*
X51427625Y-104966731D01*
X51497269Y-105036375D01*
X51579161Y-105091094D01*
X51670155Y-105128785D01*
X51766754Y-105148000D01*
X51824000Y-105148000D01*
X51824000Y-105205246D01*
X51843215Y-105301845D01*
X51880906Y-105392839D01*
X51935625Y-105474731D01*
X52005269Y-105544375D01*
X52087161Y-105599094D01*
X52178155Y-105636785D01*
X52274754Y-105656000D01*
X52373246Y-105656000D01*
X52469845Y-105636785D01*
X52523032Y-105614754D01*
X55634000Y-105614754D01*
X55634000Y-105713246D01*
X55653215Y-105809845D01*
X55690906Y-105900839D01*
X55745625Y-105982731D01*
X55815269Y-106052375D01*
X55897161Y-106107094D01*
X55988155Y-106144785D01*
X56084754Y-106164000D01*
X56183246Y-106164000D01*
X56279845Y-106144785D01*
X56370839Y-106107094D01*
X56452731Y-106052375D01*
X56522375Y-105982731D01*
X56577094Y-105900839D01*
X56614785Y-105809845D01*
X56634000Y-105713246D01*
X56634000Y-105614754D01*
X56633119Y-105610324D01*
X57135065Y-105610324D01*
X57135065Y-105708816D01*
X57154280Y-105805415D01*
X57191971Y-105896409D01*
X57246690Y-105978301D01*
X57316334Y-106047945D01*
X57398226Y-106102664D01*
X57489220Y-106140355D01*
X57585819Y-106159570D01*
X57684311Y-106159570D01*
X57780910Y-106140355D01*
X57871904Y-106102664D01*
X57892224Y-106089086D01*
X57925161Y-106111094D01*
X58016155Y-106148785D01*
X58112754Y-106168000D01*
X58211246Y-106168000D01*
X58307845Y-106148785D01*
X58398839Y-106111094D01*
X58480731Y-106056375D01*
X58550375Y-105986731D01*
X58605094Y-105904839D01*
X58642785Y-105813845D01*
X58662000Y-105717246D01*
X58662000Y-105693246D01*
X58681215Y-105789845D01*
X58718906Y-105880839D01*
X58773625Y-105962731D01*
X58843269Y-106032375D01*
X58925161Y-106087094D01*
X59016155Y-106124785D01*
X59112754Y-106144000D01*
X59211246Y-106144000D01*
X59307845Y-106124785D01*
X59398839Y-106087094D01*
X59480731Y-106032375D01*
X59550375Y-105962731D01*
X59605094Y-105880839D01*
X59642785Y-105789845D01*
X59662000Y-105693246D01*
X59662000Y-105677246D01*
X59681215Y-105773845D01*
X59718906Y-105864839D01*
X59773625Y-105946731D01*
X59843269Y-106016375D01*
X59925161Y-106071094D01*
X60016155Y-106108785D01*
X60112754Y-106128000D01*
X60211246Y-106128000D01*
X60307845Y-106108785D01*
X60398839Y-106071094D01*
X60480731Y-106016375D01*
X60550375Y-105946731D01*
X60605094Y-105864839D01*
X60642785Y-105773845D01*
X60655334Y-105710755D01*
X65863011Y-105710755D01*
X65863011Y-105809247D01*
X65882226Y-105905846D01*
X65919917Y-105996840D01*
X65974636Y-106078732D01*
X66044280Y-106148376D01*
X66126172Y-106203095D01*
X66217166Y-106240786D01*
X66313765Y-106260001D01*
X66412257Y-106260001D01*
X66508856Y-106240786D01*
X66599850Y-106203095D01*
X66681742Y-106148376D01*
X66751386Y-106078732D01*
X66806105Y-105996840D01*
X66843796Y-105905846D01*
X66863011Y-105809247D01*
X66863011Y-105710755D01*
X66846302Y-105626754D01*
X72918000Y-105626754D01*
X72918000Y-105725246D01*
X72937215Y-105821845D01*
X72974906Y-105912839D01*
X73029625Y-105994731D01*
X73099269Y-106064375D01*
X73181161Y-106119094D01*
X73272155Y-106156785D01*
X73368754Y-106176000D01*
X73467246Y-106176000D01*
X73563845Y-106156785D01*
X73654839Y-106119094D01*
X73736731Y-106064375D01*
X73806375Y-105994731D01*
X73861094Y-105912839D01*
X73898785Y-105821845D01*
X73918000Y-105725246D01*
X73918000Y-105626754D01*
X73899501Y-105533754D01*
X75573000Y-105533754D01*
X75573000Y-105632246D01*
X75592215Y-105728845D01*
X75629906Y-105819839D01*
X75684625Y-105901731D01*
X75754269Y-105971375D01*
X75836161Y-106026094D01*
X75927155Y-106063785D01*
X76023754Y-106083000D01*
X76122246Y-106083000D01*
X76123492Y-106082752D01*
X78280002Y-106082752D01*
X78280002Y-106181244D01*
X78299217Y-106277843D01*
X78336908Y-106368837D01*
X78391627Y-106450729D01*
X78461271Y-106520373D01*
X78543163Y-106575092D01*
X78634157Y-106612783D01*
X78730756Y-106631998D01*
X78829248Y-106631998D01*
X78835501Y-106630754D01*
X81046000Y-106630754D01*
X81046000Y-106729246D01*
X81065215Y-106825845D01*
X81102906Y-106916839D01*
X81157625Y-106998731D01*
X81227269Y-107068375D01*
X81309161Y-107123094D01*
X81400155Y-107160785D01*
X81496754Y-107180000D01*
X81595246Y-107180000D01*
X81691845Y-107160785D01*
X81782839Y-107123094D01*
X81864731Y-107068375D01*
X81934375Y-106998731D01*
X81989094Y-106916839D01*
X82026785Y-106825845D01*
X82046000Y-106729246D01*
X82046000Y-106630754D01*
X82026785Y-106534155D01*
X81989094Y-106443161D01*
X81934375Y-106361269D01*
X81864731Y-106291625D01*
X81782839Y-106236906D01*
X81691845Y-106199215D01*
X81595246Y-106180000D01*
X81496754Y-106180000D01*
X81400155Y-106199215D01*
X81309161Y-106236906D01*
X81227269Y-106291625D01*
X81157625Y-106361269D01*
X81102906Y-106443161D01*
X81065215Y-106534155D01*
X81046000Y-106630754D01*
X78835501Y-106630754D01*
X78925847Y-106612783D01*
X79016841Y-106575092D01*
X79098733Y-106520373D01*
X79168377Y-106450729D01*
X79223096Y-106368837D01*
X79260787Y-106277843D01*
X79280002Y-106181244D01*
X79280002Y-106082752D01*
X79260787Y-105986153D01*
X79223096Y-105895159D01*
X79168377Y-105813267D01*
X79098733Y-105743623D01*
X79016841Y-105688904D01*
X78925847Y-105651213D01*
X78829248Y-105631998D01*
X78730756Y-105631998D01*
X78634157Y-105651213D01*
X78543163Y-105688904D01*
X78461271Y-105743623D01*
X78391627Y-105813267D01*
X78336908Y-105895159D01*
X78299217Y-105986153D01*
X78280002Y-106082752D01*
X76123492Y-106082752D01*
X76218845Y-106063785D01*
X76309839Y-106026094D01*
X76391731Y-105971375D01*
X76461375Y-105901731D01*
X76516094Y-105819839D01*
X76553785Y-105728845D01*
X76573000Y-105632246D01*
X76573000Y-105614754D01*
X80780000Y-105614754D01*
X80780000Y-105713246D01*
X80799215Y-105809845D01*
X80836906Y-105900839D01*
X80891625Y-105982731D01*
X80961269Y-106052375D01*
X81043161Y-106107094D01*
X81134155Y-106144785D01*
X81230754Y-106164000D01*
X81329246Y-106164000D01*
X81425845Y-106144785D01*
X81516839Y-106107094D01*
X81598731Y-106052375D01*
X81668375Y-105982731D01*
X81723094Y-105900839D01*
X81760785Y-105809845D01*
X81780000Y-105713246D01*
X81780000Y-105614754D01*
X81760785Y-105518155D01*
X81723094Y-105427161D01*
X81668375Y-105345269D01*
X81598731Y-105275625D01*
X81516839Y-105220906D01*
X81425845Y-105183215D01*
X81329246Y-105164000D01*
X81230754Y-105164000D01*
X81134155Y-105183215D01*
X81043161Y-105220906D01*
X80961269Y-105275625D01*
X80891625Y-105345269D01*
X80836906Y-105427161D01*
X80799215Y-105518155D01*
X80780000Y-105614754D01*
X76573000Y-105614754D01*
X76573000Y-105533754D01*
X76553785Y-105437155D01*
X76516094Y-105346161D01*
X76461375Y-105264269D01*
X76391731Y-105194625D01*
X76309839Y-105139906D01*
X76218845Y-105102215D01*
X76122246Y-105083000D01*
X76023754Y-105083000D01*
X75927155Y-105102215D01*
X75836161Y-105139906D01*
X75754269Y-105194625D01*
X75684625Y-105264269D01*
X75629906Y-105346161D01*
X75592215Y-105437155D01*
X75573000Y-105533754D01*
X73899501Y-105533754D01*
X73898785Y-105530155D01*
X73861094Y-105439161D01*
X73806375Y-105357269D01*
X73736731Y-105287625D01*
X73654839Y-105232906D01*
X73563845Y-105195215D01*
X73467246Y-105176000D01*
X73368754Y-105176000D01*
X73272155Y-105195215D01*
X73181161Y-105232906D01*
X73099269Y-105287625D01*
X73029625Y-105357269D01*
X72974906Y-105439161D01*
X72937215Y-105530155D01*
X72918000Y-105626754D01*
X66846302Y-105626754D01*
X66843796Y-105614156D01*
X66806105Y-105523162D01*
X66751386Y-105441270D01*
X66681742Y-105371626D01*
X66599850Y-105316907D01*
X66508856Y-105279216D01*
X66412257Y-105260001D01*
X66313765Y-105260001D01*
X66217166Y-105279216D01*
X66126172Y-105316907D01*
X66044280Y-105371626D01*
X65974636Y-105441270D01*
X65919917Y-105523162D01*
X65882226Y-105614156D01*
X65863011Y-105710755D01*
X60655334Y-105710755D01*
X60662000Y-105677246D01*
X60662000Y-105578754D01*
X60642785Y-105482155D01*
X60605094Y-105391161D01*
X60550375Y-105309269D01*
X60480731Y-105239625D01*
X60398839Y-105184906D01*
X60307845Y-105147215D01*
X60211246Y-105128000D01*
X60112754Y-105128000D01*
X60016155Y-105147215D01*
X59925161Y-105184906D01*
X59843269Y-105239625D01*
X59773625Y-105309269D01*
X59718906Y-105391161D01*
X59681215Y-105482155D01*
X59662000Y-105578754D01*
X59662000Y-105594754D01*
X59642785Y-105498155D01*
X59605094Y-105407161D01*
X59550375Y-105325269D01*
X59480731Y-105255625D01*
X59398839Y-105200906D01*
X59307845Y-105163215D01*
X59211246Y-105144000D01*
X59112754Y-105144000D01*
X59016155Y-105163215D01*
X58925161Y-105200906D01*
X58843269Y-105255625D01*
X58773625Y-105325269D01*
X58718906Y-105407161D01*
X58681215Y-105498155D01*
X58662000Y-105594754D01*
X58662000Y-105618754D01*
X58642785Y-105522155D01*
X58605094Y-105431161D01*
X58550375Y-105349269D01*
X58480731Y-105279625D01*
X58398839Y-105224906D01*
X58307845Y-105187215D01*
X58211246Y-105168000D01*
X58112754Y-105168000D01*
X58016155Y-105187215D01*
X57925161Y-105224906D01*
X57904841Y-105238484D01*
X57871904Y-105216476D01*
X57780910Y-105178785D01*
X57684311Y-105159570D01*
X57585819Y-105159570D01*
X57489220Y-105178785D01*
X57398226Y-105216476D01*
X57316334Y-105271195D01*
X57246690Y-105340839D01*
X57191971Y-105422731D01*
X57154280Y-105513725D01*
X57135065Y-105610324D01*
X56633119Y-105610324D01*
X56614785Y-105518155D01*
X56577094Y-105427161D01*
X56522375Y-105345269D01*
X56452731Y-105275625D01*
X56370839Y-105220906D01*
X56279845Y-105183215D01*
X56183246Y-105164000D01*
X56084754Y-105164000D01*
X55988155Y-105183215D01*
X55897161Y-105220906D01*
X55815269Y-105275625D01*
X55745625Y-105345269D01*
X55690906Y-105427161D01*
X55653215Y-105518155D01*
X55634000Y-105614754D01*
X52523032Y-105614754D01*
X52560839Y-105599094D01*
X52642731Y-105544375D01*
X52712375Y-105474731D01*
X52767094Y-105392839D01*
X52804785Y-105301845D01*
X52824000Y-105205246D01*
X52824000Y-105106754D01*
X52804785Y-105010155D01*
X52767094Y-104919161D01*
X52712375Y-104837269D01*
X52642731Y-104767625D01*
X52560839Y-104712906D01*
X52469845Y-104675215D01*
X52373246Y-104656000D01*
X52316000Y-104656000D01*
X52316000Y-104598754D01*
X52296785Y-104502155D01*
X52259094Y-104411161D01*
X52204375Y-104329269D01*
X52134731Y-104259625D01*
X52052839Y-104204906D01*
X51961845Y-104167215D01*
X51865246Y-104148000D01*
X51808000Y-104148000D01*
X51808000Y-104090754D01*
X51788785Y-103994155D01*
X51751094Y-103903161D01*
X51696375Y-103821269D01*
X51626731Y-103751625D01*
X51544839Y-103696906D01*
X51453845Y-103659215D01*
X51357246Y-103640000D01*
X51258754Y-103640000D01*
X51162155Y-103659215D01*
X51071161Y-103696906D01*
X50989269Y-103751625D01*
X50919625Y-103821269D01*
X50864906Y-103903161D01*
X50827215Y-103994155D01*
X50808000Y-104090754D01*
X48150722Y-104090754D01*
X48140375Y-104075269D01*
X48070731Y-104005625D01*
X47988839Y-103950906D01*
X47897845Y-103913215D01*
X47801246Y-103894000D01*
X47702754Y-103894000D01*
X47606155Y-103913215D01*
X47515161Y-103950906D01*
X47433269Y-104005625D01*
X47363625Y-104075269D01*
X47308906Y-104157161D01*
X47271215Y-104248155D01*
X47252000Y-104344754D01*
X42611000Y-104344754D01*
X42611000Y-103582754D01*
X65286000Y-103582754D01*
X65286000Y-103681246D01*
X65305215Y-103777845D01*
X65342906Y-103868839D01*
X65397625Y-103950731D01*
X65467269Y-104020375D01*
X65549161Y-104075094D01*
X65640155Y-104112785D01*
X65736754Y-104132000D01*
X65835246Y-104132000D01*
X65931845Y-104112785D01*
X66022839Y-104075094D01*
X66104731Y-104020375D01*
X66174375Y-103950731D01*
X66229094Y-103868839D01*
X66242384Y-103836754D01*
X80780000Y-103836754D01*
X80780000Y-103935246D01*
X80799215Y-104031845D01*
X80836906Y-104122839D01*
X80891625Y-104204731D01*
X80961269Y-104274375D01*
X81043161Y-104329094D01*
X81134155Y-104366785D01*
X81230754Y-104386000D01*
X81329246Y-104386000D01*
X81425845Y-104366785D01*
X81516839Y-104329094D01*
X81598731Y-104274375D01*
X81668375Y-104204731D01*
X81723094Y-104122839D01*
X81760785Y-104031845D01*
X81780000Y-103935246D01*
X81780000Y-103836754D01*
X81760785Y-103740155D01*
X81723094Y-103649161D01*
X81678722Y-103582754D01*
X82050000Y-103582754D01*
X82050000Y-103681246D01*
X82069215Y-103777845D01*
X82106906Y-103868839D01*
X82161625Y-103950731D01*
X82231269Y-104020375D01*
X82313161Y-104075094D01*
X82404155Y-104112785D01*
X82500754Y-104132000D01*
X82599246Y-104132000D01*
X82695845Y-104112785D01*
X82786839Y-104075094D01*
X82868731Y-104020375D01*
X82938375Y-103950731D01*
X82993094Y-103868839D01*
X83030785Y-103777845D01*
X83050000Y-103681246D01*
X83050000Y-103582754D01*
X83320000Y-103582754D01*
X83320000Y-103681246D01*
X83339215Y-103777845D01*
X83376906Y-103868839D01*
X83431625Y-103950731D01*
X83501269Y-104020375D01*
X83583161Y-104075094D01*
X83674155Y-104112785D01*
X83770754Y-104132000D01*
X83869246Y-104132000D01*
X83965845Y-104112785D01*
X84056839Y-104075094D01*
X84138731Y-104020375D01*
X84208375Y-103950731D01*
X84263094Y-103868839D01*
X84300785Y-103777845D01*
X84320000Y-103681246D01*
X84320000Y-103582754D01*
X84300785Y-103486155D01*
X84263094Y-103395161D01*
X84208375Y-103313269D01*
X84138731Y-103243625D01*
X84056839Y-103188906D01*
X83965845Y-103151215D01*
X83869246Y-103132000D01*
X83770754Y-103132000D01*
X83674155Y-103151215D01*
X83583161Y-103188906D01*
X83501269Y-103243625D01*
X83431625Y-103313269D01*
X83376906Y-103395161D01*
X83339215Y-103486155D01*
X83320000Y-103582754D01*
X83050000Y-103582754D01*
X83030785Y-103486155D01*
X82993094Y-103395161D01*
X82938375Y-103313269D01*
X82868731Y-103243625D01*
X82786839Y-103188906D01*
X82695845Y-103151215D01*
X82599246Y-103132000D01*
X82500754Y-103132000D01*
X82404155Y-103151215D01*
X82313161Y-103188906D01*
X82231269Y-103243625D01*
X82161625Y-103313269D01*
X82106906Y-103395161D01*
X82069215Y-103486155D01*
X82050000Y-103582754D01*
X81678722Y-103582754D01*
X81668375Y-103567269D01*
X81598731Y-103497625D01*
X81516839Y-103442906D01*
X81425845Y-103405215D01*
X81329246Y-103386000D01*
X81230754Y-103386000D01*
X81134155Y-103405215D01*
X81043161Y-103442906D01*
X80961269Y-103497625D01*
X80891625Y-103567269D01*
X80836906Y-103649161D01*
X80799215Y-103740155D01*
X80780000Y-103836754D01*
X66242384Y-103836754D01*
X66266785Y-103777845D01*
X66286000Y-103681246D01*
X66286000Y-103582754D01*
X66266785Y-103486155D01*
X66229094Y-103395161D01*
X66174375Y-103313269D01*
X66104731Y-103243625D01*
X66022839Y-103188906D01*
X65931845Y-103151215D01*
X65835246Y-103132000D01*
X65736754Y-103132000D01*
X65640155Y-103151215D01*
X65549161Y-103188906D01*
X65467269Y-103243625D01*
X65397625Y-103313269D01*
X65342906Y-103395161D01*
X65305215Y-103486155D01*
X65286000Y-103582754D01*
X42611000Y-103582754D01*
X42611000Y-101804754D01*
X48268000Y-101804754D01*
X48268000Y-101903246D01*
X48287215Y-101999845D01*
X48324906Y-102090839D01*
X48379625Y-102172731D01*
X48449269Y-102242375D01*
X48531161Y-102297094D01*
X48622155Y-102334785D01*
X48718754Y-102354000D01*
X48817246Y-102354000D01*
X48913845Y-102334785D01*
X48967032Y-102312754D01*
X75192000Y-102312754D01*
X75192000Y-102411246D01*
X75211215Y-102507845D01*
X75248906Y-102598839D01*
X75303625Y-102680731D01*
X75373269Y-102750375D01*
X75455161Y-102805094D01*
X75546155Y-102842785D01*
X75642754Y-102862000D01*
X75741246Y-102862000D01*
X75837845Y-102842785D01*
X75928839Y-102805094D01*
X76010731Y-102750375D01*
X76080375Y-102680731D01*
X76135094Y-102598839D01*
X76172785Y-102507845D01*
X76192000Y-102411246D01*
X76192000Y-102312754D01*
X82558000Y-102312754D01*
X82558000Y-102411246D01*
X82577215Y-102507845D01*
X82614906Y-102598839D01*
X82669625Y-102680731D01*
X82739269Y-102750375D01*
X82821161Y-102805094D01*
X82912155Y-102842785D01*
X83008754Y-102862000D01*
X83107246Y-102862000D01*
X83203845Y-102842785D01*
X83257032Y-102820754D01*
X84082000Y-102820754D01*
X84082000Y-102919246D01*
X84101215Y-103015845D01*
X84138906Y-103106839D01*
X84193625Y-103188731D01*
X84263269Y-103258375D01*
X84345161Y-103313094D01*
X84436155Y-103350785D01*
X84532754Y-103370000D01*
X84631246Y-103370000D01*
X84727845Y-103350785D01*
X84818839Y-103313094D01*
X84900731Y-103258375D01*
X84970375Y-103188731D01*
X85025094Y-103106839D01*
X85062785Y-103015845D01*
X85082000Y-102919246D01*
X85082000Y-102820754D01*
X85062785Y-102724155D01*
X85025094Y-102633161D01*
X84970375Y-102551269D01*
X84900731Y-102481625D01*
X84818839Y-102426906D01*
X84727845Y-102389215D01*
X84631246Y-102370000D01*
X84532754Y-102370000D01*
X84436155Y-102389215D01*
X84345161Y-102426906D01*
X84263269Y-102481625D01*
X84193625Y-102551269D01*
X84138906Y-102633161D01*
X84101215Y-102724155D01*
X84082000Y-102820754D01*
X83257032Y-102820754D01*
X83294839Y-102805094D01*
X83376731Y-102750375D01*
X83446375Y-102680731D01*
X83501094Y-102598839D01*
X83538785Y-102507845D01*
X83558000Y-102411246D01*
X83558000Y-102312754D01*
X83538785Y-102216155D01*
X83501094Y-102125161D01*
X83446375Y-102043269D01*
X83376731Y-101973625D01*
X83294839Y-101918906D01*
X83203845Y-101881215D01*
X83107246Y-101862000D01*
X83008754Y-101862000D01*
X82912155Y-101881215D01*
X82821161Y-101918906D01*
X82739269Y-101973625D01*
X82669625Y-102043269D01*
X82614906Y-102125161D01*
X82577215Y-102216155D01*
X82558000Y-102312754D01*
X76192000Y-102312754D01*
X76172785Y-102216155D01*
X76135094Y-102125161D01*
X76080375Y-102043269D01*
X76010731Y-101973625D01*
X75928839Y-101918906D01*
X75837845Y-101881215D01*
X75741246Y-101862000D01*
X75642754Y-101862000D01*
X75546155Y-101881215D01*
X75455161Y-101918906D01*
X75373269Y-101973625D01*
X75303625Y-102043269D01*
X75248906Y-102125161D01*
X75211215Y-102216155D01*
X75192000Y-102312754D01*
X48967032Y-102312754D01*
X49004839Y-102297094D01*
X49086731Y-102242375D01*
X49156375Y-102172731D01*
X49211094Y-102090839D01*
X49248785Y-101999845D01*
X49268000Y-101903246D01*
X49268000Y-101804754D01*
X49248785Y-101708155D01*
X49211094Y-101617161D01*
X49156375Y-101535269D01*
X49086731Y-101465625D01*
X49004839Y-101410906D01*
X48913845Y-101373215D01*
X48817246Y-101354000D01*
X48718754Y-101354000D01*
X48622155Y-101373215D01*
X48531161Y-101410906D01*
X48449269Y-101465625D01*
X48379625Y-101535269D01*
X48324906Y-101617161D01*
X48287215Y-101708155D01*
X48268000Y-101804754D01*
X42611000Y-101804754D01*
X42611000Y-101233254D01*
X49728500Y-101233254D01*
X49728500Y-101331746D01*
X49747715Y-101428345D01*
X49785406Y-101519339D01*
X49840125Y-101601231D01*
X49909769Y-101670875D01*
X49991661Y-101725594D01*
X50082655Y-101763285D01*
X50179254Y-101782500D01*
X50277746Y-101782500D01*
X50374345Y-101763285D01*
X50465339Y-101725594D01*
X50547231Y-101670875D01*
X50616875Y-101601231D01*
X50650602Y-101550754D01*
X64778000Y-101550754D01*
X64778000Y-101649246D01*
X64797215Y-101745845D01*
X64834906Y-101836839D01*
X64889625Y-101918731D01*
X64959269Y-101988375D01*
X65041161Y-102043094D01*
X65132155Y-102080785D01*
X65228754Y-102100000D01*
X65327246Y-102100000D01*
X65423845Y-102080785D01*
X65514839Y-102043094D01*
X65596731Y-101988375D01*
X65666375Y-101918731D01*
X65721094Y-101836839D01*
X65758785Y-101745845D01*
X65778000Y-101649246D01*
X65778000Y-101550754D01*
X76462000Y-101550754D01*
X76462000Y-101649246D01*
X76481215Y-101745845D01*
X76518906Y-101836839D01*
X76573625Y-101918731D01*
X76643269Y-101988375D01*
X76725161Y-102043094D01*
X76816155Y-102080785D01*
X76912754Y-102100000D01*
X77011246Y-102100000D01*
X77107845Y-102080785D01*
X77198839Y-102043094D01*
X77280731Y-101988375D01*
X77350375Y-101918731D01*
X77405094Y-101836839D01*
X77442785Y-101745845D01*
X77443698Y-101741254D01*
X81478500Y-101741254D01*
X81478500Y-101839746D01*
X81497715Y-101936345D01*
X81535406Y-102027339D01*
X81590125Y-102109231D01*
X81659769Y-102178875D01*
X81741661Y-102233594D01*
X81832655Y-102271285D01*
X81929254Y-102290500D01*
X82027746Y-102290500D01*
X82124345Y-102271285D01*
X82215339Y-102233594D01*
X82297231Y-102178875D01*
X82366875Y-102109231D01*
X82421594Y-102027339D01*
X82459285Y-101936345D01*
X82478500Y-101839746D01*
X82478500Y-101741254D01*
X82459285Y-101644655D01*
X82421594Y-101553661D01*
X82366875Y-101471769D01*
X82297231Y-101402125D01*
X82215339Y-101347406D01*
X82124345Y-101309715D01*
X82027746Y-101290500D01*
X81929254Y-101290500D01*
X81832655Y-101309715D01*
X81741661Y-101347406D01*
X81659769Y-101402125D01*
X81590125Y-101471769D01*
X81535406Y-101553661D01*
X81497715Y-101644655D01*
X81478500Y-101741254D01*
X77443698Y-101741254D01*
X77462000Y-101649246D01*
X77462000Y-101550754D01*
X77442785Y-101454155D01*
X77405094Y-101363161D01*
X77350375Y-101281269D01*
X77280731Y-101211625D01*
X77198839Y-101156906D01*
X77107845Y-101119215D01*
X77011246Y-101100000D01*
X76912754Y-101100000D01*
X76816155Y-101119215D01*
X76725161Y-101156906D01*
X76643269Y-101211625D01*
X76573625Y-101281269D01*
X76518906Y-101363161D01*
X76481215Y-101454155D01*
X76462000Y-101550754D01*
X65778000Y-101550754D01*
X65758785Y-101454155D01*
X65721094Y-101363161D01*
X65666375Y-101281269D01*
X65596731Y-101211625D01*
X65514839Y-101156906D01*
X65423845Y-101119215D01*
X65327246Y-101100000D01*
X65228754Y-101100000D01*
X65132155Y-101119215D01*
X65041161Y-101156906D01*
X64959269Y-101211625D01*
X64889625Y-101281269D01*
X64834906Y-101363161D01*
X64797215Y-101454155D01*
X64778000Y-101550754D01*
X50650602Y-101550754D01*
X50671594Y-101519339D01*
X50709285Y-101428345D01*
X50728500Y-101331746D01*
X50728500Y-101233254D01*
X50709285Y-101136655D01*
X50671594Y-101045661D01*
X50616875Y-100963769D01*
X50547231Y-100894125D01*
X50465339Y-100839406D01*
X50374345Y-100801715D01*
X50309187Y-100788754D01*
X51062000Y-100788754D01*
X51062000Y-100887246D01*
X51081215Y-100983845D01*
X51118906Y-101074839D01*
X51173625Y-101156731D01*
X51243269Y-101226375D01*
X51325161Y-101281094D01*
X51416155Y-101318785D01*
X51512754Y-101338000D01*
X51611246Y-101338000D01*
X51707845Y-101318785D01*
X51798839Y-101281094D01*
X51880731Y-101226375D01*
X51950375Y-101156731D01*
X52005094Y-101074839D01*
X52042785Y-100983845D01*
X52062000Y-100887246D01*
X52062000Y-100832941D01*
X52079715Y-100921999D01*
X52117406Y-101012993D01*
X52172125Y-101094885D01*
X52241769Y-101164529D01*
X52323661Y-101219248D01*
X52414655Y-101256939D01*
X52511254Y-101276154D01*
X52609746Y-101276154D01*
X52706345Y-101256939D01*
X52797339Y-101219248D01*
X52879231Y-101164529D01*
X52948875Y-101094885D01*
X53003594Y-101012993D01*
X53041285Y-100921999D01*
X53060500Y-100825400D01*
X53060500Y-100726908D01*
X53041285Y-100630309D01*
X53003594Y-100539315D01*
X52948875Y-100457423D01*
X52879231Y-100387779D01*
X52814092Y-100344254D01*
X85288500Y-100344254D01*
X85288500Y-100442746D01*
X85307715Y-100539345D01*
X85345406Y-100630339D01*
X85400125Y-100712231D01*
X85469769Y-100781875D01*
X85551661Y-100836594D01*
X85642655Y-100874285D01*
X85739254Y-100893500D01*
X85837746Y-100893500D01*
X85934345Y-100874285D01*
X86025339Y-100836594D01*
X86107231Y-100781875D01*
X86176875Y-100712231D01*
X86231594Y-100630339D01*
X86269285Y-100539345D01*
X86288500Y-100442746D01*
X86288500Y-100344254D01*
X86269285Y-100247655D01*
X86231594Y-100156661D01*
X86176875Y-100074769D01*
X86107231Y-100005125D01*
X86025339Y-99950406D01*
X85934345Y-99912715D01*
X85837746Y-99893500D01*
X85739254Y-99893500D01*
X85642655Y-99912715D01*
X85551661Y-99950406D01*
X85469769Y-100005125D01*
X85400125Y-100074769D01*
X85345406Y-100156661D01*
X85307715Y-100247655D01*
X85288500Y-100344254D01*
X52814092Y-100344254D01*
X52797339Y-100333060D01*
X52706345Y-100295369D01*
X52609746Y-100276154D01*
X52511254Y-100276154D01*
X52414655Y-100295369D01*
X52323661Y-100333060D01*
X52241769Y-100387779D01*
X52172125Y-100457423D01*
X52117406Y-100539315D01*
X52079715Y-100630309D01*
X52060500Y-100726908D01*
X52060500Y-100781213D01*
X52042785Y-100692155D01*
X52005094Y-100601161D01*
X51950375Y-100519269D01*
X51880731Y-100449625D01*
X51798839Y-100394906D01*
X51707845Y-100357215D01*
X51611246Y-100338000D01*
X51512754Y-100338000D01*
X51416155Y-100357215D01*
X51325161Y-100394906D01*
X51243269Y-100449625D01*
X51173625Y-100519269D01*
X51118906Y-100601161D01*
X51081215Y-100692155D01*
X51062000Y-100788754D01*
X50309187Y-100788754D01*
X50277746Y-100782500D01*
X50179254Y-100782500D01*
X50082655Y-100801715D01*
X49991661Y-100839406D01*
X49909769Y-100894125D01*
X49840125Y-100963769D01*
X49785406Y-101045661D01*
X49747715Y-101136655D01*
X49728500Y-101233254D01*
X42611000Y-101233254D01*
X42611000Y-100280754D01*
X45982000Y-100280754D01*
X45982000Y-100379246D01*
X46001215Y-100475845D01*
X46038906Y-100566839D01*
X46093625Y-100648731D01*
X46163269Y-100718375D01*
X46245161Y-100773094D01*
X46336155Y-100810785D01*
X46432754Y-100830000D01*
X46531246Y-100830000D01*
X46627845Y-100810785D01*
X46718839Y-100773094D01*
X46800731Y-100718375D01*
X46870375Y-100648731D01*
X46925094Y-100566839D01*
X46962785Y-100475845D01*
X46982000Y-100379246D01*
X46982000Y-100280754D01*
X46962785Y-100184155D01*
X46925094Y-100093161D01*
X46870375Y-100011269D01*
X46800731Y-99941625D01*
X46718839Y-99886906D01*
X46627845Y-99849215D01*
X46531246Y-99830000D01*
X46432754Y-99830000D01*
X46336155Y-99849215D01*
X46245161Y-99886906D01*
X46163269Y-99941625D01*
X46093625Y-100011269D01*
X46038906Y-100093161D01*
X46001215Y-100184155D01*
X45982000Y-100280754D01*
X42611000Y-100280754D01*
X42611000Y-97636000D01*
X88961001Y-97636000D01*
X88961000Y-169572000D01*
G37*
X88961000Y-169572000D02*
X42611000Y-169572000D01*
X42611000Y-165793056D01*
X63816000Y-165793056D01*
X63816000Y-165930944D01*
X63842901Y-166066182D01*
X63895668Y-166193574D01*
X63972274Y-166308224D01*
X64069776Y-166405726D01*
X64184426Y-166482332D01*
X64311818Y-166535099D01*
X64447056Y-166562000D01*
X64584944Y-166562000D01*
X64720182Y-166535099D01*
X64847574Y-166482332D01*
X64962224Y-166405726D01*
X65009678Y-166358272D01*
X65046668Y-166447574D01*
X65123274Y-166562224D01*
X65220776Y-166659726D01*
X65249279Y-166678771D01*
X65242274Y-166685776D01*
X65165668Y-166800426D01*
X65112901Y-166927818D01*
X65086000Y-167063056D01*
X65086000Y-167200944D01*
X65112901Y-167336182D01*
X65165668Y-167463574D01*
X65242274Y-167578224D01*
X65339776Y-167675726D01*
X65454426Y-167752332D01*
X65581818Y-167805099D01*
X65717056Y-167832000D01*
X65854944Y-167832000D01*
X65990182Y-167805099D01*
X66117574Y-167752332D01*
X66221000Y-167683226D01*
X66221000Y-167708944D01*
X66247901Y-167844182D01*
X66300668Y-167971574D01*
X66377274Y-168086224D01*
X66474776Y-168183726D01*
X66589426Y-168260332D01*
X66716818Y-168313099D01*
X66852056Y-168340000D01*
X66989944Y-168340000D01*
X67125182Y-168313099D01*
X67252574Y-168260332D01*
X67367224Y-168183726D01*
X67464726Y-168086224D01*
X67541332Y-167971574D01*
X67594099Y-167844182D01*
X67621000Y-167708944D01*
X67621000Y-167571056D01*
X67594099Y-167435818D01*
X67541332Y-167308426D01*
X67464726Y-167193776D01*
X67367224Y-167096274D01*
X67252574Y-167019668D01*
X67125182Y-166966901D01*
X66989944Y-166940000D01*
X66852056Y-166940000D01*
X66716818Y-166966901D01*
X66589426Y-167019668D01*
X66486000Y-167088774D01*
X66486000Y-167063056D01*
X66459099Y-166927818D01*
X66406332Y-166800426D01*
X66329726Y-166685776D01*
X66232224Y-166588274D01*
X66203721Y-166569229D01*
X66210726Y-166562224D01*
X66287332Y-166447574D01*
X66340099Y-166320182D01*
X66367000Y-166184944D01*
X66367000Y-166047056D01*
X66340099Y-165911818D01*
X66290907Y-165793056D01*
X67118000Y-165793056D01*
X67118000Y-165930944D01*
X67144901Y-166066182D01*
X67197668Y-166193574D01*
X67274274Y-166308224D01*
X67371776Y-166405726D01*
X67486426Y-166482332D01*
X67613818Y-166535099D01*
X67749056Y-166562000D01*
X67886944Y-166562000D01*
X68022182Y-166535099D01*
X68149574Y-166482332D01*
X68264224Y-166405726D01*
X68361726Y-166308224D01*
X68438332Y-166193574D01*
X68491099Y-166066182D01*
X68518000Y-165930944D01*
X68518000Y-165793056D01*
X68491099Y-165657818D01*
X68438332Y-165530426D01*
X68361726Y-165415776D01*
X68264224Y-165318274D01*
X68149574Y-165241668D01*
X68022182Y-165188901D01*
X67886944Y-165162000D01*
X67749056Y-165162000D01*
X67613818Y-165188901D01*
X67486426Y-165241668D01*
X67371776Y-165318274D01*
X67274274Y-165415776D01*
X67197668Y-165530426D01*
X67144901Y-165657818D01*
X67118000Y-165793056D01*
X66290907Y-165793056D01*
X66287332Y-165784426D01*
X66210726Y-165669776D01*
X66113224Y-165572274D01*
X65998574Y-165495668D01*
X65871182Y-165442901D01*
X65735944Y-165416000D01*
X65598056Y-165416000D01*
X65462818Y-165442901D01*
X65335426Y-165495668D01*
X65220776Y-165572274D01*
X65173322Y-165619728D01*
X65136332Y-165530426D01*
X65059726Y-165415776D01*
X64962224Y-165318274D01*
X64847574Y-165241668D01*
X64720182Y-165188901D01*
X64584944Y-165162000D01*
X64447056Y-165162000D01*
X64311818Y-165188901D01*
X64184426Y-165241668D01*
X64069776Y-165318274D01*
X63972274Y-165415776D01*
X63895668Y-165530426D01*
X63842901Y-165657818D01*
X63816000Y-165793056D01*
X42611000Y-165793056D01*
X42611000Y-145238754D01*
X66556000Y-145238754D01*
X66556000Y-145337246D01*
X66575215Y-145433845D01*
X66612906Y-145524839D01*
X66667625Y-145606731D01*
X66737269Y-145676375D01*
X66819161Y-145731094D01*
X66910155Y-145768785D01*
X67006754Y-145788000D01*
X67105246Y-145788000D01*
X67201845Y-145768785D01*
X67292839Y-145731094D01*
X67374731Y-145676375D01*
X67444375Y-145606731D01*
X67499094Y-145524839D01*
X67536785Y-145433845D01*
X67556000Y-145337246D01*
X67556000Y-145238754D01*
X74938000Y-145238754D01*
X74938000Y-145337246D01*
X74957215Y-145433845D01*
X74994906Y-145524839D01*
X75049625Y-145606731D01*
X75119269Y-145676375D01*
X75201161Y-145731094D01*
X75292155Y-145768785D01*
X75388754Y-145788000D01*
X75487246Y-145788000D01*
X75583845Y-145768785D01*
X75674839Y-145731094D01*
X75756731Y-145676375D01*
X75826375Y-145606731D01*
X75881094Y-145524839D01*
X75918785Y-145433845D01*
X75938000Y-145337246D01*
X75938000Y-145238754D01*
X75918785Y-145142155D01*
X75881094Y-145051161D01*
X75826375Y-144969269D01*
X75756731Y-144899625D01*
X75674839Y-144844906D01*
X75583845Y-144807215D01*
X75487246Y-144788000D01*
X75388754Y-144788000D01*
X75292155Y-144807215D01*
X75201161Y-144844906D01*
X75119269Y-144899625D01*
X75049625Y-144969269D01*
X74994906Y-145051161D01*
X74957215Y-145142155D01*
X74938000Y-145238754D01*
X67556000Y-145238754D01*
X67536785Y-145142155D01*
X67499094Y-145051161D01*
X67444375Y-144969269D01*
X67374731Y-144899625D01*
X67367161Y-144894567D01*
X67451865Y-144877718D01*
X67542859Y-144840027D01*
X67624751Y-144785308D01*
X67661633Y-144748426D01*
X67672155Y-144752785D01*
X67768754Y-144772000D01*
X67867246Y-144772000D01*
X67963845Y-144752785D01*
X68054839Y-144715094D01*
X68136731Y-144660375D01*
X68206375Y-144590731D01*
X68261094Y-144508839D01*
X68298785Y-144417845D01*
X68318000Y-144321246D01*
X68318000Y-144222754D01*
X68298785Y-144126155D01*
X68261094Y-144035161D01*
X68206375Y-143953269D01*
X68136731Y-143883625D01*
X68054839Y-143828906D01*
X67963845Y-143791215D01*
X67867246Y-143772000D01*
X67768754Y-143772000D01*
X67672155Y-143791215D01*
X67581161Y-143828906D01*
X67499269Y-143883625D01*
X67462387Y-143920507D01*
X67451865Y-143916148D01*
X67355266Y-143896933D01*
X67256774Y-143896933D01*
X67160175Y-143916148D01*
X67069181Y-143953839D01*
X66987289Y-144008558D01*
X66917645Y-144078202D01*
X66862926Y-144160094D01*
X66825235Y-144251088D01*
X66806020Y-144347687D01*
X66806020Y-144446179D01*
X66825235Y-144542778D01*
X66862926Y-144633772D01*
X66917645Y-144715664D01*
X66987289Y-144785308D01*
X66994859Y-144790366D01*
X66910155Y-144807215D01*
X66819161Y-144844906D01*
X66737269Y-144899625D01*
X66667625Y-144969269D01*
X66612906Y-145051161D01*
X66575215Y-145142155D01*
X66556000Y-145238754D01*
X42611000Y-145238754D01*
X42611000Y-138569004D01*
X68268250Y-138569004D01*
X68268250Y-138667496D01*
X68287465Y-138764095D01*
X68325156Y-138855089D01*
X68379875Y-138936981D01*
X68449519Y-139006625D01*
X68531411Y-139061344D01*
X68622405Y-139099035D01*
X68719004Y-139118250D01*
X68817496Y-139118250D01*
X68914095Y-139099035D01*
X69005089Y-139061344D01*
X69086981Y-139006625D01*
X69156625Y-138936981D01*
X69211344Y-138855089D01*
X69249035Y-138764095D01*
X69268250Y-138667496D01*
X69268250Y-138569004D01*
X69249035Y-138472405D01*
X69211344Y-138381411D01*
X69156625Y-138299519D01*
X69086981Y-138229875D01*
X69005089Y-138175156D01*
X68914095Y-138137465D01*
X68817496Y-138118250D01*
X68719004Y-138118250D01*
X68622405Y-138137465D01*
X68531411Y-138175156D01*
X68449519Y-138229875D01*
X68379875Y-138299519D01*
X68325156Y-138381411D01*
X68287465Y-138472405D01*
X68268250Y-138569004D01*
X42611000Y-138569004D01*
X42611000Y-136602754D01*
X80018000Y-136602754D01*
X80018000Y-136701246D01*
X80037215Y-136797845D01*
X80074906Y-136888839D01*
X80129625Y-136970731D01*
X80199269Y-137040375D01*
X80281161Y-137095094D01*
X80372155Y-137132785D01*
X80468754Y-137152000D01*
X80567246Y-137152000D01*
X80663845Y-137132785D01*
X80754839Y-137095094D01*
X80836731Y-137040375D01*
X80906375Y-136970731D01*
X80961094Y-136888839D01*
X80998785Y-136797845D01*
X81018000Y-136701246D01*
X81018000Y-136602754D01*
X80998785Y-136506155D01*
X80961094Y-136415161D01*
X80906375Y-136333269D01*
X80836731Y-136263625D01*
X80754839Y-136208906D01*
X80663845Y-136171215D01*
X80567246Y-136152000D01*
X80468754Y-136152000D01*
X80372155Y-136171215D01*
X80281161Y-136208906D01*
X80199269Y-136263625D01*
X80129625Y-136333269D01*
X80074906Y-136415161D01*
X80037215Y-136506155D01*
X80018000Y-136602754D01*
X42611000Y-136602754D01*
X42611000Y-135840754D01*
X83320000Y-135840754D01*
X83320000Y-135939246D01*
X83339215Y-136035845D01*
X83376906Y-136126839D01*
X83431625Y-136208731D01*
X83501269Y-136278375D01*
X83583161Y-136333094D01*
X83674155Y-136370785D01*
X83770754Y-136390000D01*
X83869246Y-136390000D01*
X83965845Y-136370785D01*
X84056839Y-136333094D01*
X84138731Y-136278375D01*
X84208375Y-136208731D01*
X84263094Y-136126839D01*
X84300785Y-136035845D01*
X84320000Y-135939246D01*
X84320000Y-135840754D01*
X84300785Y-135744155D01*
X84263094Y-135653161D01*
X84208375Y-135571269D01*
X84138731Y-135501625D01*
X84056839Y-135446906D01*
X83965845Y-135409215D01*
X83869246Y-135390000D01*
X83770754Y-135390000D01*
X83674155Y-135409215D01*
X83583161Y-135446906D01*
X83501269Y-135501625D01*
X83431625Y-135571269D01*
X83376906Y-135653161D01*
X83339215Y-135744155D01*
X83320000Y-135840754D01*
X42611000Y-135840754D01*
X42611000Y-134062754D01*
X61526000Y-134062754D01*
X61526000Y-134161246D01*
X61545215Y-134257845D01*
X61582906Y-134348839D01*
X61637625Y-134430731D01*
X61707269Y-134500375D01*
X61789161Y-134555094D01*
X61880155Y-134592785D01*
X61976754Y-134612000D01*
X62075246Y-134612000D01*
X62171845Y-134592785D01*
X62262839Y-134555094D01*
X62344731Y-134500375D01*
X62414375Y-134430731D01*
X62469094Y-134348839D01*
X62506785Y-134257845D01*
X62526000Y-134161246D01*
X62526000Y-134062754D01*
X62506785Y-133966155D01*
X62469094Y-133875161D01*
X62414375Y-133793269D01*
X62344731Y-133723625D01*
X62262839Y-133668906D01*
X62171845Y-133631215D01*
X62075246Y-133612000D01*
X61976754Y-133612000D01*
X61880155Y-133631215D01*
X61789161Y-133668906D01*
X61707269Y-133723625D01*
X61637625Y-133793269D01*
X61582906Y-133875161D01*
X61545215Y-133966155D01*
X61526000Y-134062754D01*
X42611000Y-134062754D01*
X42611000Y-132030754D01*
X46998000Y-132030754D01*
X46998000Y-132129246D01*
X47017215Y-132225845D01*
X47054906Y-132316839D01*
X47109625Y-132398731D01*
X47179269Y-132468375D01*
X47261161Y-132523094D01*
X47352155Y-132560785D01*
X47448754Y-132580000D01*
X47547246Y-132580000D01*
X47643845Y-132560785D01*
X47734839Y-132523094D01*
X47816731Y-132468375D01*
X47886375Y-132398731D01*
X47941094Y-132316839D01*
X47978785Y-132225845D01*
X47998000Y-132129246D01*
X47998000Y-132030754D01*
X47978785Y-131934155D01*
X47941094Y-131843161D01*
X47896722Y-131776754D01*
X56904000Y-131776754D01*
X56904000Y-131875246D01*
X56923215Y-131971845D01*
X56960906Y-132062839D01*
X57015625Y-132144731D01*
X57085269Y-132214375D01*
X57167161Y-132269094D01*
X57258155Y-132306785D01*
X57354754Y-132326000D01*
X57453246Y-132326000D01*
X57549845Y-132306785D01*
X57640839Y-132269094D01*
X57722731Y-132214375D01*
X57792375Y-132144731D01*
X57847094Y-132062839D01*
X57884785Y-131971845D01*
X57904000Y-131875246D01*
X57904000Y-131776754D01*
X57884785Y-131680155D01*
X57847094Y-131589161D01*
X57802722Y-131522754D01*
X72144000Y-131522754D01*
X72144000Y-131621246D01*
X72163215Y-131717845D01*
X72200906Y-131808839D01*
X72255625Y-131890731D01*
X72325269Y-131960375D01*
X72407161Y-132015094D01*
X72498155Y-132052785D01*
X72594754Y-132072000D01*
X72693246Y-132072000D01*
X72789845Y-132052785D01*
X72880839Y-132015094D01*
X72962731Y-131960375D01*
X73032375Y-131890731D01*
X73087094Y-131808839D01*
X73124785Y-131717845D01*
X73144000Y-131621246D01*
X73144000Y-131522754D01*
X73124785Y-131426155D01*
X73087094Y-131335161D01*
X73032375Y-131253269D01*
X72962731Y-131183625D01*
X72880839Y-131128906D01*
X72789845Y-131091215D01*
X72693246Y-131072000D01*
X72594754Y-131072000D01*
X72498155Y-131091215D01*
X72407161Y-131128906D01*
X72325269Y-131183625D01*
X72255625Y-131253269D01*
X72200906Y-131335161D01*
X72163215Y-131426155D01*
X72144000Y-131522754D01*
X57802722Y-131522754D01*
X57792375Y-131507269D01*
X57722731Y-131437625D01*
X57640839Y-131382906D01*
X57549845Y-131345215D01*
X57453246Y-131326000D01*
X57354754Y-131326000D01*
X57258155Y-131345215D01*
X57167161Y-131382906D01*
X57085269Y-131437625D01*
X57015625Y-131507269D01*
X56960906Y-131589161D01*
X56923215Y-131680155D01*
X56904000Y-131776754D01*
X47896722Y-131776754D01*
X47886375Y-131761269D01*
X47816731Y-131691625D01*
X47734839Y-131636906D01*
X47643845Y-131599215D01*
X47547246Y-131580000D01*
X47448754Y-131580000D01*
X47352155Y-131599215D01*
X47261161Y-131636906D01*
X47179269Y-131691625D01*
X47109625Y-131761269D01*
X47054906Y-131843161D01*
X47017215Y-131934155D01*
X46998000Y-132030754D01*
X42611000Y-132030754D01*
X42611000Y-130760754D01*
X46998000Y-130760754D01*
X46998000Y-130859246D01*
X47017215Y-130955845D01*
X47054906Y-131046839D01*
X47109625Y-131128731D01*
X47179269Y-131198375D01*
X47261161Y-131253094D01*
X47352155Y-131290785D01*
X47448754Y-131310000D01*
X47547246Y-131310000D01*
X47643845Y-131290785D01*
X47734839Y-131253094D01*
X47816731Y-131198375D01*
X47886375Y-131128731D01*
X47941094Y-131046839D01*
X47978785Y-130955845D01*
X47998000Y-130859246D01*
X47998000Y-130760754D01*
X51062000Y-130760754D01*
X51062000Y-130859246D01*
X51081215Y-130955845D01*
X51118906Y-131046839D01*
X51173625Y-131128731D01*
X51243269Y-131198375D01*
X51325161Y-131253094D01*
X51416155Y-131290785D01*
X51512754Y-131310000D01*
X51611246Y-131310000D01*
X51707845Y-131290785D01*
X51798839Y-131253094D01*
X51880731Y-131198375D01*
X51950375Y-131128731D01*
X52005094Y-131046839D01*
X52042785Y-130955845D01*
X52062000Y-130859246D01*
X52062000Y-130760754D01*
X56904000Y-130760754D01*
X56904000Y-130859246D01*
X56923215Y-130955845D01*
X56960906Y-131046839D01*
X57015625Y-131128731D01*
X57085269Y-131198375D01*
X57167161Y-131253094D01*
X57258155Y-131290785D01*
X57354754Y-131310000D01*
X57453246Y-131310000D01*
X57549845Y-131290785D01*
X57640839Y-131253094D01*
X57722731Y-131198375D01*
X57792375Y-131128731D01*
X57847094Y-131046839D01*
X57884785Y-130955845D01*
X57904000Y-130859246D01*
X57904000Y-130760754D01*
X57884785Y-130664155D01*
X57847094Y-130573161D01*
X57792375Y-130491269D01*
X57722731Y-130421625D01*
X57640839Y-130366906D01*
X57549845Y-130329215D01*
X57453246Y-130310000D01*
X57354754Y-130310000D01*
X57258155Y-130329215D01*
X57167161Y-130366906D01*
X57085269Y-130421625D01*
X57015625Y-130491269D01*
X56960906Y-130573161D01*
X56923215Y-130664155D01*
X56904000Y-130760754D01*
X52062000Y-130760754D01*
X52042785Y-130664155D01*
X52005094Y-130573161D01*
X51950375Y-130491269D01*
X51880731Y-130421625D01*
X51798839Y-130366906D01*
X51707845Y-130329215D01*
X51611246Y-130310000D01*
X51512754Y-130310000D01*
X51416155Y-130329215D01*
X51325161Y-130366906D01*
X51243269Y-130421625D01*
X51173625Y-130491269D01*
X51118906Y-130573161D01*
X51081215Y-130664155D01*
X51062000Y-130760754D01*
X47998000Y-130760754D01*
X47978785Y-130664155D01*
X47941094Y-130573161D01*
X47886375Y-130491269D01*
X47816731Y-130421625D01*
X47734839Y-130366906D01*
X47643845Y-130329215D01*
X47547246Y-130310000D01*
X47448754Y-130310000D01*
X47352155Y-130329215D01*
X47261161Y-130366906D01*
X47179269Y-130421625D01*
X47109625Y-130491269D01*
X47054906Y-130573161D01*
X47017215Y-130664155D01*
X46998000Y-130760754D01*
X42611000Y-130760754D01*
X42611000Y-129490754D01*
X51062000Y-129490754D01*
X51062000Y-129589246D01*
X51081215Y-129685845D01*
X51118906Y-129776839D01*
X51173625Y-129858731D01*
X51243269Y-129928375D01*
X51325161Y-129983094D01*
X51416155Y-130020785D01*
X51512754Y-130040000D01*
X51611246Y-130040000D01*
X51707845Y-130020785D01*
X51761032Y-129998754D01*
X54110000Y-129998754D01*
X54110000Y-130097246D01*
X54129215Y-130193845D01*
X54166906Y-130284839D01*
X54221625Y-130366731D01*
X54291269Y-130436375D01*
X54373161Y-130491094D01*
X54464155Y-130528785D01*
X54560754Y-130548000D01*
X54659246Y-130548000D01*
X54755845Y-130528785D01*
X54846839Y-130491094D01*
X54928731Y-130436375D01*
X54998375Y-130366731D01*
X55053094Y-130284839D01*
X55090785Y-130193845D01*
X55110000Y-130097246D01*
X55110000Y-129998754D01*
X55090785Y-129902155D01*
X55053094Y-129811161D01*
X54998375Y-129729269D01*
X54928731Y-129659625D01*
X54846839Y-129604906D01*
X54755845Y-129567215D01*
X54659246Y-129548000D01*
X54560754Y-129548000D01*
X54464155Y-129567215D01*
X54373161Y-129604906D01*
X54291269Y-129659625D01*
X54221625Y-129729269D01*
X54166906Y-129811161D01*
X54129215Y-129902155D01*
X54110000Y-129998754D01*
X51761032Y-129998754D01*
X51798839Y-129983094D01*
X51880731Y-129928375D01*
X51950375Y-129858731D01*
X52005094Y-129776839D01*
X52042785Y-129685845D01*
X52062000Y-129589246D01*
X52062000Y-129490754D01*
X52042785Y-129394155D01*
X52005094Y-129303161D01*
X51960722Y-129236754D01*
X69604000Y-129236754D01*
X69604000Y-129335246D01*
X69623215Y-129431845D01*
X69660906Y-129522839D01*
X69715625Y-129604731D01*
X69785269Y-129674375D01*
X69867161Y-129729094D01*
X69958155Y-129766785D01*
X70054754Y-129786000D01*
X70153246Y-129786000D01*
X70249845Y-129766785D01*
X70340839Y-129729094D01*
X70422731Y-129674375D01*
X70492375Y-129604731D01*
X70547094Y-129522839D01*
X70584785Y-129431845D01*
X70604000Y-129335246D01*
X70604000Y-129236754D01*
X70584785Y-129140155D01*
X70547094Y-129049161D01*
X70492375Y-128967269D01*
X70422731Y-128897625D01*
X70340839Y-128842906D01*
X70249845Y-128805215D01*
X70153246Y-128786000D01*
X70054754Y-128786000D01*
X69958155Y-128805215D01*
X69867161Y-128842906D01*
X69785269Y-128897625D01*
X69715625Y-128967269D01*
X69660906Y-129049161D01*
X69623215Y-129140155D01*
X69604000Y-129236754D01*
X51960722Y-129236754D01*
X51950375Y-129221269D01*
X51880731Y-129151625D01*
X51798839Y-129096906D01*
X51707845Y-129059215D01*
X51611246Y-129040000D01*
X51512754Y-129040000D01*
X51416155Y-129059215D01*
X51325161Y-129096906D01*
X51243269Y-129151625D01*
X51173625Y-129221269D01*
X51118906Y-129303161D01*
X51081215Y-129394155D01*
X51062000Y-129490754D01*
X42611000Y-129490754D01*
X42611000Y-128220754D01*
X51316000Y-128220754D01*
X51316000Y-128319246D01*
X51335215Y-128415845D01*
X51372906Y-128506839D01*
X51427625Y-128588731D01*
X51497269Y-128658375D01*
X51579161Y-128713094D01*
X51670155Y-128750785D01*
X51766754Y-128770000D01*
X51865246Y-128770000D01*
X51961845Y-128750785D01*
X52052839Y-128713094D01*
X52134163Y-128658754D01*
X56212000Y-128658754D01*
X56212000Y-128757246D01*
X56231215Y-128853845D01*
X56268906Y-128944839D01*
X56323625Y-129026731D01*
X56393269Y-129096375D01*
X56475161Y-129151094D01*
X56566155Y-129188785D01*
X56662754Y-129208000D01*
X56761246Y-129208000D01*
X56857845Y-129188785D01*
X56948839Y-129151094D01*
X57030731Y-129096375D01*
X57100375Y-129026731D01*
X57155094Y-128944839D01*
X57192785Y-128853845D01*
X57212000Y-128757246D01*
X57212000Y-128658754D01*
X57192785Y-128562155D01*
X57155094Y-128471161D01*
X57100375Y-128389269D01*
X57030731Y-128319625D01*
X56948839Y-128264906D01*
X56857845Y-128227215D01*
X56761246Y-128208000D01*
X56662754Y-128208000D01*
X56566155Y-128227215D01*
X56475161Y-128264906D01*
X56393269Y-128319625D01*
X56323625Y-128389269D01*
X56268906Y-128471161D01*
X56231215Y-128562155D01*
X56212000Y-128658754D01*
X52134163Y-128658754D01*
X52134731Y-128658375D01*
X52204375Y-128588731D01*
X52259094Y-128506839D01*
X52296785Y-128415845D01*
X52316000Y-128319246D01*
X52316000Y-128220754D01*
X52296785Y-128124155D01*
X52259094Y-128033161D01*
X52204375Y-127951269D01*
X52134731Y-127881625D01*
X52052839Y-127826906D01*
X51961845Y-127789215D01*
X51865246Y-127770000D01*
X51766754Y-127770000D01*
X51670155Y-127789215D01*
X51579161Y-127826906D01*
X51497269Y-127881625D01*
X51427625Y-127951269D01*
X51372906Y-128033161D01*
X51335215Y-128124155D01*
X51316000Y-128220754D01*
X42611000Y-128220754D01*
X42611000Y-126950754D01*
X50300000Y-126950754D01*
X50300000Y-127049246D01*
X50319215Y-127145845D01*
X50356906Y-127236839D01*
X50411625Y-127318731D01*
X50481269Y-127388375D01*
X50563161Y-127443094D01*
X50654155Y-127480785D01*
X50750754Y-127500000D01*
X50849246Y-127500000D01*
X50945845Y-127480785D01*
X50999032Y-127458754D01*
X56396000Y-127458754D01*
X56396000Y-127557246D01*
X56415215Y-127653845D01*
X56452906Y-127744839D01*
X56507625Y-127826731D01*
X56577269Y-127896375D01*
X56659161Y-127951094D01*
X56750155Y-127988785D01*
X56846754Y-128008000D01*
X56945246Y-128008000D01*
X57041845Y-127988785D01*
X57132839Y-127951094D01*
X57214731Y-127896375D01*
X57284375Y-127826731D01*
X57339094Y-127744839D01*
X57376785Y-127653845D01*
X57396000Y-127557246D01*
X57396000Y-127479891D01*
X59983877Y-127479891D01*
X59983877Y-127578383D01*
X60003092Y-127674982D01*
X60040783Y-127765976D01*
X60095502Y-127847868D01*
X60165146Y-127917512D01*
X60247038Y-127972231D01*
X60338032Y-128009922D01*
X60434631Y-128029137D01*
X60533123Y-128029137D01*
X60629722Y-128009922D01*
X60720716Y-127972231D01*
X60802608Y-127917512D01*
X60872252Y-127847868D01*
X60926971Y-127765976D01*
X60949016Y-127712754D01*
X61476000Y-127712754D01*
X61476000Y-127811246D01*
X61495215Y-127907845D01*
X61532906Y-127998839D01*
X61587625Y-128080731D01*
X61657269Y-128150375D01*
X61739161Y-128205094D01*
X61830155Y-128242785D01*
X61926754Y-128262000D01*
X62025246Y-128262000D01*
X62121845Y-128242785D01*
X62212839Y-128205094D01*
X62294731Y-128150375D01*
X62364375Y-128080731D01*
X62419094Y-127998839D01*
X62456785Y-127907845D01*
X62476000Y-127811246D01*
X62476000Y-127712754D01*
X62456785Y-127616155D01*
X62419094Y-127525161D01*
X62374722Y-127458754D01*
X67826000Y-127458754D01*
X67826000Y-127557246D01*
X67845215Y-127653845D01*
X67882906Y-127744839D01*
X67937625Y-127826731D01*
X68007269Y-127896375D01*
X68089161Y-127951094D01*
X68180155Y-127988785D01*
X68276754Y-128008000D01*
X68375246Y-128008000D01*
X68471845Y-127988785D01*
X68525032Y-127966754D01*
X71128000Y-127966754D01*
X71128000Y-128065246D01*
X71147215Y-128161845D01*
X71184906Y-128252839D01*
X71239625Y-128334731D01*
X71309269Y-128404375D01*
X71391161Y-128459094D01*
X71482155Y-128496785D01*
X71567542Y-128513770D01*
X71563269Y-128516625D01*
X71493625Y-128586269D01*
X71438906Y-128668161D01*
X71401215Y-128759155D01*
X71382000Y-128855754D01*
X71382000Y-128954246D01*
X71401215Y-129050845D01*
X71438906Y-129141839D01*
X71493625Y-129223731D01*
X71563269Y-129293375D01*
X71645161Y-129348094D01*
X71736155Y-129385785D01*
X71832754Y-129405000D01*
X71931246Y-129405000D01*
X72027845Y-129385785D01*
X72118839Y-129348094D01*
X72200731Y-129293375D01*
X72270375Y-129223731D01*
X72325094Y-129141839D01*
X72362785Y-129050845D01*
X72382000Y-128954246D01*
X72382000Y-128855754D01*
X72362785Y-128759155D01*
X72325094Y-128668161D01*
X72270375Y-128586269D01*
X72200731Y-128516625D01*
X72118839Y-128461906D01*
X72027845Y-128424215D01*
X71942458Y-128407230D01*
X71946731Y-128404375D01*
X72016375Y-128334731D01*
X72071094Y-128252839D01*
X72108785Y-128161845D01*
X72128000Y-128065246D01*
X72128000Y-127966754D01*
X72108785Y-127870155D01*
X72071094Y-127779161D01*
X72016375Y-127697269D01*
X71946731Y-127627625D01*
X71864839Y-127572906D01*
X71773845Y-127535215D01*
X71677246Y-127516000D01*
X71578754Y-127516000D01*
X71482155Y-127535215D01*
X71391161Y-127572906D01*
X71309269Y-127627625D01*
X71239625Y-127697269D01*
X71184906Y-127779161D01*
X71147215Y-127870155D01*
X71128000Y-127966754D01*
X68525032Y-127966754D01*
X68562839Y-127951094D01*
X68644731Y-127896375D01*
X68714375Y-127826731D01*
X68769094Y-127744839D01*
X68806785Y-127653845D01*
X68826000Y-127557246D01*
X68826000Y-127458754D01*
X68806785Y-127362155D01*
X68769094Y-127271161D01*
X68724722Y-127204754D01*
X72906000Y-127204754D01*
X72906000Y-127303246D01*
X72925215Y-127399845D01*
X72962906Y-127490839D01*
X73017625Y-127572731D01*
X73087269Y-127642375D01*
X73169161Y-127697094D01*
X73260155Y-127734785D01*
X73356754Y-127754000D01*
X73455246Y-127754000D01*
X73551845Y-127734785D01*
X73642839Y-127697094D01*
X73724731Y-127642375D01*
X73794375Y-127572731D01*
X73849094Y-127490839D01*
X73886785Y-127399845D01*
X73906000Y-127303246D01*
X73906000Y-127204754D01*
X73886785Y-127108155D01*
X73849094Y-127017161D01*
X73794375Y-126935269D01*
X73724731Y-126865625D01*
X73642839Y-126810906D01*
X73551845Y-126773215D01*
X73455246Y-126754000D01*
X73356754Y-126754000D01*
X73260155Y-126773215D01*
X73169161Y-126810906D01*
X73087269Y-126865625D01*
X73017625Y-126935269D01*
X72962906Y-127017161D01*
X72925215Y-127108155D01*
X72906000Y-127204754D01*
X68724722Y-127204754D01*
X68714375Y-127189269D01*
X68644731Y-127119625D01*
X68562839Y-127064906D01*
X68471845Y-127027215D01*
X68375246Y-127008000D01*
X68276754Y-127008000D01*
X68180155Y-127027215D01*
X68089161Y-127064906D01*
X68007269Y-127119625D01*
X67937625Y-127189269D01*
X67882906Y-127271161D01*
X67845215Y-127362155D01*
X67826000Y-127458754D01*
X62374722Y-127458754D01*
X62364375Y-127443269D01*
X62294731Y-127373625D01*
X62212839Y-127318906D01*
X62121845Y-127281215D01*
X62025246Y-127262000D01*
X61926754Y-127262000D01*
X61830155Y-127281215D01*
X61739161Y-127318906D01*
X61657269Y-127373625D01*
X61587625Y-127443269D01*
X61532906Y-127525161D01*
X61495215Y-127616155D01*
X61476000Y-127712754D01*
X60949016Y-127712754D01*
X60964662Y-127674982D01*
X60983877Y-127578383D01*
X60983877Y-127479891D01*
X60964662Y-127383292D01*
X60926971Y-127292298D01*
X60872252Y-127210406D01*
X60802608Y-127140762D01*
X60720716Y-127086043D01*
X60629722Y-127048352D01*
X60533123Y-127029137D01*
X60434631Y-127029137D01*
X60338032Y-127048352D01*
X60247038Y-127086043D01*
X60165146Y-127140762D01*
X60095502Y-127210406D01*
X60040783Y-127292298D01*
X60003092Y-127383292D01*
X59983877Y-127479891D01*
X57396000Y-127479891D01*
X57396000Y-127458754D01*
X57376785Y-127362155D01*
X57339094Y-127271161D01*
X57284375Y-127189269D01*
X57214731Y-127119625D01*
X57132839Y-127064906D01*
X57041845Y-127027215D01*
X56945246Y-127008000D01*
X56846754Y-127008000D01*
X56750155Y-127027215D01*
X56659161Y-127064906D01*
X56577269Y-127119625D01*
X56507625Y-127189269D01*
X56452906Y-127271161D01*
X56415215Y-127362155D01*
X56396000Y-127458754D01*
X50999032Y-127458754D01*
X51036839Y-127443094D01*
X51118731Y-127388375D01*
X51188375Y-127318731D01*
X51243094Y-127236839D01*
X51280785Y-127145845D01*
X51300000Y-127049246D01*
X51300000Y-126950754D01*
X51280785Y-126854155D01*
X51243094Y-126763161D01*
X51188375Y-126681269D01*
X51118731Y-126611625D01*
X51036839Y-126556906D01*
X50945845Y-126519215D01*
X50849246Y-126500000D01*
X50750754Y-126500000D01*
X50654155Y-126519215D01*
X50563161Y-126556906D01*
X50481269Y-126611625D01*
X50411625Y-126681269D01*
X50356906Y-126763161D01*
X50319215Y-126854155D01*
X50300000Y-126950754D01*
X42611000Y-126950754D01*
X42611000Y-126444976D01*
X56668997Y-126444976D01*
X56668997Y-126543468D01*
X56688212Y-126640067D01*
X56725903Y-126731061D01*
X56780622Y-126812953D01*
X56850266Y-126882597D01*
X56932158Y-126937316D01*
X57023152Y-126975007D01*
X57119751Y-126994222D01*
X57218243Y-126994222D01*
X57314842Y-126975007D01*
X57405836Y-126937316D01*
X57487728Y-126882597D01*
X57557372Y-126812953D01*
X57612091Y-126731061D01*
X57614015Y-126726416D01*
X60748848Y-126726416D01*
X60748848Y-126824908D01*
X60768063Y-126921507D01*
X60805754Y-127012501D01*
X60860473Y-127094393D01*
X60930117Y-127164037D01*
X61012009Y-127218756D01*
X61103003Y-127256447D01*
X61199602Y-127275662D01*
X61298094Y-127275662D01*
X61394693Y-127256447D01*
X61485687Y-127218756D01*
X61567579Y-127164037D01*
X61637223Y-127094393D01*
X61691942Y-127012501D01*
X61729633Y-126921507D01*
X61748848Y-126824908D01*
X61748848Y-126726416D01*
X61746112Y-126712659D01*
X65560132Y-126712659D01*
X65560132Y-126811151D01*
X65579347Y-126907750D01*
X65617038Y-126998744D01*
X65671757Y-127080636D01*
X65741401Y-127150280D01*
X65823293Y-127204999D01*
X65914287Y-127242690D01*
X66010886Y-127261905D01*
X66109378Y-127261905D01*
X66205977Y-127242690D01*
X66296971Y-127204999D01*
X66378863Y-127150280D01*
X66448507Y-127080636D01*
X66503226Y-126998744D01*
X66540917Y-126907750D01*
X66560132Y-126811151D01*
X66560132Y-126712659D01*
X66540917Y-126616060D01*
X66503226Y-126525066D01*
X66448507Y-126443174D01*
X66378863Y-126373530D01*
X66296971Y-126318811D01*
X66205977Y-126281120D01*
X66109378Y-126261905D01*
X66010886Y-126261905D01*
X65914287Y-126281120D01*
X65823293Y-126318811D01*
X65741401Y-126373530D01*
X65671757Y-126443174D01*
X65617038Y-126525066D01*
X65579347Y-126616060D01*
X65560132Y-126712659D01*
X61746112Y-126712659D01*
X61729633Y-126629817D01*
X61691942Y-126538823D01*
X61637223Y-126456931D01*
X61567579Y-126387287D01*
X61485687Y-126332568D01*
X61394693Y-126294877D01*
X61298094Y-126275662D01*
X61199602Y-126275662D01*
X61103003Y-126294877D01*
X61012009Y-126332568D01*
X60930117Y-126387287D01*
X60860473Y-126456931D01*
X60805754Y-126538823D01*
X60768063Y-126629817D01*
X60748848Y-126726416D01*
X57614015Y-126726416D01*
X57649782Y-126640067D01*
X57668997Y-126543468D01*
X57668997Y-126444976D01*
X57649782Y-126348377D01*
X57612091Y-126257383D01*
X57557372Y-126175491D01*
X57487728Y-126105847D01*
X57457933Y-126085938D01*
X61615143Y-126085938D01*
X61615143Y-126184430D01*
X61634358Y-126281029D01*
X61672049Y-126372023D01*
X61726768Y-126453915D01*
X61796412Y-126523559D01*
X61878304Y-126578278D01*
X61969298Y-126615969D01*
X62065897Y-126635184D01*
X62164389Y-126635184D01*
X62260988Y-126615969D01*
X62351982Y-126578278D01*
X62433874Y-126523559D01*
X62503518Y-126453915D01*
X62558237Y-126372023D01*
X62569159Y-126345656D01*
X62636984Y-126413481D01*
X62718876Y-126468200D01*
X62809870Y-126505891D01*
X62906469Y-126525106D01*
X63004961Y-126525106D01*
X63101560Y-126505891D01*
X63192554Y-126468200D01*
X63274446Y-126413481D01*
X63344090Y-126343837D01*
X63398809Y-126261945D01*
X63436500Y-126170951D01*
X63455715Y-126074352D01*
X63455715Y-125975860D01*
X63436500Y-125879261D01*
X63398809Y-125788267D01*
X63344090Y-125706375D01*
X63278878Y-125641163D01*
X63294826Y-125630507D01*
X63364470Y-125560863D01*
X63419189Y-125478971D01*
X63456880Y-125387977D01*
X63474428Y-125299754D01*
X72017000Y-125299754D01*
X72017000Y-125398246D01*
X72036215Y-125494845D01*
X72073906Y-125585839D01*
X72128625Y-125667731D01*
X72198269Y-125737375D01*
X72280161Y-125792094D01*
X72371155Y-125829785D01*
X72467754Y-125849000D01*
X72566246Y-125849000D01*
X72662845Y-125829785D01*
X72753839Y-125792094D01*
X72835731Y-125737375D01*
X72905375Y-125667731D01*
X72960094Y-125585839D01*
X72997785Y-125494845D01*
X73017000Y-125398246D01*
X73017000Y-125299754D01*
X72997785Y-125203155D01*
X72960094Y-125112161D01*
X72905375Y-125030269D01*
X72835731Y-124960625D01*
X72753839Y-124905906D01*
X72662845Y-124868215D01*
X72566246Y-124849000D01*
X72467754Y-124849000D01*
X72371155Y-124868215D01*
X72280161Y-124905906D01*
X72198269Y-124960625D01*
X72128625Y-125030269D01*
X72073906Y-125112161D01*
X72036215Y-125203155D01*
X72017000Y-125299754D01*
X63474428Y-125299754D01*
X63476095Y-125291378D01*
X63476095Y-125192886D01*
X63456880Y-125096287D01*
X63419189Y-125005293D01*
X63364470Y-124923401D01*
X63294826Y-124853757D01*
X63212934Y-124799038D01*
X63121940Y-124761347D01*
X63025341Y-124742132D01*
X62926849Y-124742132D01*
X62830250Y-124761347D01*
X62739256Y-124799038D01*
X62657364Y-124853757D01*
X62587720Y-124923401D01*
X62533001Y-125005293D01*
X62495310Y-125096287D01*
X62476095Y-125192886D01*
X62476095Y-125291378D01*
X62495310Y-125387977D01*
X62533001Y-125478971D01*
X62587720Y-125560863D01*
X62652932Y-125626075D01*
X62636984Y-125636731D01*
X62567340Y-125706375D01*
X62512621Y-125788267D01*
X62501699Y-125814634D01*
X62433874Y-125746809D01*
X62351982Y-125692090D01*
X62260988Y-125654399D01*
X62164389Y-125635184D01*
X62065897Y-125635184D01*
X61969298Y-125654399D01*
X61878304Y-125692090D01*
X61796412Y-125746809D01*
X61726768Y-125816453D01*
X61672049Y-125898345D01*
X61634358Y-125989339D01*
X61615143Y-126085938D01*
X57457933Y-126085938D01*
X57405836Y-126051128D01*
X57314842Y-126013437D01*
X57218243Y-125994222D01*
X57119751Y-125994222D01*
X57023152Y-126013437D01*
X56932158Y-126051128D01*
X56850266Y-126105847D01*
X56780622Y-126175491D01*
X56725903Y-126257383D01*
X56688212Y-126348377D01*
X56668997Y-126444976D01*
X42611000Y-126444976D01*
X42611000Y-125680754D01*
X46490000Y-125680754D01*
X46490000Y-125779246D01*
X46509215Y-125875845D01*
X46546906Y-125966839D01*
X46601625Y-126048731D01*
X46671269Y-126118375D01*
X46753161Y-126173094D01*
X46844155Y-126210785D01*
X46940754Y-126230000D01*
X47039246Y-126230000D01*
X47135845Y-126210785D01*
X47226839Y-126173094D01*
X47308731Y-126118375D01*
X47378375Y-126048731D01*
X47433094Y-125966839D01*
X47470785Y-125875845D01*
X47490000Y-125779246D01*
X47490000Y-125680754D01*
X52586000Y-125680754D01*
X52586000Y-125779246D01*
X52605215Y-125875845D01*
X52642906Y-125966839D01*
X52697625Y-126048731D01*
X52767269Y-126118375D01*
X52849161Y-126173094D01*
X52940155Y-126210785D01*
X53036754Y-126230000D01*
X53135246Y-126230000D01*
X53231845Y-126210785D01*
X53322839Y-126173094D01*
X53404731Y-126118375D01*
X53474375Y-126048731D01*
X53529094Y-125966839D01*
X53566785Y-125875845D01*
X53586000Y-125779246D01*
X53586000Y-125680754D01*
X53566785Y-125584155D01*
X53529094Y-125493161D01*
X53474375Y-125411269D01*
X53404731Y-125341625D01*
X53322839Y-125286906D01*
X53231845Y-125249215D01*
X53135246Y-125230000D01*
X53036754Y-125230000D01*
X52940155Y-125249215D01*
X52849161Y-125286906D01*
X52767269Y-125341625D01*
X52697625Y-125411269D01*
X52642906Y-125493161D01*
X52605215Y-125584155D01*
X52586000Y-125680754D01*
X47490000Y-125680754D01*
X47470785Y-125584155D01*
X47433094Y-125493161D01*
X47378375Y-125411269D01*
X47308731Y-125341625D01*
X47226839Y-125286906D01*
X47135845Y-125249215D01*
X47039246Y-125230000D01*
X46940754Y-125230000D01*
X46844155Y-125249215D01*
X46753161Y-125286906D01*
X46671269Y-125341625D01*
X46601625Y-125411269D01*
X46546906Y-125493161D01*
X46509215Y-125584155D01*
X46490000Y-125680754D01*
X42611000Y-125680754D01*
X42611000Y-125184754D01*
X59952000Y-125184754D01*
X59952000Y-125283246D01*
X59971215Y-125379845D01*
X60008906Y-125470839D01*
X60063625Y-125552731D01*
X60133269Y-125622375D01*
X60215161Y-125677094D01*
X60306155Y-125714785D01*
X60402754Y-125734000D01*
X60501246Y-125734000D01*
X60597845Y-125714785D01*
X60688839Y-125677094D01*
X60770731Y-125622375D01*
X60840375Y-125552731D01*
X60895094Y-125470839D01*
X60932785Y-125379845D01*
X60952000Y-125283246D01*
X60952000Y-125184754D01*
X60932785Y-125088155D01*
X60895094Y-124997161D01*
X60840375Y-124915269D01*
X60782794Y-124857688D01*
X60796731Y-124848375D01*
X60846000Y-124799106D01*
X60895269Y-124848375D01*
X60977161Y-124903094D01*
X61068155Y-124940785D01*
X61164754Y-124960000D01*
X61263246Y-124960000D01*
X61359845Y-124940785D01*
X61450839Y-124903094D01*
X61532731Y-124848375D01*
X61602375Y-124778731D01*
X61657094Y-124696839D01*
X61694785Y-124605845D01*
X61707102Y-124543924D01*
X61719419Y-124605844D01*
X61757110Y-124696838D01*
X61811829Y-124778730D01*
X61881473Y-124848374D01*
X61963365Y-124903093D01*
X62054359Y-124940784D01*
X62150958Y-124959999D01*
X62249450Y-124959999D01*
X62346049Y-124940784D01*
X62437043Y-124903093D01*
X62518935Y-124848374D01*
X62588579Y-124778730D01*
X62643298Y-124696838D01*
X62680989Y-124605844D01*
X62700204Y-124509245D01*
X62700204Y-124410753D01*
X62680989Y-124314154D01*
X62643298Y-124223160D01*
X62588579Y-124141268D01*
X62518935Y-124071624D01*
X62437043Y-124016905D01*
X62346049Y-123979214D01*
X62249450Y-123959999D01*
X62150958Y-123959999D01*
X62054359Y-123979214D01*
X61963365Y-124016905D01*
X61881473Y-124071624D01*
X61811829Y-124141268D01*
X61757110Y-124223160D01*
X61719419Y-124314154D01*
X61707102Y-124376075D01*
X61694785Y-124314155D01*
X61657094Y-124223161D01*
X61602375Y-124141269D01*
X61532731Y-124071625D01*
X61450839Y-124016906D01*
X61359845Y-123979215D01*
X61263246Y-123960000D01*
X61164754Y-123960000D01*
X61068155Y-123979215D01*
X60977161Y-124016906D01*
X60895269Y-124071625D01*
X60846000Y-124120894D01*
X60796731Y-124071625D01*
X60714839Y-124016906D01*
X60623845Y-123979215D01*
X60527246Y-123960000D01*
X60428754Y-123960000D01*
X60332155Y-123979215D01*
X60241161Y-124016906D01*
X60159269Y-124071625D01*
X60089625Y-124141269D01*
X60034906Y-124223161D01*
X59997215Y-124314155D01*
X59978000Y-124410754D01*
X59978000Y-124509246D01*
X59997215Y-124605845D01*
X60034906Y-124696839D01*
X60089625Y-124778731D01*
X60147206Y-124836312D01*
X60133269Y-124845625D01*
X60063625Y-124915269D01*
X60008906Y-124997161D01*
X59971215Y-125088155D01*
X59952000Y-125184754D01*
X42611000Y-125184754D01*
X42611000Y-123648754D01*
X63254000Y-123648754D01*
X63254000Y-123747246D01*
X63273215Y-123843845D01*
X63310906Y-123934839D01*
X63365625Y-124016731D01*
X63435269Y-124086375D01*
X63517161Y-124141094D01*
X63608155Y-124178785D01*
X63704754Y-124198000D01*
X63803246Y-124198000D01*
X63899845Y-124178785D01*
X63990839Y-124141094D01*
X64072731Y-124086375D01*
X64142375Y-124016731D01*
X64197094Y-123934839D01*
X64234785Y-123843845D01*
X64254000Y-123747246D01*
X64254000Y-123648754D01*
X64234785Y-123552155D01*
X64197094Y-123461161D01*
X64142375Y-123379269D01*
X64072731Y-123309625D01*
X63990839Y-123254906D01*
X63899845Y-123217215D01*
X63803246Y-123198000D01*
X63704754Y-123198000D01*
X63608155Y-123217215D01*
X63517161Y-123254906D01*
X63435269Y-123309625D01*
X63365625Y-123379269D01*
X63310906Y-123461161D01*
X63273215Y-123552155D01*
X63254000Y-123648754D01*
X42611000Y-123648754D01*
X42611000Y-120346754D01*
X59952000Y-120346754D01*
X59952000Y-120445246D01*
X59971215Y-120541845D01*
X60008906Y-120632839D01*
X60063625Y-120714731D01*
X60132075Y-120783181D01*
X60070505Y-120844751D01*
X60015786Y-120926643D01*
X59978095Y-121017637D01*
X59958880Y-121114236D01*
X59958880Y-121212728D01*
X59978095Y-121309327D01*
X60015786Y-121400321D01*
X60070505Y-121482213D01*
X60140149Y-121551857D01*
X60222041Y-121606576D01*
X60313035Y-121644267D01*
X60409634Y-121663482D01*
X60508126Y-121663482D01*
X60604725Y-121644267D01*
X60695719Y-121606576D01*
X60777611Y-121551857D01*
X60796011Y-121533457D01*
X60826735Y-121607632D01*
X60860869Y-121658716D01*
X60837316Y-121682269D01*
X60782597Y-121764161D01*
X60744906Y-121855155D01*
X60725691Y-121951754D01*
X60725691Y-122050246D01*
X60744906Y-122146845D01*
X60782597Y-122237839D01*
X60837316Y-122319731D01*
X60906960Y-122389375D01*
X60988852Y-122444094D01*
X61041928Y-122466079D01*
X60977161Y-122492906D01*
X60895269Y-122547625D01*
X60825625Y-122617269D01*
X60770906Y-122699161D01*
X60733215Y-122790155D01*
X60714000Y-122886754D01*
X60714000Y-122985246D01*
X60733215Y-123081845D01*
X60770906Y-123172839D01*
X60825625Y-123254731D01*
X60895269Y-123324375D01*
X60977161Y-123379094D01*
X61068155Y-123416785D01*
X61164754Y-123436000D01*
X61263246Y-123436000D01*
X61359845Y-123416785D01*
X61450839Y-123379094D01*
X61532731Y-123324375D01*
X61583119Y-123273987D01*
X61587625Y-123280731D01*
X61657269Y-123350375D01*
X61739161Y-123405094D01*
X61830155Y-123442785D01*
X61926754Y-123462000D01*
X62025246Y-123462000D01*
X62121845Y-123442785D01*
X62212839Y-123405094D01*
X62294731Y-123350375D01*
X62364375Y-123280731D01*
X62419094Y-123198839D01*
X62456785Y-123107845D01*
X62476000Y-123011246D01*
X62476000Y-122912754D01*
X62470829Y-122886754D01*
X67826000Y-122886754D01*
X67826000Y-122985246D01*
X67845215Y-123081845D01*
X67882906Y-123172839D01*
X67937625Y-123254731D01*
X67999894Y-123317000D01*
X67937625Y-123379269D01*
X67882906Y-123461161D01*
X67845215Y-123552155D01*
X67826000Y-123648754D01*
X67826000Y-123747246D01*
X67845215Y-123843845D01*
X67882906Y-123934839D01*
X67937625Y-124016731D01*
X68007269Y-124086375D01*
X68089161Y-124141094D01*
X68180155Y-124178785D01*
X68276754Y-124198000D01*
X68375246Y-124198000D01*
X68471845Y-124178785D01*
X68562839Y-124141094D01*
X68644731Y-124086375D01*
X68714375Y-124016731D01*
X68769094Y-123934839D01*
X68782384Y-123902754D01*
X71382000Y-123902754D01*
X71382000Y-124001246D01*
X71401215Y-124097845D01*
X71438906Y-124188839D01*
X71493625Y-124270731D01*
X71563269Y-124340375D01*
X71645161Y-124395094D01*
X71736155Y-124432785D01*
X71832754Y-124452000D01*
X71931246Y-124452000D01*
X72027845Y-124432785D01*
X72118839Y-124395094D01*
X72200731Y-124340375D01*
X72270375Y-124270731D01*
X72325094Y-124188839D01*
X72362785Y-124097845D01*
X72382000Y-124001246D01*
X72382000Y-123902754D01*
X72362785Y-123806155D01*
X72325094Y-123715161D01*
X72270375Y-123633269D01*
X72200731Y-123563625D01*
X72118839Y-123508906D01*
X72027845Y-123471215D01*
X71931246Y-123452000D01*
X71832754Y-123452000D01*
X71736155Y-123471215D01*
X71645161Y-123508906D01*
X71563269Y-123563625D01*
X71493625Y-123633269D01*
X71438906Y-123715161D01*
X71401215Y-123806155D01*
X71382000Y-123902754D01*
X68782384Y-123902754D01*
X68806785Y-123843845D01*
X68826000Y-123747246D01*
X68826000Y-123648754D01*
X68806785Y-123552155D01*
X68769094Y-123461161D01*
X68714375Y-123379269D01*
X68652106Y-123317000D01*
X68714375Y-123254731D01*
X68769094Y-123172839D01*
X68806785Y-123081845D01*
X68826000Y-122985246D01*
X68826000Y-122886754D01*
X68806785Y-122790155D01*
X68769094Y-122699161D01*
X68714375Y-122617269D01*
X68644731Y-122547625D01*
X68562839Y-122492906D01*
X68471845Y-122455215D01*
X68375246Y-122436000D01*
X68276754Y-122436000D01*
X68180155Y-122455215D01*
X68089161Y-122492906D01*
X68007269Y-122547625D01*
X67937625Y-122617269D01*
X67882906Y-122699161D01*
X67845215Y-122790155D01*
X67826000Y-122886754D01*
X62470829Y-122886754D01*
X62456785Y-122816155D01*
X62419094Y-122725161D01*
X62364375Y-122643269D01*
X62294731Y-122573625D01*
X62212839Y-122518906D01*
X62195176Y-122511590D01*
X62287711Y-122493183D01*
X62378705Y-122455492D01*
X62460597Y-122400773D01*
X62530241Y-122331129D01*
X62584960Y-122249237D01*
X62622651Y-122158243D01*
X62641866Y-122061644D01*
X62641866Y-121997754D01*
X64016000Y-121997754D01*
X64016000Y-122096246D01*
X64035215Y-122192845D01*
X64072906Y-122283839D01*
X64127625Y-122365731D01*
X64197269Y-122435375D01*
X64279161Y-122490094D01*
X64370155Y-122527785D01*
X64466754Y-122547000D01*
X64565246Y-122547000D01*
X64661845Y-122527785D01*
X64752839Y-122490094D01*
X64834731Y-122435375D01*
X64904375Y-122365731D01*
X64959094Y-122283839D01*
X64996785Y-122192845D01*
X65016000Y-122096246D01*
X65016000Y-121997754D01*
X66429000Y-121997754D01*
X66429000Y-122096246D01*
X66448215Y-122192845D01*
X66485906Y-122283839D01*
X66540625Y-122365731D01*
X66610269Y-122435375D01*
X66692161Y-122490094D01*
X66783155Y-122527785D01*
X66879754Y-122547000D01*
X66978246Y-122547000D01*
X67074845Y-122527785D01*
X67165839Y-122490094D01*
X67247731Y-122435375D01*
X67317375Y-122365731D01*
X67372094Y-122283839D01*
X67409785Y-122192845D01*
X67429000Y-122096246D01*
X67429000Y-121997754D01*
X67412888Y-121916754D01*
X83020000Y-121916754D01*
X83020000Y-122015246D01*
X83039215Y-122111845D01*
X83076906Y-122202839D01*
X83131625Y-122284731D01*
X83201269Y-122354375D01*
X83283161Y-122409094D01*
X83374155Y-122446785D01*
X83470754Y-122466000D01*
X83569246Y-122466000D01*
X83665845Y-122446785D01*
X83756839Y-122409094D01*
X83838731Y-122354375D01*
X83908375Y-122284731D01*
X83963094Y-122202839D01*
X84000785Y-122111845D01*
X84020000Y-122015246D01*
X84020000Y-121916754D01*
X84000785Y-121820155D01*
X83963094Y-121729161D01*
X83908375Y-121647269D01*
X83838731Y-121577625D01*
X83756839Y-121522906D01*
X83665845Y-121485215D01*
X83569246Y-121466000D01*
X83470754Y-121466000D01*
X83374155Y-121485215D01*
X83283161Y-121522906D01*
X83201269Y-121577625D01*
X83131625Y-121647269D01*
X83076906Y-121729161D01*
X83039215Y-121820155D01*
X83020000Y-121916754D01*
X67412888Y-121916754D01*
X67409785Y-121901155D01*
X67372094Y-121810161D01*
X67317375Y-121728269D01*
X67247731Y-121658625D01*
X67165839Y-121603906D01*
X67074845Y-121566215D01*
X66978246Y-121547000D01*
X66879754Y-121547000D01*
X66783155Y-121566215D01*
X66692161Y-121603906D01*
X66610269Y-121658625D01*
X66540625Y-121728269D01*
X66485906Y-121810161D01*
X66448215Y-121901155D01*
X66429000Y-121997754D01*
X65016000Y-121997754D01*
X64996785Y-121901155D01*
X64959094Y-121810161D01*
X64904375Y-121728269D01*
X64834731Y-121658625D01*
X64752839Y-121603906D01*
X64661845Y-121566215D01*
X64565246Y-121547000D01*
X64466754Y-121547000D01*
X64370155Y-121566215D01*
X64279161Y-121603906D01*
X64197269Y-121658625D01*
X64127625Y-121728269D01*
X64072906Y-121810161D01*
X64035215Y-121901155D01*
X64016000Y-121997754D01*
X62641866Y-121997754D01*
X62641866Y-121963152D01*
X62622651Y-121866553D01*
X62584960Y-121775559D01*
X62530241Y-121693667D01*
X62460597Y-121624023D01*
X62378705Y-121569304D01*
X62287711Y-121531613D01*
X62191112Y-121512398D01*
X62092620Y-121512398D01*
X61996021Y-121531613D01*
X61905027Y-121569304D01*
X61823135Y-121624023D01*
X61753491Y-121693667D01*
X61698772Y-121775559D01*
X61686139Y-121806057D01*
X61668785Y-121764161D01*
X61634651Y-121713077D01*
X61658204Y-121689524D01*
X61712923Y-121607632D01*
X61750614Y-121516638D01*
X61769829Y-121420039D01*
X61769829Y-121321547D01*
X61750614Y-121224948D01*
X61712923Y-121133954D01*
X61658204Y-121052062D01*
X61588560Y-120982418D01*
X61506668Y-120927699D01*
X61415674Y-120890008D01*
X61319075Y-120870793D01*
X61220583Y-120870793D01*
X61123984Y-120890008D01*
X61032990Y-120927699D01*
X60951098Y-120982418D01*
X60932698Y-121000818D01*
X60901974Y-120926643D01*
X60847255Y-120844751D01*
X60778805Y-120776301D01*
X60840375Y-120714731D01*
X60895094Y-120632839D01*
X60932785Y-120541845D01*
X60952000Y-120445246D01*
X60952000Y-120346754D01*
X60932785Y-120250155D01*
X60895094Y-120159161D01*
X60840375Y-120077269D01*
X60770731Y-120007625D01*
X60688839Y-119952906D01*
X60597845Y-119915215D01*
X60501246Y-119896000D01*
X60402754Y-119896000D01*
X60306155Y-119915215D01*
X60215161Y-119952906D01*
X60133269Y-120007625D01*
X60063625Y-120077269D01*
X60008906Y-120159161D01*
X59971215Y-120250155D01*
X59952000Y-120346754D01*
X42611000Y-120346754D01*
X42611000Y-119584754D01*
X62492000Y-119584754D01*
X62492000Y-119683246D01*
X62511215Y-119779845D01*
X62548906Y-119870839D01*
X62603625Y-119952731D01*
X62673269Y-120022375D01*
X62755161Y-120077094D01*
X62846155Y-120114785D01*
X62942754Y-120134000D01*
X63041246Y-120134000D01*
X63137845Y-120114785D01*
X63228839Y-120077094D01*
X63310731Y-120022375D01*
X63380375Y-119952731D01*
X63387042Y-119942752D01*
X71382000Y-119942752D01*
X71382000Y-120041244D01*
X71401215Y-120137843D01*
X71438906Y-120228837D01*
X71493625Y-120310729D01*
X71563269Y-120380373D01*
X71645161Y-120435092D01*
X71736155Y-120472783D01*
X71832754Y-120491998D01*
X71931246Y-120491998D01*
X72027845Y-120472783D01*
X72118839Y-120435092D01*
X72200731Y-120380373D01*
X72270375Y-120310729D01*
X72325094Y-120228837D01*
X72362785Y-120137843D01*
X72382000Y-120041244D01*
X72382000Y-119942752D01*
X72362785Y-119846153D01*
X72325094Y-119755159D01*
X72270375Y-119673267D01*
X72200731Y-119603623D01*
X72118839Y-119548904D01*
X72027845Y-119511213D01*
X71931246Y-119491998D01*
X71832754Y-119491998D01*
X71736155Y-119511213D01*
X71645161Y-119548904D01*
X71563269Y-119603623D01*
X71493625Y-119673267D01*
X71438906Y-119755159D01*
X71401215Y-119846153D01*
X71382000Y-119942752D01*
X63387042Y-119942752D01*
X63435094Y-119870839D01*
X63472785Y-119779845D01*
X63492000Y-119683246D01*
X63492000Y-119584754D01*
X63472785Y-119488155D01*
X63435094Y-119397161D01*
X63380375Y-119315269D01*
X63310731Y-119245625D01*
X63228839Y-119190906D01*
X63137845Y-119153215D01*
X63041246Y-119134000D01*
X62942754Y-119134000D01*
X62846155Y-119153215D01*
X62755161Y-119190906D01*
X62673269Y-119245625D01*
X62603625Y-119315269D01*
X62548906Y-119397161D01*
X62511215Y-119488155D01*
X62492000Y-119584754D01*
X42611000Y-119584754D01*
X42611000Y-118800412D01*
X67840280Y-118800412D01*
X67840280Y-118898904D01*
X67859495Y-118995503D01*
X67897186Y-119086497D01*
X67951905Y-119168389D01*
X68021549Y-119238033D01*
X68103441Y-119292752D01*
X68194435Y-119330443D01*
X68291034Y-119349658D01*
X68389526Y-119349658D01*
X68486125Y-119330443D01*
X68577119Y-119292752D01*
X68659011Y-119238033D01*
X68728655Y-119168389D01*
X68783374Y-119086497D01*
X68821065Y-118995503D01*
X68840280Y-118898904D01*
X68840280Y-118800412D01*
X68821065Y-118703813D01*
X68783374Y-118612819D01*
X68728655Y-118530927D01*
X68659011Y-118461283D01*
X68577119Y-118406564D01*
X68486125Y-118368873D01*
X68389526Y-118349658D01*
X68291034Y-118349658D01*
X68194435Y-118368873D01*
X68103441Y-118406564D01*
X68021549Y-118461283D01*
X67951905Y-118530927D01*
X67897186Y-118612819D01*
X67859495Y-118703813D01*
X67840280Y-118800412D01*
X42611000Y-118800412D01*
X42611000Y-111964754D01*
X44712000Y-111964754D01*
X44712000Y-112063246D01*
X44731215Y-112159845D01*
X44768906Y-112250839D01*
X44823625Y-112332731D01*
X44893269Y-112402375D01*
X44975161Y-112457094D01*
X45066155Y-112494785D01*
X45162754Y-112514000D01*
X45261246Y-112514000D01*
X45357845Y-112494785D01*
X45411032Y-112472754D01*
X46744000Y-112472754D01*
X46744000Y-112571246D01*
X46763215Y-112667845D01*
X46800906Y-112758839D01*
X46855625Y-112840731D01*
X46925269Y-112910375D01*
X47007161Y-112965094D01*
X47098155Y-113002785D01*
X47194754Y-113022000D01*
X47293246Y-113022000D01*
X47389845Y-113002785D01*
X47480839Y-112965094D01*
X47562731Y-112910375D01*
X47632375Y-112840731D01*
X47687094Y-112758839D01*
X47724785Y-112667845D01*
X47744000Y-112571246D01*
X47744000Y-112472754D01*
X47724785Y-112376155D01*
X47687094Y-112285161D01*
X47632375Y-112203269D01*
X47562731Y-112133625D01*
X47480839Y-112078906D01*
X47389845Y-112041215D01*
X47293246Y-112022000D01*
X47194754Y-112022000D01*
X47098155Y-112041215D01*
X47007161Y-112078906D01*
X46925269Y-112133625D01*
X46855625Y-112203269D01*
X46800906Y-112285161D01*
X46763215Y-112376155D01*
X46744000Y-112472754D01*
X45411032Y-112472754D01*
X45448839Y-112457094D01*
X45530731Y-112402375D01*
X45600375Y-112332731D01*
X45655094Y-112250839D01*
X45692785Y-112159845D01*
X45712000Y-112063246D01*
X45712000Y-111964754D01*
X45692785Y-111868155D01*
X45655094Y-111777161D01*
X45600375Y-111695269D01*
X45530731Y-111625625D01*
X45448839Y-111570906D01*
X45357845Y-111533215D01*
X45261246Y-111514000D01*
X45162754Y-111514000D01*
X45066155Y-111533215D01*
X44975161Y-111570906D01*
X44893269Y-111625625D01*
X44823625Y-111695269D01*
X44768906Y-111777161D01*
X44731215Y-111868155D01*
X44712000Y-111964754D01*
X42611000Y-111964754D01*
X42611000Y-111420754D01*
X51788000Y-111420754D01*
X51788000Y-111519246D01*
X51807215Y-111615845D01*
X51844906Y-111706839D01*
X51899625Y-111788731D01*
X51969269Y-111858375D01*
X52051161Y-111913094D01*
X52142155Y-111950785D01*
X52238754Y-111970000D01*
X52337246Y-111970000D01*
X52433845Y-111950785D01*
X52524839Y-111913094D01*
X52606731Y-111858375D01*
X52676375Y-111788731D01*
X52731094Y-111706839D01*
X52768785Y-111615845D01*
X52788000Y-111519246D01*
X52788000Y-111456754D01*
X61222000Y-111456754D01*
X61222000Y-111555246D01*
X61241215Y-111651845D01*
X61278906Y-111742839D01*
X61333625Y-111824731D01*
X61403269Y-111894375D01*
X61485161Y-111949094D01*
X61576155Y-111986785D01*
X61672754Y-112006000D01*
X61771246Y-112006000D01*
X61867845Y-111986785D01*
X61958839Y-111949094D01*
X62040731Y-111894375D01*
X62110375Y-111824731D01*
X62165094Y-111742839D01*
X62202785Y-111651845D01*
X62222000Y-111555246D01*
X62222000Y-111456754D01*
X62202785Y-111360155D01*
X62165094Y-111269161D01*
X62110375Y-111187269D01*
X62040731Y-111117625D01*
X61958839Y-111062906D01*
X61867845Y-111025215D01*
X61771246Y-111006000D01*
X61672754Y-111006000D01*
X61576155Y-111025215D01*
X61485161Y-111062906D01*
X61403269Y-111117625D01*
X61333625Y-111187269D01*
X61278906Y-111269161D01*
X61241215Y-111360155D01*
X61222000Y-111456754D01*
X52788000Y-111456754D01*
X52788000Y-111420754D01*
X52768785Y-111324155D01*
X52731094Y-111233161D01*
X52676375Y-111151269D01*
X52606731Y-111081625D01*
X52524839Y-111026906D01*
X52433845Y-110989215D01*
X52337246Y-110970000D01*
X52238754Y-110970000D01*
X52142155Y-110989215D01*
X52051161Y-111026906D01*
X51969269Y-111081625D01*
X51899625Y-111151269D01*
X51844906Y-111233161D01*
X51807215Y-111324155D01*
X51788000Y-111420754D01*
X42611000Y-111420754D01*
X42611000Y-110186754D01*
X46236000Y-110186754D01*
X46236000Y-110285246D01*
X46255215Y-110381845D01*
X46292906Y-110472839D01*
X46347625Y-110554731D01*
X46417269Y-110624375D01*
X46499161Y-110679094D01*
X46590155Y-110716785D01*
X46686754Y-110736000D01*
X46785246Y-110736000D01*
X46881845Y-110716785D01*
X46972839Y-110679094D01*
X47054731Y-110624375D01*
X47124375Y-110554731D01*
X47179094Y-110472839D01*
X47216785Y-110381845D01*
X47236000Y-110285246D01*
X47236000Y-110186754D01*
X54364000Y-110186754D01*
X54364000Y-110285246D01*
X54383215Y-110381845D01*
X54420906Y-110472839D01*
X54475625Y-110554731D01*
X54545269Y-110624375D01*
X54627161Y-110679094D01*
X54718155Y-110716785D01*
X54814754Y-110736000D01*
X54913246Y-110736000D01*
X55009845Y-110716785D01*
X55100839Y-110679094D01*
X55182731Y-110624375D01*
X55252375Y-110554731D01*
X55307094Y-110472839D01*
X55344785Y-110381845D01*
X55364000Y-110285246D01*
X55364000Y-110186754D01*
X62492000Y-110186754D01*
X62492000Y-110285246D01*
X62511215Y-110381845D01*
X62548906Y-110472839D01*
X62603625Y-110554731D01*
X62673269Y-110624375D01*
X62755161Y-110679094D01*
X62846155Y-110716785D01*
X62942754Y-110736000D01*
X63041246Y-110736000D01*
X63137845Y-110716785D01*
X63228839Y-110679094D01*
X63310731Y-110624375D01*
X63380375Y-110554731D01*
X63435094Y-110472839D01*
X63472785Y-110381845D01*
X63492000Y-110285246D01*
X63492000Y-110186754D01*
X70620000Y-110186754D01*
X70620000Y-110285246D01*
X70639215Y-110381845D01*
X70676906Y-110472839D01*
X70731625Y-110554731D01*
X70801269Y-110624375D01*
X70883161Y-110679094D01*
X70974155Y-110716785D01*
X71070754Y-110736000D01*
X71169246Y-110736000D01*
X71265845Y-110716785D01*
X71356839Y-110679094D01*
X71438731Y-110624375D01*
X71508375Y-110554731D01*
X71563094Y-110472839D01*
X71600785Y-110381845D01*
X71620000Y-110285246D01*
X71620000Y-110186754D01*
X78748000Y-110186754D01*
X78748000Y-110285246D01*
X78767215Y-110381845D01*
X78804906Y-110472839D01*
X78859625Y-110554731D01*
X78929269Y-110624375D01*
X79011161Y-110679094D01*
X79102155Y-110716785D01*
X79198754Y-110736000D01*
X79297246Y-110736000D01*
X79393845Y-110716785D01*
X79484839Y-110679094D01*
X79566731Y-110624375D01*
X79636375Y-110554731D01*
X79691094Y-110472839D01*
X79728785Y-110381845D01*
X79748000Y-110285246D01*
X79748000Y-110186754D01*
X79728785Y-110090155D01*
X79691094Y-109999161D01*
X79636375Y-109917269D01*
X79566731Y-109847625D01*
X79484839Y-109792906D01*
X79393845Y-109755215D01*
X79297246Y-109736000D01*
X79198754Y-109736000D01*
X79102155Y-109755215D01*
X79011161Y-109792906D01*
X78929269Y-109847625D01*
X78859625Y-109917269D01*
X78804906Y-109999161D01*
X78767215Y-110090155D01*
X78748000Y-110186754D01*
X71620000Y-110186754D01*
X71600785Y-110090155D01*
X71563094Y-109999161D01*
X71508375Y-109917269D01*
X71438731Y-109847625D01*
X71356839Y-109792906D01*
X71265845Y-109755215D01*
X71169246Y-109736000D01*
X71070754Y-109736000D01*
X70974155Y-109755215D01*
X70883161Y-109792906D01*
X70801269Y-109847625D01*
X70731625Y-109917269D01*
X70676906Y-109999161D01*
X70639215Y-110090155D01*
X70620000Y-110186754D01*
X63492000Y-110186754D01*
X63472785Y-110090155D01*
X63435094Y-109999161D01*
X63380375Y-109917269D01*
X63310731Y-109847625D01*
X63228839Y-109792906D01*
X63137845Y-109755215D01*
X63041246Y-109736000D01*
X62942754Y-109736000D01*
X62846155Y-109755215D01*
X62755161Y-109792906D01*
X62673269Y-109847625D01*
X62603625Y-109917269D01*
X62548906Y-109999161D01*
X62511215Y-110090155D01*
X62492000Y-110186754D01*
X55364000Y-110186754D01*
X55344785Y-110090155D01*
X55307094Y-109999161D01*
X55252375Y-109917269D01*
X55182731Y-109847625D01*
X55100839Y-109792906D01*
X55009845Y-109755215D01*
X54913246Y-109736000D01*
X54814754Y-109736000D01*
X54718155Y-109755215D01*
X54627161Y-109792906D01*
X54545269Y-109847625D01*
X54475625Y-109917269D01*
X54420906Y-109999161D01*
X54383215Y-110090155D01*
X54364000Y-110186754D01*
X47236000Y-110186754D01*
X47216785Y-110090155D01*
X47179094Y-109999161D01*
X47124375Y-109917269D01*
X47054731Y-109847625D01*
X46972839Y-109792906D01*
X46881845Y-109755215D01*
X46785246Y-109736000D01*
X46686754Y-109736000D01*
X46590155Y-109755215D01*
X46499161Y-109792906D01*
X46417269Y-109847625D01*
X46347625Y-109917269D01*
X46292906Y-109999161D01*
X46255215Y-110090155D01*
X46236000Y-110186754D01*
X42611000Y-110186754D01*
X42611000Y-107393754D01*
X46489000Y-107393754D01*
X46489000Y-107492246D01*
X46508215Y-107588845D01*
X46545906Y-107679839D01*
X46600625Y-107761731D01*
X46670269Y-107831375D01*
X46752161Y-107886094D01*
X46843155Y-107923785D01*
X46939754Y-107943000D01*
X47038246Y-107943000D01*
X47134845Y-107923785D01*
X47225839Y-107886094D01*
X47307731Y-107831375D01*
X47377375Y-107761731D01*
X47432094Y-107679839D01*
X47469785Y-107588845D01*
X47489000Y-107492246D01*
X47489000Y-107393754D01*
X47469785Y-107297155D01*
X47457193Y-107266754D01*
X54492000Y-107266754D01*
X54492000Y-107365246D01*
X54511215Y-107461845D01*
X54548906Y-107552839D01*
X54603625Y-107634731D01*
X54673269Y-107704375D01*
X54755161Y-107759094D01*
X54846155Y-107796785D01*
X54942754Y-107816000D01*
X55041246Y-107816000D01*
X55137845Y-107796785D01*
X55228839Y-107759094D01*
X55310731Y-107704375D01*
X55368352Y-107646754D01*
X62746000Y-107646754D01*
X62746000Y-107745246D01*
X62765215Y-107841845D01*
X62802906Y-107932839D01*
X62857625Y-108014731D01*
X62927269Y-108084375D01*
X63009161Y-108139094D01*
X63100155Y-108176785D01*
X63196754Y-108196000D01*
X63295246Y-108196000D01*
X63391845Y-108176785D01*
X63482839Y-108139094D01*
X63564731Y-108084375D01*
X63634375Y-108014731D01*
X63689094Y-107932839D01*
X63726785Y-107841845D01*
X63746000Y-107745246D01*
X63746000Y-107646754D01*
X63726785Y-107550155D01*
X63689094Y-107459161D01*
X63660091Y-107415754D01*
X70851000Y-107415754D01*
X70851000Y-107514246D01*
X70870215Y-107610845D01*
X70907906Y-107701839D01*
X70962625Y-107783731D01*
X71032269Y-107853375D01*
X71114161Y-107908094D01*
X71205155Y-107945785D01*
X71301754Y-107965000D01*
X71400246Y-107965000D01*
X71496845Y-107945785D01*
X71587839Y-107908094D01*
X71669731Y-107853375D01*
X71739375Y-107783731D01*
X71794094Y-107701839D01*
X71831785Y-107610845D01*
X71851000Y-107514246D01*
X71851000Y-107415754D01*
X71846425Y-107392754D01*
X78748000Y-107392754D01*
X78748000Y-107491246D01*
X78767215Y-107587845D01*
X78804906Y-107678839D01*
X78859625Y-107760731D01*
X78929269Y-107830375D01*
X79011161Y-107885094D01*
X79102155Y-107922785D01*
X79198754Y-107942000D01*
X79297246Y-107942000D01*
X79393845Y-107922785D01*
X79484839Y-107885094D01*
X79566731Y-107830375D01*
X79636375Y-107760731D01*
X79691094Y-107678839D01*
X79728785Y-107587845D01*
X79748000Y-107491246D01*
X79748000Y-107392754D01*
X79728785Y-107296155D01*
X79691094Y-107205161D01*
X79636375Y-107123269D01*
X79566731Y-107053625D01*
X79484839Y-106998906D01*
X79393845Y-106961215D01*
X79297246Y-106942000D01*
X79198754Y-106942000D01*
X79102155Y-106961215D01*
X79011161Y-106998906D01*
X78929269Y-107053625D01*
X78859625Y-107123269D01*
X78804906Y-107205161D01*
X78767215Y-107296155D01*
X78748000Y-107392754D01*
X71846425Y-107392754D01*
X71831785Y-107319155D01*
X71794094Y-107228161D01*
X71739375Y-107146269D01*
X71669731Y-107076625D01*
X71587839Y-107021906D01*
X71496845Y-106984215D01*
X71400246Y-106965000D01*
X71301754Y-106965000D01*
X71205155Y-106984215D01*
X71114161Y-107021906D01*
X71032269Y-107076625D01*
X70962625Y-107146269D01*
X70907906Y-107228161D01*
X70870215Y-107319155D01*
X70851000Y-107415754D01*
X63660091Y-107415754D01*
X63634375Y-107377269D01*
X63564731Y-107307625D01*
X63482839Y-107252906D01*
X63391845Y-107215215D01*
X63295246Y-107196000D01*
X63196754Y-107196000D01*
X63100155Y-107215215D01*
X63009161Y-107252906D01*
X62927269Y-107307625D01*
X62857625Y-107377269D01*
X62802906Y-107459161D01*
X62765215Y-107550155D01*
X62746000Y-107646754D01*
X55368352Y-107646754D01*
X55380375Y-107634731D01*
X55435094Y-107552839D01*
X55472785Y-107461845D01*
X55492000Y-107365246D01*
X55492000Y-107266754D01*
X55472785Y-107170155D01*
X55435094Y-107079161D01*
X55380375Y-106997269D01*
X55310731Y-106927625D01*
X55228839Y-106872906D01*
X55137845Y-106835215D01*
X55041246Y-106816000D01*
X54942754Y-106816000D01*
X54846155Y-106835215D01*
X54755161Y-106872906D01*
X54673269Y-106927625D01*
X54603625Y-106997269D01*
X54548906Y-107079161D01*
X54511215Y-107170155D01*
X54492000Y-107266754D01*
X47457193Y-107266754D01*
X47432094Y-107206161D01*
X47377375Y-107124269D01*
X47307731Y-107054625D01*
X47225839Y-106999906D01*
X47134845Y-106962215D01*
X47038246Y-106943000D01*
X46939754Y-106943000D01*
X46843155Y-106962215D01*
X46752161Y-106999906D01*
X46670269Y-107054625D01*
X46600625Y-107124269D01*
X46545906Y-107206161D01*
X46508215Y-107297155D01*
X46489000Y-107393754D01*
X42611000Y-107393754D01*
X42611000Y-106122754D01*
X46744000Y-106122754D01*
X46744000Y-106221246D01*
X46763215Y-106317845D01*
X46800906Y-106408839D01*
X46855625Y-106490731D01*
X46925269Y-106560375D01*
X47007161Y-106615094D01*
X47098155Y-106652785D01*
X47194754Y-106672000D01*
X47293246Y-106672000D01*
X47389845Y-106652785D01*
X47480839Y-106615094D01*
X47562731Y-106560375D01*
X47632375Y-106490731D01*
X47687094Y-106408839D01*
X47700384Y-106376754D01*
X52332000Y-106376754D01*
X52332000Y-106475246D01*
X52351215Y-106571845D01*
X52388906Y-106662839D01*
X52443625Y-106744731D01*
X52513269Y-106814375D01*
X52595161Y-106869094D01*
X52686155Y-106906785D01*
X52782754Y-106926000D01*
X52881246Y-106926000D01*
X52977845Y-106906785D01*
X53068839Y-106869094D01*
X53150731Y-106814375D01*
X53220375Y-106744731D01*
X53275094Y-106662839D01*
X53312785Y-106571845D01*
X53332000Y-106475246D01*
X53332000Y-106376754D01*
X53312785Y-106280155D01*
X53275094Y-106189161D01*
X53220375Y-106107269D01*
X53150731Y-106037625D01*
X53068839Y-105982906D01*
X52977845Y-105945215D01*
X52881246Y-105926000D01*
X52782754Y-105926000D01*
X52686155Y-105945215D01*
X52595161Y-105982906D01*
X52513269Y-106037625D01*
X52443625Y-106107269D01*
X52388906Y-106189161D01*
X52351215Y-106280155D01*
X52332000Y-106376754D01*
X47700384Y-106376754D01*
X47724785Y-106317845D01*
X47744000Y-106221246D01*
X47744000Y-106122754D01*
X47724785Y-106026155D01*
X47687094Y-105935161D01*
X47632375Y-105853269D01*
X47562731Y-105783625D01*
X47480839Y-105728906D01*
X47389845Y-105691215D01*
X47293246Y-105672000D01*
X47194754Y-105672000D01*
X47098155Y-105691215D01*
X47007161Y-105728906D01*
X46925269Y-105783625D01*
X46855625Y-105853269D01*
X46800906Y-105935161D01*
X46763215Y-106026155D01*
X46744000Y-106122754D01*
X42611000Y-106122754D01*
X42611000Y-104344754D01*
X47252000Y-104344754D01*
X47252000Y-104443246D01*
X47271215Y-104539845D01*
X47308906Y-104630839D01*
X47363625Y-104712731D01*
X47433269Y-104782375D01*
X47515161Y-104837094D01*
X47606155Y-104874785D01*
X47702754Y-104894000D01*
X47801246Y-104894000D01*
X47897845Y-104874785D01*
X47988839Y-104837094D01*
X48070731Y-104782375D01*
X48140375Y-104712731D01*
X48195094Y-104630839D01*
X48232785Y-104539845D01*
X48252000Y-104443246D01*
X48252000Y-104344754D01*
X48232785Y-104248155D01*
X48195094Y-104157161D01*
X48150722Y-104090754D01*
X50808000Y-104090754D01*
X50808000Y-104189246D01*
X50827215Y-104285845D01*
X50864906Y-104376839D01*
X50919625Y-104458731D01*
X50989269Y-104528375D01*
X51071161Y-104583094D01*
X51162155Y-104620785D01*
X51258754Y-104640000D01*
X51316000Y-104640000D01*
X51316000Y-104697246D01*
X51335215Y-104793845D01*
X51372906Y-104884839D01*
X51427625Y-104966731D01*
X51497269Y-105036375D01*
X51579161Y-105091094D01*
X51670155Y-105128785D01*
X51766754Y-105148000D01*
X51824000Y-105148000D01*
X51824000Y-105205246D01*
X51843215Y-105301845D01*
X51880906Y-105392839D01*
X51935625Y-105474731D01*
X52005269Y-105544375D01*
X52087161Y-105599094D01*
X52178155Y-105636785D01*
X52274754Y-105656000D01*
X52373246Y-105656000D01*
X52469845Y-105636785D01*
X52523032Y-105614754D01*
X55634000Y-105614754D01*
X55634000Y-105713246D01*
X55653215Y-105809845D01*
X55690906Y-105900839D01*
X55745625Y-105982731D01*
X55815269Y-106052375D01*
X55897161Y-106107094D01*
X55988155Y-106144785D01*
X56084754Y-106164000D01*
X56183246Y-106164000D01*
X56279845Y-106144785D01*
X56370839Y-106107094D01*
X56452731Y-106052375D01*
X56522375Y-105982731D01*
X56577094Y-105900839D01*
X56614785Y-105809845D01*
X56634000Y-105713246D01*
X56634000Y-105614754D01*
X56633119Y-105610324D01*
X57135065Y-105610324D01*
X57135065Y-105708816D01*
X57154280Y-105805415D01*
X57191971Y-105896409D01*
X57246690Y-105978301D01*
X57316334Y-106047945D01*
X57398226Y-106102664D01*
X57489220Y-106140355D01*
X57585819Y-106159570D01*
X57684311Y-106159570D01*
X57780910Y-106140355D01*
X57871904Y-106102664D01*
X57892224Y-106089086D01*
X57925161Y-106111094D01*
X58016155Y-106148785D01*
X58112754Y-106168000D01*
X58211246Y-106168000D01*
X58307845Y-106148785D01*
X58398839Y-106111094D01*
X58480731Y-106056375D01*
X58550375Y-105986731D01*
X58605094Y-105904839D01*
X58642785Y-105813845D01*
X58662000Y-105717246D01*
X58662000Y-105693246D01*
X58681215Y-105789845D01*
X58718906Y-105880839D01*
X58773625Y-105962731D01*
X58843269Y-106032375D01*
X58925161Y-106087094D01*
X59016155Y-106124785D01*
X59112754Y-106144000D01*
X59211246Y-106144000D01*
X59307845Y-106124785D01*
X59398839Y-106087094D01*
X59480731Y-106032375D01*
X59550375Y-105962731D01*
X59605094Y-105880839D01*
X59642785Y-105789845D01*
X59662000Y-105693246D01*
X59662000Y-105677246D01*
X59681215Y-105773845D01*
X59718906Y-105864839D01*
X59773625Y-105946731D01*
X59843269Y-106016375D01*
X59925161Y-106071094D01*
X60016155Y-106108785D01*
X60112754Y-106128000D01*
X60211246Y-106128000D01*
X60307845Y-106108785D01*
X60398839Y-106071094D01*
X60480731Y-106016375D01*
X60550375Y-105946731D01*
X60605094Y-105864839D01*
X60642785Y-105773845D01*
X60655334Y-105710755D01*
X65863011Y-105710755D01*
X65863011Y-105809247D01*
X65882226Y-105905846D01*
X65919917Y-105996840D01*
X65974636Y-106078732D01*
X66044280Y-106148376D01*
X66126172Y-106203095D01*
X66217166Y-106240786D01*
X66313765Y-106260001D01*
X66412257Y-106260001D01*
X66508856Y-106240786D01*
X66599850Y-106203095D01*
X66681742Y-106148376D01*
X66751386Y-106078732D01*
X66806105Y-105996840D01*
X66843796Y-105905846D01*
X66863011Y-105809247D01*
X66863011Y-105710755D01*
X66846302Y-105626754D01*
X72918000Y-105626754D01*
X72918000Y-105725246D01*
X72937215Y-105821845D01*
X72974906Y-105912839D01*
X73029625Y-105994731D01*
X73099269Y-106064375D01*
X73181161Y-106119094D01*
X73272155Y-106156785D01*
X73368754Y-106176000D01*
X73467246Y-106176000D01*
X73563845Y-106156785D01*
X73654839Y-106119094D01*
X73736731Y-106064375D01*
X73806375Y-105994731D01*
X73861094Y-105912839D01*
X73898785Y-105821845D01*
X73918000Y-105725246D01*
X73918000Y-105626754D01*
X73899501Y-105533754D01*
X75573000Y-105533754D01*
X75573000Y-105632246D01*
X75592215Y-105728845D01*
X75629906Y-105819839D01*
X75684625Y-105901731D01*
X75754269Y-105971375D01*
X75836161Y-106026094D01*
X75927155Y-106063785D01*
X76023754Y-106083000D01*
X76122246Y-106083000D01*
X76123492Y-106082752D01*
X78280002Y-106082752D01*
X78280002Y-106181244D01*
X78299217Y-106277843D01*
X78336908Y-106368837D01*
X78391627Y-106450729D01*
X78461271Y-106520373D01*
X78543163Y-106575092D01*
X78634157Y-106612783D01*
X78730756Y-106631998D01*
X78829248Y-106631998D01*
X78835501Y-106630754D01*
X81046000Y-106630754D01*
X81046000Y-106729246D01*
X81065215Y-106825845D01*
X81102906Y-106916839D01*
X81157625Y-106998731D01*
X81227269Y-107068375D01*
X81309161Y-107123094D01*
X81400155Y-107160785D01*
X81496754Y-107180000D01*
X81595246Y-107180000D01*
X81691845Y-107160785D01*
X81782839Y-107123094D01*
X81864731Y-107068375D01*
X81934375Y-106998731D01*
X81989094Y-106916839D01*
X82026785Y-106825845D01*
X82046000Y-106729246D01*
X82046000Y-106630754D01*
X82026785Y-106534155D01*
X81989094Y-106443161D01*
X81934375Y-106361269D01*
X81864731Y-106291625D01*
X81782839Y-106236906D01*
X81691845Y-106199215D01*
X81595246Y-106180000D01*
X81496754Y-106180000D01*
X81400155Y-106199215D01*
X81309161Y-106236906D01*
X81227269Y-106291625D01*
X81157625Y-106361269D01*
X81102906Y-106443161D01*
X81065215Y-106534155D01*
X81046000Y-106630754D01*
X78835501Y-106630754D01*
X78925847Y-106612783D01*
X79016841Y-106575092D01*
X79098733Y-106520373D01*
X79168377Y-106450729D01*
X79223096Y-106368837D01*
X79260787Y-106277843D01*
X79280002Y-106181244D01*
X79280002Y-106082752D01*
X79260787Y-105986153D01*
X79223096Y-105895159D01*
X79168377Y-105813267D01*
X79098733Y-105743623D01*
X79016841Y-105688904D01*
X78925847Y-105651213D01*
X78829248Y-105631998D01*
X78730756Y-105631998D01*
X78634157Y-105651213D01*
X78543163Y-105688904D01*
X78461271Y-105743623D01*
X78391627Y-105813267D01*
X78336908Y-105895159D01*
X78299217Y-105986153D01*
X78280002Y-106082752D01*
X76123492Y-106082752D01*
X76218845Y-106063785D01*
X76309839Y-106026094D01*
X76391731Y-105971375D01*
X76461375Y-105901731D01*
X76516094Y-105819839D01*
X76553785Y-105728845D01*
X76573000Y-105632246D01*
X76573000Y-105614754D01*
X80780000Y-105614754D01*
X80780000Y-105713246D01*
X80799215Y-105809845D01*
X80836906Y-105900839D01*
X80891625Y-105982731D01*
X80961269Y-106052375D01*
X81043161Y-106107094D01*
X81134155Y-106144785D01*
X81230754Y-106164000D01*
X81329246Y-106164000D01*
X81425845Y-106144785D01*
X81516839Y-106107094D01*
X81598731Y-106052375D01*
X81668375Y-105982731D01*
X81723094Y-105900839D01*
X81760785Y-105809845D01*
X81780000Y-105713246D01*
X81780000Y-105614754D01*
X81760785Y-105518155D01*
X81723094Y-105427161D01*
X81668375Y-105345269D01*
X81598731Y-105275625D01*
X81516839Y-105220906D01*
X81425845Y-105183215D01*
X81329246Y-105164000D01*
X81230754Y-105164000D01*
X81134155Y-105183215D01*
X81043161Y-105220906D01*
X80961269Y-105275625D01*
X80891625Y-105345269D01*
X80836906Y-105427161D01*
X80799215Y-105518155D01*
X80780000Y-105614754D01*
X76573000Y-105614754D01*
X76573000Y-105533754D01*
X76553785Y-105437155D01*
X76516094Y-105346161D01*
X76461375Y-105264269D01*
X76391731Y-105194625D01*
X76309839Y-105139906D01*
X76218845Y-105102215D01*
X76122246Y-105083000D01*
X76023754Y-105083000D01*
X75927155Y-105102215D01*
X75836161Y-105139906D01*
X75754269Y-105194625D01*
X75684625Y-105264269D01*
X75629906Y-105346161D01*
X75592215Y-105437155D01*
X75573000Y-105533754D01*
X73899501Y-105533754D01*
X73898785Y-105530155D01*
X73861094Y-105439161D01*
X73806375Y-105357269D01*
X73736731Y-105287625D01*
X73654839Y-105232906D01*
X73563845Y-105195215D01*
X73467246Y-105176000D01*
X73368754Y-105176000D01*
X73272155Y-105195215D01*
X73181161Y-105232906D01*
X73099269Y-105287625D01*
X73029625Y-105357269D01*
X72974906Y-105439161D01*
X72937215Y-105530155D01*
X72918000Y-105626754D01*
X66846302Y-105626754D01*
X66843796Y-105614156D01*
X66806105Y-105523162D01*
X66751386Y-105441270D01*
X66681742Y-105371626D01*
X66599850Y-105316907D01*
X66508856Y-105279216D01*
X66412257Y-105260001D01*
X66313765Y-105260001D01*
X66217166Y-105279216D01*
X66126172Y-105316907D01*
X66044280Y-105371626D01*
X65974636Y-105441270D01*
X65919917Y-105523162D01*
X65882226Y-105614156D01*
X65863011Y-105710755D01*
X60655334Y-105710755D01*
X60662000Y-105677246D01*
X60662000Y-105578754D01*
X60642785Y-105482155D01*
X60605094Y-105391161D01*
X60550375Y-105309269D01*
X60480731Y-105239625D01*
X60398839Y-105184906D01*
X60307845Y-105147215D01*
X60211246Y-105128000D01*
X60112754Y-105128000D01*
X60016155Y-105147215D01*
X59925161Y-105184906D01*
X59843269Y-105239625D01*
X59773625Y-105309269D01*
X59718906Y-105391161D01*
X59681215Y-105482155D01*
X59662000Y-105578754D01*
X59662000Y-105594754D01*
X59642785Y-105498155D01*
X59605094Y-105407161D01*
X59550375Y-105325269D01*
X59480731Y-105255625D01*
X59398839Y-105200906D01*
X59307845Y-105163215D01*
X59211246Y-105144000D01*
X59112754Y-105144000D01*
X59016155Y-105163215D01*
X58925161Y-105200906D01*
X58843269Y-105255625D01*
X58773625Y-105325269D01*
X58718906Y-105407161D01*
X58681215Y-105498155D01*
X58662000Y-105594754D01*
X58662000Y-105618754D01*
X58642785Y-105522155D01*
X58605094Y-105431161D01*
X58550375Y-105349269D01*
X58480731Y-105279625D01*
X58398839Y-105224906D01*
X58307845Y-105187215D01*
X58211246Y-105168000D01*
X58112754Y-105168000D01*
X58016155Y-105187215D01*
X57925161Y-105224906D01*
X57904841Y-105238484D01*
X57871904Y-105216476D01*
X57780910Y-105178785D01*
X57684311Y-105159570D01*
X57585819Y-105159570D01*
X57489220Y-105178785D01*
X57398226Y-105216476D01*
X57316334Y-105271195D01*
X57246690Y-105340839D01*
X57191971Y-105422731D01*
X57154280Y-105513725D01*
X57135065Y-105610324D01*
X56633119Y-105610324D01*
X56614785Y-105518155D01*
X56577094Y-105427161D01*
X56522375Y-105345269D01*
X56452731Y-105275625D01*
X56370839Y-105220906D01*
X56279845Y-105183215D01*
X56183246Y-105164000D01*
X56084754Y-105164000D01*
X55988155Y-105183215D01*
X55897161Y-105220906D01*
X55815269Y-105275625D01*
X55745625Y-105345269D01*
X55690906Y-105427161D01*
X55653215Y-105518155D01*
X55634000Y-105614754D01*
X52523032Y-105614754D01*
X52560839Y-105599094D01*
X52642731Y-105544375D01*
X52712375Y-105474731D01*
X52767094Y-105392839D01*
X52804785Y-105301845D01*
X52824000Y-105205246D01*
X52824000Y-105106754D01*
X52804785Y-105010155D01*
X52767094Y-104919161D01*
X52712375Y-104837269D01*
X52642731Y-104767625D01*
X52560839Y-104712906D01*
X52469845Y-104675215D01*
X52373246Y-104656000D01*
X52316000Y-104656000D01*
X52316000Y-104598754D01*
X52296785Y-104502155D01*
X52259094Y-104411161D01*
X52204375Y-104329269D01*
X52134731Y-104259625D01*
X52052839Y-104204906D01*
X51961845Y-104167215D01*
X51865246Y-104148000D01*
X51808000Y-104148000D01*
X51808000Y-104090754D01*
X51788785Y-103994155D01*
X51751094Y-103903161D01*
X51696375Y-103821269D01*
X51626731Y-103751625D01*
X51544839Y-103696906D01*
X51453845Y-103659215D01*
X51357246Y-103640000D01*
X51258754Y-103640000D01*
X51162155Y-103659215D01*
X51071161Y-103696906D01*
X50989269Y-103751625D01*
X50919625Y-103821269D01*
X50864906Y-103903161D01*
X50827215Y-103994155D01*
X50808000Y-104090754D01*
X48150722Y-104090754D01*
X48140375Y-104075269D01*
X48070731Y-104005625D01*
X47988839Y-103950906D01*
X47897845Y-103913215D01*
X47801246Y-103894000D01*
X47702754Y-103894000D01*
X47606155Y-103913215D01*
X47515161Y-103950906D01*
X47433269Y-104005625D01*
X47363625Y-104075269D01*
X47308906Y-104157161D01*
X47271215Y-104248155D01*
X47252000Y-104344754D01*
X42611000Y-104344754D01*
X42611000Y-103582754D01*
X65286000Y-103582754D01*
X65286000Y-103681246D01*
X65305215Y-103777845D01*
X65342906Y-103868839D01*
X65397625Y-103950731D01*
X65467269Y-104020375D01*
X65549161Y-104075094D01*
X65640155Y-104112785D01*
X65736754Y-104132000D01*
X65835246Y-104132000D01*
X65931845Y-104112785D01*
X66022839Y-104075094D01*
X66104731Y-104020375D01*
X66174375Y-103950731D01*
X66229094Y-103868839D01*
X66242384Y-103836754D01*
X80780000Y-103836754D01*
X80780000Y-103935246D01*
X80799215Y-104031845D01*
X80836906Y-104122839D01*
X80891625Y-104204731D01*
X80961269Y-104274375D01*
X81043161Y-104329094D01*
X81134155Y-104366785D01*
X81230754Y-104386000D01*
X81329246Y-104386000D01*
X81425845Y-104366785D01*
X81516839Y-104329094D01*
X81598731Y-104274375D01*
X81668375Y-104204731D01*
X81723094Y-104122839D01*
X81760785Y-104031845D01*
X81780000Y-103935246D01*
X81780000Y-103836754D01*
X81760785Y-103740155D01*
X81723094Y-103649161D01*
X81678722Y-103582754D01*
X82050000Y-103582754D01*
X82050000Y-103681246D01*
X82069215Y-103777845D01*
X82106906Y-103868839D01*
X82161625Y-103950731D01*
X82231269Y-104020375D01*
X82313161Y-104075094D01*
X82404155Y-104112785D01*
X82500754Y-104132000D01*
X82599246Y-104132000D01*
X82695845Y-104112785D01*
X82786839Y-104075094D01*
X82868731Y-104020375D01*
X82938375Y-103950731D01*
X82993094Y-103868839D01*
X83030785Y-103777845D01*
X83050000Y-103681246D01*
X83050000Y-103582754D01*
X83320000Y-103582754D01*
X83320000Y-103681246D01*
X83339215Y-103777845D01*
X83376906Y-103868839D01*
X83431625Y-103950731D01*
X83501269Y-104020375D01*
X83583161Y-104075094D01*
X83674155Y-104112785D01*
X83770754Y-104132000D01*
X83869246Y-104132000D01*
X83965845Y-104112785D01*
X84056839Y-104075094D01*
X84138731Y-104020375D01*
X84208375Y-103950731D01*
X84263094Y-103868839D01*
X84300785Y-103777845D01*
X84320000Y-103681246D01*
X84320000Y-103582754D01*
X84300785Y-103486155D01*
X84263094Y-103395161D01*
X84208375Y-103313269D01*
X84138731Y-103243625D01*
X84056839Y-103188906D01*
X83965845Y-103151215D01*
X83869246Y-103132000D01*
X83770754Y-103132000D01*
X83674155Y-103151215D01*
X83583161Y-103188906D01*
X83501269Y-103243625D01*
X83431625Y-103313269D01*
X83376906Y-103395161D01*
X83339215Y-103486155D01*
X83320000Y-103582754D01*
X83050000Y-103582754D01*
X83030785Y-103486155D01*
X82993094Y-103395161D01*
X82938375Y-103313269D01*
X82868731Y-103243625D01*
X82786839Y-103188906D01*
X82695845Y-103151215D01*
X82599246Y-103132000D01*
X82500754Y-103132000D01*
X82404155Y-103151215D01*
X82313161Y-103188906D01*
X82231269Y-103243625D01*
X82161625Y-103313269D01*
X82106906Y-103395161D01*
X82069215Y-103486155D01*
X82050000Y-103582754D01*
X81678722Y-103582754D01*
X81668375Y-103567269D01*
X81598731Y-103497625D01*
X81516839Y-103442906D01*
X81425845Y-103405215D01*
X81329246Y-103386000D01*
X81230754Y-103386000D01*
X81134155Y-103405215D01*
X81043161Y-103442906D01*
X80961269Y-103497625D01*
X80891625Y-103567269D01*
X80836906Y-103649161D01*
X80799215Y-103740155D01*
X80780000Y-103836754D01*
X66242384Y-103836754D01*
X66266785Y-103777845D01*
X66286000Y-103681246D01*
X66286000Y-103582754D01*
X66266785Y-103486155D01*
X66229094Y-103395161D01*
X66174375Y-103313269D01*
X66104731Y-103243625D01*
X66022839Y-103188906D01*
X65931845Y-103151215D01*
X65835246Y-103132000D01*
X65736754Y-103132000D01*
X65640155Y-103151215D01*
X65549161Y-103188906D01*
X65467269Y-103243625D01*
X65397625Y-103313269D01*
X65342906Y-103395161D01*
X65305215Y-103486155D01*
X65286000Y-103582754D01*
X42611000Y-103582754D01*
X42611000Y-101804754D01*
X48268000Y-101804754D01*
X48268000Y-101903246D01*
X48287215Y-101999845D01*
X48324906Y-102090839D01*
X48379625Y-102172731D01*
X48449269Y-102242375D01*
X48531161Y-102297094D01*
X48622155Y-102334785D01*
X48718754Y-102354000D01*
X48817246Y-102354000D01*
X48913845Y-102334785D01*
X48967032Y-102312754D01*
X75192000Y-102312754D01*
X75192000Y-102411246D01*
X75211215Y-102507845D01*
X75248906Y-102598839D01*
X75303625Y-102680731D01*
X75373269Y-102750375D01*
X75455161Y-102805094D01*
X75546155Y-102842785D01*
X75642754Y-102862000D01*
X75741246Y-102862000D01*
X75837845Y-102842785D01*
X75928839Y-102805094D01*
X76010731Y-102750375D01*
X76080375Y-102680731D01*
X76135094Y-102598839D01*
X76172785Y-102507845D01*
X76192000Y-102411246D01*
X76192000Y-102312754D01*
X82558000Y-102312754D01*
X82558000Y-102411246D01*
X82577215Y-102507845D01*
X82614906Y-102598839D01*
X82669625Y-102680731D01*
X82739269Y-102750375D01*
X82821161Y-102805094D01*
X82912155Y-102842785D01*
X83008754Y-102862000D01*
X83107246Y-102862000D01*
X83203845Y-102842785D01*
X83257032Y-102820754D01*
X84082000Y-102820754D01*
X84082000Y-102919246D01*
X84101215Y-103015845D01*
X84138906Y-103106839D01*
X84193625Y-103188731D01*
X84263269Y-103258375D01*
X84345161Y-103313094D01*
X84436155Y-103350785D01*
X84532754Y-103370000D01*
X84631246Y-103370000D01*
X84727845Y-103350785D01*
X84818839Y-103313094D01*
X84900731Y-103258375D01*
X84970375Y-103188731D01*
X85025094Y-103106839D01*
X85062785Y-103015845D01*
X85082000Y-102919246D01*
X85082000Y-102820754D01*
X85062785Y-102724155D01*
X85025094Y-102633161D01*
X84970375Y-102551269D01*
X84900731Y-102481625D01*
X84818839Y-102426906D01*
X84727845Y-102389215D01*
X84631246Y-102370000D01*
X84532754Y-102370000D01*
X84436155Y-102389215D01*
X84345161Y-102426906D01*
X84263269Y-102481625D01*
X84193625Y-102551269D01*
X84138906Y-102633161D01*
X84101215Y-102724155D01*
X84082000Y-102820754D01*
X83257032Y-102820754D01*
X83294839Y-102805094D01*
X83376731Y-102750375D01*
X83446375Y-102680731D01*
X83501094Y-102598839D01*
X83538785Y-102507845D01*
X83558000Y-102411246D01*
X83558000Y-102312754D01*
X83538785Y-102216155D01*
X83501094Y-102125161D01*
X83446375Y-102043269D01*
X83376731Y-101973625D01*
X83294839Y-101918906D01*
X83203845Y-101881215D01*
X83107246Y-101862000D01*
X83008754Y-101862000D01*
X82912155Y-101881215D01*
X82821161Y-101918906D01*
X82739269Y-101973625D01*
X82669625Y-102043269D01*
X82614906Y-102125161D01*
X82577215Y-102216155D01*
X82558000Y-102312754D01*
X76192000Y-102312754D01*
X76172785Y-102216155D01*
X76135094Y-102125161D01*
X76080375Y-102043269D01*
X76010731Y-101973625D01*
X75928839Y-101918906D01*
X75837845Y-101881215D01*
X75741246Y-101862000D01*
X75642754Y-101862000D01*
X75546155Y-101881215D01*
X75455161Y-101918906D01*
X75373269Y-101973625D01*
X75303625Y-102043269D01*
X75248906Y-102125161D01*
X75211215Y-102216155D01*
X75192000Y-102312754D01*
X48967032Y-102312754D01*
X49004839Y-102297094D01*
X49086731Y-102242375D01*
X49156375Y-102172731D01*
X49211094Y-102090839D01*
X49248785Y-101999845D01*
X49268000Y-101903246D01*
X49268000Y-101804754D01*
X49248785Y-101708155D01*
X49211094Y-101617161D01*
X49156375Y-101535269D01*
X49086731Y-101465625D01*
X49004839Y-101410906D01*
X48913845Y-101373215D01*
X48817246Y-101354000D01*
X48718754Y-101354000D01*
X48622155Y-101373215D01*
X48531161Y-101410906D01*
X48449269Y-101465625D01*
X48379625Y-101535269D01*
X48324906Y-101617161D01*
X48287215Y-101708155D01*
X48268000Y-101804754D01*
X42611000Y-101804754D01*
X42611000Y-101233254D01*
X49728500Y-101233254D01*
X49728500Y-101331746D01*
X49747715Y-101428345D01*
X49785406Y-101519339D01*
X49840125Y-101601231D01*
X49909769Y-101670875D01*
X49991661Y-101725594D01*
X50082655Y-101763285D01*
X50179254Y-101782500D01*
X50277746Y-101782500D01*
X50374345Y-101763285D01*
X50465339Y-101725594D01*
X50547231Y-101670875D01*
X50616875Y-101601231D01*
X50650602Y-101550754D01*
X64778000Y-101550754D01*
X64778000Y-101649246D01*
X64797215Y-101745845D01*
X64834906Y-101836839D01*
X64889625Y-101918731D01*
X64959269Y-101988375D01*
X65041161Y-102043094D01*
X65132155Y-102080785D01*
X65228754Y-102100000D01*
X65327246Y-102100000D01*
X65423845Y-102080785D01*
X65514839Y-102043094D01*
X65596731Y-101988375D01*
X65666375Y-101918731D01*
X65721094Y-101836839D01*
X65758785Y-101745845D01*
X65778000Y-101649246D01*
X65778000Y-101550754D01*
X76462000Y-101550754D01*
X76462000Y-101649246D01*
X76481215Y-101745845D01*
X76518906Y-101836839D01*
X76573625Y-101918731D01*
X76643269Y-101988375D01*
X76725161Y-102043094D01*
X76816155Y-102080785D01*
X76912754Y-102100000D01*
X77011246Y-102100000D01*
X77107845Y-102080785D01*
X77198839Y-102043094D01*
X77280731Y-101988375D01*
X77350375Y-101918731D01*
X77405094Y-101836839D01*
X77442785Y-101745845D01*
X77443698Y-101741254D01*
X81478500Y-101741254D01*
X81478500Y-101839746D01*
X81497715Y-101936345D01*
X81535406Y-102027339D01*
X81590125Y-102109231D01*
X81659769Y-102178875D01*
X81741661Y-102233594D01*
X81832655Y-102271285D01*
X81929254Y-102290500D01*
X82027746Y-102290500D01*
X82124345Y-102271285D01*
X82215339Y-102233594D01*
X82297231Y-102178875D01*
X82366875Y-102109231D01*
X82421594Y-102027339D01*
X82459285Y-101936345D01*
X82478500Y-101839746D01*
X82478500Y-101741254D01*
X82459285Y-101644655D01*
X82421594Y-101553661D01*
X82366875Y-101471769D01*
X82297231Y-101402125D01*
X82215339Y-101347406D01*
X82124345Y-101309715D01*
X82027746Y-101290500D01*
X81929254Y-101290500D01*
X81832655Y-101309715D01*
X81741661Y-101347406D01*
X81659769Y-101402125D01*
X81590125Y-101471769D01*
X81535406Y-101553661D01*
X81497715Y-101644655D01*
X81478500Y-101741254D01*
X77443698Y-101741254D01*
X77462000Y-101649246D01*
X77462000Y-101550754D01*
X77442785Y-101454155D01*
X77405094Y-101363161D01*
X77350375Y-101281269D01*
X77280731Y-101211625D01*
X77198839Y-101156906D01*
X77107845Y-101119215D01*
X77011246Y-101100000D01*
X76912754Y-101100000D01*
X76816155Y-101119215D01*
X76725161Y-101156906D01*
X76643269Y-101211625D01*
X76573625Y-101281269D01*
X76518906Y-101363161D01*
X76481215Y-101454155D01*
X76462000Y-101550754D01*
X65778000Y-101550754D01*
X65758785Y-101454155D01*
X65721094Y-101363161D01*
X65666375Y-101281269D01*
X65596731Y-101211625D01*
X65514839Y-101156906D01*
X65423845Y-101119215D01*
X65327246Y-101100000D01*
X65228754Y-101100000D01*
X65132155Y-101119215D01*
X65041161Y-101156906D01*
X64959269Y-101211625D01*
X64889625Y-101281269D01*
X64834906Y-101363161D01*
X64797215Y-101454155D01*
X64778000Y-101550754D01*
X50650602Y-101550754D01*
X50671594Y-101519339D01*
X50709285Y-101428345D01*
X50728500Y-101331746D01*
X50728500Y-101233254D01*
X50709285Y-101136655D01*
X50671594Y-101045661D01*
X50616875Y-100963769D01*
X50547231Y-100894125D01*
X50465339Y-100839406D01*
X50374345Y-100801715D01*
X50309187Y-100788754D01*
X51062000Y-100788754D01*
X51062000Y-100887246D01*
X51081215Y-100983845D01*
X51118906Y-101074839D01*
X51173625Y-101156731D01*
X51243269Y-101226375D01*
X51325161Y-101281094D01*
X51416155Y-101318785D01*
X51512754Y-101338000D01*
X51611246Y-101338000D01*
X51707845Y-101318785D01*
X51798839Y-101281094D01*
X51880731Y-101226375D01*
X51950375Y-101156731D01*
X52005094Y-101074839D01*
X52042785Y-100983845D01*
X52062000Y-100887246D01*
X52062000Y-100832941D01*
X52079715Y-100921999D01*
X52117406Y-101012993D01*
X52172125Y-101094885D01*
X52241769Y-101164529D01*
X52323661Y-101219248D01*
X52414655Y-101256939D01*
X52511254Y-101276154D01*
X52609746Y-101276154D01*
X52706345Y-101256939D01*
X52797339Y-101219248D01*
X52879231Y-101164529D01*
X52948875Y-101094885D01*
X53003594Y-101012993D01*
X53041285Y-100921999D01*
X53060500Y-100825400D01*
X53060500Y-100726908D01*
X53041285Y-100630309D01*
X53003594Y-100539315D01*
X52948875Y-100457423D01*
X52879231Y-100387779D01*
X52814092Y-100344254D01*
X85288500Y-100344254D01*
X85288500Y-100442746D01*
X85307715Y-100539345D01*
X85345406Y-100630339D01*
X85400125Y-100712231D01*
X85469769Y-100781875D01*
X85551661Y-100836594D01*
X85642655Y-100874285D01*
X85739254Y-100893500D01*
X85837746Y-100893500D01*
X85934345Y-100874285D01*
X86025339Y-100836594D01*
X86107231Y-100781875D01*
X86176875Y-100712231D01*
X86231594Y-100630339D01*
X86269285Y-100539345D01*
X86288500Y-100442746D01*
X86288500Y-100344254D01*
X86269285Y-100247655D01*
X86231594Y-100156661D01*
X86176875Y-100074769D01*
X86107231Y-100005125D01*
X86025339Y-99950406D01*
X85934345Y-99912715D01*
X85837746Y-99893500D01*
X85739254Y-99893500D01*
X85642655Y-99912715D01*
X85551661Y-99950406D01*
X85469769Y-100005125D01*
X85400125Y-100074769D01*
X85345406Y-100156661D01*
X85307715Y-100247655D01*
X85288500Y-100344254D01*
X52814092Y-100344254D01*
X52797339Y-100333060D01*
X52706345Y-100295369D01*
X52609746Y-100276154D01*
X52511254Y-100276154D01*
X52414655Y-100295369D01*
X52323661Y-100333060D01*
X52241769Y-100387779D01*
X52172125Y-100457423D01*
X52117406Y-100539315D01*
X52079715Y-100630309D01*
X52060500Y-100726908D01*
X52060500Y-100781213D01*
X52042785Y-100692155D01*
X52005094Y-100601161D01*
X51950375Y-100519269D01*
X51880731Y-100449625D01*
X51798839Y-100394906D01*
X51707845Y-100357215D01*
X51611246Y-100338000D01*
X51512754Y-100338000D01*
X51416155Y-100357215D01*
X51325161Y-100394906D01*
X51243269Y-100449625D01*
X51173625Y-100519269D01*
X51118906Y-100601161D01*
X51081215Y-100692155D01*
X51062000Y-100788754D01*
X50309187Y-100788754D01*
X50277746Y-100782500D01*
X50179254Y-100782500D01*
X50082655Y-100801715D01*
X49991661Y-100839406D01*
X49909769Y-100894125D01*
X49840125Y-100963769D01*
X49785406Y-101045661D01*
X49747715Y-101136655D01*
X49728500Y-101233254D01*
X42611000Y-101233254D01*
X42611000Y-100280754D01*
X45982000Y-100280754D01*
X45982000Y-100379246D01*
X46001215Y-100475845D01*
X46038906Y-100566839D01*
X46093625Y-100648731D01*
X46163269Y-100718375D01*
X46245161Y-100773094D01*
X46336155Y-100810785D01*
X46432754Y-100830000D01*
X46531246Y-100830000D01*
X46627845Y-100810785D01*
X46718839Y-100773094D01*
X46800731Y-100718375D01*
X46870375Y-100648731D01*
X46925094Y-100566839D01*
X46962785Y-100475845D01*
X46982000Y-100379246D01*
X46982000Y-100280754D01*
X46962785Y-100184155D01*
X46925094Y-100093161D01*
X46870375Y-100011269D01*
X46800731Y-99941625D01*
X46718839Y-99886906D01*
X46627845Y-99849215D01*
X46531246Y-99830000D01*
X46432754Y-99830000D01*
X46336155Y-99849215D01*
X46245161Y-99886906D01*
X46163269Y-99941625D01*
X46093625Y-100011269D01*
X46038906Y-100093161D01*
X46001215Y-100184155D01*
X45982000Y-100280754D01*
X42611000Y-100280754D01*
X42611000Y-97636000D01*
X88961001Y-97636000D01*
X88961000Y-169572000D01*
M02*
