G04 #@! TF.GenerationSoftware,KiCad,Pcbnew,5.1.6-c6e7f7d~86~ubuntu18.04.1*
G04 #@! TF.CreationDate,2021-09-21T12:25:19+02:00*
G04 #@! TF.ProjectId,nhci,6e686369-2e6b-4696-9361-645f70636258,rev?*
G04 #@! TF.SameCoordinates,Original*
G04 #@! TF.FileFunction,Legend,Bot*
G04 #@! TF.FilePolarity,Positive*
%FSLAX46Y46*%
G04 Gerber Fmt 4.6, Leading zero omitted, Abs format (unit mm)*
G04 Created by KiCad (PCBNEW 5.1.6-c6e7f7d~86~ubuntu18.04.1) date 2021-09-21 12:25:19*
%MOMM*%
%LPD*%
G01*
G04 APERTURE LIST*
%ADD10C,0.200000*%
%ADD11C,0.100000*%
%ADD12C,0.120000*%
%ADD13C,0.254000*%
%ADD14C,0.150000*%
%ADD15R,0.425000X0.850000*%
%ADD16R,0.700000X0.300000*%
%ADD17R,4.150000X2.150000*%
%ADD18R,0.700000X0.340000*%
%ADD19R,0.340000X0.700000*%
%ADD20R,1.500000X1.800000*%
%ADD21R,0.400000X1.800000*%
G04 APERTURE END LIST*
D10*
X53438000Y-109816000D02*
G75*
G03*
X53438000Y-109616000I0J100000D01*
G01*
X53438000Y-109616000D02*
G75*
G03*
X53438000Y-109816000I0J-100000D01*
G01*
X53438000Y-109816000D02*
X53438000Y-109816000D01*
X53438000Y-109616000D02*
X53438000Y-109616000D01*
D11*
X52788000Y-110166000D02*
X52788000Y-110716000D01*
X52788000Y-110716000D02*
X52638000Y-110716000D01*
X52788000Y-107766000D02*
X52788000Y-107216000D01*
X52788000Y-107216000D02*
X52638000Y-107216000D01*
X47288000Y-107766000D02*
X47288000Y-107216000D01*
X47288000Y-107216000D02*
X47438000Y-107216000D01*
X47288000Y-110166000D02*
X47288000Y-110716000D01*
X47288000Y-110716000D02*
X47438000Y-110716000D01*
D12*
X68632000Y-123439422D02*
X68632000Y-123956578D01*
X70052000Y-123439422D02*
X70052000Y-123956578D01*
D13*
X50887523Y-107726238D02*
X49617523Y-107726238D01*
X50766571Y-109056714D02*
X50827047Y-108996238D01*
X50887523Y-108814809D01*
X50887523Y-108693857D01*
X50827047Y-108512428D01*
X50706095Y-108391476D01*
X50585142Y-108331000D01*
X50343238Y-108270523D01*
X50161809Y-108270523D01*
X49919904Y-108331000D01*
X49798952Y-108391476D01*
X49678000Y-108512428D01*
X49617523Y-108693857D01*
X49617523Y-108814809D01*
X49678000Y-108996238D01*
X49738476Y-109056714D01*
X50161809Y-109782428D02*
X50101333Y-109661476D01*
X50040857Y-109601000D01*
X49919904Y-109540523D01*
X49859428Y-109540523D01*
X49738476Y-109601000D01*
X49678000Y-109661476D01*
X49617523Y-109782428D01*
X49617523Y-110024333D01*
X49678000Y-110145285D01*
X49738476Y-110205761D01*
X49859428Y-110266238D01*
X49919904Y-110266238D01*
X50040857Y-110205761D01*
X50101333Y-110145285D01*
X50161809Y-110024333D01*
X50161809Y-109782428D01*
X50222285Y-109661476D01*
X50282761Y-109601000D01*
X50403714Y-109540523D01*
X50645619Y-109540523D01*
X50766571Y-109601000D01*
X50827047Y-109661476D01*
X50887523Y-109782428D01*
X50887523Y-110024333D01*
X50827047Y-110145285D01*
X50766571Y-110205761D01*
X50645619Y-110266238D01*
X50403714Y-110266238D01*
X50282761Y-110205761D01*
X50222285Y-110145285D01*
X50161809Y-110024333D01*
D14*
X54086857Y-131797380D02*
X54420190Y-131321190D01*
X54658285Y-131797380D02*
X54658285Y-130797380D01*
X54277333Y-130797380D01*
X54182095Y-130845000D01*
X54134476Y-130892619D01*
X54086857Y-130987857D01*
X54086857Y-131130714D01*
X54134476Y-131225952D01*
X54182095Y-131273571D01*
X54277333Y-131321190D01*
X54658285Y-131321190D01*
X53705904Y-130892619D02*
X53658285Y-130845000D01*
X53563047Y-130797380D01*
X53324952Y-130797380D01*
X53229714Y-130845000D01*
X53182095Y-130892619D01*
X53134476Y-130987857D01*
X53134476Y-131083095D01*
X53182095Y-131225952D01*
X53753523Y-131797380D01*
X53134476Y-131797380D01*
X52277333Y-130797380D02*
X52467809Y-130797380D01*
X52563047Y-130845000D01*
X52610666Y-130892619D01*
X52705904Y-131035476D01*
X52753523Y-131225952D01*
X52753523Y-131606904D01*
X52705904Y-131702142D01*
X52658285Y-131749761D01*
X52563047Y-131797380D01*
X52372571Y-131797380D01*
X52277333Y-131749761D01*
X52229714Y-131702142D01*
X52182095Y-131606904D01*
X52182095Y-131368809D01*
X52229714Y-131273571D01*
X52277333Y-131225952D01*
X52372571Y-131178333D01*
X52563047Y-131178333D01*
X52658285Y-131225952D01*
X52705904Y-131273571D01*
X52753523Y-131368809D01*
X52054857Y-130527380D02*
X52388190Y-130051190D01*
X52626285Y-130527380D02*
X52626285Y-129527380D01*
X52245333Y-129527380D01*
X52150095Y-129575000D01*
X52102476Y-129622619D01*
X52054857Y-129717857D01*
X52054857Y-129860714D01*
X52102476Y-129955952D01*
X52150095Y-130003571D01*
X52245333Y-130051190D01*
X52626285Y-130051190D01*
X51673904Y-129622619D02*
X51626285Y-129575000D01*
X51531047Y-129527380D01*
X51292952Y-129527380D01*
X51197714Y-129575000D01*
X51150095Y-129622619D01*
X51102476Y-129717857D01*
X51102476Y-129813095D01*
X51150095Y-129955952D01*
X51721523Y-130527380D01*
X51102476Y-130527380D01*
X50197714Y-129527380D02*
X50673904Y-129527380D01*
X50721523Y-130003571D01*
X50673904Y-129955952D01*
X50578666Y-129908333D01*
X50340571Y-129908333D01*
X50245333Y-129955952D01*
X50197714Y-130003571D01*
X50150095Y-130098809D01*
X50150095Y-130336904D01*
X50197714Y-130432142D01*
X50245333Y-130479761D01*
X50340571Y-130527380D01*
X50578666Y-130527380D01*
X50673904Y-130479761D01*
X50721523Y-130432142D01*
X72688380Y-106744333D02*
X72212190Y-106411000D01*
X72688380Y-106172904D02*
X71688380Y-106172904D01*
X71688380Y-106553857D01*
X71736000Y-106649095D01*
X71783619Y-106696714D01*
X71878857Y-106744333D01*
X72021714Y-106744333D01*
X72116952Y-106696714D01*
X72164571Y-106649095D01*
X72212190Y-106553857D01*
X72212190Y-106172904D01*
X72688380Y-107220523D02*
X72688380Y-107411000D01*
X72640761Y-107506238D01*
X72593142Y-107553857D01*
X72450285Y-107649095D01*
X72259809Y-107696714D01*
X71878857Y-107696714D01*
X71783619Y-107649095D01*
X71736000Y-107601476D01*
X71688380Y-107506238D01*
X71688380Y-107315761D01*
X71736000Y-107220523D01*
X71783619Y-107172904D01*
X71878857Y-107125285D01*
X72116952Y-107125285D01*
X72212190Y-107172904D01*
X72259809Y-107220523D01*
X72307428Y-107315761D01*
X72307428Y-107506238D01*
X72259809Y-107601476D01*
X72212190Y-107649095D01*
X72116952Y-107696714D01*
X65576380Y-106744333D02*
X65100190Y-106411000D01*
X65576380Y-106172904D02*
X64576380Y-106172904D01*
X64576380Y-106553857D01*
X64624000Y-106649095D01*
X64671619Y-106696714D01*
X64766857Y-106744333D01*
X64909714Y-106744333D01*
X65004952Y-106696714D01*
X65052571Y-106649095D01*
X65100190Y-106553857D01*
X65100190Y-106172904D01*
X65004952Y-107315761D02*
X64957333Y-107220523D01*
X64909714Y-107172904D01*
X64814476Y-107125285D01*
X64766857Y-107125285D01*
X64671619Y-107172904D01*
X64624000Y-107220523D01*
X64576380Y-107315761D01*
X64576380Y-107506238D01*
X64624000Y-107601476D01*
X64671619Y-107649095D01*
X64766857Y-107696714D01*
X64814476Y-107696714D01*
X64909714Y-107649095D01*
X64957333Y-107601476D01*
X65004952Y-107506238D01*
X65004952Y-107315761D01*
X65052571Y-107220523D01*
X65100190Y-107172904D01*
X65195428Y-107125285D01*
X65385904Y-107125285D01*
X65481142Y-107172904D01*
X65528761Y-107220523D01*
X65576380Y-107315761D01*
X65576380Y-107506238D01*
X65528761Y-107601476D01*
X65481142Y-107649095D01*
X65385904Y-107696714D01*
X65195428Y-107696714D01*
X65100190Y-107649095D01*
X65052571Y-107601476D01*
X65004952Y-107506238D01*
X57448380Y-108522333D02*
X56972190Y-108189000D01*
X57448380Y-107950904D02*
X56448380Y-107950904D01*
X56448380Y-108331857D01*
X56496000Y-108427095D01*
X56543619Y-108474714D01*
X56638857Y-108522333D01*
X56781714Y-108522333D01*
X56876952Y-108474714D01*
X56924571Y-108427095D01*
X56972190Y-108331857D01*
X56972190Y-107950904D01*
X56448380Y-108855666D02*
X56448380Y-109522333D01*
X57448380Y-109093761D01*
X59480380Y-106513333D02*
X59004190Y-106180000D01*
X59480380Y-105941904D02*
X58480380Y-105941904D01*
X58480380Y-106322857D01*
X58528000Y-106418095D01*
X58575619Y-106465714D01*
X58670857Y-106513333D01*
X58813714Y-106513333D01*
X58908952Y-106465714D01*
X58956571Y-106418095D01*
X59004190Y-106322857D01*
X59004190Y-105941904D01*
X58480380Y-107370476D02*
X58480380Y-107180000D01*
X58528000Y-107084761D01*
X58575619Y-107037142D01*
X58718476Y-106941904D01*
X58908952Y-106894285D01*
X59289904Y-106894285D01*
X59385142Y-106941904D01*
X59432761Y-106989523D01*
X59480380Y-107084761D01*
X59480380Y-107275238D01*
X59432761Y-107370476D01*
X59385142Y-107418095D01*
X59289904Y-107465714D01*
X59051809Y-107465714D01*
X58956571Y-107418095D01*
X58908952Y-107370476D01*
X58861333Y-107275238D01*
X58861333Y-107084761D01*
X58908952Y-106989523D01*
X58956571Y-106941904D01*
X59051809Y-106894285D01*
X58464380Y-106536333D02*
X57988190Y-106203000D01*
X58464380Y-105964904D02*
X57464380Y-105964904D01*
X57464380Y-106345857D01*
X57512000Y-106441095D01*
X57559619Y-106488714D01*
X57654857Y-106536333D01*
X57797714Y-106536333D01*
X57892952Y-106488714D01*
X57940571Y-106441095D01*
X57988190Y-106345857D01*
X57988190Y-105964904D01*
X57464380Y-107441095D02*
X57464380Y-106964904D01*
X57940571Y-106917285D01*
X57892952Y-106964904D01*
X57845333Y-107060142D01*
X57845333Y-107298238D01*
X57892952Y-107393476D01*
X57940571Y-107441095D01*
X58035809Y-107488714D01*
X58273904Y-107488714D01*
X58369142Y-107441095D01*
X58416761Y-107393476D01*
X58464380Y-107298238D01*
X58464380Y-107060142D01*
X58416761Y-106964904D01*
X58369142Y-106917285D01*
X74720380Y-106790333D02*
X74244190Y-106457000D01*
X74720380Y-106218904D02*
X73720380Y-106218904D01*
X73720380Y-106599857D01*
X73768000Y-106695095D01*
X73815619Y-106742714D01*
X73910857Y-106790333D01*
X74053714Y-106790333D01*
X74148952Y-106742714D01*
X74196571Y-106695095D01*
X74244190Y-106599857D01*
X74244190Y-106218904D01*
X74053714Y-107647476D02*
X74720380Y-107647476D01*
X73672761Y-107409380D02*
X74387047Y-107171285D01*
X74387047Y-107790333D01*
X56940380Y-106513333D02*
X56464190Y-106180000D01*
X56940380Y-105941904D02*
X55940380Y-105941904D01*
X55940380Y-106322857D01*
X55988000Y-106418095D01*
X56035619Y-106465714D01*
X56130857Y-106513333D01*
X56273714Y-106513333D01*
X56368952Y-106465714D01*
X56416571Y-106418095D01*
X56464190Y-106322857D01*
X56464190Y-105941904D01*
X55940380Y-106846666D02*
X55940380Y-107465714D01*
X56321333Y-107132380D01*
X56321333Y-107275238D01*
X56368952Y-107370476D01*
X56416571Y-107418095D01*
X56511809Y-107465714D01*
X56749904Y-107465714D01*
X56845142Y-107418095D01*
X56892761Y-107370476D01*
X56940380Y-107275238D01*
X56940380Y-106989523D01*
X56892761Y-106894285D01*
X56845142Y-106846666D01*
X55924380Y-106513333D02*
X55448190Y-106180000D01*
X55924380Y-105941904D02*
X54924380Y-105941904D01*
X54924380Y-106322857D01*
X54972000Y-106418095D01*
X55019619Y-106465714D01*
X55114857Y-106513333D01*
X55257714Y-106513333D01*
X55352952Y-106465714D01*
X55400571Y-106418095D01*
X55448190Y-106322857D01*
X55448190Y-105941904D01*
X55019619Y-106894285D02*
X54972000Y-106941904D01*
X54924380Y-107037142D01*
X54924380Y-107275238D01*
X54972000Y-107370476D01*
X55019619Y-107418095D01*
X55114857Y-107465714D01*
X55210095Y-107465714D01*
X55352952Y-107418095D01*
X55924380Y-106846666D01*
X55924380Y-107465714D01*
X67167857Y-127511142D02*
X67215476Y-127558761D01*
X67358333Y-127606380D01*
X67453571Y-127606380D01*
X67596428Y-127558761D01*
X67691666Y-127463523D01*
X67739285Y-127368285D01*
X67786904Y-127177809D01*
X67786904Y-127034952D01*
X67739285Y-126844476D01*
X67691666Y-126749238D01*
X67596428Y-126654000D01*
X67453571Y-126606380D01*
X67358333Y-126606380D01*
X67215476Y-126654000D01*
X67167857Y-126701619D01*
X66786904Y-126701619D02*
X66739285Y-126654000D01*
X66644047Y-126606380D01*
X66405952Y-126606380D01*
X66310714Y-126654000D01*
X66263095Y-126701619D01*
X66215476Y-126796857D01*
X66215476Y-126892095D01*
X66263095Y-127034952D01*
X66834523Y-127606380D01*
X66215476Y-127606380D01*
X65596428Y-126606380D02*
X65501190Y-126606380D01*
X65405952Y-126654000D01*
X65358333Y-126701619D01*
X65310714Y-126796857D01*
X65263095Y-126987333D01*
X65263095Y-127225428D01*
X65310714Y-127415904D01*
X65358333Y-127511142D01*
X65405952Y-127558761D01*
X65501190Y-127606380D01*
X65596428Y-127606380D01*
X65691666Y-127558761D01*
X65739285Y-127511142D01*
X65786904Y-127415904D01*
X65834523Y-127225428D01*
X65834523Y-126987333D01*
X65786904Y-126796857D01*
X65739285Y-126701619D01*
X65691666Y-126654000D01*
X65596428Y-126606380D01*
X64465142Y-121508142D02*
X64512761Y-121460523D01*
X64560380Y-121317666D01*
X64560380Y-121222428D01*
X64512761Y-121079571D01*
X64417523Y-120984333D01*
X64322285Y-120936714D01*
X64131809Y-120889095D01*
X63988952Y-120889095D01*
X63798476Y-120936714D01*
X63703238Y-120984333D01*
X63608000Y-121079571D01*
X63560380Y-121222428D01*
X63560380Y-121317666D01*
X63608000Y-121460523D01*
X63655619Y-121508142D01*
X64560380Y-122460523D02*
X64560380Y-121889095D01*
X64560380Y-122174809D02*
X63560380Y-122174809D01*
X63703238Y-122079571D01*
X63798476Y-121984333D01*
X63846095Y-121889095D01*
X64560380Y-122936714D02*
X64560380Y-123127190D01*
X64512761Y-123222428D01*
X64465142Y-123270047D01*
X64322285Y-123365285D01*
X64131809Y-123412904D01*
X63750857Y-123412904D01*
X63655619Y-123365285D01*
X63608000Y-123317666D01*
X63560380Y-123222428D01*
X63560380Y-123031952D01*
X63608000Y-122936714D01*
X63655619Y-122889095D01*
X63750857Y-122841476D01*
X63988952Y-122841476D01*
X64084190Y-122889095D01*
X64131809Y-122936714D01*
X64179428Y-123031952D01*
X64179428Y-123222428D01*
X64131809Y-123317666D01*
X64084190Y-123365285D01*
X63988952Y-123412904D01*
X64881857Y-127511142D02*
X64929476Y-127558761D01*
X65072333Y-127606380D01*
X65167571Y-127606380D01*
X65310428Y-127558761D01*
X65405666Y-127463523D01*
X65453285Y-127368285D01*
X65500904Y-127177809D01*
X65500904Y-127034952D01*
X65453285Y-126844476D01*
X65405666Y-126749238D01*
X65310428Y-126654000D01*
X65167571Y-126606380D01*
X65072333Y-126606380D01*
X64929476Y-126654000D01*
X64881857Y-126701619D01*
X63929476Y-127606380D02*
X64500904Y-127606380D01*
X64215190Y-127606380D02*
X64215190Y-126606380D01*
X64310428Y-126749238D01*
X64405666Y-126844476D01*
X64500904Y-126892095D01*
X63358047Y-127034952D02*
X63453285Y-126987333D01*
X63500904Y-126939714D01*
X63548523Y-126844476D01*
X63548523Y-126796857D01*
X63500904Y-126701619D01*
X63453285Y-126654000D01*
X63358047Y-126606380D01*
X63167571Y-126606380D01*
X63072333Y-126654000D01*
X63024714Y-126701619D01*
X62977095Y-126796857D01*
X62977095Y-126844476D01*
X63024714Y-126939714D01*
X63072333Y-126987333D01*
X63167571Y-127034952D01*
X63358047Y-127034952D01*
X63453285Y-127082571D01*
X63500904Y-127130190D01*
X63548523Y-127225428D01*
X63548523Y-127415904D01*
X63500904Y-127511142D01*
X63453285Y-127558761D01*
X63358047Y-127606380D01*
X63167571Y-127606380D01*
X63072333Y-127558761D01*
X63024714Y-127511142D01*
X62977095Y-127415904D01*
X62977095Y-127225428D01*
X63024714Y-127130190D01*
X63072333Y-127082571D01*
X63167571Y-127034952D01*
X71540666Y-126336380D02*
X71874000Y-125860190D01*
X72112095Y-126336380D02*
X72112095Y-125336380D01*
X71731142Y-125336380D01*
X71635904Y-125384000D01*
X71588285Y-125431619D01*
X71540666Y-125526857D01*
X71540666Y-125669714D01*
X71588285Y-125764952D01*
X71635904Y-125812571D01*
X71731142Y-125860190D01*
X72112095Y-125860190D01*
X70588285Y-126336380D02*
X71159714Y-126336380D01*
X70874000Y-126336380D02*
X70874000Y-125336380D01*
X70969238Y-125479238D01*
X71064476Y-125574476D01*
X71159714Y-125622095D01*
X64011142Y-126888142D02*
X64058761Y-126840523D01*
X64106380Y-126697666D01*
X64106380Y-126602428D01*
X64058761Y-126459571D01*
X63963523Y-126364333D01*
X63868285Y-126316714D01*
X63677809Y-126269095D01*
X63534952Y-126269095D01*
X63344476Y-126316714D01*
X63249238Y-126364333D01*
X63154000Y-126459571D01*
X63106380Y-126602428D01*
X63106380Y-126697666D01*
X63154000Y-126840523D01*
X63201619Y-126888142D01*
X64106380Y-127840523D02*
X64106380Y-127269095D01*
X64106380Y-127554809D02*
X63106380Y-127554809D01*
X63249238Y-127459571D01*
X63344476Y-127364333D01*
X63392095Y-127269095D01*
X63106380Y-128173857D02*
X63106380Y-128840523D01*
X64106380Y-128411952D01*
X68049142Y-123055142D02*
X68096761Y-123007523D01*
X68144380Y-122864666D01*
X68144380Y-122769428D01*
X68096761Y-122626571D01*
X68001523Y-122531333D01*
X67906285Y-122483714D01*
X67715809Y-122436095D01*
X67572952Y-122436095D01*
X67382476Y-122483714D01*
X67287238Y-122531333D01*
X67192000Y-122626571D01*
X67144380Y-122769428D01*
X67144380Y-122864666D01*
X67192000Y-123007523D01*
X67239619Y-123055142D01*
X68144380Y-124007523D02*
X68144380Y-123436095D01*
X68144380Y-123721809D02*
X67144380Y-123721809D01*
X67287238Y-123626571D01*
X67382476Y-123531333D01*
X67430095Y-123436095D01*
X67144380Y-124864666D02*
X67144380Y-124674190D01*
X67192000Y-124578952D01*
X67239619Y-124531333D01*
X67382476Y-124436095D01*
X67572952Y-124388476D01*
X67953904Y-124388476D01*
X68049142Y-124436095D01*
X68096761Y-124483714D01*
X68144380Y-124578952D01*
X68144380Y-124769428D01*
X68096761Y-124864666D01*
X68049142Y-124912285D01*
X67953904Y-124959904D01*
X67715809Y-124959904D01*
X67620571Y-124912285D01*
X67572952Y-124864666D01*
X67525333Y-124769428D01*
X67525333Y-124578952D01*
X67572952Y-124483714D01*
X67620571Y-124436095D01*
X67715809Y-124388476D01*
X66751142Y-123055142D02*
X66798761Y-123007523D01*
X66846380Y-122864666D01*
X66846380Y-122769428D01*
X66798761Y-122626571D01*
X66703523Y-122531333D01*
X66608285Y-122483714D01*
X66417809Y-122436095D01*
X66274952Y-122436095D01*
X66084476Y-122483714D01*
X65989238Y-122531333D01*
X65894000Y-122626571D01*
X65846380Y-122769428D01*
X65846380Y-122864666D01*
X65894000Y-123007523D01*
X65941619Y-123055142D01*
X66846380Y-124007523D02*
X66846380Y-123436095D01*
X66846380Y-123721809D02*
X65846380Y-123721809D01*
X65989238Y-123626571D01*
X66084476Y-123531333D01*
X66132095Y-123436095D01*
X65846380Y-124912285D02*
X65846380Y-124436095D01*
X66322571Y-124388476D01*
X66274952Y-124436095D01*
X66227333Y-124531333D01*
X66227333Y-124769428D01*
X66274952Y-124864666D01*
X66322571Y-124912285D01*
X66417809Y-124959904D01*
X66655904Y-124959904D01*
X66751142Y-124912285D01*
X66798761Y-124864666D01*
X66846380Y-124769428D01*
X66846380Y-124531333D01*
X66798761Y-124436095D01*
X66751142Y-124388476D01*
X73917142Y-126888142D02*
X73964761Y-126840523D01*
X74012380Y-126697666D01*
X74012380Y-126602428D01*
X73964761Y-126459571D01*
X73869523Y-126364333D01*
X73774285Y-126316714D01*
X73583809Y-126269095D01*
X73440952Y-126269095D01*
X73250476Y-126316714D01*
X73155238Y-126364333D01*
X73060000Y-126459571D01*
X73012380Y-126602428D01*
X73012380Y-126697666D01*
X73060000Y-126840523D01*
X73107619Y-126888142D01*
X74012380Y-127840523D02*
X74012380Y-127269095D01*
X74012380Y-127554809D02*
X73012380Y-127554809D01*
X73155238Y-127459571D01*
X73250476Y-127364333D01*
X73298095Y-127269095D01*
X73345714Y-128697666D02*
X74012380Y-128697666D01*
X72964761Y-128459571D02*
X73679047Y-128221476D01*
X73679047Y-128840523D01*
X70007857Y-127711142D02*
X70055476Y-127758761D01*
X70198333Y-127806380D01*
X70293571Y-127806380D01*
X70436428Y-127758761D01*
X70531666Y-127663523D01*
X70579285Y-127568285D01*
X70626904Y-127377809D01*
X70626904Y-127234952D01*
X70579285Y-127044476D01*
X70531666Y-126949238D01*
X70436428Y-126854000D01*
X70293571Y-126806380D01*
X70198333Y-126806380D01*
X70055476Y-126854000D01*
X70007857Y-126901619D01*
X69055476Y-127806380D02*
X69626904Y-127806380D01*
X69341190Y-127806380D02*
X69341190Y-126806380D01*
X69436428Y-126949238D01*
X69531666Y-127044476D01*
X69626904Y-127092095D01*
X68722142Y-126806380D02*
X68103095Y-126806380D01*
X68436428Y-127187333D01*
X68293571Y-127187333D01*
X68198333Y-127234952D01*
X68150714Y-127282571D01*
X68103095Y-127377809D01*
X68103095Y-127615904D01*
X68150714Y-127711142D01*
X68198333Y-127758761D01*
X68293571Y-127806380D01*
X68579285Y-127806380D01*
X68674523Y-127758761D01*
X68722142Y-127711142D01*
X62433142Y-123055142D02*
X62480761Y-123007523D01*
X62528380Y-122864666D01*
X62528380Y-122769428D01*
X62480761Y-122626571D01*
X62385523Y-122531333D01*
X62290285Y-122483714D01*
X62099809Y-122436095D01*
X61956952Y-122436095D01*
X61766476Y-122483714D01*
X61671238Y-122531333D01*
X61576000Y-122626571D01*
X61528380Y-122769428D01*
X61528380Y-122864666D01*
X61576000Y-123007523D01*
X61623619Y-123055142D01*
X62528380Y-124007523D02*
X62528380Y-123436095D01*
X62528380Y-123721809D02*
X61528380Y-123721809D01*
X61671238Y-123626571D01*
X61766476Y-123531333D01*
X61814095Y-123436095D01*
X61623619Y-124388476D02*
X61576000Y-124436095D01*
X61528380Y-124531333D01*
X61528380Y-124769428D01*
X61576000Y-124864666D01*
X61623619Y-124912285D01*
X61718857Y-124959904D01*
X61814095Y-124959904D01*
X61956952Y-124912285D01*
X62528380Y-124340857D01*
X62528380Y-124959904D01*
X67513142Y-119222142D02*
X67560761Y-119174523D01*
X67608380Y-119031666D01*
X67608380Y-118936428D01*
X67560761Y-118793571D01*
X67465523Y-118698333D01*
X67370285Y-118650714D01*
X67179809Y-118603095D01*
X67036952Y-118603095D01*
X66846476Y-118650714D01*
X66751238Y-118698333D01*
X66656000Y-118793571D01*
X66608380Y-118936428D01*
X66608380Y-119031666D01*
X66656000Y-119174523D01*
X66703619Y-119222142D01*
X67608380Y-120174523D02*
X67608380Y-119603095D01*
X67608380Y-119888809D02*
X66608380Y-119888809D01*
X66751238Y-119793571D01*
X66846476Y-119698333D01*
X66894095Y-119603095D01*
X67608380Y-121126904D02*
X67608380Y-120555476D01*
X67608380Y-120841190D02*
X66608380Y-120841190D01*
X66751238Y-120745952D01*
X66846476Y-120650714D01*
X66894095Y-120555476D01*
%LPC*%
D15*
X47850000Y-108966000D03*
X52226000Y-108966000D03*
D16*
X47388000Y-108691000D03*
X47388000Y-109241000D03*
X52688000Y-108691000D03*
X52688000Y-109241000D03*
D17*
X50038000Y-108966000D03*
D18*
X52688000Y-108216000D03*
D19*
X52288000Y-107316000D03*
X51788000Y-107316000D03*
X51288000Y-107316000D03*
X50788000Y-107316000D03*
X50288000Y-107316000D03*
X49788000Y-107316000D03*
X49288000Y-107316000D03*
X48788000Y-107316000D03*
X48288000Y-107316000D03*
X47788000Y-107316000D03*
D18*
X47388000Y-108216000D03*
X47388000Y-109716000D03*
D19*
X47788000Y-110616000D03*
X48288000Y-110616000D03*
X48788000Y-110616000D03*
X49288000Y-110616000D03*
X49788000Y-110616000D03*
X50288000Y-110616000D03*
X50788000Y-110616000D03*
X51288000Y-110616000D03*
X51788000Y-110616000D03*
X52288000Y-110616000D03*
D18*
X52688000Y-109716000D03*
G36*
G01*
X53584000Y-130372500D02*
X53584000Y-129977500D01*
G75*
G02*
X53756500Y-129805000I172500J0D01*
G01*
X54101500Y-129805000D01*
G75*
G02*
X54274000Y-129977500I0J-172500D01*
G01*
X54274000Y-130372500D01*
G75*
G02*
X54101500Y-130545000I-172500J0D01*
G01*
X53756500Y-130545000D01*
G75*
G02*
X53584000Y-130372500I0J172500D01*
G01*
G37*
G36*
G01*
X52614000Y-130372500D02*
X52614000Y-129977500D01*
G75*
G02*
X52786500Y-129805000I172500J0D01*
G01*
X53131500Y-129805000D01*
G75*
G02*
X53304000Y-129977500I0J-172500D01*
G01*
X53304000Y-130372500D01*
G75*
G02*
X53131500Y-130545000I-172500J0D01*
G01*
X52786500Y-130545000D01*
G75*
G02*
X52614000Y-130372500I0J172500D01*
G01*
G37*
G36*
G01*
X51552000Y-129102500D02*
X51552000Y-128707500D01*
G75*
G02*
X51724500Y-128535000I172500J0D01*
G01*
X52069500Y-128535000D01*
G75*
G02*
X52242000Y-128707500I0J-172500D01*
G01*
X52242000Y-129102500D01*
G75*
G02*
X52069500Y-129275000I-172500J0D01*
G01*
X51724500Y-129275000D01*
G75*
G02*
X51552000Y-129102500I0J172500D01*
G01*
G37*
G36*
G01*
X50582000Y-129102500D02*
X50582000Y-128707500D01*
G75*
G02*
X50754500Y-128535000I172500J0D01*
G01*
X51099500Y-128535000D01*
G75*
G02*
X51272000Y-128707500I0J-172500D01*
G01*
X51272000Y-129102500D01*
G75*
G02*
X51099500Y-129275000I-172500J0D01*
G01*
X50754500Y-129275000D01*
G75*
G02*
X50582000Y-129102500I0J172500D01*
G01*
G37*
D20*
X70106000Y-169082000D03*
X61466000Y-169082000D03*
D21*
X63036000Y-169632000D03*
X63536000Y-169632000D03*
X64036000Y-169632000D03*
X64536000Y-169632000D03*
X65036000Y-169632000D03*
X65536000Y-169632000D03*
X66036000Y-169632000D03*
X66536000Y-169632000D03*
X67036000Y-169632000D03*
X67536000Y-169632000D03*
X68036000Y-169632000D03*
X68536000Y-169632000D03*
G36*
G01*
X73208500Y-107051000D02*
X73603500Y-107051000D01*
G75*
G02*
X73776000Y-107223500I0J-172500D01*
G01*
X73776000Y-107568500D01*
G75*
G02*
X73603500Y-107741000I-172500J0D01*
G01*
X73208500Y-107741000D01*
G75*
G02*
X73036000Y-107568500I0J172500D01*
G01*
X73036000Y-107223500D01*
G75*
G02*
X73208500Y-107051000I172500J0D01*
G01*
G37*
G36*
G01*
X73208500Y-106081000D02*
X73603500Y-106081000D01*
G75*
G02*
X73776000Y-106253500I0J-172500D01*
G01*
X73776000Y-106598500D01*
G75*
G02*
X73603500Y-106771000I-172500J0D01*
G01*
X73208500Y-106771000D01*
G75*
G02*
X73036000Y-106598500I0J172500D01*
G01*
X73036000Y-106253500D01*
G75*
G02*
X73208500Y-106081000I172500J0D01*
G01*
G37*
G36*
G01*
X66096500Y-107051000D02*
X66491500Y-107051000D01*
G75*
G02*
X66664000Y-107223500I0J-172500D01*
G01*
X66664000Y-107568500D01*
G75*
G02*
X66491500Y-107741000I-172500J0D01*
G01*
X66096500Y-107741000D01*
G75*
G02*
X65924000Y-107568500I0J172500D01*
G01*
X65924000Y-107223500D01*
G75*
G02*
X66096500Y-107051000I172500J0D01*
G01*
G37*
G36*
G01*
X66096500Y-106081000D02*
X66491500Y-106081000D01*
G75*
G02*
X66664000Y-106253500I0J-172500D01*
G01*
X66664000Y-106598500D01*
G75*
G02*
X66491500Y-106771000I-172500J0D01*
G01*
X66096500Y-106771000D01*
G75*
G02*
X65924000Y-106598500I0J172500D01*
G01*
X65924000Y-106253500D01*
G75*
G02*
X66096500Y-106081000I172500J0D01*
G01*
G37*
G36*
G01*
X57968500Y-108829000D02*
X58363500Y-108829000D01*
G75*
G02*
X58536000Y-109001500I0J-172500D01*
G01*
X58536000Y-109346500D01*
G75*
G02*
X58363500Y-109519000I-172500J0D01*
G01*
X57968500Y-109519000D01*
G75*
G02*
X57796000Y-109346500I0J172500D01*
G01*
X57796000Y-109001500D01*
G75*
G02*
X57968500Y-108829000I172500J0D01*
G01*
G37*
G36*
G01*
X57968500Y-107859000D02*
X58363500Y-107859000D01*
G75*
G02*
X58536000Y-108031500I0J-172500D01*
G01*
X58536000Y-108376500D01*
G75*
G02*
X58363500Y-108549000I-172500J0D01*
G01*
X57968500Y-108549000D01*
G75*
G02*
X57796000Y-108376500I0J172500D01*
G01*
X57796000Y-108031500D01*
G75*
G02*
X57968500Y-107859000I172500J0D01*
G01*
G37*
G36*
G01*
X60000500Y-106820000D02*
X60395500Y-106820000D01*
G75*
G02*
X60568000Y-106992500I0J-172500D01*
G01*
X60568000Y-107337500D01*
G75*
G02*
X60395500Y-107510000I-172500J0D01*
G01*
X60000500Y-107510000D01*
G75*
G02*
X59828000Y-107337500I0J172500D01*
G01*
X59828000Y-106992500D01*
G75*
G02*
X60000500Y-106820000I172500J0D01*
G01*
G37*
G36*
G01*
X60000500Y-105850000D02*
X60395500Y-105850000D01*
G75*
G02*
X60568000Y-106022500I0J-172500D01*
G01*
X60568000Y-106367500D01*
G75*
G02*
X60395500Y-106540000I-172500J0D01*
G01*
X60000500Y-106540000D01*
G75*
G02*
X59828000Y-106367500I0J172500D01*
G01*
X59828000Y-106022500D01*
G75*
G02*
X60000500Y-105850000I172500J0D01*
G01*
G37*
G36*
G01*
X58984500Y-106843000D02*
X59379500Y-106843000D01*
G75*
G02*
X59552000Y-107015500I0J-172500D01*
G01*
X59552000Y-107360500D01*
G75*
G02*
X59379500Y-107533000I-172500J0D01*
G01*
X58984500Y-107533000D01*
G75*
G02*
X58812000Y-107360500I0J172500D01*
G01*
X58812000Y-107015500D01*
G75*
G02*
X58984500Y-106843000I172500J0D01*
G01*
G37*
G36*
G01*
X58984500Y-105873000D02*
X59379500Y-105873000D01*
G75*
G02*
X59552000Y-106045500I0J-172500D01*
G01*
X59552000Y-106390500D01*
G75*
G02*
X59379500Y-106563000I-172500J0D01*
G01*
X58984500Y-106563000D01*
G75*
G02*
X58812000Y-106390500I0J172500D01*
G01*
X58812000Y-106045500D01*
G75*
G02*
X58984500Y-105873000I172500J0D01*
G01*
G37*
G36*
G01*
X75240500Y-107097000D02*
X75635500Y-107097000D01*
G75*
G02*
X75808000Y-107269500I0J-172500D01*
G01*
X75808000Y-107614500D01*
G75*
G02*
X75635500Y-107787000I-172500J0D01*
G01*
X75240500Y-107787000D01*
G75*
G02*
X75068000Y-107614500I0J172500D01*
G01*
X75068000Y-107269500D01*
G75*
G02*
X75240500Y-107097000I172500J0D01*
G01*
G37*
G36*
G01*
X75240500Y-106127000D02*
X75635500Y-106127000D01*
G75*
G02*
X75808000Y-106299500I0J-172500D01*
G01*
X75808000Y-106644500D01*
G75*
G02*
X75635500Y-106817000I-172500J0D01*
G01*
X75240500Y-106817000D01*
G75*
G02*
X75068000Y-106644500I0J172500D01*
G01*
X75068000Y-106299500D01*
G75*
G02*
X75240500Y-106127000I172500J0D01*
G01*
G37*
G36*
G01*
X57460500Y-106820000D02*
X57855500Y-106820000D01*
G75*
G02*
X58028000Y-106992500I0J-172500D01*
G01*
X58028000Y-107337500D01*
G75*
G02*
X57855500Y-107510000I-172500J0D01*
G01*
X57460500Y-107510000D01*
G75*
G02*
X57288000Y-107337500I0J172500D01*
G01*
X57288000Y-106992500D01*
G75*
G02*
X57460500Y-106820000I172500J0D01*
G01*
G37*
G36*
G01*
X57460500Y-105850000D02*
X57855500Y-105850000D01*
G75*
G02*
X58028000Y-106022500I0J-172500D01*
G01*
X58028000Y-106367500D01*
G75*
G02*
X57855500Y-106540000I-172500J0D01*
G01*
X57460500Y-106540000D01*
G75*
G02*
X57288000Y-106367500I0J172500D01*
G01*
X57288000Y-106022500D01*
G75*
G02*
X57460500Y-105850000I172500J0D01*
G01*
G37*
G36*
G01*
X56444500Y-106820000D02*
X56839500Y-106820000D01*
G75*
G02*
X57012000Y-106992500I0J-172500D01*
G01*
X57012000Y-107337500D01*
G75*
G02*
X56839500Y-107510000I-172500J0D01*
G01*
X56444500Y-107510000D01*
G75*
G02*
X56272000Y-107337500I0J172500D01*
G01*
X56272000Y-106992500D01*
G75*
G02*
X56444500Y-106820000I172500J0D01*
G01*
G37*
G36*
G01*
X56444500Y-105850000D02*
X56839500Y-105850000D01*
G75*
G02*
X57012000Y-106022500I0J-172500D01*
G01*
X57012000Y-106367500D01*
G75*
G02*
X56839500Y-106540000I-172500J0D01*
G01*
X56444500Y-106540000D01*
G75*
G02*
X56272000Y-106367500I0J172500D01*
G01*
X56272000Y-106022500D01*
G75*
G02*
X56444500Y-105850000I172500J0D01*
G01*
G37*
G36*
G01*
X66665000Y-126181500D02*
X66665000Y-125786500D01*
G75*
G02*
X66837500Y-125614000I172500J0D01*
G01*
X67182500Y-125614000D01*
G75*
G02*
X67355000Y-125786500I0J-172500D01*
G01*
X67355000Y-126181500D01*
G75*
G02*
X67182500Y-126354000I-172500J0D01*
G01*
X66837500Y-126354000D01*
G75*
G02*
X66665000Y-126181500I0J172500D01*
G01*
G37*
G36*
G01*
X65695000Y-126181500D02*
X65695000Y-125786500D01*
G75*
G02*
X65867500Y-125614000I172500J0D01*
G01*
X66212500Y-125614000D01*
G75*
G02*
X66385000Y-125786500I0J-172500D01*
G01*
X66385000Y-126181500D01*
G75*
G02*
X66212500Y-126354000I-172500J0D01*
G01*
X65867500Y-126354000D01*
G75*
G02*
X65695000Y-126181500I0J172500D01*
G01*
G37*
G36*
G01*
X65080500Y-122291000D02*
X65475500Y-122291000D01*
G75*
G02*
X65648000Y-122463500I0J-172500D01*
G01*
X65648000Y-122808500D01*
G75*
G02*
X65475500Y-122981000I-172500J0D01*
G01*
X65080500Y-122981000D01*
G75*
G02*
X64908000Y-122808500I0J172500D01*
G01*
X64908000Y-122463500D01*
G75*
G02*
X65080500Y-122291000I172500J0D01*
G01*
G37*
G36*
G01*
X65080500Y-121321000D02*
X65475500Y-121321000D01*
G75*
G02*
X65648000Y-121493500I0J-172500D01*
G01*
X65648000Y-121838500D01*
G75*
G02*
X65475500Y-122011000I-172500J0D01*
G01*
X65080500Y-122011000D01*
G75*
G02*
X64908000Y-121838500I0J172500D01*
G01*
X64908000Y-121493500D01*
G75*
G02*
X65080500Y-121321000I172500J0D01*
G01*
G37*
G36*
G01*
X64379000Y-126181500D02*
X64379000Y-125786500D01*
G75*
G02*
X64551500Y-125614000I172500J0D01*
G01*
X64896500Y-125614000D01*
G75*
G02*
X65069000Y-125786500I0J-172500D01*
G01*
X65069000Y-126181500D01*
G75*
G02*
X64896500Y-126354000I-172500J0D01*
G01*
X64551500Y-126354000D01*
G75*
G02*
X64379000Y-126181500I0J172500D01*
G01*
G37*
G36*
G01*
X63409000Y-126181500D02*
X63409000Y-125786500D01*
G75*
G02*
X63581500Y-125614000I172500J0D01*
G01*
X63926500Y-125614000D01*
G75*
G02*
X64099000Y-125786500I0J-172500D01*
G01*
X64099000Y-126181500D01*
G75*
G02*
X63926500Y-126354000I-172500J0D01*
G01*
X63581500Y-126354000D01*
G75*
G02*
X63409000Y-126181500I0J172500D01*
G01*
G37*
G36*
G01*
X71514000Y-124911500D02*
X71514000Y-124516500D01*
G75*
G02*
X71686500Y-124344000I172500J0D01*
G01*
X72031500Y-124344000D01*
G75*
G02*
X72204000Y-124516500I0J-172500D01*
G01*
X72204000Y-124911500D01*
G75*
G02*
X72031500Y-125084000I-172500J0D01*
G01*
X71686500Y-125084000D01*
G75*
G02*
X71514000Y-124911500I0J172500D01*
G01*
G37*
G36*
G01*
X70544000Y-124911500D02*
X70544000Y-124516500D01*
G75*
G02*
X70716500Y-124344000I172500J0D01*
G01*
X71061500Y-124344000D01*
G75*
G02*
X71234000Y-124516500I0J-172500D01*
G01*
X71234000Y-124911500D01*
G75*
G02*
X71061500Y-125084000I-172500J0D01*
G01*
X70716500Y-125084000D01*
G75*
G02*
X70544000Y-124911500I0J172500D01*
G01*
G37*
G36*
G01*
X62681500Y-127391000D02*
X62286500Y-127391000D01*
G75*
G02*
X62114000Y-127218500I0J172500D01*
G01*
X62114000Y-126873500D01*
G75*
G02*
X62286500Y-126701000I172500J0D01*
G01*
X62681500Y-126701000D01*
G75*
G02*
X62854000Y-126873500I0J-172500D01*
G01*
X62854000Y-127218500D01*
G75*
G02*
X62681500Y-127391000I-172500J0D01*
G01*
G37*
G36*
G01*
X62681500Y-128361000D02*
X62286500Y-128361000D01*
G75*
G02*
X62114000Y-128188500I0J172500D01*
G01*
X62114000Y-127843500D01*
G75*
G02*
X62286500Y-127671000I172500J0D01*
G01*
X62681500Y-127671000D01*
G75*
G02*
X62854000Y-127843500I0J-172500D01*
G01*
X62854000Y-128188500D01*
G75*
G02*
X62681500Y-128361000I-172500J0D01*
G01*
G37*
G36*
G01*
X68860750Y-124098000D02*
X69823250Y-124098000D01*
G75*
G02*
X70092000Y-124366750I0J-268750D01*
G01*
X70092000Y-124904250D01*
G75*
G02*
X69823250Y-125173000I-268750J0D01*
G01*
X68860750Y-125173000D01*
G75*
G02*
X68592000Y-124904250I0J268750D01*
G01*
X68592000Y-124366750D01*
G75*
G02*
X68860750Y-124098000I268750J0D01*
G01*
G37*
G36*
G01*
X68860750Y-122223000D02*
X69823250Y-122223000D01*
G75*
G02*
X70092000Y-122491750I0J-268750D01*
G01*
X70092000Y-123029250D01*
G75*
G02*
X69823250Y-123298000I-268750J0D01*
G01*
X68860750Y-123298000D01*
G75*
G02*
X68592000Y-123029250I0J268750D01*
G01*
X68592000Y-122491750D01*
G75*
G02*
X68860750Y-122223000I268750J0D01*
G01*
G37*
G36*
G01*
X67366500Y-123838000D02*
X67761500Y-123838000D01*
G75*
G02*
X67934000Y-124010500I0J-172500D01*
G01*
X67934000Y-124355500D01*
G75*
G02*
X67761500Y-124528000I-172500J0D01*
G01*
X67366500Y-124528000D01*
G75*
G02*
X67194000Y-124355500I0J172500D01*
G01*
X67194000Y-124010500D01*
G75*
G02*
X67366500Y-123838000I172500J0D01*
G01*
G37*
G36*
G01*
X67366500Y-122868000D02*
X67761500Y-122868000D01*
G75*
G02*
X67934000Y-123040500I0J-172500D01*
G01*
X67934000Y-123385500D01*
G75*
G02*
X67761500Y-123558000I-172500J0D01*
G01*
X67366500Y-123558000D01*
G75*
G02*
X67194000Y-123385500I0J172500D01*
G01*
X67194000Y-123040500D01*
G75*
G02*
X67366500Y-122868000I172500J0D01*
G01*
G37*
G36*
G01*
X72587500Y-127391000D02*
X72192500Y-127391000D01*
G75*
G02*
X72020000Y-127218500I0J172500D01*
G01*
X72020000Y-126873500D01*
G75*
G02*
X72192500Y-126701000I172500J0D01*
G01*
X72587500Y-126701000D01*
G75*
G02*
X72760000Y-126873500I0J-172500D01*
G01*
X72760000Y-127218500D01*
G75*
G02*
X72587500Y-127391000I-172500J0D01*
G01*
G37*
G36*
G01*
X72587500Y-128361000D02*
X72192500Y-128361000D01*
G75*
G02*
X72020000Y-128188500I0J172500D01*
G01*
X72020000Y-127843500D01*
G75*
G02*
X72192500Y-127671000I172500J0D01*
G01*
X72587500Y-127671000D01*
G75*
G02*
X72760000Y-127843500I0J-172500D01*
G01*
X72760000Y-128188500D01*
G75*
G02*
X72587500Y-128361000I-172500J0D01*
G01*
G37*
G36*
G01*
X69225000Y-128326500D02*
X69225000Y-128721500D01*
G75*
G02*
X69052500Y-128894000I-172500J0D01*
G01*
X68707500Y-128894000D01*
G75*
G02*
X68535000Y-128721500I0J172500D01*
G01*
X68535000Y-128326500D01*
G75*
G02*
X68707500Y-128154000I172500J0D01*
G01*
X69052500Y-128154000D01*
G75*
G02*
X69225000Y-128326500I0J-172500D01*
G01*
G37*
G36*
G01*
X70195000Y-128326500D02*
X70195000Y-128721500D01*
G75*
G02*
X70022500Y-128894000I-172500J0D01*
G01*
X69677500Y-128894000D01*
G75*
G02*
X69505000Y-128721500I0J172500D01*
G01*
X69505000Y-128326500D01*
G75*
G02*
X69677500Y-128154000I172500J0D01*
G01*
X70022500Y-128154000D01*
G75*
G02*
X70195000Y-128326500I0J-172500D01*
G01*
G37*
G36*
G01*
X63048500Y-123838000D02*
X63443500Y-123838000D01*
G75*
G02*
X63616000Y-124010500I0J-172500D01*
G01*
X63616000Y-124355500D01*
G75*
G02*
X63443500Y-124528000I-172500J0D01*
G01*
X63048500Y-124528000D01*
G75*
G02*
X62876000Y-124355500I0J172500D01*
G01*
X62876000Y-124010500D01*
G75*
G02*
X63048500Y-123838000I172500J0D01*
G01*
G37*
G36*
G01*
X63048500Y-122868000D02*
X63443500Y-122868000D01*
G75*
G02*
X63616000Y-123040500I0J-172500D01*
G01*
X63616000Y-123385500D01*
G75*
G02*
X63443500Y-123558000I-172500J0D01*
G01*
X63048500Y-123558000D01*
G75*
G02*
X62876000Y-123385500I0J172500D01*
G01*
X62876000Y-123040500D01*
G75*
G02*
X63048500Y-122868000I172500J0D01*
G01*
G37*
G36*
G01*
X68128500Y-120005000D02*
X68523500Y-120005000D01*
G75*
G02*
X68696000Y-120177500I0J-172500D01*
G01*
X68696000Y-120522500D01*
G75*
G02*
X68523500Y-120695000I-172500J0D01*
G01*
X68128500Y-120695000D01*
G75*
G02*
X67956000Y-120522500I0J172500D01*
G01*
X67956000Y-120177500D01*
G75*
G02*
X68128500Y-120005000I172500J0D01*
G01*
G37*
G36*
G01*
X68128500Y-119035000D02*
X68523500Y-119035000D01*
G75*
G02*
X68696000Y-119207500I0J-172500D01*
G01*
X68696000Y-119552500D01*
G75*
G02*
X68523500Y-119725000I-172500J0D01*
G01*
X68128500Y-119725000D01*
G75*
G02*
X67956000Y-119552500I0J172500D01*
G01*
X67956000Y-119207500D01*
G75*
G02*
X68128500Y-119035000I172500J0D01*
G01*
G37*
M02*
